<!--- FIRST ROW OF THE BOOKSHELF -->
<svg version="1.1" id="row1" xmlns="http://www.w3.org/2000/svg" xmlns:xlink="http://www.w3.org/1999/xlink" x="0px" y="0px"
	 viewBox="0 0 1102.4 221" enable-background="new 0 0 1102.4 221" xml:space="preserve">
<g id="pile_4_">
	<g id="yellow_1_">
		
			<rect x="936.2" y="40.9" transform="matrix(0.9965 8.394510e-002 -8.394510e-002 0.9965 14.2396 -79.1516)" fill="#FFB210" width="24.3" height="177.6"/>
		<g>
			
				<rect x="942.7" y="51.4" transform="matrix(0.9965 8.394454e-002 -8.394454e-002 0.9965 7.8486 -79.9611)" fill="#866E5E" width="24.3" height="3.8"/>
			
				<rect x="941.4" y="66.7" transform="matrix(0.9965 8.394510e-002 -8.394510e-002 0.9965 9.1268 -79.7996)" fill="#866E5E" width="24.3" height="3.8"/>
			
				<rect x="931.8" y="180" transform="matrix(0.9965 8.394510e-002 -8.394510e-002 0.9965 18.6068 -78.5982)" fill="#866E5E" width="24.3" height="3.8"/>
			
				<rect x="930.5" y="195.3" transform="matrix(0.9965 8.394518e-002 -8.394518e-002 0.9965 19.8851 -78.4362)" fill="#866E5E" width="24.3" height="3.8"/>
		</g>
	</g>
	<g id="purple_1_">
		<polygon fill="#5E5571" points="1013.5,60 970.8,62.1 978.8,218.4 1022,216.2 1014.2,63.6 1014,59.9 		"/>
		<polygon fill="#403A4D" points="998.5,99.2 989.4,99.7 995.4,217.6 1004.3,217.1 998.4,101.7 998.2,99.2 		"/>
	</g>
	
	
	
	<!-- A TALE FOR THE TIME BEING 
	<a class="hvr-wobble-horizontal" xlink:href="#book2" title="Pick this Book!" xlink:title="Pick this Book!"> -->
		<g id="ataleforthetimebeing">
			<g>
				<rect x="1041.7" y="29.5" fill="#59788D" width="59.3" height="189.8"/>
				<g>
					<rect x="1041.7" y="36.9" fill="#403A4D" width="59.3" height="3.2"/>
					<rect x="1041.7" y="44.3" fill="#403A4D" width="59.3" height="3.2"/>
					<rect x="1041.7" y="51.7" fill="#403A4D" width="59.3" height="3.2"/>
					<rect x="1041.7" y="191.7" fill="#403A4D" width="59.3" height="3.2"/>
					<rect x="1041.7" y="199.1" fill="#403A4D" width="59.3" height="3.2"/>
					<rect x="1041.7" y="206.6" fill="#403A4D" width="59.3" height="3.2"/>
				</g>
			</g>
			<ellipse  class="hidden" fill="#403A4D" cx="1071.4" cy="97.6" rx="26" ry="28"/>
			<g  class="hidden">
				<g>
					<path fill="#59788D" d="M1065.6,87.6L1065.6,87.6l-0.1-0.5l0.1-0.1c0.4,0,0.6,0,0.7-0.1c0.1,0,0.2-0.1,0.3-0.2s0.3-0.4,0.5-1
						l0.8-1.8l2.1-4.8c0.4-0.9,0.8-1.9,1.2-2.8h0.5l3.3,7.8l0.4,1c0.1,0.3,0.3,0.6,0.4,1c0.2,0.3,0.3,0.6,0.4,0.6s0.1,0.1,0.2,0.1
						c0.1,0,0.3,0.1,0.6,0.1l0.1,0.1v0.4l-0.1,0.1c-0.6,0-1-0.1-1.5-0.1c-0.9,0-1.7,0-2.6,0.1l-0.1-0.1v-0.4l0.1-0.1
						c0.6,0,0.9,0,1.1-0.1s0.2-0.1,0.2-0.3c0-0.1,0-0.3-0.1-0.5l-1-2.4h-4.5l-0.9,2c-0.2,0.4-0.2,0.6-0.2,0.8c0,0.1,0.1,0.2,0.2,0.3
						s0.5,0.1,1.1,0.1l0.1,0.1v0.4l-0.1,0.1c-0.7,0-1.3-0.1-1.8-0.1C1066.7,87.5,1066.1,87.5,1065.6,87.6z M1069.1,83.2h4l-2-4.7
						L1069.1,83.2z"/>
				</g>
				<g>
					<path fill="#59788D" d="M1060.4,96.7c0.4,0,0.5,0.1,0.5,0.3l-0.3,1.8l-0.1,3.4c0,1.1-0.2,2.1-0.5,3c-0.3,0.9-0.6,1.7-1.1,2.4
						c-0.4,0.7-0.9,1.2-1.5,1.7c-0.6,0.5-1.2,0.9-1.8,1.2c-0.6,0.3-1.3,0.5-2,0.7c-0.6,0.1-1.3,0.2-1.9,0.2c-1.5,0-2.6-0.3-3.5-1
						c-0.8-0.6-1.3-1.3-1.3-1.9c0-0.3,0.3-0.8,0.9-1.3s1.1-0.8,1.4-0.8c0.4,0,0.6,0.4,0.6,1.1c0,1.2,0.2,2,0.6,2.3
						c0.4,0.4,0.9,0.5,1.5,0.5c1,0,2-0.3,2.8-1c0.8-0.7,1.3-1.5,1.6-2.4s0.4-2.3,0.4-4.1c0-1.8,0.1-3,0.4-3.7
						c0.3-0.7,0.7-1.3,1.4-1.7C1059.3,96.9,1059.9,96.7,1060.4,96.7z M1065.6,92.5c-0.3,2-1.1,2.9-2.5,2.9c-0.5,0-1.4-0.2-2.8-0.7
						s-2.6-0.7-3.6-0.7c-1.3,0-2.4,0.5-3.4,1.5c-1,1-1.4,1.8-1.4,2.5c0,0.7,0.4,1.3,1.3,1.9c0.4,0.2,0.5,0.4,0.5,0.6
						c0,0.2-0.3,0.6-0.8,1c-0.5,0.4-0.9,0.6-1.1,0.6c-0.4,0-0.8-0.2-1.2-0.7c-0.4-0.5-0.6-1-0.6-1.6c0-1.1,0.5-2.4,1.4-3.7
						c0.9-1.3,2.1-2.4,3.6-3.3s3-1.3,4.7-1.3c1.1,0,2.1,0.2,3.1,0.5c1,0.3,1.6,0.5,1.8,0.5c0.2,0,0.4-0.1,0.6-0.2l0.1,0L1065.6,92.5z
						"/>
					<path fill="#59788D" d="M1077.3,108.1c-1.5,1.4-2.5,2.3-3.1,2.7c-0.6,0.4-1.2,0.6-1.8,0.6c-1.4,0-2.1-1.3-2-3.8
						c-0.9,1.3-1.8,2.3-2.5,2.9c-0.8,0.6-1.6,0.9-2.4,0.9c-0.8,0-1.5-0.4-2-1.1c-0.6-0.8-0.8-1.7-0.8-2.8c0-1.4,0.4-2.7,1.1-3.9
						c0.8-1.2,1.7-2.2,2.9-3s2.2-1.1,3.1-1.1c1.1,0,1.9,0.5,2.4,1.6l2.8-1.5h0.8l-1.2,4c-0.6,2-0.9,3.4-0.9,4.1
						c0,0.8,0.3,1.2,0.8,1.2c0.4,0,0.7-0.2,1.2-0.6s1-1,1.8-1.7V108.1z M1067.3,108.8c0.9,0,1.8-0.8,2.6-2.3s1.2-3,1.2-4.3
						c0-0.5-0.1-0.9-0.3-1.2c-0.2-0.3-0.5-0.4-0.9-0.4c-0.9,0-1.8,0.8-2.6,2.3c-0.8,1.5-1.2,3-1.2,4.3c0,0.5,0.1,0.9,0.4,1.2
						C1066.6,108.7,1066.9,108.8,1067.3,108.8z"/>
					<path fill="#59788D" d="M1086.3,108.1c-1.2,1.1-2.3,2-3.3,2.5c-0.9,0.5-1.8,0.8-2.7,0.8c-1,0-1.8-0.4-2.4-1.1
						c-0.6-0.8-0.9-1.8-0.9-3c0-1.9,0.4-4.2,1.2-6.9c0.8-2.7,1.8-5.1,3-7.4l3.5-1.3c0.1,0,0.2-0.1,0.2-0.1c0.3,0,0.5,0.2,0.6,0.6
						c0.2,0.4,0.3,0.9,0.3,1.6c0,1.9-0.4,3.7-1.3,5.4c-0.9,1.7-2.2,3.6-4,5.6c-0.1,0.9-0.1,1.6-0.1,2c0,0.8,0.1,1.4,0.4,1.9
						c0.3,0.5,0.7,0.7,1.2,0.7c0.5,0,1-0.2,1.6-0.5c0.6-0.4,1.4-1.1,2.5-2.2V108.1z M1081.1,102.7c1.2-1.3,2.1-2.7,2.8-4.3
						c0.7-1.6,1.1-3,1.1-4.1c0-0.3,0-0.6-0.1-0.8c-0.1-0.2-0.2-0.3-0.4-0.3c-0.3,0-0.8,0.8-1.5,2.5
						C1082.3,97.3,1081.7,99.7,1081.1,102.7z"/>
					<path fill="#59788D" d="M1096.5,108.1c-1.2,1.1-2.2,2-3.1,2.5c-0.9,0.5-1.9,0.8-3,0.8c-1.2,0-2.2-0.4-3-1.2
						c-0.8-0.8-1.1-1.8-1.1-3.1c0-1.9,0.7-3.7,2-5.2c1.3-1.6,2.8-2.3,4.5-2.3c0.8,0,1.5,0.2,2,0.7c0.5,0.4,0.8,1,0.8,1.7
						c0,1.9-2,3.4-6,4.6c0.4,1.8,1.3,2.7,2.9,2.7c0.6,0,1.2-0.2,1.7-0.5c0.5-0.3,1.4-1,2.5-2.2V108.1z M1089.3,105.5
						c2.3-0.7,3.5-1.9,3.5-3.6c0-0.9-0.3-1.3-1-1.3c-0.6,0-1.2,0.5-1.7,1.4C1089.6,102.9,1089.3,104.1,1089.3,105.5z"/>
				</g>
				<g>
					<path fill="#403A4D" d="M1053.2,143.6v-6.4h4.3v1.1h-3.1v1.6h2.5v1h-2.5v2.6H1053.2z"/>
					<path fill="#403A4D" d="M1058,140.4c0-1.7,1.3-3.2,3.1-3.2c1.8,0,3,1.6,3,3.3c0,1.7-1.3,3.2-3,3.2
						C1059.3,143.6,1058,142,1058,140.4z M1061.1,142.5c1.1,0,1.8-1.1,1.8-2.1c0-1.1-0.7-2.1-1.8-2.1c-1.1,0-1.8,1.1-1.8,2.1
						C1059.3,141.5,1060,142.5,1061.1,142.5z"/>
					<path fill="#403A4D" d="M1065.3,143.6v-6.4h2.8c1.2,0,2,1.1,2,2.1c0,0.8-0.5,1.6-1.2,1.9l1.5,2.4h-1.4l-1.3-2.1h-1.2v2.1H1065.3
						z M1066.5,140.4h1.6c0.5,0,0.8-0.5,0.8-1c0-0.6-0.4-1-0.9-1h-1.5V140.4z"/>
					<path fill="#403A4D" d="M1078.5,138.3h-2v5.3h-1.2v-5.3h-2v-1.1h5.3V138.3z"/>
					<path fill="#403A4D" d="M1084.9,137.2v6.4h-1.2v-2.7h-2.9v2.7h-1.2v-6.4h1.2v2.6h2.9v-2.6H1084.9z"/>
					<path fill="#403A4D" d="M1090.9,142.5v1.1h-4.4v-6.4h4.4v1.1h-3.1v1.5h2.7v1h-2.7v1.7H1090.9z"/>
					<path fill="#403A4D" d="M1066.3,149.3h-2v5.3h-1.2v-5.3h-2v-1.1h5.3V149.3z"/>
					<path fill="#403A4D" d="M1067.3,154.6v-6.4h1.2v6.4H1067.3z"/>
					<path fill="#403A4D" d="M1075.3,154.6v-4.2l-1.6,3.2h-0.7l-1.6-3.2v4.2h-1.2v-6.4h1.3l1.9,3.6l1.9-3.6h1.3v6.4H1075.3z"/>
					<path fill="#403A4D" d="M1082.6,153.5v1.1h-4.4v-6.4h4.4v1.1h-3.1v1.5h2.7v1h-2.7v1.7H1082.6z"/>
					<path fill="#403A4D" d="M1061.5,165.6h-3.1v-6.4h3.4c0.9,0,1.5,0.8,1.5,1.6c0,0.6-0.3,1.2-0.9,1.5c0.7,0.2,1.2,0.8,1.2,1.6
						C1063.5,165,1062.6,165.6,1061.5,165.6z M1059.6,160.3v1.6h1.7c0.4,0,0.8-0.3,0.8-0.8c0-0.5-0.3-0.8-0.7-0.8H1059.6z
						 M1061.5,162.9h-1.9v1.7h1.8c0.5,0,0.8-0.4,0.8-0.8C1062.3,163.2,1062,162.9,1061.5,162.9z"/>
					<path fill="#403A4D" d="M1069.2,164.5v1.1h-4.4v-6.4h4.4v1.1h-3.1v1.5h2.7v1h-2.7v1.7H1069.2z"/>
					<path fill="#403A4D" d="M1070.4,165.6v-6.4h1.2v6.4H1070.4z"/>
					<path fill="#403A4D" d="M1074.4,161.5v4.1h-1.2v-6.4h1l3.3,4.2v-4.2h1.2v6.4h-1L1074.4,161.5z"/>
					<path fill="#403A4D" d="M1084.6,164.9c-0.5,0.5-1.1,0.8-1.7,0.8c-1.6,0-3-1.6-3-3.3c0-1.7,1.3-3.2,3-3.2c1.2,0,2,0.5,2.4,1.4
						l-0.9,0.7c-0.3-0.6-0.9-1-1.5-1c-1,0-1.7,1-1.7,2.1c0,1.2,0.8,2.1,1.8,2.1c0.6,0,1.1-0.3,1.6-0.9v-0.4h-1.3v-0.9h2.3v3.3h-1
						V164.9z"/>
				</g>
			</g>
		</g>
	
	<!-- </a> / A TALE FOR THE TIME BEING -->
	
	
</g>
<g id="pile_3_">
	<g id="yellowStars">
		<g>
			<rect x="726.4" y="171.9" fill="#FFB210" width="169.4" height="46.4"/>
		</g>
		<rect x="760.3" y="181.3" fill="#FFCC61" width="101.4" height="27.6"/>
		<polygon fill="#FFCC61" points="740.9,186.7 742.7,192.3 748.7,192.3 743.9,195.8 745.7,201.5 740.9,198 736.1,201.5 737.9,195.8 
			733.1,192.3 739,192.3 		"/>
		<polygon fill="#FFCC61" points="878.7,185.7 880.5,191.3 886.5,191.3 881.7,194.8 883.5,200.5 878.7,197 873.9,200.5 875.7,194.8 
			870.9,191.3 876.9,191.3 		"/>
	</g>
	<g id="purple">
		<path fill="#5E5571" d="M911.8,165.4h-136c0,0-15,0.4-15-14.5c0-14.9,14.7-13.7,14.7-13.7h135.2c0,0-9.1,4.3-9.1,14.1
			C901.7,161.1,911.8,165.4,911.8,165.4z"/>
		<path fill="#F0F0F0" d="M906.9,162h-131c0,0-11-0.8-11-10.9s9.5-10.1,9.5-10.1h132c0,0-2.1,3.9-2.1,9.9
			C904.2,157.6,906.9,162,906.9,162z"/>
		<polygon fill="#5E5571" points="782.1,167.9 785.8,164.8 789.7,168 789.6,151.3 782,151.2 		"/>
	</g>
	<g id="blue_2_">
		<rect x="776.7" y="98.8" fill="#59788D" width="144.7" height="34.2"/>
		<rect x="891.2" y="98.8" fill="#FFFFFF" width="3.7" height="34.2"/>
		<rect x="798.7" y="98.8" fill="#FFFFFF" width="3.7" height="34.2"/>
		<rect x="882" y="98.8" fill="#FFFFFF" width="2.7" height="34.2"/>
	</g>
</g>
<g id="pile">
	<g id="bigPurple">
		<g>
			<g>
				<rect x="604.5" y="0" fill="#5E5571" width="44.2" height="219.3"/>
			</g>
			<rect x="613.7" y="10" fill="#403A4D" width="25.7" height="55.3"/>
		</g>
		<g>
			<path fill="#403A4D" d="M642.7,184.6l0,0.3c-0.9,0.2-1.9,0.6-3,1.2c0.3,0.5,0.6,1,0.9,1.6c0.3,0.6,0.4,1.1,0.4,1.7
				c0,1.5-0.6,2.8-1.7,4c-1,1.1-2.3,1.8-3.8,2.2c0.8,0.8,1.2,1.9,1.2,3.1c0,1.8-0.6,3.5-1.8,4.9c-1.2,1.5-2.7,2.2-4.5,2.2
				c-1.3,0-2-0.8-2-2.4c0-1.3,0.4-2.6,1.3-3.9c1-1.4,2.2-2.4,3.7-2.8l0.2,0.1l-0.1,0.3c-1.1,0.2-2.2,1.1-3.2,2.5
				c-1,1.5-1.5,2.8-1.5,3.9c0,0.4,0.1,0.8,0.3,1.1c0.2,0.4,0.5,0.5,0.9,0.5c1.2,0,2.4-1.1,3.6-3.2c1.1-1.9,1.6-3.6,1.6-4.9
				c0-0.6-0.1-1.1-0.4-1.5c-0.8,0.1-1.2,0.2-1.2,0.2c-0.4,0-0.8-0.1-1.3-0.2c-0.6-0.2-0.9-0.4-0.9-0.6c0-0.4,0.4-0.6,1.2-0.6
				c0.9,0,1.6,0.2,2.1,0.7c1.3-0.1,2.4-1,3.4-2.7c1-1.6,1.4-3,1.4-4.4c0-0.5-0.2-1-0.5-1.6c-3.1,2-5.6,4.7-7.7,8.3
				c-2.3,3.9-4.3,6.6-6,8.1c-2.5,2.2-5.7,3.4-9.6,3.6c-1,0.1-1.8-0.1-2.6-0.5c-1-0.5-1.5-1.1-1.5-2c0-0.2,0.1-0.3,0.4-0.5
				c0.3-0.2,0.5-0.3,0.7-0.3c0.1,0,0.2,0.1,0.4,0.3c0.1,0.2,0.2,0.3,0.2,0.4c0,0.4-0.4,0.6-1.1,0.6c0.1,0.4,0.6,0.8,1.4,1.1
				c0.7,0.3,1.3,0.4,1.9,0.4c2.7,0,5.6-1.5,8.7-4.3c1.3-1.2,3.8-4.1,7.5-8.6c2.9-3.6,5.3-5.8,7-6.7l0.1-0.2c-0.1-0.4-0.8-1-2.2-1.6
				c-1.4-0.7-2.3-0.9-2.9-0.9c-0.1,3.2-1.5,6.2-4.4,9c-2.8,2.6-5.7,4-8.7,4c-0.9,0-1.7-0.3-2.3-0.8c-0.6-0.5-0.9-1.3-0.9-2.2
				c0.1-3.2,1.6-5.8,4.6-7.9c2.7-1.9,5.7-2.8,9-2.8c0.6,0,1.2,0.1,1.8,0.2l0.1-0.3c0-1.2-0.7-2.1-2-2.9c-1.2-0.6-2.4-1-3.6-1
				c-2.3,0-4.6,0.7-7,2c-2.5,1.4-4.2,3-5.2,5l-0.9,0.8c0.8-1.8,1.8-3.3,3-4.5c0.9-0.9,2-1.6,3.2-2.2c0.7-0.3,1.4-0.6,2.2-0.9
				c1.3-0.5,3.2-0.7,5.6-0.7c1.3,0,2.5,0.5,3.5,1.4c1,0.9,1.6,2,1.9,3.3c1.4,0.3,2.4,0.6,3,1c0.6,0.3,1.5,0.9,2.6,1.9
				c0.8-0.4,1.8-0.8,3.1-1.3L642.7,184.6z M633.1,183.4c-0.6-0.2-1.3-0.3-2-0.3c-3.2,0-6.1,0.9-8.8,2.8c-2.9,2-4.4,4.4-4.4,7.2
				c0,1.9,0.9,2.8,2.8,2.6c2.5,0.1,5.2-1.3,8.1-4.2C631.6,188.6,633.1,185.9,633.1,183.4z M634,195.2c-0.7-0.3-1.2-0.4-1.5-0.4
				c-0.5,0-0.7,0.1-0.7,0.4c0.8,0.1,1.1,0.2,0.9,0.2C633,195.4,633.4,195.3,634,195.2z"/>
		</g>
	</g>
	
	
	<!-- CRIME AND PUNISHMENT 
	<a  class="floatOnHover" xlink:href="#book2" title="Pick this Book!" xlink:title="Pick this Book!">  -->
		<g id="crimeandpunishment">
			<g>
				<g>
					
						<rect x="658.5" y="31.3" transform="matrix(-0.9974 7.256766e-002 -7.256766e-002 -0.9974 1360.277 200.055)" fill="#403A4D" width="36.1" height="187"/>
				</g>
				
					<rect x="667.9" y="27.1" transform="matrix(7.256759e-002 0.9974 -0.9974 7.256759e-002 664.6524 -629.0255)" fill="#5E5571" width="5.3" height="31.5"/>
				
					<rect x="668.5" y="35.4" transform="matrix(7.256759e-002 0.9974 -0.9974 7.256759e-002 673.4824 -621.9367)" fill="#F6B221" width="5.3" height="31.5"/>
				
					<rect x="679" y="180.9" transform="matrix(7.256759e-002 0.9974 -0.9974 7.256759e-002 828.4162 -497.4497)" fill="#F6B221" width="5.3" height="31.6"/>
				
					<rect x="679.6" y="189.2" transform="matrix(7.256759e-002 0.9974 -0.9974 7.256759e-002 837.2462 -490.3609)" fill="#5E5571" width="5.3" height="31.6"/>
			</g>
			<g  class="hidden">
				<path fill="#9486B3" d="M676.5,174.2c-0.1-1.3,0.5-2.3,1.3-2.8l0.8,1c-0.8,0.4-1,1.1-0.9,1.7c0.1,1.3,1.4,1.9,2.5,1.8
					c1.3-0.1,2.3-1,2.2-2.2c0-0.6-0.4-1.3-1.2-1.6l0.6-1.2c1.1,0.3,1.8,1.6,1.9,2.7c0.2,2-1.6,3.5-3.4,3.6
					C678.5,177.5,676.6,176.4,676.5,174.2z"/>
				<path fill="#9486B3" d="M683.3,169.7l-7.1,0.6l-0.2-3.1c-0.1-1.3,1-2.3,2.2-2.4c0.9-0.1,1.8,0.4,2.2,1.1l2.5-1.9l0.1,1.6
					l-2.3,1.7l0.1,1.4l2.4-0.2L683.3,169.7z M679.6,168.6l-0.1-1.7c0-0.5-0.6-0.9-1.2-0.8c-0.7,0.1-1.1,0.6-1.1,1l0.1,1.7
					L679.6,168.6z"/>
				<path fill="#9486B3" d="M682.7,162.7l-7.1,0.6l-0.1-1.4l7.1-0.6L682.7,162.7z"/>
				<path fill="#9486B3" d="M682,153.9l-4.7,0.4l3.6,1.5l0.1,0.7l-3.3,2.1l4.7-0.4l0.1,1.4l-7.1,0.6l-0.1-1.5l3.9-2.4l-4.2-1.8
					l-0.1-1.5l7.1-0.6L682,153.9z"/>
				<path fill="#9486B3" d="M680.2,146l1.2-0.1l0.4,4.9l-7.1,0.6l-0.4-4.8l1.2-0.1l0.3,3.4l1.7-0.1l-0.2-3l1.1-0.1l0.2,3l1.8-0.1
					L680.2,146z"/>
				<path fill="#F6B221" d="M680.9,139.9l-0.5,0.6c0.5,0.5,0.8,1.2,0.8,1.9c0.1,1.5-0.8,2.5-1.9,2.5c-0.9,0.1-1.5-0.5-2-1.1
					c-0.6,0.6-1,0.8-1.5,0.9c-1,0.1-1.8-0.7-1.8-1.8c-0.1-1,0.4-1.9,1.4-2c0.8-0.1,1.4,0.4,1.9,1.1l1.3-1.5c-0.4-0.2-1-0.2-1.5-0.2
					l-0.1-1.1c0.9-0.1,1.7,0.1,2.4,0.4l1.4-1.6L680.9,139.9z M676.5,142.9c-0.4-0.5-0.6-0.8-1-0.7c-0.4,0-0.6,0.3-0.5,0.7
					c0,0.4,0.4,0.7,0.7,0.7C675.9,143.6,676.1,143.4,676.5,142.9z M679.7,141.3l-1.6,1.8c0.4,0.4,0.7,0.7,1.1,0.7
					c0.6,0,1-0.6,0.9-1.3C680.1,142,680,141.6,679.7,141.3z"/>
				<path fill="#9486B3" d="M680.7,137.1l-7.1,0.6l-0.2-3c-0.1-1.3,1-2.3,2.2-2.4c1.2-0.1,2.4,0.7,2.5,2l0.1,1.7l2.4-0.2L680.7,137.1
					z M677,136l-0.1-1.6c0-0.5-0.5-0.9-1.2-0.8c-0.7,0.1-1.1,0.5-1.1,1l0.1,1.5L677,136z"/>
				<path fill="#9486B3" d="M676.4,126.2l-3.6,0.3l-0.1-1.4l3.6-0.3c1.9-0.2,3.6,0.6,3.8,2.8c0.2,2.3-1.4,3.2-3.3,3.4l-3.6,0.3
					L673,130l3.6-0.3c1.2-0.1,2.3-0.6,2.2-1.9C678.7,126.5,677.5,126.1,676.4,126.2z"/>
				<path fill="#9486B3" d="M675,121.9l4.5-0.4l0.1,1.4l-7.1,0.6l-0.1-1.1l4.4-4.1l-4.6,0.4l-0.1-1.4l7.1-0.6l0.1,1.1L675,121.9z"/>
				<path fill="#9486B3" d="M679,115.1l-7.1,0.6l-0.1-1.4l7.1-0.6L679,115.1z"/>
				<path fill="#9486B3" d="M673.2,108.2c-0.2,0.2-0.6,1.1-0.5,2c0.1,0.7,0.4,1.1,0.9,1.1c0.6,0,0.7-0.6,0.9-1.7
					c0.2-1.4,0.6-2.3,1.9-2.4c1.5-0.1,2.2,1.1,2.3,2.5c0.1,1.1-0.2,2.2-0.7,3l-1.2-0.5c0.2-0.3,0.8-1.4,0.7-2.4
					c-0.1-0.7-0.3-1.1-0.8-1.1c-0.6,0-0.8,0.8-1,1.9c-0.3,1.4-0.7,2.1-1.8,2.2c-1.4,0.1-2.3-1-2.4-2.4c-0.1-1,0.2-1.9,0.6-2.5
					L673.2,108.2z"/>
				<path fill="#9486B3" d="M670.7,100.2l7.1-0.6l0.1,1.4l-3,0.2l0.3,3.2l3-0.2l0.1,1.4l-7.1,0.6l-0.1-1.4l2.9-0.2l-0.3-3.2l-2.9,0.2
					L670.7,100.2z"/>
				<path fill="#9486B3" d="M677.2,92.2l-4.7,0.4l3.6,1.5l0.1,0.7l-3.3,2.1l4.7-0.4l0.1,1.4l-7.1,0.6l-0.1-1.5l3.9-2.4l-4.2-1.8
					l-0.1-1.5l7.1-0.6L677.2,92.2z"/>
				<path fill="#9486B3" d="M675.3,84.3l1.2-0.1l0.4,4.9l-7.1,0.6l-0.4-4.8l1.2-0.1l0.3,3.4l1.7-0.1l-0.2-3l1.1-0.1l0.2,3l1.8-0.1
					L675.3,84.3z"/>
				<path fill="#9486B3" d="M671.8,81.8l4.5-0.4l0.1,1.4l-7.1,0.6l-0.1-1.1l4.4-4.1l-4.6,0.4l-0.1-1.4l7.1-0.6l0.1,1.1L671.8,81.8z"
					/>
				<path fill="#9486B3" d="M669.5,70.1l0.2,2.3l5.9-0.5l0.1,1.4l-5.9,0.5L670,76l-1.2,0.1l-0.5-5.9L669.5,70.1z"/>
			</g>
		</g>
	<!-- </a> / CRIME AND PUNISHMENT  -->

</g>


<g id="pile_1_">
	<g id="yellowPurple">
		<g>
			<defs>
				<rect id="SVGID_1_" x="313.2" y="61.3" width="36.3" height="158"/>
			</defs>
			<clipPath id="SVGID_2_">
				<use xlink:href="#SVGID_1_"  overflow="visible"/>
			</clipPath>
			<rect x="310" y="60.3" clip-path="url(#SVGID_2_)" fill="#FFB210" width="41.5" height="159.1"/>
			<polygon clip-path="url(#SVGID_2_)" fill="#5E5571" points="350,183.8 313.1,183.8 313.1,192.1 350,192.1 			"/>
			<polygon clip-path="url(#SVGID_2_)" fill="#5E5571" points="350,195.1 313.1,195.1 313.1,199.4 350,199.4 			"/>
			<polygon clip-path="url(#SVGID_2_)" fill="#5E5571" points="349.6,88.5 312.7,88.5 312.7,101.3 349.6,101.3 			"/>
		</g>
	</g>
	<g id="purpleWhite">
		<polygon fill="#5E5571" points="372.3,219.3 354.8,217.5 376.2,21 393.7,22.8 		"/>
		<polygon fill="#FFFFFF" points="377.1,175.2 359.6,173.4 358.5,183.7 376,185.4 		"/>
	</g>
	
	
	<!-- MURAKAMI -->
	
		<g id="murakami">
			<rect x="396.4" y="31.7" fill="#866E5E" width="55.6" height="187.6"/>
			<g>
				<rect x="396.4" y="189.8" fill="#4D3F36" width="55.6" height="11"/>
				<rect x="396.4" y="144.5" fill="#4D3F36" width="55.6" height="36.4"/>
				<g  class="hidden">
					<path fill="#866E5E" d="M400.3,167.6V158h2.3l1,6.4l1.1-6.4h2.3v9.7h-1.4l0-6.8c-0.3,2.1-0.8,4.7-1.1,6.8H403l-1.2-6.8l0,6.8
						H400.3z"/>
					<path fill="#866E5E" d="M408.2,164V158h2v6c0,1.6,0,2.3,0.9,2.3c0.9,0,0.9-0.7,0.9-2.3v-6h2v6.1c0,2-0.4,3.8-2.8,3.8
						C408.6,167.8,408.2,166,408.2,164z"/>
					<path fill="#866E5E" d="M414.9,167.6V158h2.1c1.9,0,3.1,0.7,3.1,2.5c0,0.8-0.1,1.9-1.3,2.4c0.5,1.5,1,3.1,1.5,4.7h-2l-1.1-4.5
						h-0.3v4.5H414.9z M416.9,162h0.6c0.6,0,0.8-1,0.8-1.3c0-0.4-0.1-1.3-0.7-1.3h-0.6V162z"/>
					<path fill="#866E5E" d="M420.6,167.6l2.1-9.7h1.7l2.1,9.7h-1.9l-0.4-2.1h-1.3l-0.4,2.1H420.6z M423,164.4h1l-0.5-3.6L423,164.4z
						"/>
					<path fill="#866E5E" d="M427.1,167.6V158h2v3.7l1.5-3.7h2.2l-2,4l2.1,5.7h-2l-1.5-4.4l-0.4,0.9v3.5H427.1z"/>
					<path fill="#866E5E" d="M432.9,167.6l2.1-9.7h1.7l2.1,9.7h-1.9l-0.4-2.1h-1.3l-0.4,2.1H432.9z M435.4,164.4h1l-0.5-3.6
						L435.4,164.4z"/>
					<path fill="#866E5E" d="M439.5,167.6V158h2.3l1,6.4l1.1-6.4h2.3v9.7h-1.4l0-6.8c-0.3,2.1-0.8,4.7-1.1,6.8h-1.5l-1.2-6.8l0,6.8
						H439.5z"/>
					<path fill="#866E5E" d="M447.4,167.6V158h2v9.7H447.4z"/>
				</g>
			</g>
		</g>
	<!-- / MURAKAMI -->
	
	
	<g id="purpleYellow">
		<rect x="456.8" y="42.2" fill="#5E5571" width="36.2" height="177.1"/>
		<g>
			<g>
				<rect x="456.8" y="179.5" fill="#FFB210" width="36.2" height="9.2"/>
				<rect x="456.8" y="72.7" fill="#FFB210" width="36.2" height="9.2"/>
			</g>
			<g>
				<rect x="456.8" y="117.4" fill="#FFB210" width="36.2" height="26.6"/>
			</g>
		</g>
	</g>
	<g id="yellowBrown">
		<rect x="497.9" y="49.8" fill-rule="evenodd" clip-rule="evenodd" fill="#FFB210" width="31.6" height="169.5"/>
		<rect x="504" y="63.9" fill-rule="evenodd" clip-rule="evenodd" fill="#866E5E" width="19.3" height="32.2"/>
		<rect x="504" y="106.4" fill-rule="evenodd" clip-rule="evenodd" fill="#866E5E" width="7.4" height="102.1"/>
		<rect x="515.9" y="106.4" fill-rule="evenodd" clip-rule="evenodd" fill="#866E5E" width="7.4" height="102.1"/>
	</g>
	<g id="blue_1_">
		
			<rect x="542" y="28.6" transform="matrix(-0.9926 0.1218 -0.1218 -0.9926 1110.8121 179.6607)" fill-rule="evenodd" clip-rule="evenodd" fill="#59788D" width="15.8" height="190.5"/>
		
			<rect x="538.1" y="35" transform="matrix(-0.9926 0.1218 -0.1218 -0.9926 1087.332 52.9472)" fill-rule="evenodd" clip-rule="evenodd" fill="#30414C" width="7.8" height="49.4"/>
	</g>
</g>
<g id="pile_2_">
	
		<rect id="brown" x="29.4" y="53.2" transform="matrix(0.9351 0.3543 -0.3543 0.9351 51.1766 -4.1523)" fill="#866E5E" width="15" height="168.8"/>
	<g id="purpleZ">
		<rect x="77" y="45.7" fill="#403A4D" width="33.6" height="173.6"/>
		<rect x="77" y="45.7" fill="#5E5571" width="33.6" height="47.6"/>
		<path fill="#5E5571" d="M77,96.3v110.5h33.6V96.3H77z M104.3,197.6h-21v-94h21V197.6z"/>
		<rect x="77" y="209.8" fill="#5E5571" width="33.6" height="9.5"/>
		<rect x="91.8" y="45.7" display="none" fill="#5E5571" width="14.1" height="173.6"/>
		<g>
			<ellipse fill="#403A4D" cx="93.9" cy="70" rx="12" ry="17"/>
			<g>
				<path fill="#5E5571" d="M99.1,63.4c0,0.1,0,0.1,0.1,0.1l0.1,0l0,0v0l-0.2,0.2v0l0,0h0.1v0l0,0.1l0,0.1C99.1,64,99,64,99,64
					l0,0.1v0c-0.1,0.1-0.1,0.2-0.3,0.2v0.1c0,0,0.1,0,0.1,0v0c-0.1,0.2-0.2,0.3-0.2,0.3h0l0,0v0l0,0l0,0v0c-0.2,0.1-0.2,0.2-0.2,0.2
					c0,0.2-0.1,0.2-0.1,0.2l-0.1,0c0,0.2-0.1,0.3-0.2,0.4c0,0-0.1,0.1-0.2,0.3c0,0.1-0.1,0.1-0.2,0.2l0,0l0,0.1v0c0,0,0,0.1-0.1,0.1
					l0,0v0.1c0,0-0.1,0.1-0.2,0.2c0,0.1-0.1,0.3-0.3,0.4l0,0l0,0.1c-0.2,0.1-0.3,0.2-0.3,0.2l0,0.1c-0.2,0.2-0.3,0.3-0.4,0.5
					c-0.1,0-0.2,0.1-0.2,0.2l0,0v0c0,0-0.1,0.2-0.4,0.4c-0.1,0.3-0.2,0.5-0.3,0.5l-0.1,0.1h0l-0.1,0l-0.1,0.2h0.1v0h0v0.1
					c-0.1,0.1-0.2,0.2-0.2,0.2C95.1,69.9,95,70,95,70v0.1l0,0c0,0-0.1,0.1-0.2,0.2l-0.1,0.1l0,0h0l-0.2,0.3h0l0,0v0.1
					c0.1,0,0.1,0,0.1,0l0,0h0l-0.1,0c-0.2,0.2-0.3,0.3-0.3,0.4c-0.1,0.2-0.2,0.4-0.3,0.4c-0.1,0.2-0.3,0.3-0.4,0.4l-0.1,0.2l0.1,0v0
					l-0.2,0.2l0,0h0l0.1,0h0l0.1,0.1h0c0,0,0,0.1,0.1,0.1c0,0.1,0,0.1,0,0.1l0.1,0l0,0l0,0v0.1c0,0,0.1,0.1,0.2,0.1
					c0,0.1,0.1,0.2,0.1,0.2c0.1,0.1,0.1,0.1,0.1,0.2h0l0.1,0l0.2,0.3v0h0l0.1,0h0c0,0,0.1,0.1,0.1,0.2l0,0c0.1,0,0.3,0.1,0.3,0.2
					c0.1,0,0.1,0,0.1,0.1l0,0v0c0,0.1,0.1,0.2,0.4,0.3v0l0,0v0c0.1,0,0.2,0.1,0.3,0.2c0.2,0.1,0.4,0.2,0.4,0.3c0,0,0.1,0,0.1,0.1
					l0,0h0l0,0h0l0,0.1h0l0.1,0h0.1c0,0.1,0,0.1,0.1,0.1c0,0,0,0.1,0.1,0.1l0,0.1l0,0h0v0l0,0v0h0.1l0.1,0h0c0,0,0.1,0.1,0.1,0.2
					l0.1,0l0.1,0l0.2,0.1c0,0.1,0.1,0.2,0.2,0.2l0.1,0c0,0.1,0,0.1,0.1,0.1v0l0.1,0l0.2,0.1h0l0.1,0v0l0,0.1l0.1,0l0.2,0.1l0.1,0
					l0.1,0l0.1-0.1l0.1,0h0l0.2,0l0,0l0,0v0l0,0h0c0,0,0,0,0.1-0.1l0,0h0l0,0c0,0,0,0,0-0.1l0.5-0.3c0.1-0.3,0.1-0.4,0.2-0.4l0.1,0
					v0L99.7,75l0,0c0.1,0,0.1-0.1,0.1-0.2l-0.1,0c0-0.1,0-0.1,0-0.1l0,0v0l0.1-0.2c0-0.1-0.1-0.2-0.2-0.3v0l0-0.1L99.6,74l0-0.1
					c-0.1,0-0.1,0-0.1-0.1l0-0.1l-0.1,0v-0.1l0-0.1c-0.1,0-0.2,0-0.2-0.1v-0.2l-0.1,0c0,0-0.1-0.1-0.1-0.2h0v-0.1c0,0,0,0-0.1-0.1
					l-0.1,0l0,0v0l0,0v0c-0.1-0.1-0.1-0.2-0.1-0.2h0l-0.2,0c0-0.1,0-0.1-0.1-0.1c0-0.1,0-0.1-0.1-0.1v-0.1l0,0h-0.1
					c-0.1,0-0.1-0.1-0.2-0.2h0l-0.1,0c-0.1-0.1-0.1-0.1-0.1-0.2c-0.1,0-0.1,0-0.2,0.1c0,0,0-0.1-0.1-0.1v0l-0.1,0c0,0-0.1,0-0.2-0.1
					l-0.2,0v0.1c-0.1,0-0.1,0-0.1-0.1l0-0.1l0,0v0l0,0h0l0,0h0l-0.1,0.1h0l0,0l0-0.1h0v0h0l-0.1,0h-0.1c0,0,0-0.1-0.1-0.1l0,0v-0.1
					c0-0.1,0-0.1,0.1-0.2h0l0.1,0l0.1,0l0.1,0l0.1,0l0,0h0l0.2-0.1l0,0.1l0.2,0v0c0,0.1,0,0.1,0,0.1l0.1-0.1h0
					c0.2,0.1,0.3,0.1,0.3,0.2h0.1c0.2,0,0.3,0.1,0.3,0.2l0,0h0.1v0l0.1,0l0,0h0l0.1,0.1l0.1-0.1h0l0,0v0l0,0v0l0,0h0l0.1,0v0l0,0
					h0.1c0,0,0,0,0.1,0.1l0,0h0c0.2,0.1,0.3,0.1,0.3,0.2l0,0.1h0.1l0.3,0.3l0,0h0c0.1,0,0.2,0.1,0.2,0.3c0.1,0,0.2,0.1,0.3,0.4
					c0,0,0.1,0.1,0.1,0.2c0,0,0.1,0.1,0.1,0.3l0,0l0,0.1l0.1,0.1v0l0,0.1c0.1,0,0.1,0,0.1,0.1c0,0-0.1,0.1-0.1,0.2l0,0v0
					c0,0.1,0,0.2-0.1,0.3l0,0.1l-0.1,0.1v0l0,0.1v0c0,0-0.1,0.1-0.2,0.1l-0.1,0.2v0l0,0v0c0,0-0.1,0.1-0.3,0.2l0,0
					c0,0.1-0.1,0.2-0.3,0.3c0,0.1-0.1,0.1-0.3,0.2l0-0.1c0,0-0.1,0.1-0.2,0.2c-0.1,0-0.1,0.1-0.3,0.2l0-0.1l0-0.1l0,0h0
					c-0.1,0.1-0.2,0.1-0.2,0.1l-0.1-0.1l-0.1,0.1l-0.1,0l0,0h0c-0.1,0-0.2-0.1-0.3-0.1v-0.1l-0.1,0l-0.1,0l0,0h0l-0.1-0.1h-0.1
					l-0.1,0h-0.1c-0.1,0-0.1-0.1-0.1-0.1l0,0h-0.1v-0.1h0l-0.2,0c0,0-0.1-0.1-0.2-0.1l0-0.1h-0.1l-0.1,0.1c0-0.1-0.1-0.2-0.2-0.2
					l0,0v0l0,0h0l-0.2-0.1l-0.1,0l0-0.1l0.1-0.1v0l-0.2,0c-0.1-0.1-0.1-0.2-0.2-0.3l-0.1,0.1l0,0v0l0,0c-0.1,0-0.2-0.1-0.2-0.2
					c-0.1,0-0.1,0-0.2-0.1L95,75.2L94.8,75c0,0,0,0-0.1,0l-0.1-0.1l-0.1,0v0l0-0.1v0h0l-0.2,0v-0.1h-0.1c0-0.1-0.1-0.2-0.3-0.3
					l-0.1,0c0-0.1-0.1-0.1-0.2-0.1c0-0.1-0.1-0.2-0.2-0.2v0l-0.1,0h0c0-0.1-0.1-0.2-0.2-0.2c0,0,0-0.1,0-0.2h0l-0.2,0l0-0.1
					c0,0-0.1,0-0.1-0.1h0l-0.1,0c0-0.1-0.1-0.1-0.1-0.1l-0.1,0l0-0.1l0-0.1c-0.1,0-0.2,0-0.2-0.1c0,0.1-0.1,0.2-0.2,0.2L92,73.4h0
					l0,0l-0.2,0.3c-0.2,0.2-0.4,0.3-0.6,0.4c0,0.1-0.2,0.2-0.4,0.4c0,0-0.1,0.1-0.2,0.2l-0.1,0.1l-0.1,0h0c-0.1,0.1-0.1,0.1-0.2,0.1
					c-0.1,0.1-0.1,0.2-0.2,0.2c0,0,0,0,0-0.1h0c-0.2,0.2-0.3,0.3-0.4,0.3l-0.1,0c0,0-0.1,0.1-0.1,0.2l0,0h0l0,0
					c-0.2,0.1-0.3,0.2-0.3,0.2l0,0c0,0.1-0.1,0.1-0.2,0.2c-0.1,0.1-0.2,0.2-0.4,0.2l-0.2,0c0,0,0,0.1-0.1,0.2l-0.1,0c0,0,0,0-0.1,0
					l-0.1,0l0,0v0l0,0h0l-0.2,0.2h0l0-0.2h0c0,0,0,0.1,0,0.1h0l0-0.2h0l0,0h0l0,0c0.1-0.2,0.1-0.3,0.2-0.4v0l-0.1-0.1l0.2-0.2
					l-0.1-0.1v0l0-0.1l0-0.1l0.1-0.4c0.1-0.1,0.2-0.3,0.4-0.6l0.1-0.2c0,0,0,0,0-0.1c0-0.1,0.1-0.2,0.2-0.2l0.1-0.2
					c0,0,0.1-0.1,0.1-0.2l0,0c0,0,0-0.1,0.1-0.1c0.1-0.1,0.2-0.3,0.5-0.5c0-0.1,0.1-0.2,0.3-0.3c0-0.1,0.1-0.1,0.2-0.2l0.2-0.1
					c0-0.1,0-0.1,0.1-0.2l0.1,0h0l0,0h0l0,0v0c0,0,0.1-0.1,0.2-0.1l0,0l0.1,0c0.1,0,0.2-0.1,0.5-0.2l0.1,0.1h0
					c0.1-0.1,0.2-0.1,0.4-0.1l0,0h0l0.1,0l0.1,0l0.1-0.1l0,0h0l0,0v0.1h0.1l0.5-0.1c0,0.1,0,0.1,0.1,0.1l0.1,0l0,0h0l0.1,0l0,0.1
					l0.2,0c0,0.1,0.1,0.1,0.3,0.1c0,0.1,0.1,0.1,0.2,0.1l0,0h0l0.2-0.2c0,0,0.1-0.1,0.2-0.2l0.1,0c0.1-0.1,0.2-0.2,0.2-0.3l0-0.2
					c0.1-0.1,0.1-0.1,0.2-0.1l0.2-0.1l0-0.1c0.1-0.1,0.2-0.2,0.4-0.3c0,0,0.1-0.1,0.1-0.2c0.2-0.1,0.3-0.2,0.3-0.3h0v-0.1
					c0.1,0,0.3-0.1,0.3-0.3c0.2-0.1,0.2-0.2,0.2-0.3c0,0-0.1,0-0.1,0l0.2-0.2h0.1c0-0.1,0.1-0.1,0.2-0.2c0.1-0.1,0.1-0.2,0.2-0.2
					v-0.1c0,0-0.1,0-0.1,0c0.2-0.1,0.3-0.2,0.3-0.2c0-0.3,0.2-0.5,0.5-0.7l0-0.1c0-0.1,0.1-0.1,0.1-0.1c0.1,0,0.1-0.1,0.2-0.4
					c0.1,0,0.1-0.1,0.1-0.2l0.2-0.3c0.1-0.1,0.1-0.1,0.2-0.1v-0.1c0,0,0.1-0.1,0.1-0.2c0.1-0.1,0.1-0.2,0.2-0.4
					c0.1,0,0.1-0.1,0.2-0.3l0.3-0.5l0.1-0.2v0c-0.1,0-0.2,0.1-0.2,0.2v0l-0.1,0l-0.2,0.1l0,0h0l0,0l0,0v0c0,0.1-0.1,0.2-0.4,0.3v0
					c-0.2,0.2-0.4,0.3-0.6,0.3c0,0,0,0-0.1,0h0v-0.1l-0.1,0l0-0.1h0l-0.1,0l-0.1,0l-0.2,0.1l-0.1,0l-0.1,0l0-0.1l-0.1,0h0l-0.2,0
					c0,0,0,0.1-0.1,0.1l-0.1,0h0l-0.1,0h-0.1l0,0h0l-0.1,0.1h0c0-0.1,0-0.1,0-0.1l-0.1,0l-0.2,0l-0.1,0v0l0-0.1l0,0h0l-0.2,0.1l0,0
					h0l-0.1,0c0,0,0-0.1-0.1-0.1v0l0,0h-0.1l-0.1,0l-0.2,0.1l0,0.1c0,0,0,0,0-0.1l0,0h-0.1v-0.1c0,0-0.1,0-0.2,0.1l-0.1,0l-0.1,0
					l-0.1-0.1l-0.1,0l-0.3-0.1c0,0-0.1,0.1-0.1,0.1l0,0l-0.2,0.1h0c0,0,0,0-0.1-0.1l-0.2,0h0l-0.1,0l-0.1,0c0-0.1,0-0.1-0.1-0.1
					l-0.1,0h0l-0.1-0.1h0l-0.2,0.1l-0.1,0l-0.1,0l0-0.1h0c-0.1,0-0.2,0-0.2,0l-0.2,0.1l0-0.1h0l-0.1,0h-0.1l0-0.1
					c-0.1,0.1-0.2,0.1-0.2,0.1v0l-0.1,0l0,0h0l-0.2,0.1h0v0l-0.2,0h-0.2L89,65.6h0l0,0l0.1-0.1h0c-0.1,0.1-0.2,0.2-0.3,0.2v0
					c-0.1,0-0.2,0.1-0.2,0.1l0,0h0c-0.2,0.2-0.3,0.3-0.3,0.3c0,0.1,0,0.2-0.1,0.2l0,0h0L88,66.3l0,0.2l0,0.1h0l0,0h0l0,0
					c0,0.1-0.1,0.1-0.2,0.1v0c0,0,0,0,0.1,0v0L88,66.9l0,0V67l-0.1,0.2l0,0c0,0.1,0,0.1,0,0.1l0,0v0.2H88v0c0,0,0,0-0.1,0v0.1
					c0.1,0,0.1,0,0.1,0.1l0,0.1l0,0v0l0,0v0l0.1,0.1l0,0v0l0.2,0.3c0.1,0.1,0.2,0.1,0.2,0.2l0.1,0.1l0,0h0c0.1,0,0.1,0.1,0.2,0.1
					c0.1,0,0.1,0.1,0.2,0.2c0.1,0,0.2,0.1,0.3,0.1c0.1,0,0.2,0,0.2,0.1l0.2,0h0l0.1,0.1l0,0.1h0c0.1,0,0.2,0,0.3-0.1l0.1,0l0.1,0
					c0.1,0,0.2,0,0.2,0.1h0l0.1-0.1l0,0l0.2-0.1h0.1l0,0l0.2-0.1h0c0,0,0,0,0,0.1l0,0h0c0-0.1,0.1-0.1,0.3-0.2
					c0-0.1,0.1-0.1,0.2-0.1l0.1,0.1c0.1-0.1,0.2-0.1,0.3-0.3l0.1,0l0.1,0l0.4-0.2c0,0,0.1-0.1,0.4-0.2l0.2,0.2c0,0.1,0,0.1-0.1,0.2
					c0,0,0,0.1,0,0.1l-0.1,0h0v0.1c0,0,0,0-0.1,0.1l-0.1,0c0,0-0.1,0.1-0.2,0.1c0,0.1-0.1,0.1-0.3,0.2c-0.1,0.1-0.2,0.2-0.3,0.2
					c0,0.1-0.2,0.1-0.6,0.2l-0.3,0.1l0,0h0c-0.1,0.1-0.3,0.2-0.4,0.2l-0.1,0l-0.1,0h0c0,0,0,0,0-0.1h0l-0.1,0.1c0,0-0.1-0.1-0.2-0.1
					l-0.1,0l-0.1,0c0,0,0,0.1,0,0.1h0l-0.1-0.1l0,0h-0.1l0-0.1L89,69.5v-0.1h0l-0.1,0h0c0,0,0,0,0-0.1c-0.1,0-0.1,0-0.1,0l-0.2,0.1
					l-0.1,0v-0.1l0,0c0,0,0,0-0.1,0c0-0.1,0-0.1-0.1-0.1c0,0,0-0.1,0-0.1l-0.1,0l-0.1,0c0-0.1,0-0.1-0.1-0.1v-0.1
					c0-0.1,0-0.1-0.1-0.1v0l0-0.1c0,0-0.1-0.1-0.2-0.1l0-0.2c-0.1,0-0.1,0-0.1-0.1l0,0c0,0-0.1-0.1-0.1-0.2v-0.1l0,0
					c0-0.1,0-0.1-0.1-0.1h0v0l0.1-0.1l0-0.1l0.1-0.1l0-0.1l0.1-0.3c-0.1,0-0.1,0-0.1-0.1l0.1-0.1l0,0v-0.1l0.1-0.1l0-0.1
					c0-0.1,0-0.2,0.1-0.2v0h-0.1v0l0.1-0.1l0,0v0c0.1-0.1,0.1-0.2,0.2-0.2c0-0.1,0.1-0.2,0.2-0.4c0-0.1,0-0.2,0.1-0.2h0.1l0.1,0
					c0-0.1,0.1-0.2,0.2-0.3l0.1,0c0.1-0.2,0.2-0.3,0.2-0.3l0,0l0.1-0.1l0.1,0l0.2-0.2l0,0c0.3-0.1,0.4-0.2,0.5-0.3h0l0,0.1
					c0.1,0,0.4-0.1,0.9-0.2l0.1,0l0.1-0.1h0l0.1,0.1l0.1-0.1c0.1,0,0.2,0,0.2,0.1h0.1c0.1,0,0.1-0.1,0.2-0.1l0.2,0.1l0.2-0.1l0,0.1
					h0l0.1,0h0.1l0,0v0l0,0v0l0,0l0.2-0.1l0,0l0.1,0l0,0h0c0.1,0,0.1,0,0.2-0.1h0c0,0.1,0,0.1,0.1,0.1l0.1-0.1h0c0,0,0,0,0,0.1h0
					c0.1-0.1,0.1-0.1,0.2-0.1h0l0.1,0.1l0.1-0.1h0v0l0,0.1v0l0.2-0.1l0.1,0l0.1,0l0,0v0l0.1,0l0,0.1h0l0.1-0.1h0.1
					c0,0,0,0.1,0.1,0.1l0.2,0h0l0,0h0c0.1-0.1,0.1-0.1,0.2-0.1v0.1l0.1,0h0v0c0.1,0,0.2,0,0.3-0.1c0,0,0,0,0,0.1l0.2,0h0.1
					c0,0,0,0,0,0.1c0.1,0,0.1-0.1,0.2-0.2h0c0,0,0.1,0,0.1,0.1l0,0h0l0,0l0,0v0h0c0,0,0,0,0.1-0.1l0,0h0l0.1,0l0.1-0.1h0.1v0h0
					l0.1,0l0.1,0.1c0.1-0.1,0.2-0.1,0.2-0.1l0,0.1l0.2-0.1l0.1,0l0,0l0,0l0,0.1h0l0.1-0.1h0v0.1c0.1,0,0.2-0.1,0.5-0.2l0.1,0.1
					C98,64,98.1,64,98.1,64h0l0.1,0c0.2-0.2,0.3-0.3,0.5-0.3l0,0l0.2-0.2L99.1,63.4L99.1,63.4z M87.3,66.8L87.3,66.8L87.3,66.8
					l0,0.1h0L87.3,66.8L87.3,66.8z M88,75.9c0,0,0.1,0,0.1-0.1C88,75.8,88,75.8,88,75.9z M91.1,72.5L91.1,72.5L91.1,72.5l-0.2,0
					l-0.1,0h-0.1l-0.3,0.1l0,0l-0.1,0l0,0h0c0,0-0.1,0.1-0.3,0.1l0,0h0l-0.1-0.1c-0.3,0.2-0.5,0.3-0.7,0.4C89,72.9,89,73,88.9,73.2
					c-0.1,0-0.2,0.1-0.2,0.2l-0.1,0.1v0l0,0.1l0,0l0,0c-0.1,0-0.1,0.1-0.1,0.1v0.1h0v0l0.1,0v0L88.4,74l0,0.2h0
					c-0.1,0-0.1,0.1-0.1,0.3l0,0h0l0,0l0,0v0c0,0.1,0,0.1-0.1,0.1l0,0.1v0.2c0,0.1,0.1,0.1,0.1,0.1v0l-0.1,0.2v0l0.1,0.2l0,0h0
					l0.1,0c0.1-0.1,0.2-0.2,0.3-0.3h0.1l0,0h0c0,0,0.1-0.1,0.2-0.1c0.1-0.1,0.3-0.2,0.4-0.2c0,0,0.1-0.1,0.2-0.2h0v0h0l0.1-0.1l0,0
					v0c0-0.1,0.1-0.2,0.2-0.2l0,0.1l0.4-0.2v0l0-0.1c0,0,0.1-0.1,0.2-0.1v-0.1l0.2,0c0.2-0.1,0.3-0.2,0.3-0.3c0.2,0,0.4-0.1,0.4-0.3
					c0.1-0.1,0.2-0.1,0.2-0.3l0.1-0.1c0.1,0,0.1,0,0.1,0v0c0-0.1,0-0.1-0.1-0.2h-0.1l-0.1,0c0-0.1,0-0.1-0.1-0.2l0,0h0l-0.1,0
					l-0.1,0l0-0.1C91.2,72.4,91.1,72.5,91.1,72.5z M88.5,72.9L88.5,72.9L88.4,73h0v0C88.4,72.9,88.4,72.9,88.5,72.9z M88.5,65.9
					L88.5,65.9L88.5,65.9L88.5,65.9L88.5,65.9z M90.2,74.1L90.2,74.1L90.2,74.1L90.2,74.1L90.2,74.1L90.2,74.1L90.2,74.1z
					 M90.8,72.4L90.8,72.4L90.8,72.4L90.8,72.4L90.8,72.4z M92.5,68L92.5,68L92.5,68L92.5,68L92.5,68L92.5,68z M93.2,71.7L93.2,71.7
					L93.2,71.7L93.2,71.7z M93.7,71.7L93.7,71.7L93.7,71.7L93.7,71.7L93.7,71.7L93.7,71.7z M93.9,70.9c0.1,0,0.1-0.1,0.2-0.1v0h0
					C93.9,70.7,93.9,70.8,93.9,70.9z M96.8,71.7L96.8,71.7L96.8,71.7L96.8,71.7L96.8,71.7z M100.3,75.3L100.3,75.3L100.3,75.3
					L100.3,75.3L100.3,75.3z"/>
			</g>
		</g>
	</g>
	<g id="yellowBookmark">
		<path fill="#EAA30F" d="M120.6,216h121.1c0,0,13,0.5,13-18c0-18.5-12.8-17-12.8-17H120.6c0,0,9.7,5.3,9.7,17.5
			C130.3,210.7,120.6,216,120.6,216z"/>
		<path fill="#F0F0F0" d="M123.5,213.8h117.8c0,0,11.5-1.2,11.5-15.7c0-14.5-10.2-14.5-10.2-14.5H124c0,0,6.3,5.6,6.3,14.3
			C130.3,207.5,123.5,213.8,123.5,213.8z"/>
		<polygon fill="#5E5571" points="232.9,219.2 226.8,215.3 220.4,219.3 220.4,198.5 232.9,198.5 		"/>
	</g>
	<g id="blue">
		<rect x="134.3" y="161.2" fill-rule="evenodd" clip-rule="evenodd" fill="#59788D" width="7.2" height="15.6"/>
		<rect x="143.3" y="161.2" fill-rule="evenodd" clip-rule="evenodd" fill="#59788D" width="142.8" height="15.6"/>
		<rect x="287.9" y="161.2" fill-rule="evenodd" clip-rule="evenodd" fill="#59788D" width="7.2" height="15.6"/>
	</g>
	<g id="yellow">
		<rect x="134.5" y="141.6" fill="#FFB210" width="137.3" height="14.8"/>
		<rect x="205.6" y="141.6" fill="#FFFFFF" width="3" height="14.8"/>
		<rect x="217.5" y="141.6" fill="#FFFFFF" width="4" height="14.8"/>
	</g>
</g>
</svg>
