<!--- SECOND ROW OF THE BOOKSHELF -->
<svg version="1.1" id="row2" xmlns="http://www.w3.org/2000/svg" xmlns:xlink="http://www.w3.org/1999/xlink" x="0px" y="0px"
	 viewBox="0 0 1289 221" enable-background="new 0 0 1289 221" xml:space="preserve">
	 
	<defs>
		<!-- a transparent grey glow with no offset -->
       <filter id="glow" width="1.5" height="1.5" x="-.25" y="-.25">
            <feGaussianBlur id="feGaussianBlur5384" in="SourceAlpha" stdDeviation="5.000000" result="blur"/>
            <feColorMatrix id="feColorMatrix5386" result="bluralpha" type="matrix" values="-1 0 0 0 1 0 -1 0 0 1 0 0 -1 0 1 0 0 0 0.600000 0 "/>
            <feOffset id="feOffset5388" in="bluralpha" dx="0.000000" dy="0.000000" result="offsetBlur"/>
            <feMerge id="feMerge5390">
                <feMergeNode id="feMergeNode5392" in="offsetBlur"/>
                <feMergeNode id="feMergeNode5394" in="SourceGraphic"/>
            </feMerge>
        </filter>
	</defs>
	
<g id="pile_2_">
	<g id="right">
		<g id="yellow_bright">
			
				<rect x="1194" y="75.6" transform="matrix(0.9725 -0.2331 0.2331 0.9725 -0.5546 285.9477)" fill="#FFB210" width="31.3" height="139.5"/>
			
				<ellipse transform="matrix(0.9725 -0.2331 0.2331 0.9725 -0.6221 285.9558)" fill="#FFCC61" cx="1209.6" cy="145.6" rx="11.3" ry="32.5"/>
		</g>
		<g id="purple_yellow">
			
				<rect x="1226.9" y="42.8" transform="matrix(0.9749 -0.2227 0.2227 0.9749 2.6075 280.6732)" fill="#5E5571" width="38.1" height="171.9"/>
			<path fill="#FFB210" d="M1279,204.6l-29.8,6.8L1213,52.9l29.8-6.8L1279,204.6z M1250.3,209.6l26.9-6.1l-35.5-155.5l-26.9,6.1
				L1250.3,209.6z"/>
			
				<rect x="1226.9" y="69.8" transform="matrix(0.9749 -0.2227 0.2227 0.9749 11.7055 277.5948)" fill="#FFB210" width="19.1" height="34.2"/>
		</g>
	</g>
	<g id="middle">
		<g id="tasse">
			<g>
				<path fill-rule="evenodd" clip-rule="evenodd" fill="#5E5571" d="M1155.1,87.9c7.4,0,13.5,8.4,13.5,18.8
					c0,10.4-6,18.8-13.5,18.8v-6.2c4.5,0,8.1-5.6,8.1-12.6c0-7-3.6-12.6-8.1-12.6V87.9z M1155.1,125.5c-7.4,0-13.5-8.4-13.5-18.8
					c0-10.4,6-18.8,13.5-18.8v6.2c-4.5,0-8.1,5.6-8.1,12.6c0,7,3.6,12.6,8.1,12.6V125.5z"/>
				<path fill-rule="evenodd" clip-rule="evenodd" fill="#5E5571" d="M1102.3,70.4h45.8c3.7,0,6.7,3,6.7,6.7v58.4
					c0,3.7-3,6.7-6.7,6.7h-45.8c-3.7,0-6.7-3-6.7-6.7V77.1C1095.7,73.4,1098.7,70.4,1102.3,70.4z"/>
			</g>
			<path fill="#9486B3" d="M1112.1,120.8c0.1-0.7,0.3-1.4,0.4-2.2c0-0.2,0.1-0.3,0-0.5c-0.3-0.7,0.2-0.9,0.6-1.3
				c0.6-0.6,1.1-1.3,1.6-2c0.8-1,1.5-2,2.3-3c0.3-0.4,0.5-0.9,0.6-1.4c0.2-0.7,0.6-1.4,1-2.1c0.2-0.4,0.5-0.9,0.8-1.3
				c0.1-0.1,0.1-0.3,0.2-0.4c0.9-1.1,0.9-2.3,0.7-3.6c-0.1-0.5-0.7-0.9-1-1.4c0,0-0.1,0-0.1-0.1c-0.9-0.9-1.9-1.8-2.8-2.7
				c-0.2-0.2-0.5-0.4-0.8-0.2c-0.8,0.4-1.5,0.2-2.3-0.3c-0.7-0.5-1.1-1.1-1.2-2c0-0.2-0.1-0.4-0.3-0.5c-0.6-0.9-0.7-1.7-0.2-2.7
				c0.3-0.5,0.3-1.2,0.9-1.4c0.3-0.2,0.7-0.3,1.1-0.3c0.6,0,0.7-0.1,0.7-0.7c0-0.1,0-0.1,0-0.2c-0.1-0.7-0.1-0.7,0.6-0.7
				c0.2,0,0.5-0.1,0.7-0.3c1.5-2,3.3-3.4,5.5-4.5c0.9-0.4,1.8-0.9,2.8-1.1c1.1-0.3,2.3-0.6,3.4-0.4c1.6,0.2,3.2,0.2,4.7,0.7
				c1.6,0.5,3.1,1.2,4.2,2.6c0.2,0.2,0.5,0.3,0.7,0.5c0.4,0.4,0.9,0.8,1.3,1.2c0,0,0,0.1,0,0.1c0,0.6,0,1.2-0.1,1.8
				c-0.1,0.5-0.3,0.9-0.9,1.2c-0.1,0-0.1,0.4-0.2,0.6c0,0.4,0,0.9,0,1.3c0,0.2,0.2,0.4,0.3,0.7c0,0.1,0.1,0.1,0.1,0.2
				c0.2,0.4,0.3,0.7,0.5,1.1c0.4,0.8,0.9,1.5,1.3,2.3c0.2,0.3,0,0.6-0.3,0.8c-0.3,0.2-0.7,0.4-1,0.5c-0.6,0.2-0.8,0.6-0.7,1.2
				c0,0.1,0.1,0.3,0,0.4c-0.6,0.4-0.4,1.2-0.8,1.7c-0.2,0.2-0.2,0.7-0.1,0.9c0.3,0.7-0.2,1.8-1.1,1.9c-1.1,0.2-2.2,0.4-3.4,0.6
				c-1,0.2-1.6,0.7-2,1.5c-0.5,1.1-0.4,2.1,0.2,3.1c0.3,0.6,0.6,1.1,0.9,1.7c0.1,0.1,0.1,0.4,0,0.5c-0.7,0.5-0.4,1.2-0.2,1.7
				c0.7,1.8,1.7,3.4,3.3,4.5c1.1,0.8,2.3,1.6,3.1,2.8c0.4,0.5,0.6,1.2,1.3,1.5c0.1,0,0.1,0.2,0.1,0.2c0.4,0.7,0.1,1.4-0.1,2.1
				c-0.5,1.5-1.5,2.7-2.5,3.8c-0.6,0.6-1.2,1.3-1.6,2.1c-0.6,1.1-0.4,2.3-0.1,3.5c0.1,0.3,0,0.3-0.3,0.4c-2,0.5-4-0.1-5.8-0.8
				c-2.1-0.8-4-1.8-5.8-3.2c-1.6-1.2-3.1-2.5-4.6-3.7c-1.1-0.8-2.2-1.6-3.4-2.3c-1.4-0.8-1.9-2-2-3.4c0-0.3,0-0.6,0-0.9
				C1112.2,120.8,1112.2,120.8,1112.1,120.8z"/>
		</g>
		<g id="white">
			<path fill="#9486B3" d="M1066.3,146.4h116.3c0,0,7.4-0.5,7.4,16.5c0,16.9-7.3,15.5-7.3,15.5h-116.4c0,0,6.4-4.8,6.4-16
				C1072.7,151.2,1066.3,146.4,1066.3,146.4z"/>
			<path fill="#F0F0F0" d="M1068.4,148.9h112.3c0,0,6.4,1.1,6.4,13.8c0,12.7-5.7,12.7-5.7,12.7h-112.8c0,0,3.5-4.9,3.5-12.6
				C1072.2,154.5,1068.4,148.9,1068.4,148.9z"/>
		</g>
		<g id="blue">
			<rect x="1017.5" y="184.2" fill-rule="evenodd" clip-rule="evenodd" fill="#59788D" width="169.5" height="32.6"/>
			<rect x="1140.6" y="190.5" fill-rule="evenodd" clip-rule="evenodd" fill="#30414C" width="32.2" height="20"/>
			<rect x="1028.3" y="190.5" fill-rule="evenodd" clip-rule="evenodd" fill="#30414C" width="102.1" height="7.6"/>
			<rect x="1028.3" y="202.8" fill-rule="evenodd" clip-rule="evenodd" fill="#30414C" width="102.1" height="7.6"/>
		</g>
		<g id="yellow_1_">
			<g>
				<rect x="1026.3" y="34.3" fill="#FFB210" width="33.6" height="144.3"/>
				<rect x="1026.3" y="34.3" fill="#FFCC61" width="33.6" height="39.6"/>
				<path fill="#FFCC61" d="M1026.3,76.4v91.9h33.6V76.4H1026.3z M1053.6,160.7h-21V82.5h21V160.7z"/>
				<rect x="1026.3" y="170.8" fill="#FFCC61" width="33.6" height="7.9"/>
				<rect x="1041.2" y="34.3" display="none" fill="#FFB210" width="14.1" height="144.3"/>
			</g>
			<ellipse fill="#FFB210" cx="1043.3" cy="53.6" rx="10" ry="13.3"/>
		</g>
		<g id="ornaments">
			<g>
				<g>
					<rect x="971.1" y="69.9" fill="#5E5571" width="35.4" height="146.9"/>
				</g>
			</g>
			<g>
				<g>
					<g>
						<polygon fill="#403A4D" points="990,166.1 990,216.1 991,216.1 991,181.5 991,166.1 						"/>
						<polygon fill="#403A4D" points="997.8,190.7 990,182.2 990,201.1 						"/>
					</g>
					<g>
						<polygon fill="#403A4D" points="986,166.1 986,216.1 985,216.1 985,181.5 985,166.1 						"/>
						<polygon fill="#403A4D" points="977.2,190.7 985,182.2 985,201.1 						"/>
					</g>
				</g>
				<g>
					<g>
						<polygon fill="#403A4D" points="990,120.1 990,170.1 991,170.1 991,135.5 991,120.1 						"/>
						<polygon fill="#403A4D" points="997.8,144.7 990,136.2 990,155.1 						"/>
					</g>
					<g>
						<polygon fill="#403A4D" points="986,120.1 986,170.1 985,170.1 985,135.5 985,120.1 						"/>
						<polygon fill="#403A4D" points="977.2,144.7 985,136.2 985,155.1 						"/>
					</g>
				</g>
				<g>
					<g>
						<polygon fill="#403A4D" points="990,71.1 990,121.1 991,121.1 991,86.5 991,71.1 						"/>
						<polygon fill="#403A4D" points="997.8,95.7 990,87.2 990,106.1 						"/>
					</g>
					<g>
						<polygon fill="#403A4D" points="986,71.1 986,121.1 985,121.1 985,86.5 985,71.1 						"/>
						<polygon fill="#403A4D" points="977.2,95.7 985,87.2 985,106.1 						"/>
					</g>
				</g>
			</g>
		</g>
		
		
		<!-- 1984 class="floatToLeft" 
		<a  class="floatToLeft" xlink:href="#book2" title="Pick this Book!" xlink:title="Pick this Book!"> -->
			<g id="1984">
				<g>
					<rect x="919.5" y="37.8" fill="#866E5E" width="48.1" height="179"/>
					<rect x="919.5" y="55.1" fill="#4D3F36" width="48.1" height="6"/>
					<rect x="919.5" y="101.2" fill="#4D3F36" width="48.1" height="6"/>
				</g>
				<g class="hidden">
					<path fill="#FFCC61" d="M926.8,74.8c2,0,2.4-0.9,2.8-2h1.7v16.1h-2.5V76.6h-2V74.8z"/>
					<path fill="#FFCC61" d="M941.7,84.9c0,2.7-1.2,4.2-3.9,4.2c-2.5,0-3.8-1.5-3.8-4v-0.4h2.4v0.6c0,1.1,0.5,1.6,1.3,1.6
						c0.9,0,1.4-0.4,1.4-2v-2.9h0c-0.4,0.9-1.2,1.4-2.3,1.4c-1.9,0-2.8-1.3-2.8-3.7v-2.9c0-2.6,1.4-4,3.8-4s3.8,1.5,3.8,4V84.9z
						 M939.2,79.4v-2.9c0-1.1-0.5-1.6-1.3-1.6s-1.3,0.4-1.3,1.6v2.9c0,1.1,0.5,1.6,1.3,1.6S939.2,80.6,939.2,79.4z"/>
					<path fill="#FFCC61" d="M947,89.1c-2.6,0-4-1.5-4-4v-1.3c0-1.5,0.5-2.7,1.6-3.3v0c-1.1-0.6-1.6-1.6-1.6-3.2v-0.5
						c0-2.6,1.4-4,4-4c2.6,0,4,1.5,4,4v0.5c0,1.6-0.5,2.6-1.6,3.2v0c1.1,0.6,1.6,1.8,1.6,3.3V85C951,87.6,949.6,89.1,947,89.1z
						 M945.6,77.7c0,1.3,0.6,1.7,1.4,1.7c0.8,0,1.4-0.4,1.4-1.7v-0.9c0-1.4-0.6-1.8-1.4-1.8s-1.4,0.4-1.4,1.8V77.7z M947,86.8
						c0.8,0,1.4-0.4,1.4-1.8v-1.5c0-1.3-0.5-1.8-1.4-1.8c-0.9,0-1.4,0.6-1.4,1.8V85C945.6,86.4,946.2,86.8,947,86.8z"/>
					<path fill="#FFCC61" d="M951.9,83.7l4.6-10.9h2.8v10.9h1.2V86h-1.2v2.9h-2.5V86h-4.8V83.7z M956.7,83.7v-6h0l-2.5,6H956.7z"/>
				</g>
			</g>
		<!--</a>-->
	</g>
	
	<g id="left">
		<g>
			<rect id="blue_x5F_plain" x="747.3" y="179.7" fill="#59788D" width="160.3" height="37.1"/>
			<rect x="864" y="179.7" fill="#FFFFFF" width="3" height="37.1"/>
			<rect x="874.1" y="179.7" fill="#FFFFFF" width="4.1" height="37.1"/>
			<rect x="771.7" y="179.7" fill="#FFFFFF" width="4.1" height="37.1"/>
		</g>
		<g id="purple_1_">
			<polygon fill="#5E5571" points="886.5,37.9 916.7,44.6 889.3,174 859.1,167.4 			"/>
			<g>
				<polygon fill="#FFFFFF" points="880.3,67 910.5,73.6 912,66.9 881.8,60.2 				"/>
				<polygon fill="#FFFFFF" points="882.1,58.6 912.3,65.3 912.9,62.5 882.7,55.8 				"/>
				<polygon fill="#FFFFFF" points="863.8,145.1 894,151.7 895.4,145 865.2,138.3 				"/>
			</g>
		</g>
		<g id="darkpurple">
			<polygon fill="#403A4D" points="866.4,29.8 882.7,33.5 853,172.3 836.7,168.6 			"/>
		</g>
	</g>
</g>

<g id="pile_1_">
	<g id="purple">
		
			<rect x="525.1" y="122.9" transform="matrix(0.2014 0.9795 -0.9795 0.2014 618.2877 -467.3943)" fill="#5E5571" width="141.3" height="45.3"/>
		<polygon fill="#403A4D" points="561.9,92.4 559.5,80.7 603.9,71.6 606.3,83.3 		"/>
		<polygon fill="#403A4D" points="587.2,218.6 584.8,206.9 629.2,197.8 631.6,209.5 		"/>
		<polygon fill="#FFCC61" points="597,116.5 589.4,112.4 584,119.2 575.4,77 588.4,74.4 		"/>
	</g>
	<g id="blue_x5F_purple">
		
			<rect x="450.4" y="112.3" transform="matrix(0.2655 0.9641 -0.9641 0.2655 519.8641 -435.7582)" fill="#59788D" width="191" height="22.1"/>
		
			<rect x="482" y="116.9" transform="matrix(0.2655 0.9641 -0.9641 0.2655 516.9769 -436.9187)" fill="#403A4D" width="126.6" height="7.9"/>
	</g>
	
	
	<!-- JANE EYRE -->
	<a  class="floatLeftOnHover glowOnHover rollover" xlink:href="./index.php?page=eyre" title="Pick this Book!" xlink:title="Pick this Book!"> 
		<g id="jane_eyre">
			<rect x="318" y="165.7" fill="#403A4D" width="205.6" height="52.5"/>
			<g>
				<path fill="#9486B3" d="M416.2,209.8h-10.3c-0.9,0-1.4,0.5-1.4,1.4h-0.1v-4.1h0.1c0,0.4,0.1,0.7,0.4,1s0.6,0.4,1.1,0.4h10.6
					c0.6,0,1.1,0.1,1.5,0.2s0.8,0.4,1,0.6s0.4,0.5,0.5,0.9s0.2,0.6,0.2,0.9c0,0.4-0.1,0.7-0.2,0.9s-0.2,0.5-0.4,0.7s-0.4,0.4-0.6,0.6
					l-0.1-0.1c0.4-0.5,0.6-1,0.6-1.6c0-0.8-0.3-1.3-0.8-1.5S417,209.8,416.2,209.8z"/>
				<path fill="#9486B3" d="M404.2,200.4l11.1-3.9c0.6-0.2,1-0.4,1.2-0.6s0.4-0.4,0.5-0.5s0.1-0.4,0.1-0.6h0.1v4.2h-0.1
					c0-0.4,0-0.8-0.1-1s-0.3-0.4-0.7-0.4c-0.2,0-0.5,0.1-0.8,0.2c0,0-0.1,0-0.1,0L412,199v4.5l3.2,1c0.4,0.1,0.8,0.2,1,0.2
					c0.4,0,0.6-0.1,0.7-0.3s0.2-0.4,0.2-0.8h0.1v3h-0.1c0-0.4-0.2-0.8-0.5-1s-0.7-0.5-1.3-0.7l-11.1-3.7V200.4z M411.5,203.4v-4.1
					l-6.1,2.1v0L411.5,203.4z"/>
				<path fill="#9486B3" d="M404.3,180.5h0.1c0,0.3,0.1,0.6,0.2,0.8s0.3,0.3,0.5,0.4s0.6,0.2,1.1,0.2h11.4v0.1l-11.1,9.9h8
					c0.7,0,1.2,0,1.5-0.1s0.6-0.1,0.7-0.2c0.3-0.2,0.5-0.6,0.5-1.1h0.1v3.2h-0.1c0-0.4-0.1-0.6-0.2-0.8s-0.4-0.3-0.8-0.4
					s-0.9-0.1-1.7-0.1h-8.4l-0.5,0.4c-0.4,0.4-0.7,0.7-0.8,0.9s-0.2,0.5-0.3,0.9h-0.1v-2.4l11-9.8h-8.4c-0.6,0-1.1,0-1.4,0.1
					s-0.6,0.2-0.7,0.4s-0.3,0.5-0.3,1h-0.1V180.5z"/>
				<path fill="#9486B3" d="M404.5,179.3h-0.1v-7.7h2v0.1c-1.1,0-1.6,0.7-1.6,2.2v2.7h5.9v-2.4c0-0.5-0.1-0.9-0.2-1.3s-0.5-0.6-1-0.6
					v-0.1h2.9v0.1c-0.3,0.1-0.6,0.2-0.8,0.3s-0.3,0.3-0.4,0.4s-0.1,0.3-0.1,0.4c0,0.2-0.1,0.4-0.1,0.7v2.5h4.6c0.3,0,0.6-0.1,0.9-0.2
					s0.4-0.4,0.4-0.9v-1.9c0-0.5-0.1-0.8-0.2-1.1s-0.3-0.5-0.6-0.7s-0.5-0.3-0.9-0.4v-0.1l2,0.4v7.7h-0.1v-0.2c0-0.3-0.1-0.5-0.3-0.8
					s-0.6-0.4-1.1-0.4H406c-0.4,0-0.7,0.1-1,0.3s-0.4,0.5-0.4,0.9V179.3z"/>
				<path fill="#9486B3" d="M423.5,212.4h-0.1v-7.7h2v0.1c-1.1,0-1.6,0.7-1.6,2.2v2.7h5.9v-2.4c0-0.5-0.1-0.9-0.2-1.3s-0.5-0.6-1-0.6
					v-0.1h2.9v0.1c-0.3,0.1-0.6,0.2-0.8,0.3s-0.3,0.3-0.4,0.4s-0.1,0.3-0.1,0.4c0,0.2-0.1,0.4-0.1,0.7v2.5h4.6c0.3,0,0.6-0.1,0.9-0.2
					s0.4-0.4,0.4-0.9v-1.9c0-0.5-0.1-0.8-0.2-1.1s-0.3-0.5-0.6-0.7s-0.5-0.3-0.9-0.4v-0.1l2,0.4v7.7h-0.1v-0.2c0-0.3-0.1-0.5-0.3-0.8
					s-0.6-0.4-1.1-0.4H425c-0.4,0-0.7,0.1-1,0.3s-0.4,0.5-0.4,0.9V212.4z"/>
				<path fill="#9486B3" d="M423.3,191.7h0.1c0,0.4,0.1,0.7,0.3,1s0.4,0.5,0.5,0.7s0.4,0.4,0.7,0.5l4.6,3h5.2c0.5,0,0.8-0.1,1-0.4
					s0.4-0.6,0.4-1h0.1v4.1h-0.1c0-0.4-0.1-0.7-0.4-1s-0.6-0.4-1.1-0.4h-5l-4.9,3.3c-0.5,0.4-0.9,0.7-1.1,0.9s-0.3,0.7-0.3,1.1h-0.1
					v-4.6h0.1c0,0.5,0.1,0.8,0.3,0.9s0.4,0.2,0.5,0.2c0.2,0,0.5-0.1,0.8-0.3l4-2.7l-3.6-2.4c-0.5-0.4-1-0.5-1.2-0.5
					c-0.2,0-0.4,0-0.5,0.1s-0.2,0.2-0.2,0.3s-0.1,0.2-0.1,0.3h-0.1V191.7z"/>
				<path fill="#9486B3" d="M423.5,190.7v0.2h-0.2v-4.5c0-0.7,0.1-1.3,0.3-1.8s0.5-0.9,0.8-1.2s0.7-0.5,1.1-0.6s0.8-0.2,1.1-0.2
					c0.5,0,0.9,0.1,1.3,0.3s0.8,0.5,1.1,0.9s0.5,0.9,0.6,1.5h0c0.4-0.8,1.1-1.5,2.2-2.1l2-1.2c0.9-0.5,1.4-1,1.7-1.3s0.4-0.6,0.4-0.9
					h0.1v2.4c-0.1,0.1-0.3,0.2-0.4,0.3s-0.2,0.2-0.4,0.3c-0.1,0.1-0.2,0.1-0.4,0.3s-0.3,0.2-0.3,0.2l-2.6,1.5c-0.5,0.3-0.9,0.6-1.3,1
					s-0.6,0.6-0.7,0.9s-0.2,0.5-0.3,0.8s-0.1,0.5-0.1,0.8h4.7c0.9,0,1.4-0.5,1.4-1.4h0.1v4.1h-0.1c0-0.3-0.1-0.5-0.1-0.7
					s-0.2-0.4-0.4-0.5s-0.5-0.2-0.8-0.2h-9.8c-0.5,0-0.9,0.1-1.1,0.4S423.5,190.4,423.5,190.7z M429.6,188.2v-0.7
					c0-0.8-0.1-1.4-0.3-1.9s-0.5-0.9-1-1.1s-0.9-0.3-1.5-0.3c-0.5,0-1,0.1-1.5,0.3s-0.9,0.5-1.2,1s-0.5,1.1-0.5,1.9
					c0,0.3,0,0.6,0.1,0.8H429.6z"/>
				<path fill="#9486B3" d="M423.5,179.1h-0.1v-7.7h2v0.1c-1.1,0-1.6,0.7-1.6,2.2v2.7h5.9V174c0-0.5-0.1-0.9-0.2-1.3s-0.5-0.6-1-0.6
					v-0.1h2.9v0.1c-0.3,0.1-0.6,0.2-0.8,0.3s-0.3,0.3-0.4,0.4s-0.1,0.3-0.1,0.4c0,0.2-0.1,0.4-0.1,0.7v2.5h4.6c0.3,0,0.6-0.1,0.9-0.2
					s0.4-0.4,0.4-0.9v-1.9c0-0.5-0.1-0.8-0.2-1.1s-0.3-0.5-0.6-0.7s-0.5-0.3-0.9-0.4v-0.1l2,0.4v7.7h-0.1v-0.2c0-0.3-0.1-0.5-0.3-0.8
					s-0.6-0.4-1.1-0.4H425c-0.4,0-0.7,0.1-1,0.3s-0.4,0.5-0.4,0.9V179.1z"/>
			</g>
			<g>
				<g>
					<rect x="330.9" y="165.7" fill="#9486B3" width="7.2" height="52.5"/>
					<rect x="345.9" y="165.7" fill="#9486B3" width="7.2" height="52.5"/>
					<rect x="360.9" y="165.7" fill="#9486B3" width="7.2" height="52.5"/>
				</g>
				<g>
					<rect x="473.5" y="165.7" fill="#9486B3" width="7.2" height="52.5"/>
					<rect x="488.5" y="165.7" fill="#9486B3" width="7.2" height="52.5"/>
					<rect x="503.4" y="165.7" fill="#9486B3" width="7.2" height="52.5"/>
				</g>
			</g>
		</g>
	</a>
	
	
	<g id="brown_stars">
		<rect x="349.6" y="135.7" fill="#866E5E" width="171.5" height="23.8"/>
		<polygon fill="#FFCC64" points="366.1,141.7 368,145.7 372.4,146.3 369.2,149.4 370,153.7 366.1,151.7 362.2,153.7 362.9,149.4 
			359.7,146.3 364.1,145.7 		"/>
		<polygon fill="#FFCC64" points="506.1,141.7 508,145.7 512.4,146.3 509.2,149.4 510,153.7 506.1,151.7 502.2,153.7 502.9,149.4 
			499.7,146.3 504.1,145.7 		"/>
	</g>
	<g id="yellow">
		<rect x="332.1" y="99.7" fill="#FFB210" width="171.8" height="30.7"/>
		<rect x="332.1" y="99.7" fill="#FFB210" width="22.8" height="30.7"/>
		<rect x="354.9" y="99.7" fill="#5E5571" width="5.2" height="30.7"/>
		<rect x="481.1" y="99.7" fill="#FFB210" width="22.8" height="30.7"/>
		<rect x="475.9" y="99.7" fill="#5E5571" width="5.2" height="30.7"/>
		<rect x="373" y="108.9" fill="#FFCC64" width="90" height="11.9"/>
	</g>
	<g id="deathless">
		<g>
			<rect x="359.7" y="69.5" fill="#59788D" width="155" height="25.8"/>
			<g>
				<g>
					<rect x="370.3" y="69.9" fill="#FFFFFF" width="3.8" height="25.8"/>
					<rect x="377.4" y="69.9" fill="#FFFFFF" width="3.8" height="25.8"/>
				</g>
				<g>
					<rect x="493.2" y="69.9" fill="#FFFFFF" width="3.8" height="25.8"/>
					<rect x="500.3" y="69.9" fill="#FFFFFF" width="3.8" height="25.8"/>
				</g>
			</g>
		</g>
	</g>
	<g id="brown">
		<rect x="379.1" y="48.7" fill-rule="evenodd" clip-rule="evenodd" fill="#866E5E" width="129.6" height="17"/>
		<rect x="379.1" y="51.2" fill-rule="evenodd" clip-rule="evenodd" fill="#FFFFFF" width="129.6" height="12"/>
	</g>
</g>
<g id="pile">
	<g>
		
			<rect x="22.6" y="60.1" transform="matrix(0.9708 0.2399 -0.2399 0.9708 34.3118 -6.6412)" fill="#59788D" width="43.7" height="155.1"/>
		<g>
			<g>
				
					<rect x="37" y="76.2" transform="matrix(0.9708 0.2399 -0.2399 0.9708 20.7764 -11.7897)" fill="#403A4D" width="43.7" height="6.5"/>
				
					<rect x="33.6" y="90" transform="matrix(0.9708 0.2399 -0.2399 0.9708 23.9925 -10.5668)" fill="#403A4D" width="43.7" height="6.5"/>
			</g>
			<g>
				
					<rect x="11.6" y="178.7" transform="matrix(0.9708 0.2399 -0.2399 0.9708 44.6324 -2.7166)" fill="#403A4D" width="43.7" height="6.5"/>
				
					<rect x="8.2" y="192.6" transform="matrix(0.9708 0.2399 -0.2399 0.9708 47.8531 -1.4934)" fill="#403A4D" width="43.7" height="6.5"/>
			</g>
		</g>
	</g>
	<g>
		<rect x="87.2" y="47.7" fill="#5E5571" width="31.9" height="170.5"/>
		<rect x="87.2" y="93.3" fill="#FFCC64" width="31.9" height="7"/>
		<rect x="87.2" y="186.2" fill="#FFCC64" width="31.9" height="7"/>
	</g>
	
	
	<!-- TELL THE WOLVES IM HOME 
	<a xlink:href="#book2" title="Pick this Book!" xlink:title="Pick this Book!" alt="pick this book" class="hvr-hang">-->
		<g id="tellthewoles">
				<rect x="129" y="61.5" fill="#403A4D" width="51.1" height="157.4"/>
				<rect x="129" y="73.6" fill="#5E5571" width="51.1" height="133.2"/>
				<g>
					<circle fill="#403A4D" cx="154.5" cy="104.5" r="20"/>
					<path fill="#5E5571" d="M163.3,123.7c0,1.5-0.4,2.8-1.3,4c-1,1.3-2.2,2-3.7,2c-0.9,0-2.1-0.3-3.6-0.8c0.6,0.1,1.1,0.1,1.5,0.1
						c2.1,0,3.1-1,3.1-3c0-2.2-1.2-4-3.5-5.2c-1.2-0.6-3.6-1.3-7-2.1c-2.9-0.7-4.7-1.3-5.3-2c-0.3-0.3-0.6-1.1-1.1-2.4
						c-0.5-1.3-0.7-2.1-0.7-2.6c0-1.7,1.1-3.6,3.3-5.6c0.3-0.3,2.3-1.8,6.1-4.7c2.2-1.7,3.3-3,3.3-3.9c0-0.5-0.3-0.8-0.9-1l-1.3-0.3
						c1.1-0.5,2.3-1.4,3.7-2.8c1.4-1.4,2.3-2.7,2.8-3.8c0.5,0.3,0.8,0.7,0.8,1.2c0,0.2-0.1,0.5-0.4,1.2c0.2,0.3,0.4,0.4,0.6,0.4
						c0.2,0,0.4-0.1,0.7-0.3c0.4-0.2,0.6-0.4,0.6-0.4c-0.6,2.1-1,3.4-1,3.9c0,0.9,0.3,1.6,0.8,2.3v4.7c-0.2,0.1-0.3,0.2-0.3,0.4
						c-0.1,0.3-0.2,0.5-0.2,0.6c-0.1,0.3-0.2,0.8-0.5,1.5c-0.5,0.1-1.1,1.3-1.6,3.7c-0.5,2.1-0.8,3.6-0.8,4.6c0,0.1,0.2,0.6,0.7,1.3
						c0.4,0.7,0.7,1.3,0.8,1.5l-1.1,0.1v0.7C161.5,118.8,163.3,120.9,163.3,123.7z M155,116c-0.5-1.3-1.1-3.2-1.9-5.7
						c0,2.9,0.1,4.8,0.2,5.7C154.4,116,155,116,155,116z M156.4,108.6c-0.1,0-0.2,0-0.4,0.1c-0.2,0.1-0.4,0.1-0.5,0.1v5.9
						c0.2,0.2,0.5,0.4,0.9,0.8c0.1-0.8,0.1-2,0.1-3.5C156.4,110.5,156.4,109.4,156.4,108.6z"/>
				</g>
				<g>
					<g class="hidden">
						<path fill="#9486B3" d="M137.7,154.3v-4.1H137c-0.1,0-0.2,0.1-0.2,0.3v0.4l-0.9-0.1v-1.5h4.7v1.5l-0.9,0.1v-0.4
							c0-0.1,0-0.2,0-0.2c0,0-0.1-0.1-0.2-0.1h-0.6v4.3l0.7,0v0.8h-2.5v-0.7l0.5,0C137.6,154.6,137.7,154.5,137.7,154.3z"/>
						<path fill="#9486B3" d="M145.3,155.3H141v-0.7l0.3,0c0.2,0,0.3-0.1,0.3-0.3v-4.2l-0.5,0v-0.8h4.1v1.5l-0.9,0.1v-0.4
							c0-0.1,0-0.2,0-0.2c0,0-0.1-0.1-0.2-0.1h-1.3v1.5h2.1v0.9h-2.1v1.7h1.4c0.1,0,0.2,0,0.2-0.1c0,0,0-0.1,0-0.2v-0.5l0.9,0.1V155.3
							z"/>
						<path fill="#9486B3" d="M150.2,155.3h-4.3v-0.7l0.3,0c0.2,0,0.3-0.1,0.3-0.3v-4.2l-0.5,0v-0.8h2.2v0.7l-0.3,0
							c-0.2,0-0.3,0.1-0.3,0.3v4h1.5c0.1,0,0.1,0,0.2-0.1s0-0.1,0-0.2v-0.6l0.9,0.1V155.3z"/>
						<path fill="#9486B3" d="M155,155.3h-4.3v-0.7l0.3,0c0.2,0,0.3-0.1,0.3-0.3v-4.2l-0.5,0v-0.8h2.2v0.7l-0.3,0
							c-0.2,0-0.3,0.1-0.3,0.3v4h1.5c0.1,0,0.1,0,0.2-0.1s0-0.1,0-0.2v-0.6l0.9,0.1V155.3z"/>
						<path fill="#9486B3" d="M159.1,154.3v-4.1h-0.7c-0.1,0-0.2,0.1-0.2,0.3v0.4l-0.9-0.1v-1.5h4.7v1.5L161,151v-0.4
							c0-0.1,0-0.2,0-0.2c0,0-0.1-0.1-0.2-0.1h-0.6v4.3l0.7,0v0.8h-2.5v-0.7l0.5,0C159,154.6,159.1,154.5,159.1,154.3z"/>
						<path fill="#9486B3" d="M166.6,154.3v-1.6H164v1.8l0.5,0v0.8h-2.2v-0.7l0.3,0c0.2,0,0.3-0.1,0.3-0.3v-4.2l-0.5,0v-0.8h2.2v0.7
							l-0.3,0c-0.1,0-0.2,0-0.2,0.1s-0.1,0.1-0.1,0.2v1.4h2.5v-1.7l-0.5,0v-0.8h2.2v0.7l-0.3,0c-0.2,0-0.3,0.1-0.3,0.3v4.1l0.5,0v0.8
							H166v-0.7l0.3,0c0.1,0,0.2,0,0.2-0.1C166.6,154.5,166.6,154.4,166.6,154.3z"/>
						<path fill="#9486B3" d="M173.1,155.3h-4.3v-0.7l0.3,0c0.2,0,0.3-0.1,0.3-0.3v-4.2l-0.5,0v-0.8h4.1v1.5l-0.9,0.1v-0.4
							c0-0.1,0-0.2,0-0.2c0,0-0.1-0.1-0.2-0.1h-1.3v1.5h2.1v0.9h-2.1v1.7h1.4c0.1,0,0.2,0,0.2-0.1c0,0,0-0.1,0-0.2v-0.5l0.9,0.1V155.3
							z"/>
						<path fill="#9486B3" d="M140.6,167.8l3-7.7l1.9,0l0.1,7.7l3-7.7h1.4l-4.4,11.3h-2.1l0-7.7l-3,7.7h-2.1l0-10.1
							c-1.1,0.1-2.4,0.2-2.8,0.8c-0.3,0.7-0.2,1.9,0.4,2.8l-2.1,0.9c-0.3-2.2,0-3.6,0.9-4.5c1.3-1.1,3.4-1.3,5.5-1.3L140.6,167.8z"/>
						<path fill="#9486B3" d="M156.6,166c-0.6,0.5-1.2,1-1.8,1.2c-0.4,3.4-3.2,4.7-5,4.1c-1.4-0.5-1.9-1.8-1.8-3.2
							c0.2-1.5,1-3,2.4-3.8c1.4-0.8,3.5-0.9,4.2,0.9c0.1,0.3,0.2,0.6,0.2,1c0.6-0.1,1.2-0.4,1.7-0.8L156.6,166z M153,167.5
							c-0.5-0.1-0.9-0.3-1.4-0.7l0.8-1.1c0.2,0.2,0.4,0.3,0.6,0.4c-0.2-1.1-1.2-2.1-2-0.9c-0.8,1.1-1.4,4.4-0.1,5.1
							C151.6,170.8,152.6,170,153,167.5C153,167.5,153,167.5,153,167.5z"/>
						<path fill="#9486B3" d="M160.4,168.8c-1.1,3.1-5.4,3.9-4.6-0.1l1.6-7.9h2c-0.5,2.5-1.5,7.2-1.8,8.9c-0.3,1.7,1.8,0.4,2.2-1
							H160.4z"/>
						<path fill="#9486B3" d="M165.3,163.8c-1,2-2.4,5.3-3.5,7.5h-2.1l0-7.5h2.1l0,5.1l2.3-5.1H165.3z"/>
						<path fill="#9486B3" d="M171.1,168.8c-1.2,2.2-2.4,2.7-4.1,2.7c-2.8-0.1-2.9-3.7-1.5-5.9c1.1-1.8,3.1-2.1,3.9-1.4
							c0.8,0.6,0.8,1.8,0.3,2.6c-0.7,1.2-1.9,1.7-3.2,1.7c0,0.7,0.3,1.6,0.9,1.9c1.2,0.5,2.4-0.4,3.1-1.5H171.1z M166.6,167.7
							c2.4,0.1,2.6-2.8,2.3-3.1c-0.3-0.2-1,0.1-1.5,0.9c-0.3,0.5-0.6,1.2-0.8,2C166.6,167.6,166.6,167.7,166.6,167.7z"/>
						<path fill="#9486B3" d="M175.3,165.8c0.2-0.4,0.5-1.3-0.4-1.3c-0.3-0.1-0.8,0-1,0.3c-0.5,0.2-0.7,0.6-0.7,0.9
							c0,0.3,0.1,0.4,0.3,0.6c0.3,0.2,0.6,0.5,1.1,0.7c0.4,0.2,0.8,0.5,1.2,0.7c0.3,0.3,0.6,0.6,0.7,0.9c0.8,3.1-5.9,3.9-6.3,1.4
							c-0.1-0.7,0.3-1.5,1.2-1.9l1.1,0.9c-0.9,0.3-1.3,0.8-1.2,1.2c0.2,0.5,1.2,0.6,2,0.3c0.5-0.2,0.9-0.5,1.1-1
							c0.2-0.5-0.3-0.9-0.7-1.3c-0.5-0.3-0.8-0.4-1.2-0.7c-0.4-0.2-0.8-0.6-1-1c-0.6-0.9-0.4-2,0.9-2.5c0.7-0.3,1.5-0.4,2.3-0.3
							c1.1,0.1,2,0.5,2.3,1.3c0.1,0.4,0.1,0.8,0,1.3L175.3,165.8z"/>
						<path fill="#9486B3" d="M136.9,183.3v-4.1l-0.5,0v-0.8h2.2v0.7l-0.3,0c-0.2,0-0.3,0.1-0.3,0.3v4.1l0.5,0v0.8h-2.2v-0.7l0.3,0
							c0.1,0,0.2,0,0.2-0.1C136.9,183.5,136.9,183.4,136.9,183.3z"/>
						<path fill="#9486B3" d="M140.6,177.9l-0.5,2.1c-0.4,0-0.6-0.1-0.8-0.2c-0.1-0.1-0.2-0.2-0.2-0.3s0-0.2,0.1-0.4l0.9-1.5
							L140.6,177.9z"/>
						<path fill="#9486B3" d="M143,178.4l1.5,4.1h0l1.5-4.1h1.8v0.7l-0.3,0c-0.2,0-0.3,0.1-0.3,0.3l0.2,4.1l0.6,0v0.8h-2.2v-0.7l0.3,0
							c0.2,0,0.2-0.1,0.2-0.2l-0.2-3.2h0l-1.4,3.6h-0.9l-1.4-3.6h0l-0.2,3.3l0.6,0v0.8H141v-0.7l0.3,0c0.1,0,0.2-0.1,0.2-0.2l0.2-4.2
							l-0.5,0v-0.8H143z"/>
						<path fill="#9486B3" d="M154.6,183.3v-1.6H152v1.8l0.5,0v0.8h-2.2v-0.7l0.3,0c0.2,0,0.3-0.1,0.3-0.3v-4.2l-0.5,0v-0.8h2.2v0.7
							l-0.3,0c-0.1,0-0.2,0-0.2,0.1s-0.1,0.1-0.1,0.2v1.4h2.5v-1.7l-0.5,0v-0.8h2.2v0.7l-0.3,0c-0.2,0-0.3,0.1-0.3,0.3v4.1l0.5,0v0.8
							H154v-0.7l0.3,0c0.1,0,0.2,0,0.2-0.1C154.6,183.5,154.6,183.4,154.6,183.3z"/>
						<path fill="#9486B3" d="M159.6,178.2c0.7,0,1.3,0.3,1.8,0.8s0.7,1.3,0.7,2.3s-0.2,1.8-0.7,2.3c-0.5,0.5-1.1,0.8-1.9,0.8
							s-1.5-0.3-1.9-0.8c-0.5-0.5-0.7-1.3-0.7-2.3c0-0.6,0.1-1,0.2-1.5s0.4-0.7,0.6-1C158.3,178.5,158.9,178.2,159.6,178.2z
							 M158,181.3c0,1.5,0.5,2.2,1.5,2.2c0.6,0,0.9-0.2,1.2-0.7c0.2-0.4,0.3-0.9,0.3-1.5c0-0.5-0.1-1-0.3-1.4
							c-0.1-0.2-0.3-0.4-0.5-0.6c-0.2-0.1-0.5-0.2-0.8-0.2s-0.6,0.1-0.9,0.3c-0.2,0.2-0.4,0.5-0.5,0.8C158,180.6,158,180.9,158,181.3z
							"/>
						<path fill="#9486B3" d="M164.7,178.4l1.5,4.1h0l1.5-4.1h1.8v0.7l-0.3,0c-0.2,0-0.3,0.1-0.3,0.3l0.2,4.1l0.6,0v0.8h-2.2v-0.7
							l0.3,0c0.2,0,0.2-0.1,0.2-0.2l-0.2-3.2h0l-1.4,3.6h-0.9l-1.4-3.6h0l-0.2,3.3l0.6,0v0.8h-2.1v-0.7l0.3,0c0.1,0,0.2-0.1,0.2-0.2
							l0.2-4.2l-0.5,0v-0.8H164.7z"/>
						<path fill="#9486B3" d="M174.6,184.3h-4.3v-0.7l0.3,0c0.2,0,0.3-0.1,0.3-0.3v-4.2l-0.5,0v-0.8h4.1v1.5l-0.9,0.1v-0.4
							c0-0.1,0-0.2,0-0.2c0,0-0.1-0.1-0.2-0.1h-1.3v1.5h2.1v0.9h-2.1v1.7h1.4c0.1,0,0.2,0,0.2-0.1c0,0,0-0.1,0-0.2v-0.5l0.9,0.1V184.3
							z"/>
					</g>
					<line class="hidden" fill="none" stroke="#9486B3" stroke-miterlimit="10" x1="135" y1="140.6" x2="175" y2="140.6"/>
					<line class="hidden" fill="none" stroke="#9486B3" stroke-miterlimit="10" x1="135" y1="194.6" x2="175" y2="194.6"/>
				</g>
			</g>
	<!--</a>-->

	
</g>
</svg>
