<!--- THIRD ROW OF THE BOOKSHELF -->
<svg version="1.1" id="row3" xmlns="http://www.w3.org/2000/svg" xmlns:xlink="http://www.w3.org/1999/xlink" x="0px" y="0px"
	 viewBox="0 0 1329 221" enable-background="new 0 0 1329 221" xml:space="preserve">
<g id="pile_1_">
	<g>
		
			<rect x="1253.7" y="25.3" transform="matrix(0.957 0.29 -0.29 0.957 90.2193 -360.5404)" fill="#866E5E" width="15.8" height="197.6"/>
		<g>
			
				<rect x="1236.4" y="176" transform="matrix(0.957 0.29 -0.29 0.957 106.0192 -353.0758)" fill="#4D3F36" width="15.8" height="10.3"/>
			
				<rect x="1243.6" y="146" transform="matrix(0.957 0.29 -0.29 0.957 99.4309 -356.1884)" fill="#4D3F36" width="15.8" height="22.8"/>
		</g>
	</g>
	<g>
		<g>
			<polygon fill="#5E5571" points="1329,218.7 1287.6,218.7 1287.6,79.4 1329,79.4 			"/>
			<polygon fill="#FFB210" points="1320,129.7 1296.6,129.7 1296.6,79.4 1320,79.4 			"/>
		</g>
		<rect x="1292.6" y="201.8" fill="#FFB210" width="31.6" height="8.2"/>
	</g>
</g>
<g id="pile">
	<g>
		<rect x="1075.1" y="62.5" fill="#5E5571" width="38.8" height="157"/>
		<path fill="#9486B3" d="M1110,140.9c0,20.2-6.9,36.6-15.5,36.6c-8.6,0-15.5-16.4-15.5-36.6c0-20.2,6.9-36.6,15.5-36.6
			C1103.1,104.3,1110,120.7,1110,140.9z"/>
	</g>
	<g>
		<rect x="1119.9" y="22.2" fill="#59788D" width="15.8" height="197.6"/>
		<g>
			<rect x="1119.9" y="175.4" fill="#4D3F36" width="15.8" height="10.3"/>
			<rect x="1119.9" y="144.3" fill="#4D3F36" width="15.8" height="22.8"/>
		</g>
	</g>
	
	
	<!-- THE BOOK OF LOST THINGS -->
		<a class="bounceOnHover glowOnHover rollover" xlink:href="./index.php?page=canyon" title="Pick this Book!" xlink:title="Pick this Book!"> 
			<g id="thebookoflostthings">
				<g>
					<rect x="1139.6" y="22.6" fill="#5E5571" width="67.9" height="196.1"/>
					<g>
						<rect x="1139.6" y="58" fill="#9486B3" width="67.9" height="128.3"/>
					</g>
					<g>
						<rect x="1139.6" y="183.9" fill="#30414C" width="67.9" height="8.7"/>
						<rect x="1139.6" y="53.6" fill="#30414C" width="67.9" height="8.7"/>
					</g>
				</g>
				<g>
					<path fill="#FFFFFF" d="M1163.2,77.5h5.3v2.2h-1.5v7.5h-2.2v-7.5h-1.5V77.5z"/>
					<path fill="#FFFFFF" d="M1170.2,77.5h2.2v3.6h2v-3.6h2.2v9.8h-2.2v-4.1h-2v4.1h-2.2V77.5z"/>
					<path fill="#FFFFFF" d="M1179,77.5h4.5v2.1h-2.3v1.8h2v2h-2v1.8h2.3v2.1h-4.5V77.5z"/>
					<path fill="#FFFFFF" d="M1158,97.5h2.3c1.3,0,2.3,0.3,2.8,0.8c0.6,0.5,0.9,1.2,0.9,2c0,0.9-0.4,1.5-1.3,2.1
						c1,0.4,1.4,1.1,1.4,2.1c0,0.8-0.3,1.5-0.9,2s-1.4,0.8-2.3,0.8h-2.9V97.5z M1160.3,99.4v2.1c1,0,1.5-0.4,1.5-1
						c0-0.4-0.1-0.7-0.4-0.8C1161.1,99.5,1160.8,99.4,1160.3,99.4z M1160.3,103.3v2.1c0.6,0,1-0.1,1.3-0.3c0.3-0.2,0.4-0.4,0.4-0.8
						c0-0.7-0.5-1-1.5-1H1160.3z"/>
					<path fill="#FFFFFF" d="M1169.2,107.6c-1.2,0-2.1-0.5-2.7-1.4c-0.6-0.9-0.9-2.2-0.9-3.9c0-1.6,0.3-2.8,0.9-3.7
						c0.6-0.9,1.5-1.3,2.6-1.3c1.2,0,2.1,0.4,2.7,1.3c0.6,0.9,0.9,2.1,0.9,3.8s-0.3,2.9-0.9,3.8
						C1171.2,107.1,1170.3,107.6,1169.2,107.6z M1169.1,99.5c-0.8,0-1.2,0.9-1.2,2.8c0,1.2,0.1,2,0.3,2.4c0.2,0.4,0.5,0.6,0.9,0.6
						c0.4,0,0.7-0.2,1-0.6c0.2-0.4,0.3-1.2,0.3-2.4C1170.4,100.4,1169.9,99.5,1169.1,99.5z"/>
					<path fill="#FFFFFF" d="M1177.9,107.6c-1.2,0-2.1-0.5-2.7-1.4c-0.6-0.9-0.9-2.2-0.9-3.9c0-1.6,0.3-2.8,0.9-3.7
						c0.6-0.9,1.5-1.3,2.6-1.3c1.2,0,2.1,0.4,2.7,1.3c0.6,0.9,0.9,2.1,0.9,3.8s-0.3,2.9-0.9,3.8C1179.9,107.1,1179,107.6,1177.9,107.6
						z M1177.8,99.5c-0.8,0-1.2,0.9-1.2,2.8c0,1.2,0.1,2,0.3,2.4c0.2,0.4,0.5,0.6,0.9,0.6c0.4,0,0.7-0.2,1-0.6
						c0.2-0.4,0.3-1.2,0.3-2.4C1179.1,100.4,1178.6,99.5,1177.8,99.5z"/>
					<path fill="#FFFFFF" d="M1183.4,97.5h2.2v4.6h0l2.1-4.6h2.3l-2.3,5l2.2,4.8h-2.4l-1.9-4.1h0v4.1h-2.2V97.5z"/>
					<path fill="#FFFFFF" d="M1170.5,127.6c-1.2,0-2.1-0.5-2.7-1.4c-0.6-0.9-0.9-2.2-0.9-3.9c0-1.6,0.3-2.8,0.9-3.7
						c0.6-0.9,1.5-1.3,2.6-1.3c1.2,0,2.1,0.4,2.7,1.3c0.6,0.9,0.9,2.1,0.9,3.8s-0.3,2.9-0.9,3.8
						C1172.5,127.1,1171.6,127.6,1170.5,127.6z M1170.4,119.5c-0.8,0-1.2,0.9-1.2,2.8c0,1.2,0.1,2,0.3,2.4c0.2,0.4,0.5,0.6,0.9,0.6
						c0.4,0,0.7-0.2,1-0.6c0.2-0.4,0.3-1.2,0.3-2.4C1171.7,120.4,1171.2,119.5,1170.4,119.5z"/>
					<path fill="#FFFFFF" d="M1176,117.5h4.5v2.1h-2.3v1.8h2v2h-2v3.9h-2.2V117.5z"/>
					<path fill="#FFFFFF" d="M1170.9,132.4c0.1,0,0.2,0.1,0.2,0.2h0.2l0.1,0l0.1-0.1c0,0,0.1,0,0.1,0.1l0.1,0h0.1
						c0.1,0.1,0.2,0.2,0.3,0.2h0.1l-0.1,0.2l0,0h0l0.2-0.1v0.2c0.1,0.1,0.2,0.3,0.2,0.4c0.1,0.1,0.2,0.2,0.2,0.3v0.1l-0.1,0.2
						c0.1,0,0.1,0.1,0.1,0.3l-0.1,0.1l0,0.1l-0.1,0.1l0,0h0l-0.1,0.2c0.1,0,0.1,0,0.1,0.1l-0.2,0.3l0.1,0.1v0
						c-0.2,0.1-0.3,0.2-0.3,0.3h0c0.1-0.1,0.1-0.1,0.2-0.1v0c0,0.1-0.1,0.2-0.2,0.3l-0.2,0.3c0,0.1-0.1,0.3-0.3,0.5
						c-0.1,0-0.2,0.2-0.4,0.5c0,0-0.1,0-0.1,0.1h0l0,0v0.1c-0.1,0-0.2,0.1-0.4,0.3l-0.1,0.2c-0.1,0-0.1,0-0.2,0.1l0.1,0.1l-0.1,0.1h0
						v-0.1h-0.1v0.1c0,0.1-0.1,0.1-0.2,0.1h0l0,0c0,0-0.1,0.1-0.4,0.4l-0.1,0v-0.1l-0.1,0.1l0,0v0.1c-0.1,0.1-0.3,0.2-0.7,0.4l0-0.1h0
						l-0.1,0.1v0.1l0.1,0.1c-0.1,0.1-0.2,0.2-0.3,0.2v-0.1h0c-0.2,0.2-0.3,0.3-0.4,0.3c-0.1,0.1-0.2,0.1-0.3,0.3h0c0,0-0.1,0-0.1-0.1
						c0,0-0.1,0-0.1,0.1l0,0c-0.2,0.1-0.3,0.2-0.4,0.2l-0.1,0c0,0-0.1,0.1-0.3,0.2l-0.1,0.1l-0.1,0l-0.3,0.2h0l0,0h0
						c-0.2,0.1-0.2,0.3-0.2,0.4c-0.1,0-0.1,0-0.1,0.1l0.1,0.1l-0.1,0.3h0.1v0l-0.2,0.3l0,0v0.1l-0.4,0.8l0,0h0l0,0.1l-0.1,0.2l0.1,0
						c0,0-0.1,0.2-0.3,0.3c0,0.1-0.1,0.2-0.1,0.2l0,0.2c0,0.1-0.1,0.2-0.4,0.5c0,0.1-0.1,0.1-0.2,0.2l0,0v0l0.1,0.1v0.1
						c0,0-0.1,0.1-0.1,0.2l-0.2,0.2l0,0.1l-0.2,0.2v0.1l0,0l0,0.1l-0.1-0.1l0,0v0.1l0.1,0.1h0l0,0h0l0,0v0l0,0h0l0,0l0,0.1
						c0.1,0,0.2,0,0.2,0.1l0.1,0h0.1c0.1,0,0.2,0.1,0.3,0.2l0.1-0.1h0v0.2l0.1-0.1h0.2c0,0.1,0.1,0.1,0.2,0.2l0.1-0.1h0.1l0.1,0.1h0.2
						v0l0,0.1h0.2c0.1,0,0.1,0,0.2-0.1h0.1c0,0,0.1,0,0.1,0.1c0.1,0,0.1,0,0.1,0.1l0.2,0.1l0.1,0.1c0,0,0.1-0.1,0.2-0.2
						c0.1,0.1,0.1,0.1,0.1,0.2l0.2,0l0,0.1l0.2,0l0.1,0l0,0l0.1,0.1l0.3-0.2l0.1,0.1h0c0,0,0.1,0.1,0.2,0.2l0.3-0.2l0,0v0l0,0.1h0.1
						l0.1,0l0.1,0l0.1,0l0.1,0c0,0.1,0.1,0.1,0.1,0.1c0.1-0.1,0.2-0.1,0.2-0.1l0,0.1l0.3,0h0.1l0.1,0.1l0.3-0.1l0,0v0.1l0,0v0h0
						l0.3-0.1v0c0,0,0.1-0.1,0.2-0.2h0c0,0,0.1,0,0.1,0.1c0.1,0,0.2-0.1,0.3-0.2h0l0.1,0.1l-0.1,0.1v0h0.1c0.1-0.2,0.3-0.2,0.4-0.2
						c0.2,0,0.3-0.1,0.3-0.2c0,0,0.1-0.1,0.1-0.2l0.1-0.1c0-0.1,0-0.1-0.1-0.1v-0.1l0.1-0.2v-0.2c-0.1,0-0.1-0.1-0.1-0.2l0,0h0
						l-0.1-0.2l0.1-0.1v0h0l-0.1,0l-0.1-0.1l-0.1,0c0,0-0.1-0.1-0.2-0.2v0h-0.1c0,0-0.1,0-0.1-0.1l0,0h-0.1l-0.2,0.1v-0.1l-0.1,0
						l0-0.1l-0.2,0l-0.1-0.1l-0.1,0.1h-0.1l-0.1-0.1v-0.1h0c-0.1,0.1-0.3,0.2-0.5,0.2l-0.1,0.1h-0.1c0-0.1-0.1-0.1-0.2-0.1
						c-0.1,0.1-0.1,0.1-0.2,0.2l0-0.1l-0.2,0l-0.2,0l0,0v0l0.1,0.1v0l-0.1,0.1c-0.1,0-0.2,0-0.2-0.1l0-0.1c-0.1,0-0.2,0-0.2-0.1
						l0.3-0.3h0.1c0,0.1,0,0.1,0.1,0.1h0.1c0,0,0.1-0.1,0.1-0.2l0.1-0.1l0.2,0c0.1,0,0.1,0,0.1-0.1h0.1c0.1,0,0.2,0,0.3-0.1
						c0.1,0,0.2,0,0.2,0.1h0.1c0.1-0.1,0.1-0.1,0.2-0.1v0.1h0.1l0,0h0l0,0v-0.1l0.1-0.1h0l0.1,0.2l-0.1,0.1v0l0.5-0.2l0.1,0.1l0,0v0
						c0.1,0,0.2,0,0.2,0.1l0.2-0.1c0,0,0.1,0.1,0.3,0.2l0,0h0l0,0.1l0,0l0.2-0.1c0,0.1,0,0.1,0.1,0.1l0.1,0.1l0.1,0h0v0l0,0.1l0,0h0.1
						c0.1,0.1,0.1,0.1,0.2,0.1v0.1l0,0.1c0.1,0,0.1,0.1,0.2,0.3c0.1,0,0.1,0,0.1,0.1v0c0,0,0,0.1-0.1,0.1l0,0v0.1c0.1,0,0.1,0,0.1,0.1
						l0,0.2l0,0h0l0.1,0.1l-0.1,0.2l0.1,0.1l0.1,0v0c0,0.1,0,0.1-0.1,0.1l0,0.1v0.1l-0.2,0.2l0.1,0.1c-0.2,0.2-0.3,0.3-0.3,0.3l0,0
						v0.1c0,0.1-0.1,0.1-0.2,0.2l0.1,0.1l-0.3,0.1l-0.1,0.1c0.1,0,0.1,0,0.1,0.1l-0.1,0.1l-0.1,0l-0.2,0.1V147h0
						c-0.1,0.1-0.3,0.2-0.5,0.2l-0.1,0.1l-0.1-0.1h0c0,0.1,0,0.1-0.1,0.1l0,0l0,0h-0.1v-0.1h-0.1c0,0.1-0.2,0.1-0.5,0.1l-0.1-0.1
						l-0.3,0.1c0-0.1,0-0.1-0.1-0.1c-0.1,0-0.2,0.1-0.2,0.1l-0.1,0l-0.1,0l0-0.1l-0.2,0.1h0c-0.1,0-0.1-0.1-0.1-0.1h0l-0.1,0v-0.1h0
						l-0.1,0l0,0l0,0V147l-0.3,0.1h0c0-0.1-0.1-0.1-0.2-0.1l0-0.1l-0.1,0l0-0.1l-0.2,0.1v0l0-0.1l-0.2,0.1v0l-0.1-0.1l0,0h-0.1
						c0,0-0.1,0-0.1-0.1c-0.1,0-0.1,0-0.2,0.1c0,0-0.1,0-0.1-0.1l0,0h-0.1l-0.1,0v-0.1l-0.4-0.2c-0.1,0-0.2,0-0.3-0.1l-0.1,0l0,0
						l0.1-0.1v0h0c-0.1,0.1-0.1,0.1-0.2,0.1c0-0.1-0.1-0.2-0.1-0.2l-0.2,0v-0.1h0l-0.1,0.1h-0.1c-0.1,0-0.1-0.1-0.2-0.2
						c-0.1,0.1-0.1,0.1-0.2,0.1l0,0h0l0,0v-0.1c-0.1,0-0.2-0.1-0.3-0.2l0,0h-0.1c0,0-0.1,0-0.1-0.1c-0.2-0.1-0.3-0.1-0.3-0.1
						c-0.1,0-0.3,0.1-0.4,0.2l0,0.1l-0.1,0.1h0l-0.1,0l-0.4,0.2l-0.1,0.1h0l0,0h0l-0.3,0.2c0,0.1-0.1,0.1-0.2,0.2l-0.1-0.1
						c-0.1,0-0.1,0-0.1,0.1l-0.2-0.1l-0.1,0.1l-0.2,0h0c-0.2,0.1-0.3,0.2-0.5,0.2v0l0.1-0.1h0l-0.1,0.1h-0.1l-0.1-0.1
						c0,0.1-0.1,0.1-0.3,0.1l0-0.1l-0.4,0l0,0l-0.2,0.1l0-0.1h-0.1l-0.1,0.1l-0.2,0h-0.1c0-0.1,0-0.1-0.1-0.1l0,0h0l-0.1,0.1h-0.1
						c0-0.1,0-0.2-0.1-0.2h0l-0.3,0.1c0-0.1-0.1-0.1-0.2-0.2l-0.1,0l-0.2,0v0l0.1-0.1l0,0h-0.1c0,0-0.1-0.1-0.1-0.2l-0.1,0l-0.2,0.1
						h-0.1l-0.1-0.1l0-0.1l-0.1-0.1l0,0h-0.1l-0.1-0.1v-0.1h0l-0.1,0l-0.2-0.2c0-0.1,0.1-0.3,0.4-0.4c0-0.1,0.1-0.1,0.2-0.2
						c0,0,0,0.1,0.1,0.1l0.4-0.3h0.1l0.1,0.1l0,0v-0.1l0.3-0.1l0.3-0.1v0l0.1-0.1l0.1,0c0.1,0,0.3-0.1,0.4-0.2h0.1l0.1,0.1l0.2-0.2
						l0.1,0.1l0.1,0c0,0.1,0.1,0.1,0.2,0.1c0,0,0.1-0.1,0.2-0.1l0.3,0h0.2l0.2-0.1v0.1l0,0h0.1v0.1h0.1c0.1,0,0.1,0,0.2-0.1h0.1
						l0.1,0.1c0.1,0,0.2,0,0.3-0.1l0.3,0.3l0.2-0.1l0.2,0.1l0.1-0.1c0,0.1,0.1,0.1,0.2,0.2c0.1,0,0.2-0.1,0.3-0.2
						c0.1,0,0.2-0.1,0.2-0.3l0.1-0.1l0-0.1l0.1-0.1v-0.1l-0.1-0.1l0.2-0.2l-0.1-0.1l0.1-0.1l-0.1-0.1v-0.1l0.1-0.1l0-0.1
						c0.1,0,0.1-0.1,0.2-0.2v0h-0.1c0.1-0.3,0.2-0.5,0.3-0.6c0,0,0-0.1-0.1-0.1v-0.1c0.1-0.2,0.1-0.3,0.3-0.4c-0.1,0-0.1,0-0.1-0.1
						c0-0.1,0-0.1,0.1-0.2l0-0.1c0.1,0,0.2-0.1,0.2-0.2c-0.1,0-0.1,0-0.1-0.1v-0.1c0-0.1,0-0.1,0.1-0.1l0-0.1v0l0,0v0h0l-0.2,0.1
						l-0.1-0.1l-0.1,0.1l-0.1,0c0,0.1-0.2,0.2-0.6,0.3c0,0-0.1,0-0.1-0.1h0l0,0h0l0,0l0,0v0l0,0v0l-0.3-0.1c0,0.1-0.1,0.1-0.4,0.2
						c0,0,0-0.1-0.1-0.1l-0.2,0.1c-0.1,0-0.2,0-0.2-0.1l-0.2,0.1c-0.1,0-0.2,0-0.2-0.1h-0.1l-0.1,0.1l0,0h0c-0.1,0-0.1,0.1-0.1,0.1
						h-0.2v-0.1l-0.2,0.1v-0.1h0l-0.2,0.1l0,0h0l-0.2,0.1h0v-0.1h0c-0.2,0-0.2,0.1-0.2,0.1l-0.2,0c-0.1,0-0.1,0-0.2,0.1h0l-0.1-0.1
						l0,0h0l-0.1-0.1l-0.2,0.1c0,0-0.1-0.1-0.2-0.1l0-0.1l-0.2,0.1l0,0h0c0,0-0.2,0.1-0.5,0.1c0-0.1,0-0.2-0.1-0.2l-0.1,0.1l-0.1-0.1
						l0,0h-0.1c-0.1,0-0.2,0-0.3-0.1l-0.1,0.1l-0.1,0l0,0h0l-0.2-0.1l0,0v0l-0.1,0h-0.1l0-0.1h0l-0.2,0.1h0v0l0,0
						c0-0.1-0.1-0.1-0.2-0.1c0,0.1-0.1,0.1-0.2,0.1l-0.2-0.1c0,0,0-0.1-0.1-0.2l-0.2,0.1h0c0,0-0.1-0.1-0.1-0.2h0l-0.1,0
						c0-0.1-0.1-0.2-0.2-0.2c-0.1,0-0.2,0-0.2-0.1l0-0.1h0c-0.1,0-0.2-0.1-0.3-0.3l-0.1,0l-0.1,0v0c0-0.1,0-0.2-0.1-0.2l0,0
						c0-0.1,0-0.1-0.1-0.1l-0.1,0.1l0-0.2l0,0h-0.1l-0.1-0.1v0l0.1-0.1v-0.1c-0.1-0.1-0.1-0.2-0.2-0.2v0l0,0v0c0,0-0.1-0.1-0.2-0.4
						l-0.1-0.1v-0.1c0.1-0.1,0.1-0.1,0.1-0.2l-0.1-0.1v0l0.1-0.2v0l-0.1-0.1v0c0-0.2,0.1-0.4,0.2-0.5l0-0.1h-0.1v0
						c0-0.2,0.1-0.4,0.4-0.6c0-0.2,0.1-0.3,0.2-0.4c0-0.1,0.1-0.2,0.4-0.3c0,0,0.1-0.1,0.1-0.2l0.1,0.1c0.1,0,0.2-0.1,0.3-0.3
						c0.1-0.1,0.1-0.1,0.2-0.1l0.1,0.1l0.2-0.1c0,0,0.1-0.1,0.1-0.2c0.2-0.1,0.3-0.1,0.5-0.3l0.1,0c0,0,0,0.1,0.1,0.1l0.2-0.2h0
						c0,0,0.1,0,0.1,0.1l0,0h0.1c0.1,0,0.2-0.1,0.3-0.2h0.1l0.1,0.1l0,0h0l0.1,0l0.2,0l0.3-0.1l0.1,0l0.1-0.1l0,0l0.2-0.1l0.1,0.1
						c0.1-0.1,0.3-0.2,0.4-0.2c0,0.1,0,0.2,0.1,0.2l0.5-0.3l0.1,0.2l0.3-0.1l0.2,0.1l0.3-0.1v0l0.1,0l0,0v0c0.2,0,0.3-0.1,0.4-0.1h0.1
						v0.1c-0.1,0-0.1,0-0.1,0.1l0,0l0.3-0.1l0.1,0.1h0l0.1-0.1l0,0h0l0.1,0l0.1,0.1h0.1l0.1-0.1c0.1,0,0.2,0,0.2,0.1l0.1,0.1h0.1
						c0.1,0,0.1,0,0.2-0.1l0.2,0.1l0.1,0c0.1,0.1,0.1,0.2,0.2,0.2l0.3-0.2l0.1,0.1l-0.1,0.1v0h0l0.2-0.1l0.1,0.1l-0.1,0.1l0,0
						c0.1-0.1,0.2-0.1,0.4-0.1c0,0.1,0.1,0.1,0.2,0.1c0,0.1,0,0.1,0.1,0.1l0.1,0l0.1,0.1l0.1-0.1l0.1,0.2c0,0,0,0.1-0.1,0.1l-0.1,0.2
						h0l-0.3-0.1h0l-0.1,0.1h0l-0.2-0.1c0,0.1-0.1,0.1-0.2,0.1l-0.1-0.2l-0.2,0h-0.1l-0.1-0.1h0c0,0-0.1,0.1-0.1,0.2h-0.1
						c-0.1,0-0.1-0.1-0.1-0.2l-0.1,0h-0.1l-0.1-0.1l-0.1,0.1l-0.2,0l-0.1,0.1h0l0,0l-0.2,0.1c-0.1,0-0.1-0.1-0.1-0.2h-0.1l-0.2,0.2
						l-0.1-0.1h-0.1l-0.2,0.1h0v-0.1l0,0v0h0l-0.2,0l-0.1,0l-0.2,0.1l-0.1-0.1l0,0v0l-0.2,0l-0.3,0.1c0,0-0.1-0.1-0.2-0.1
						c0-0.1,0-0.1-0.1-0.1l-0.1,0.1h-0.1l-0.1-0.1l-0.1,0.1h0l-0.1-0.1h0l0-0.1h-0.1c-0.1,0.1-0.2,0.2-0.4,0.2c0,0-0.1-0.1-0.1-0.1
						l-0.3,0.1h0l-0.1-0.1l-1,0.4l-0.2,0c0,0.1-0.1,0.1-0.2,0.1l0,0h0l-0.2,0.1l-0.1,0c0,0.1-0.2,0.2-0.5,0.4c0,0.1-0.1,0.2-0.3,0.3h0
						l0,0h0c-0.1,0.1-0.1,0.1-0.1,0.2l-0.1,0.1l0,0v0l0.1-0.1c-0.2,0.2-0.4,0.3-0.4,0.3l-0.1,0.4l0.1,0.1l-0.1,0.1l0,0l-0.1,0.4
						l0.1,0.1l-0.1,0.1l0,0v0c0,0.1,0,0.1-0.1,0.1l0.1,0.3l0,0.1l0.1,0.2l0,0.1l0.1,0.1v0.1l-0.1,0.1l0,0.1h0l0.1-0.1
						c0,0,0.1,0.1,0.2,0.3c0.1,0,0.1,0.1,0.1,0.2h0.1v0.1h-0.1v0l0.2,0.1l0.1,0l0.1,0.1v0l-0.1,0.1v0c0.1,0,0.2,0,0.2,0.1l-0.1,0.1
						v0.1l0.1,0.1l0.1,0c0,0.1,0.1,0.1,0.1,0.1h0l0.2-0.1l0,0v0.2h0.2c0,0.1,0,0.1,0.1,0.1h0.1l0.1-0.1c0,0,0.1,0.1,0.1,0.2
						c0.1,0,0.1,0,0.1,0.1h0.2l0,0l0,0h0.1c0,0,0.1,0.1,0.2,0.1c0,0.1,0,0.1,0.1,0.1l0.1-0.1h0.1c0,0.1,0.1,0.1,0.3,0.1
						c0,0.1,0.1,0.1,0.1,0.1h0.1l0.1-0.1c0.1,0.1,0.2,0.1,0.2,0.1l0.2-0.1h0.1c0,0,0.1,0,0.1,0.1c0.1,0,0.1,0,0.2-0.1h0.1l0.1,0.1
						l0.2-0.1l0,0h0l0.1,0l0.1,0.1l0.3-0.1l0,0l0,0v0l-0.1,0.1h0c0,0,0.1,0,0.2-0.1h0c0.1,0,0.1,0,0.2,0.1l0.3-0.1l0.2,0.1l0.1-0.1
						l0.1,0l0.1-0.1l0.1,0c0-0.1,0.1-0.1,0.2-0.1c0.1,0,0.1,0,0.1,0.1l0.2-0.1l0.1,0.1h0.1c0.1-0.1,0.2-0.1,0.3-0.1l0.1,0.1
						c0-0.1,0.1-0.1,0.1-0.1l0,0l0.2-0.1l0.1,0l0,0v0l-0.1,0.1v0.1c0.1-0.1,0.3-0.2,0.4-0.2c0,0,0.1,0.1,0.3,0.1l0.1-0.1l0.1,0.1
						l0.1-0.1l0.1,0l0.4-0.1l0.1,0.1c0.1-0.1,0.1-0.1,0.2-0.1l0,0c0,0,0-0.1,0.1-0.1l0,0v-0.1c0,0,0.1-0.1,0.1-0.3l0-0.2
						c0.1-0.1,0.2-0.1,0.2-0.2l0,0h0l-0.1-0.1c0.1-0.1,0.1-0.1,0.1-0.3l0.2-0.1v0h0l-0.1,0l-0.1-0.2l0.1-0.1l0-0.1
						c0-0.1,0.1-0.2,0.1-0.2l0,0v-0.1l0.2-0.3l0-0.1c0.1-0.1,0.2-0.3,0.3-0.7l0.1-0.1l-0.1-0.1l0.1-0.2l-0.1-0.1
						c0.2-0.3,0.3-0.5,0.3-0.6l0.2-0.4c0.1,0,0.1,0,0.1-0.1l0,0v0l0.3-0.6h0.1l0,0h0l0,0v0l-0.1-0.1v0l0.2-0.2l-0.1-0.1
						c0.1-0.2,0.2-0.3,0.3-0.3c0,0,0.1-0.1,0.2-0.2c0-0.2,0.1-0.3,0.3-0.4c0-0.1,0-0.1,0.1-0.1h0l0,0c0.1,0,0.1-0.1,0.1-0.1l0,0v0
						c0,0,0.1-0.1,0.3-0.3c0-0.1,0.1-0.2,0.2-0.2v0l0,0c0.2-0.1,0.3-0.2,0.4-0.3c0.1,0,0.1,0,0.1-0.1l0.2,0c0.3-0.1,0.5-0.2,0.7-0.4
						l0,0h0l0,0h0c0.1,0,0.1,0,0.3-0.1h0.1c0.1,0,0.1,0,0.1,0.1c0.1,0,0.1,0,0.2-0.1l0.2,0l0.1-0.1h0.1L1170.9,132.4z M1156.4,136.2
						L1156.4,136.2L1156.4,136.2L1156.4,136.2L1156.4,136.2L1156.4,136.2L1156.4,136.2L1156.4,136.2L1156.4,136.2z M1161.1,144.7
						l-0.3,0.2l-0.2,0l0,0l0-0.1h0l-0.3,0.2h0l-0.1-0.1c0,0-0.1,0.1-0.2,0.2c0,0-0.1,0.1-0.2,0.1l-0.1,0.1l0,0v-0.1l0,0v0h-0.1
						c0,0-0.1,0.1-0.1,0.2l0,0.1l-0.1,0.1h-0.1l0,0.1l0.1,0.1v0c-0.1,0.1-0.2,0.2-0.3,0.2l0,0v0l0.1,0.1l0.1,0l0,0.2l0.2-0.1l0.1,0
						l0.2,0l0.1,0.1l0.2-0.1l0.1,0.1l0.1-0.1h0l0.1,0.1l0,0v0.1h0c0-0.1,0.1-0.1,0.2-0.2l0,0.1l0.3-0.1l0,0v0l-0.1,0.1h0.1l0.1-0.1h0
						l0,0h0l0.1-0.1h0c0,0,0.1,0,0.1,0.1h0c0.1-0.1,0.2-0.2,0.3-0.2l0.1,0.1c0.1,0,0.3-0.1,0.4-0.2l0.1,0.1l0.5-0.4h0v0.1
						c0.1-0.1,0.2-0.1,0.2-0.3l0.1-0.1v-0.1h-0.1l-0.3-0.1c-0.1,0-0.2,0-0.2-0.1l-0.2,0.1c0-0.1-0.1-0.1-0.2-0.2l-0.2,0.1v0l0-0.2v0
						l-0.2,0.1h0c0,0-0.1,0-0.1-0.1l0,0h0L1161.1,144.7z M1160.3,146.6L1160.3,146.6L1160.3,146.6l0,0.1h0L1160.3,146.6L1160.3,146.6z
						 M1164,140.9L1164,140.9L1164,140.9L1164,140.9L1164,140.9L1164,140.9z M1165.1,142.9L1165.1,142.9L1165.1,142.9L1165.1,142.9
						L1165.1,142.9z M1165.9,136.4L1165.9,136.4L1165.9,136.4L1165.9,136.4L1165.9,136.4z M1170.5,132.9c0,0-0.1,0.1-0.3,0.1l-0.1-0.1
						c-0.1,0.1-0.2,0.2-0.3,0.2l-0.1-0.1c-0.3,0.2-0.5,0.3-0.5,0.3l-0.3,0.3l-0.1,0v0l-0.1,0.1v0h0.1v0l-0.5,0.4l0,0v0l0.3-0.3v-0.1
						c-0.1,0-0.2,0.1-0.4,0.3l0,0.1l-0.2,0.2l0,0.1c0,0.1-0.1,0.3-0.4,0.5l0,0.1v0.1c0,0,0,0.1-0.1,0.1l0,0.1l-0.3,0.2
						c-0.1,0-0.1,0-0.1,0.1h0c0,0,0.1,0,0.1,0.1c-0.1,0.2-0.2,0.3-0.2,0.3l0,0.1l0,0v0l0.1,0.1v0.1c-0.1,0-0.1,0.2-0.1,0.4
						c-0.1,0-0.2,0.1-0.2,0.2l0.1,0.1c0,0.1-0.1,0.1-0.2,0.1l0,0v0.1c-0.1,0.1-0.2,0.2-0.2,0.3l0.1,0.1c-0.1,0.2-0.2,0.3-0.3,0.4
						l0.1,0v0.1l-0.1,0.1l0.1,0.1c0,0.1-0.1,0.2-0.2,0.3l0,0.1l0,0.1l0,0h0.1v0.1l-0.2,0.2l0,0.1c0,0.2-0.1,0.3-0.1,0.3
						c-0.1,0-0.1,0.1-0.1,0.1h0l0,0h0l0.1,0v0.1l-0.1,0.2v0l0.1,0.1c0.1-0.1,0.1-0.1,0.2-0.1l0,0c0.2-0.1,0.4-0.3,0.7-0.4
						c0.4-0.3,0.6-0.4,0.6-0.4l0.1,0.1h0c0.2-0.1,0.3-0.2,0.4-0.2c0-0.1,0.2-0.2,0.5-0.5c0.1,0,0.2-0.1,0.4-0.3c0.1,0,0.1-0.1,0.1-0.2
						c0.1,0,0.3-0.1,0.4-0.3c0.2-0.3,0.4-0.4,0.5-0.4l0.1-0.2h-0.1v0l0.1-0.1l0,0h0c0.2-0.1,0.3-0.2,0.3-0.3h0c-0.1,0-0.1,0-0.1,0.1
						h-0.1l-0.1-0.1v-0.1c0,0,0.1-0.1,0.2-0.2l0-0.1l0.1-0.1h0l0.1,0.1v0c-0.1,0-0.1,0-0.1,0.1h0l0.2-0.2l-0.1-0.1V136
						c0.2-0.2,0.3-0.3,0.3-0.5c0.2-0.1,0.3-0.3,0.3-0.5l0.1-0.1l0-0.2v-0.1l0.1-0.1l0-0.1c0.1,0,0.1-0.2,0.2-0.5l-0.1-0.1v0
						c0.1-0.1,0.1-0.1,0.1-0.2v-0.1l-0.1,0v-0.1l0.1-0.1c-0.1-0.1-0.3-0.3-0.5-0.5l0,0h-0.1c0,0-0.1,0-0.1-0.1h0l-0.1,0
						c-0.1,0-0.1,0-0.1-0.1l-0.4,0.1L1170.5,132.9z M1166.9,137.8L1166.9,137.8l0.1,0.1v0l-0.1,0.2h0L1166.9,137.8L1166.9,137.8z
						 M1168.3,143.8L1168.3,143.8L1168.3,143.8L1168.3,143.8L1168.3,143.8L1168.3,143.8L1168.3,143.8z M1169.2,132.7L1169.2,132.7
						L1169.2,132.7l-0.1,0.1h0L1169.2,132.7L1169.2,132.7z M1169.6,137.5L1169.6,137.5L1169.6,137.5L1169.6,137.5z M1170,137.1
						L1170,137.1L1170,137.1L1170,137.1L1170,137.1z M1170.1,138L1170.1,138l0.2-0.1l0,0v0C1170.2,137.9,1170.2,137.9,1170.1,138z"/>
					<path fill="#FFFFFF" d="M1177.5,140.1L1177.5,140.1l0.2,0c0,0.1,0.1,0.1,0.1,0.1h0l0.3-0.1c0,0,0,0.1,0.1,0.1l0,0.1l0.1-0.1l0,0
						v0l0,0.1l0.1,0.1l0,0h0.1c0.1,0.1,0.1,0.1,0.2,0.1l0.1-0.1l0.1,0.1l-0.1,0.2h0l0,0l0,0h0.1c0.1,0,0.1,0.1,0.2,0.3
						c0.1,0,0.2,0.1,0.3,0.3c0.1,0.1,0.1,0.1,0.2,0.1v0.1l0,0l0,0v0l0,0.1l0.2,0.1v0.1l-0.1,0.1v0.1h0.1v0.1c0,0.1,0.1,0.2,0.2,0.2
						v0.1l-0.1,0.2v0l0.2,0.1v0l0,0v0l0,0.1c-0.1,0.2-0.1,0.3-0.2,0.4c0.1,0.1,0.1,0.2,0.1,0.3l-0.1,0.2v0l0,0.1l-0.1,0.1h0.1v0.1
						l-0.2,0.3v0h0.1v0.1c-0.2,0.3-0.3,0.4-0.3,0.5l0,0.1c0,0-0.1,0.2-0.3,0.4c0,0.1,0.1,0.2,0.2,0.2c0,0,0.1,0.1,0.2,0.1l0,0.1
						l0.2-0.1h0l0,0h0c0-0.1,0.1-0.1,0.3-0.2c0-0.1,0.1-0.1,0.3-0.2v-0.1c0-0.1,0.1-0.1,0.2-0.1l0.1,0c0.1,0,0.1-0.1,0.2-0.3
						c0.1-0.1,0.2-0.1,0.3-0.2c0-0.1,0.1-0.2,0.2-0.3l0,0v-0.1l0.1-0.1l0.1,0.1l0.1-0.1l0,0c0,0,0.1-0.1,0.2-0.2l0,0v-0.1l0,0v0l0,0
						h0.1c0.2,0,0.2-0.1,0.2-0.3l-0.1-0.1c0.2,0,0.3-0.1,0.3-0.3c0-0.1,0.1-0.1,0.2-0.1c0.1-0.2,0.1-0.3,0.2-0.4l0-0.1
						c0.1,0,0.1,0,0.1-0.1c0.1,0,0.2-0.1,0.2-0.2c0.1-0.1,0.1-0.1,0.2-0.1v-0.1h-0.1v0l0.1-0.1l0.1,0c0,0,0-0.1,0.1-0.1l0,0v0
						l-0.1,0.2l0.1,0.1c0,0.1,0,0.1-0.1,0.1l0,0.2c0,0-0.1,0.2-0.4,0.5c0.1,0,0.1,0,0.1,0.1l-0.2,0.2l0,0.1l0,0h0l-0.1,0
						c-0.1,0.2-0.3,0.4-0.5,0.6l0,0v0h0l0.1-0.1l0,0v0l-0.1,0.1l-0.1,0l-0.3,0.4l0,0l-0.2,0.3l0,0.1c-0.2,0.1-0.3,0.2-0.4,0.4l0.1,0
						c0,0.1-0.2,0.2-0.4,0.4c-0.3,0.4-0.6,0.7-0.9,0.9l-0.1,0c0,0.1-0.1,0.2-0.3,0.3h0l-0.1-0.1h-0.1l-0.1,0.1h-0.1l-0.1,0l-0.2,0.1
						h-0.1l0-0.2l-0.2,0c0-0.1-0.1-0.2-0.2-0.2l-0.1,0v0l0.1-0.1l-0.1-0.1c0,0.1-0.1,0.1-0.1,0.2c-0.1,0-0.2,0.1-0.2,0.2l-0.2,0.2h0
						v-0.1c0,0-0.1,0.1-0.2,0.3h-0.1l0,0c-0.3,0.2-0.4,0.3-0.4,0.3l-0.3-0.1c0,0.1-0.1,0.2-0.1,0.2h-0.1l0,0c-0.1,0.1-0.2,0.2-0.3,0.2
						l-0.1-0.1c0,0.1-0.1,0.1-0.2,0.2h-0.1c0,0,0-0.1-0.1-0.1c0-0.1,0-0.1-0.1-0.1h-0.1l-0.3,0.1v0l-0.2,0.1h0v-0.1l0,0v0h-0.1
						l-0.1,0.1l-0.1-0.1l0-0.1l-0.2,0h-0.1v-0.1l0,0v0l-0.5-0.1l0,0l0,0v0l0-0.1h0l-0.1,0.1c-0.1-0.1-0.2-0.2-0.3-0.3
						c-0.1,0-0.1-0.1-0.2-0.3l-0.1-0.1v-0.2h-0.2v0l0,0l-0.1-0.3l0,0l-0.1-0.1l0,0v0l-0.1-0.1v-0.1l0,0v0c0,0-0.1-0.1-0.2-0.3l0.1-0.2
						l0-0.1v0l0.1-0.1l-0.1-0.2c0.1-0.1,0.1-0.1,0.1-0.2v-0.1c-0.1,0-0.1,0-0.1-0.1c0.1-0.1,0.2-0.1,0.2-0.2l-0.1-0.1l0.1-0.2h-0.1
						v-0.1l0.2-0.2l-0.1-0.2c0-0.1,0.1-0.1,0.1-0.1l0,0v-0.1c0.1-0.3,0.2-0.4,0.3-0.5l0.1,0l0-0.3c0.1,0,0.2-0.2,0.3-0.5l0,0h0.2
						c0-0.1,0.2-0.3,0.5-0.6c0.1-0.1,0.2-0.3,0.4-0.4l0.1,0l0.1-0.1h-0.1v-0.1h0.1v0.1h0.1c0.3-0.2,0.4-0.4,0.6-0.5l0.1,0h0.1
						c0.1-0.1,0.2-0.2,0.3-0.2l0.1,0l0.1-0.1l0.1,0l0-0.1l0.1,0l0.4-0.1l0.1,0.1l0.3-0.2V140.1z M1173.4,142.7L1173.4,142.7
						L1173.4,142.7L1173.4,142.7L1173.4,142.7z M1177.1,140.7L1177.1,140.7L1177.1,140.7h-0.1l-0.2,0c-0.1,0.1-0.2,0.2-0.4,0.2
						c0,0.1-0.1,0.1-0.2,0.2c0,0-0.1,0.1-0.3,0.3c0,0.1-0.1,0.2-0.3,0.3l0,0.1l0.1,0.1l-0.1,0.1h0v-0.1h-0.1l-0.2,0.2v0l0,0v0
						c0,0-0.1,0.1-0.1,0.2l0.1,0.1c0,0.2-0.1,0.3-0.3,0.4l-0.1,0.3l0.1,0.1l-0.1,0.1l0.1,0.1l0,0h0l0,0h0l0,0l0,0v0.1
						c-0.1,0.1-0.2,0.2-0.2,0.4l0.1,0.1v0l-0.2,0.2l0.1,0v0.1c-0.1,0.1-0.2,0.2-0.3,0.2v0c0.1,0,0.1,0,0.1,0.1c0.1,0,0.1,0,0.1,0.1
						v0.1l-0.1,0.2c0.1,0,0.2,0,0.2,0.1c-0.2,0.1-0.2,0.3-0.2,0.4l0,0h0.1l0.1,0.1c0,0,0,0.1-0.1,0.3l0,0.1c0.1,0,0.1,0.1,0.1,0.3l0,0
						l0.2,0v0.1l0,0l0.1,0.2l0,0.1l0,0h0l0.1,0l0.1,0.1v0.2h0.1l0.1,0.1l0,0h0.1v0l0,0.1h0c0.1,0,0.1,0,0.1,0.1c0,0.1,0.1,0.1,0.2,0.1
						c0.1,0,0.1,0,0.3-0.1h0.1c0,0,0.1,0,0.1,0.1c0.2-0.2,0.3-0.2,0.4-0.2l0,0v0c0.1,0,0.2-0.1,0.3-0.3c0.1,0,0.2-0.1,0.3-0.3
						c0,0,0.1-0.1,0.3-0.3l0.1-0.1l0,0v0.1l0,0v0h0.1l0.2-0.5l0,0v0c0-0.1,0-0.1,0.1-0.1h0.1l0.1-0.2c0-0.1-0.1-0.1-0.2-0.2v0l0.1-0.1
						c0-0.1,0-0.1-0.1-0.1l0.1-0.2c0,0-0.1,0-0.1-0.1l0.1-0.2l-0.1-0.1l0,0v0l0-0.2c0-0.1,0.1-0.1,0.2-0.1l0-0.2l0-0.1l0.2-0.4
						l0.1-0.1c-0.1,0-0.1,0-0.1-0.1c0.2-0.2,0.3-0.3,0.3-0.3l0-0.1l0.1-0.1l-0.1-0.1l0.2-0.2c0.1,0,0.2-0.1,0.3-0.4l-0.1-0.1
						c0.1-0.1,0.1-0.2,0.1-0.2l-0.1-0.1l0,0v-0.1l0,0v0l0,0h-0.1l0,0h0l0,0v-0.1l-0.2-0.2l0.1-0.1c-0.1,0-0.1-0.1-0.2-0.2l-0.3-0.1
						l-0.2,0.1l-0.1-0.1l-0.1,0l-0.1-0.1L1177.1,140.7L1177.1,140.7z M1177.9,146.1L1177.9,146.1L1177.9,146.1L1177.9,146.1z
						 M1179.6,141.7L1179.6,141.7L1179.6,141.7v0.1h-0.1L1179.6,141.7L1179.6,141.7z M1181,143.7L1181,143.7L1181,143.7L1181,143.7z
						 M1181.6,144L1181.6,144L1181.6,144c0,0.2-0.1,0.2-0.1,0.2h-0.1v0C1181.5,144.1,1181.5,144,1181.6,144z"/>
					<path fill="#FFFFFF" d="M1185.9,140.1L1185.9,140.1c0.1,0.1,0.1,0.1,0.2,0.1v0l0,0h0.1l0,0.1l0.1-0.1h0.1c0,0.1,0,0.1,0.1,0.1
						l0.3-0.1l0.1,0.1l0,0.1l0.1,0.1l0,0h0.1l0.1,0.1l-0.1,0.1c0.1,0,0.2,0,0.2,0.1v0.1l-0.1,0.1v0l0.1,0.1l-0.1,0.1l0,0v0.2l-0.1,0.2
						v0l0,0v0c-0.3,0.1-0.5,0.2-0.5,0.3l-0.1,0.1l-0.2,0c-0.2,0.2-0.3,0.2-0.4,0.2h0l0,0h0l0.1-0.1h0c-0.1,0-0.1,0-0.1-0.1l-0.1,0.1
						l-0.1-0.1c0,0,0.1-0.1,0.3-0.2c0-0.1,0-0.2,0.1-0.2l0-0.1c-0.1,0-0.1-0.1-0.1-0.2l0.1-0.3c-0.2-0.1-0.4-0.2-0.4-0.3l-0.1,0l0-0.1
						h0l-0.1,0.1h-0.1l-0.2-0.1l-0.1,0l-0.2,0l-0.1,0.1h-0.1c0-0.1,0-0.1-0.1-0.1c0,0.1-0.1,0.2-0.3,0.3h0l-0.1,0
						c-0.1,0.1-0.2,0.2-0.2,0.4l-0.2,0.2c0.1,0.3,0.2,0.4,0.2,0.4v0l-0.1,0.1v0c0.1,0,0.2,0,0.2,0.1l-0.1,0.2l0.2,0.1l0.1-0.1h0.1
						l0.1,0.1l-0.1,0.1c0.1,0,0.1,0,0.1,0.1c0.1,0,0.2,0.1,0.3,0.2h0.1l0,0.2h0l0.1-0.1c0,0,0.1,0.1,0.1,0.2l0.1-0.1l0,0v0l-0.1,0.1
						c0.1,0.1,0.3,0.2,0.4,0.2v0.1l0,0v0l0.3,0.2l0.1,0l-0.1,0.1h0c0.1,0,0.1,0.1,0.1,0.2c0.2,0.2,0.4,0.4,0.4,0.6h0l0.1,0.2l0,0.1
						l0.1,0.1v0.1l-0.1,0.1l0.2,0.1v0l-0.2,0.2c0,0,0.1,0,0.1,0.1c0,0.2-0.1,0.3-0.3,0.5l-0.1,0.1v0c0.1-0.1,0.3-0.2,0.4-0.2
						c0,0,0.1-0.1,0.2-0.1l0.6-0.4l0-0.1l0.3-0.2c0.1-0.2,0.1-0.3,0.2-0.3l0,0h0l0,0v0l0.1-0.1l0,0h0l0,0l0,0v-0.1
						c0.1-0.2,0.2-0.3,0.4-0.3c0-0.2,0-0.2,0.1-0.2l0-0.1c0.2-0.1,0.3-0.2,0.3-0.3l-0.1-0.1c0.1-0.1,0.1-0.1,0.2-0.1l0.1,0l0,0v-0.1
						l0.1-0.1l-0.1-0.1l0.4-0.4v-0.1h-0.1v-0.1l0.2-0.2h0.2c0-0.1,0.1-0.2,0.2-0.4v0l-0.1-0.1V142l0.3-0.3c0-0.2,0.1-0.2,0.2-0.2l0,0
						l0,0v0.1c0,0,0,0.1,0.1,0.1c-0.1,0.3-0.2,0.5-0.3,0.6c0.1,0,0.1,0.1,0.1,0.2c0,0-0.1,0.1-0.1,0.2l-0.2,0.2l0.1,0.1
						c-0.1,0-0.2,0.2-0.3,0.5l-0.3,0.2c0,0.1-0.1,0.3-0.3,0.4c0,0-0.1,0.1-0.2,0.2l0,0.1c0,0.1-0.2,0.3-0.5,0.6c0,0.1-0.1,0.1-0.2,0.1
						c0,0.1-0.1,0.2-0.2,0.4l-0.5,0.5c0,0-0.1,0-0.2,0.1l0,0h-0.1l-0.1,0.1v0l0,0.1l-0.4,0.3h-0.1l0,0c-0.1,0-0.3,0.1-0.4,0.4l-0.1,0
						l0,0l0,0v-0.1h-0.1l-0.3,0.1h0c0,0-0.1,0-0.1-0.1h-0.1c-0.1,0.1-0.2,0.1-0.3,0.1l-0.3,0.2h-0.1l0,0h0l0,0v-0.1l-0.5,0.3h0v-0.1
						l0,0v0h-0.1l-0.1,0.1l0,0h0l-0.3,0.2h-0.1l0-0.1c0,0-0.2,0.1-0.4,0.1l0-0.1l-0.2,0.1l-0.1,0c0,0.1-0.1,0.1-0.1,0.1l-0.3-0.1h-0.1
						l0,0h0c0-0.1-0.1-0.1-0.1-0.2l0,0h-0.1l0,0l0,0h-0.1l-0.3-0.2v-0.1h-0.1c-0.2-0.1-0.3-0.1-0.4-0.2l0.1-0.1c0,0-0.1,0-0.1-0.1
						l0-0.1c-0.1,0-0.1,0-0.1-0.1l0.1-0.2l0,0v0l0-0.1h0l-0.1,0V146l0.2-0.2l-0.1-0.1c0.2-0.2,0.3-0.3,0.5-0.3c0-0.1,0.1-0.2,0.3-0.3
						h0.1c0,0.1,0,0.1-0.1,0.2v0c0.2,0,0.3-0.1,0.3-0.1h0c0.1,0,0.1,0,0.1,0.1h0l0.3-0.1c0,0,0,0.1,0.1,0.1l0,0v0
						c0,0.4-0.1,0.6-0.3,0.6v0.1l0.1-0.1l0.1,0.1l-0.1,0.1c0,0-0.1,0.1-0.1,0.2l-0.1,0.1c0.1,0,0.1,0,0.1,0.1l0,0h0
						c0,0,0.1,0.1,0.2,0.3l0.5,0.2h0.1l0.1,0l0.2,0.1l0.1-0.1h0.1l0.1,0.1l0.2-0.1h0.2l0,0c0.1,0,0.3-0.1,0.4-0.2l0,0v-0.1
						c0.1,0,0.2-0.1,0.4-0.2l0-0.1l0,0v0c0-0.1,0.1-0.2,0.3-0.4l-0.1-0.1l0-0.1c-0.1,0-0.1,0-0.1-0.1c0,0,0-0.1,0.1-0.1v-0.1
						c-0.1-0.3-0.2-0.4-0.2-0.4l0,0v-0.1l0,0v0l0,0h0l0,0h0l0-0.1v0c-0.1,0-0.2-0.1-0.2-0.2l-0.1,0v0l0-0.1h-0.2
						c0-0.1-0.1-0.1-0.2-0.2c0-0.1-0.1-0.2-0.2-0.2v-0.1l-0.1,0c0-0.1-0.1-0.2-0.3-0.2v-0.1l0-0.1h0l-0.1,0l0,0v0l0-0.1h-0.1
						c-0.1,0-0.2,0-0.2-0.1v-0.1c-0.1,0-0.1,0-0.2-0.1l-0.1,0v0c0-0.2,0-0.2-0.1-0.2l-0.1,0c0-0.1-0.1-0.2-0.1-0.2l0-0.2h0
						c0-0.1-0.1-0.2-0.2-0.2l0.1-0.4c-0.1,0-0.1,0-0.1-0.1c0.1-0.2,0.2-0.3,0.2-0.3l-0.1-0.1c0.1-0.1,0.2-0.2,0.3-0.3
						c0-0.1,0.1-0.2,0.3-0.3h-0.1c0-0.1,0.1-0.1,0.2-0.2l0,0c0.1,0,0.2-0.1,0.3-0.3l0,0v0l-0.1,0.1v0.1h0.1c0-0.1,0.2-0.2,0.6-0.4
						c0-0.1,0.1-0.1,0.3-0.1v0l0.2-0.1l0,0v0l0,0v0h0.1l0.2-0.1l0.3,0l0.1,0l0.1,0.1L1185.9,140.1z M1183.2,141L1183.2,141L1183.2,141
						l-0.1,0.1L1183.2,141L1183.2,141z M1183.3,140.8L1183.3,140.8L1183.3,140.8L1183.3,140.8L1183.3,140.8z M1184.7,146.4
						L1184.7,146.4L1184.7,146.4L1184.7,146.4L1184.7,146.4L1184.7,146.4L1184.7,146.4z M1184.7,147L1184.7,147L1184.7,147L1184.7,147
						L1184.7,147z M1188.2,144L1188.2,144L1188.2,144l0,0.2h-0.1C1188.1,144.1,1188.2,144,1188.2,144z M1189,144.1L1189,144.1
						L1189,144.1l-0.1,0L1189,144.1L1189,144.1z"/>
					<path fill="#FFFFFF" d="M1192,137.5L1192,137.5c0.1,0.1,0.1,0.2,0.2,0.2l0,0.2v0.1l0,0l0,0v0.1c0,0-0.1,0.1-0.2,0.1l-0.1,0.3v0
						c0,0,0,0.1,0.1,0.1c0,0.1,0,0.2-0.1,0.3l0,0v0c0,0.1-0.1,0.2-0.2,0.3l-0.1,0.1l0.1,0.1v0.1l-0.1,0.3l0,0.1
						c-0.1,0.1-0.2,0.2-0.2,0.3l0.1,0.1v0.1c-0.1,0.1-0.1,0.2-0.1,0.2l0,0.1l-0.1,0.1l0.1,0.2l0.3-0.1l0.1,0.1l0.2,0l0.1,0l0.1-0.1h0
						l0.2,0.2v0.1l-0.3,0.3c0.1,0,0.1,0,0.1,0.1c-0.1,0-0.2,0.1-0.2,0.1h0c0,0-0.1-0.1-0.1-0.2l-0.2,0.1l-0.1,0l-0.1,0l-0.1,0
						l-0.1,0.1h-0.1l0,0h0l-0.1,0.1l0.1,0.1l-0.2,0.2l0,0.1c0.1,0,0.1,0.1,0.1,0.2h0l0.1,0.1l-0.2,0.1l0,0v0c0,0.1,0,0.1-0.1,0.1
						l0.1,0.2l-0.2,0.3c-0.1,0.1-0.1,0.1-0.1,0.2l0.1,0.1v0.1l-0.1,0.1l0,0.1l-0.2,0.5l-0.1,0.1l0,0.1l-0.1,0.1l0.1,0.1v0.1
						c-0.1,0.1-0.1,0.2-0.2,0.3v0l0.1,0.1l-0.2,0.2l0,0.1c-0.1,0.1-0.1,0.3-0.2,0.5v0.1c0.1,0,0.1,0,0.1,0.1v0c0,0-0.1,0.1-0.1,0.1
						l0.1,0.2l-0.1,0.2l0,0v0l-0.1,0.1c0,0.1,0.1,0.1,0.2,0.2v0l0,0.1h0l0.1,0l0.1,0.1h0c0,0,0.1,0,0.1-0.1l0,0h0.1v0.1h0l0.2-0.1h0.1
						l0.1,0v0c0,0,0.1-0.1,0.2-0.1l0.2-0.2c0-0.1,0.1-0.2,0.4-0.3c0,0,0.1-0.1,0.2-0.1l0-0.1l-0.1-0.1l0.7-0.6l0,0v0l-0.1,0l0,0h-0.1
						v0l0.2-0.2h0.1l0,0h0c0.1-0.2,0.2-0.4,0.3-0.4l0,0v0l0.2-0.2c0,0,0.1-0.1,0.2-0.3v0l-0.1-0.1c0.1-0.2,0.2-0.2,0.3-0.2l0,0v-0.1
						c0,0,0.1-0.1,0.2-0.1v-0.1h-0.1v-0.1c0.1-0.1,0.2-0.2,0.4-0.3V143l-0.1-0.1c0.1,0,0.2-0.2,0.3-0.4c0,0,0-0.1,0.1-0.2l-0.1-0.1
						c0,0,0.1-0.1,0.3-0.2c0,0,0.1-0.1,0.2-0.2c0-0.1,0-0.1,0.1-0.2h0.1l-0.1,0.2c0.1,0,0.1,0.1,0.1,0.2c0,0-0.1,0.1-0.1,0.3
						c0,0-0.1,0.1-0.1,0.2c-0.1,0-0.2,0.1-0.2,0.3l-0.2,0.2h0.1c0,0.1-0.1,0.2-0.2,0.2c-0.1,0.2-0.2,0.3-0.3,0.3l0,0.1
						c0.1,0,0.1,0,0.1,0.1l-0.3,0.4c-0.2,0-0.2,0.1-0.2,0.2l-0.1,0.2l0,0.1c-0.2,0.1-0.3,0.3-0.4,0.5c-0.1,0-0.4,0.3-0.9,0.9
						c0,0.1-0.1,0.2-0.3,0.3c0,0-0.1,0.1-0.2,0.2v0.1h0l0,0v0l-0.1,0.1h0l-0.1-0.1l-0.2,0.2h0l0,0h0c-0.1,0.2-0.3,0.3-0.6,0.4
						c-0.1,0.1-0.1,0.1-0.2,0.1l-0.1-0.1l-0.1,0.1l-0.2-0.1l-0.3,0.1c0,0-0.1-0.1-0.3-0.1c0,0,0-0.1-0.1-0.1l-0.3-0.2
						c0,0-0.1,0-0.1-0.1l0-0.1l0,0h0l-0.1,0v-0.1h0.1v0l-0.1-0.2v0l0.1-0.1l-0.1-0.1v-0.1l0-0.1h-0.1v-0.1l0.1-0.3h-0.1v-0.1
						c0.1-0.1,0.1-0.2,0.1-0.4v0l-0.1,0.1l0,0v0c0.1-0.1,0.2-0.2,0.3-0.4V145h0l-0.1,0.1l0,0v0l0.3-0.4v0h0l-0.1,0.1v0
						c0,0,0.1-0.1,0.1-0.2c0.1,0,0.1,0,0.1-0.1h-0.1v-0.1c0.1-0.1,0.2-0.3,0.2-0.4c0,0,0.1-0.1,0.1-0.2l0-0.1l0.1-0.1v0l-0.1-0.1
						c0.1-0.1,0.2-0.3,0.3-0.5h0l-0.1-0.1v0l0.1-0.2l0,0v0l0.1-0.2l-0.1-0.1V142c0.1-0.1,0.2-0.1,0.2-0.2l0,0h-0.1v-0.1l0.2-0.2v0
						c-0.1,0-0.1,0-0.1-0.1l0.1-0.1v-0.1l-0.2-0.2v0h-0.1l-0.2,0.1l-0.1,0h-0.1v-0.1l-0.1,0l-0.2,0l-0.1,0.1h-0.1l-0.1-0.1V141
						c0.1,0,0.2-0.1,0.2-0.2l0.3-0.2h0.1l0.1,0.1l0,0h0.2l0.1,0.1c0.2,0,0.3-0.1,0.3-0.2c0.2-0.1,0.3-0.2,0.3-0.5c0,0,0.1-0.1,0.1-0.4
						l0.1-0.1l0-0.1l0,0v0l0-0.2c0.1,0,0.1-0.1,0.1-0.2l0.2-0.3l0-0.1l0-0.1l0-0.1c0,0,0.1-0.2,0.2-0.5l0-0.1c0.1-0.1,0.1-0.2,0.2-0.2
						h0.1l0.1,0.1h0l0.3-0.1c0,0,0.1-0.1,0.2-0.2l0.1,0.2L1192,137.5z M1189.1,143.8L1189.1,143.8L1189.1,143.8L1189.1,143.8
						L1189.1,143.8z M1191.4,140.5L1191.4,140.5L1191.4,140.5L1191.4,140.5L1191.4,140.5z"/>
					<path fill="#FFFFFF" d="M1151.5,157.5h5.3v2.2h-1.5v7.5h-2.2v-7.5h-1.5V157.5z"/>
					<path fill="#FFFFFF" d="M1158.5,157.5h2.2v3.6h2v-3.6h2.2v9.8h-2.2v-4.1h-2v4.1h-2.2V157.5z"/>
					<path fill="#FFFFFF" d="M1167.4,157.5h2.2v9.8h-2.2V157.5z"/>
					<path fill="#FFFFFF" d="M1172.1,157.5h2.2l2.8,5.6l-0.1-1.1v-4.6h2.2v9.8h-2.3l-2.8-5.6l0.1,1.2v4.3h-2.2V157.5z"/>
					<path fill="#FFFFFF" d="M1188.4,161.8v1.6c0,1.3-0.3,2.3-0.9,3c-0.6,0.7-1.5,1.1-2.5,1.1c-1.2,0-2.1-0.4-2.8-1.3
						c-0.6-0.9-1-2.2-1-3.8c0-1.7,0.3-2.9,1-3.8c0.6-0.9,1.6-1.3,2.8-1.3c1.4,0,2.4,0.7,3,2.2l-2.1,0.9c-0.2-0.3-0.3-0.5-0.5-0.7
						c-0.2-0.1-0.4-0.2-0.6-0.2c-0.4,0-0.8,0.2-1,0.7c-0.2,0.5-0.3,1.2-0.3,2.3c0,1,0.1,1.7,0.3,2.2c0.2,0.5,0.6,0.7,1,0.7
						c0.7,0,1.1-0.5,1.2-1.6h-1v-1.9H1188.4z"/>
					<path fill="#FFFFFF" d="M1190.4,167.1v-2.3c0.7,0.4,1.3,0.6,1.8,0.6c0.3,0,0.5-0.1,0.7-0.2c0.2-0.2,0.2-0.4,0.2-0.6
						c0-0.2-0.1-0.4-0.2-0.5c-0.1-0.2-0.4-0.4-0.7-0.6c-0.8-0.6-1.3-1.1-1.7-1.6c-0.3-0.5-0.5-1.1-0.5-1.7c0-0.8,0.3-1.5,0.8-2.1
						c0.5-0.5,1.2-0.8,2.1-0.8c0.6,0,1.2,0.1,1.9,0.4v2.2c-0.7-0.4-1.2-0.5-1.6-0.5c-0.3,0-0.5,0.1-0.6,0.2c-0.2,0.1-0.2,0.3-0.2,0.6
						c0,0.4,0.4,0.9,1.1,1.4c0.4,0.3,0.9,0.7,1.3,1.3c0.5,0.5,0.7,1.2,0.7,1.9c0,0.8-0.3,1.5-0.9,2.1c-0.6,0.6-1.3,0.8-2.2,0.8
						C1191.6,167.6,1191,167.4,1190.4,167.1z"/>
				</g>
			</g>
		</a>
	<!-- / THE BOOK OF LOST THINGS -->
</g>



<g id="pile_2_">
	<g id="brown_1_">
		<rect x="935.4" y="86.1" fill-rule="evenodd" clip-rule="evenodd" fill="#866E5E" width="21.8" height="133.6"/>
		<path fill-rule="evenodd" clip-rule="evenodd" fill="#4D3F36" d="M940.4,209.2c0,2.7,2.6,4.9,5.9,4.9c3.2,0,5.9-2.2,5.9-4.9
			c0-2.7-2.6-4.9-5.9-4.9C943.1,204.3,940.4,206.5,940.4,209.2z"/>
	</g>
	<polygon id="yellow_1_" fill="#FFB210" points="918.2,219.8 900.7,218 919.6,45.9 937,47.6 	"/>
	
	<!-- LITTLE WOMEN 
	<a  class="floatOnHover" xlink:href="#book2" title="Pick this Book!" xlink:title="Pick this Book!"> -->
		<g id="little_women">
			<g>
				<rect x="701.3" y="157.7" fill="#5E5571" width="177.1" height="62.1"/>
				<g>
					<g>
						<rect x="731.8" y="157.7" fill="#FFB210" width="9.2" height="62.1"/>
						<rect x="838.7" y="157.7" fill="#FFB210" width="9.2" height="62.1"/>
					</g>
					<g>
						<rect x="750.6" y="157.7" fill="#FFB210" width="77" height="62.1"/>
					</g>
				</g>
			</g>
			<g class="hidden">
				<path fill="#5E5571" d="M772.7,207.9v-2.1h11.4v-3.4h1.9v5.5H772.7z"/>
				<path fill="#5E5571" d="M772.7,201.5v-2.1H786v2.1H772.7z"/>
				<path fill="#5E5571" d="M772.7,198.5V192h1.9v2.2H786v2.1h-11.4v2.2H772.7z"/>
				<path fill="#5E5571" d="M772.7,191.7v-6.5h1.9v2.2H786v2.1h-11.4v2.2H772.7z"/>
				<path fill="#5E5571" d="M772.7,184.4v-2.1h11.4v-3.4h1.9v5.5H772.7z"/>
				<path fill="#5E5571" d="M778.3,175.8V173h1.9v2.9h3.9v-3.6h1.9v5.7h-13.3v-5.7h1.9v3.6H778.3z"/>
				<path fill="#5E5571" d="M799.9,205.1L799.9,205.1l7.1,0.8v2.9l-13.3,1.5v-2l10.5-1.1v0l-10.5-1v-2l10.6-1v0l-10.6-1.1v-1.8
					l13.3,1.5v2.8L799.9,205.1z"/>
				<path fill="#5E5571" d="M796.9,199.2c-2.1,0-3.3-1.1-3.3-3.2c0-2.1,1.2-3.2,3.3-3.2h6.9c2.1,0,3.3,1.1,3.3,3.2
					c0,2.1-1.2,3.2-3.3,3.2H796.9z M803.9,197.1c1,0,1.3-0.4,1.3-1.1c0-0.7-0.4-1.1-1.3-1.1h-7.2c-1,0-1.3,0.4-1.3,1.1
					c0,0.7,0.4,1.1,1.3,1.1H803.9z"/>
				<path fill="#5E5571" d="M803.1,187.1L803.1,187.1l-9.4-1.4v-2.9H807v2h-9.5v0l9.5,1.4v2l-9.4,1.5v0h9.4v1.8h-13.3v-2.9
					L803.1,187.1z"/>
				<path fill="#5E5571" d="M799.3,179.2v-2.9h1.9v2.9h3.9v-3.6h1.9v5.7h-13.3v-5.7h1.9v3.6H799.3z"/>
				<path fill="#5E5571" d="M797.4,172.4L797.4,172.4l9.6,0v1.9h-13.3v-2.6l8-2.1v0h-8v-1.9H807v2.1L797.4,172.4z"/>
			</g>
		</g>
	<!--</a>-->
	
	
	<g id="brown_horizontal">
		<g>
			<rect x="729.5" y="118.4" fill-rule="evenodd" clip-rule="evenodd" fill="#866E5E" width="156.6" height="31.5"/>
		</g>
		<ellipse fill="#B3937D" cx="848" cy="134.1" rx="18.5" ry="11.2"/>
	</g>
</g>

<g id="pile_3_">
	<g id="blue">
		<rect x="619.4" y="47.8" fill-rule="evenodd" clip-rule="evenodd" fill="#59788D" width="43" height="171.9"/>
		<g>
			<rect x="624.7" y="67.6" fill-rule="evenodd" clip-rule="evenodd" fill="#7098B2" width="32.4" height="26.3"/>
			<rect x="624.7" y="183.7" fill-rule="evenodd" clip-rule="evenodd" fill="#7098B2" width="32.4" height="26.3"/>
			<rect x="624.7" y="148.9" fill-rule="evenodd" clip-rule="evenodd" fill="#7098B2" width="32.4" height="26.3"/>
		</g>
	</g>
	<g id="purple_1_">
		<rect x="573.9" y="65.7" fill="#5E5571" width="39.1" height="154.1"/>
		<polygon fill="#FFB210" points="602.8,126.4 592.5,119.5 584.2,126.4 584.2,65.4 602.8,65.4 		"/>
		<rect x="584.2" y="76.4" fill="#5E5571" width="18.6" height="8.1"/>
	</g>
</g>

<g id="pile_4_">
	<g id="brown">
		<rect x="350.9" y="199.1" fill-rule="evenodd" clip-rule="evenodd" fill="#866E5E" width="199.1" height="20.7"/>
		<rect x="350.9" y="203.4" fill-rule="evenodd" clip-rule="evenodd" fill="#FFFFFF" width="199.1" height="12"/>
	</g>
	<g id="yellow">
		<rect x="387.7" y="171.4" fill-rule="evenodd" clip-rule="evenodd" fill="#FFB210" width="143.5" height="22"/>
		<rect x="387.7" y="175.7" fill-rule="evenodd" clip-rule="evenodd" fill="#FFFFFF" width="143.5" height="13.3"/>
	</g>
				

		<!-- THE SHADOW OF THE WIND -->	 
			<a class="floatLeftOnHover glowOnHover rollover" xlink:href="./index.php?page=cemetery" title="Pick this Book!" xlink:title="Pick this Book!"> 
				<g id="the_shadow_of_the_wind">
					<g>
						<rect x="392.5" y="132.9" fill-rule="evenodd" clip-rule="evenodd" fill="#5E5571" width="7.4" height="33.2"/>
						<rect x="401.7" y="132.9" fill-rule="evenodd" clip-rule="evenodd" fill="#9486B3" width="146.2" height="33.2"/>
						<rect x="549.8" y="132.9" fill-rule="evenodd" clip-rule="evenodd" fill="#5E5571" width="7.4" height="33.2"/>
					</g>
					<g>
						<path fill="#403A4D" d="M413.8,144.1h4.6v1.5h-1.5v9.3h-1.5v-9.3h-1.5V144.1z"/>
						<path fill="#403A4D" d="M419.1,144.1h1.5v4.6h1.5v-4.6h1.5V155h-1.5v-4.6h-1.5v4.6h-1.5V144.1z"/>
						<path fill="#403A4D" d="M425.3,155v-10.8h4.6v1.5h-3.1v3.1h2.3v1.5h-2.3v3.1h3.1v1.5H425.3z"/>
						<path fill="#403A4D" d="M435,151.9v0.8c0,0.2,0.1,0.4,0.2,0.5s0.3,0.2,0.6,0.2s0.4-0.1,0.5-0.2c0.1-0.1,0.2-0.3,0.2-0.5v-1.5
							c0-0.2-0.1-0.4-0.2-0.5c-0.1-0.1-0.3-0.2-0.5-0.2c-0.7,0-1.3-0.3-1.7-0.8c-0.4-0.4-0.6-1-0.6-1.5v-1.5c0-0.6,0.2-1.2,0.7-1.6
							c0.5-0.5,1-0.7,1.6-0.7c0.6,0,1.2,0.2,1.6,0.7c0.5,0.5,0.7,1,0.7,1.6v0.8H438h-1.4v-0.8c0-0.2-0.1-0.4-0.2-0.6
							c-0.1-0.2-0.3-0.2-0.5-0.2s-0.4,0.1-0.6,0.2s-0.2,0.3-0.2,0.6v1.5c0,0.2,0.1,0.4,0.2,0.6s0.3,0.2,0.6,0.2c0.7,0,1.3,0.3,1.7,0.8
							c0.4,0.4,0.6,1,0.6,1.5v1.5c0,0.6-0.2,1.2-0.7,1.6c-0.5,0.5-1,0.7-1.6,0.7c-0.6,0-1.2-0.2-1.6-0.7c-0.5-0.5-0.7-1-0.7-1.6v-0.8
							H435z"/>
						<path fill="#403A4D" d="M439.3,144.1h1.5v4.6h1.5v-4.6h1.5V155h-1.5v-4.6h-1.5v4.6h-1.5V144.1z"/>
						<path fill="#403A4D" d="M447,144.1h1.5l2.3,10.8h-1.5l-0.5-2.3l-2.2,0l-0.5,2.3h-1.5L447,144.1z M447.8,147.2l-0.8,3.9h1.6
							L447.8,147.2L447.8,147.2z"/>
						<path fill="#403A4D" d="M451.6,144.1h3.1c0.4,0,0.8,0.2,1.1,0.4s0.4,0.7,0.4,1.1v7.7c0,0.4-0.1,0.8-0.4,1.1
							c-0.3,0.3-0.7,0.4-1.1,0.4h-3.1V144.1z M453.2,145.7v7.8h1c0.2,0,0.3-0.1,0.4-0.2c0.1-0.1,0.2-0.3,0.2-0.4v-6.6
							c0-0.2-0.1-0.3-0.2-0.4c-0.1-0.1-0.3-0.2-0.4-0.2H453.2z"/>
						<path fill="#403A4D" d="M458.3,144.8c0.5-0.5,1-0.7,1.6-0.7s1.2,0.2,1.6,0.7c0.5,0.5,0.7,1,0.7,1.6v6.2c0,0.6-0.2,1.2-0.7,1.6
							c-0.5,0.5-1,0.7-1.6,0.7s-1.2-0.2-1.6-0.7c-0.5-0.5-0.7-1-0.7-1.6v-6.2C457.7,145.8,457.9,145.3,458.3,144.8z M460.5,145.9
							c-0.2-0.2-0.3-0.2-0.6-0.2s-0.4,0.1-0.5,0.2c-0.1,0.2-0.2,0.3-0.2,0.6v2.2v1.8v2.2c0,0.2,0.1,0.4,0.2,0.5
							c0.1,0.1,0.3,0.2,0.5,0.2s0.4-0.1,0.6-0.2c0.2-0.1,0.2-0.3,0.2-0.5v-2.2v-1.8v-2.2C460.8,146.2,460.7,146.1,460.5,145.9z"/>
						<path fill="#403A4D" d="M464.6,144.1l1.1,6.3l1.2-6.3h1.6l1.2,6.3l1.1-6.3h1.6l-1.9,10.8h-1.6l-1.1-6.5l-1.2,6.5h-1.6l-1.9-10.8
							H464.6z"/>
						<path fill="#403A4D" d="M476.7,144.8c0.5-0.5,1-0.7,1.6-0.7s1.2,0.2,1.6,0.7c0.5,0.5,0.7,1,0.7,1.6v6.2c0,0.6-0.2,1.2-0.7,1.6
							c-0.5,0.5-1,0.7-1.6,0.7s-1.2-0.2-1.6-0.7c-0.5-0.5-0.7-1-0.7-1.6v-6.2C476.1,145.8,476.3,145.3,476.7,144.8z M478.9,145.9
							c-0.2-0.2-0.3-0.2-0.6-0.2s-0.4,0.1-0.5,0.2c-0.1,0.2-0.2,0.3-0.2,0.6v2.2v1.8v2.2c0,0.2,0.1,0.4,0.2,0.5
							c0.1,0.1,0.3,0.2,0.5,0.2s0.4-0.1,0.6-0.2c0.2-0.1,0.2-0.3,0.2-0.5v-2.2v-1.8v-2.2C479.2,146.2,479.1,146.1,478.9,145.9z"/>
						<path fill="#403A4D" d="M486.7,144.1v1.5h-3.1v3.1h2.3v1.5h-2.3v4.6h-1.5v-10.8H486.7z"/>
						<path fill="#403A4D" d="M489.8,144.1h4.6v1.5h-1.5v9.3h-1.5v-9.3h-1.5V144.1z"/>
						<path fill="#403A4D" d="M495.2,144.1h1.5v4.6h1.5v-4.6h1.5V155h-1.5v-4.6h-1.5v4.6h-1.5V144.1z"/>
						<path fill="#403A4D" d="M501.3,155v-10.8h4.6v1.5h-3.1v3.1h2.3v1.5h-2.3v3.1h3.1v1.5H501.3z"/>
						<path fill="#403A4D" d="M510.9,144.1l1.1,6.3l1.2-6.3h1.6l1.2,6.3l1.1-6.3h1.6l-1.9,10.8h-1.6l-1.1-6.5l-1.2,6.5h-1.6l-1.9-10.8
							H510.9z"/>
						<path fill="#403A4D" d="M521.2,155h-1.5v-10.8h1.5V155z"/>
						<path fill="#403A4D" d="M522.7,144.1h1.5l1.5,5.4v-5.4h1.5V155h-1.5l-1.5-5.4v5.4h-1.5V144.1z"/>
						<path fill="#403A4D" d="M528.7,144.1h3.1c0.4,0,0.8,0.2,1.1,0.4c0.3,0.3,0.4,0.7,0.4,1.1v7.7c0,0.4-0.1,0.8-0.4,1.1
							c-0.3,0.3-0.7,0.4-1.1,0.4h-3.1V144.1z M530.3,145.7v7.8h1c0.2,0,0.3-0.1,0.4-0.2c0.1-0.1,0.2-0.3,0.2-0.4v-6.6
							c0-0.2-0.1-0.3-0.2-0.4c-0.1-0.1-0.3-0.2-0.4-0.2H530.3z"/>
					</g>
				</g>
			</a>
		<!-- THE SHADOW OF THE WIND -->	
		
	</g>
	
	
<g id="pile_5_">
	<g id="purple3">
		<rect x="286.1" y="47.3" fill="#5E5571" width="40" height="172.4"/>
		<g>
			<g>
				<polygon fill="#FFB210" points="306.1,62.6 308.3,66.5 313,67.1 309.6,70.2 310.4,74.5 306.1,72.5 301.9,74.5 302.7,70.2 
					299.3,67.1 304,66.5 				"/>
				<rect x="291.1" y="79.8" fill="#FFB210" width="30" height="3.8"/>
				<rect x="291.1" y="53.5" fill="#FFB210" width="30" height="3.8"/>
			</g>
			<g>
				<polygon fill="#FFB210" points="306.1,192.6 308.3,196.5 313,197.1 309.6,200.2 310.4,204.5 306.1,202.5 301.9,204.5 
					302.7,200.2 299.3,197.1 304,196.5 				"/>
				<rect x="291.1" y="209.8" fill="#FFB210" width="30" height="3.8"/>
				<rect x="291.1" y="183.5" fill="#FFB210" width="30" height="3.8"/>
			</g>
		</g>
	</g>
	<g id="purple2">
		<rect x="241.3" y="47.3" fill="#5E5571" width="40" height="172.4"/>
		<g>
			<g>
				<polygon fill="#FFB210" points="261.3,62.6 263.4,66.5 268.2,67.1 264.7,70.2 265.5,74.5 261.3,72.5 257,74.5 257.8,70.2 
					254.4,67.1 259.1,66.5 				"/>
				<rect x="246.3" y="79.8" fill="#FFB210" width="30" height="3.8"/>
				<rect x="246.3" y="53.5" fill="#FFB210" width="30" height="3.8"/>
			</g>
			<g>
				<polygon fill="#FFB210" points="261.3,192.6 263.4,196.5 268.2,197.1 264.7,200.2 265.5,204.5 261.3,202.5 257,204.5 
					257.8,200.2 254.4,197.1 259.1,196.5 				"/>
				<rect x="246.3" y="209.8" fill="#FFB210" width="30" height="3.8"/>
				<rect x="246.3" y="183.5" fill="#FFB210" width="30" height="3.8"/>
			</g>
		</g>
	</g>
	<g id="purple1">
		<rect x="195.9" y="47.3" fill="#5E5571" width="40" height="172.4"/>
		<g>
			<g>
				<polygon fill="#FFB210" points="215.9,62.6 218.1,66.5 222.8,67.1 219.4,70.2 220.2,74.5 215.9,72.5 211.7,74.5 212.5,70.2 
					209,67.1 213.8,66.5 				"/>
				<rect x="200.9" y="79.8" fill="#FFB210" width="30" height="3.8"/>
				<rect x="200.9" y="53.5" fill="#FFB210" width="30" height="3.8"/>
			</g>
			<g>
				<polygon fill="#FFB210" points="215.9,192.6 218.1,196.5 222.8,197.1 219.4,200.2 220.2,204.5 215.9,202.5 211.7,204.5 
					212.5,200.2 209,197.1 213.8,196.5 				"/>
				<rect x="200.9" y="209.8" fill="#FFB210" width="30" height="3.8"/>
				<rect x="200.9" y="183.5" fill="#FFB210" width="30" height="3.8"/>
			</g>
		</g>
	</g>
</g>


<g id="pile_6_">
	<g id="golden">
		<path fill="#9486B3" d="M186.3,182.9H52.4c0,0-8.5-0.6-8.5,18.9c0,19.5,8.4,17.9,8.4,17.9h134c0,0-7.4-5.6-7.4-18.4
			C178.9,188.5,186.3,182.9,186.3,182.9z"/>
		<path fill="#FFCC64" d="M183.9,185.8H54.6c0,0-7.4,1.2-7.4,15.9c0,14.7,6.5,14.6,6.5,14.6h129.9c0,0-4-5.6-4-14.5
			C179.5,192.2,183.9,185.8,183.9,185.8z"/>
	</g>
	<g id="purple">
		<rect x="32.1" y="160.4" fill="#5E5571" width="154.2" height="19.3"/>
		<rect x="44.5" y="160.4" fill="#FFFFFF" width="3.3" height="19.3"/>
		<rect x="57.9" y="160.4" fill="#FFFFFF" width="4.4" height="19.3"/>
	</g>
	
	<!-- FAHRENHEIT
		<a  class="hvr-wobble-vertical" xlink:href="#book2" title="Pick this Book!" xlink:title="Pick this Book!">  -->
			<g id="fahrenheit">
				<g>
					<rect x="12.7" y="136.8" fill-rule="evenodd" clip-rule="evenodd" fill="#866E5E" width="7.6" height="19"/>
					<rect x="22.3" y="136.8" fill-rule="evenodd" clip-rule="evenodd" fill="#866E5E" width="152" height="19"/>
					<rect x="176.2" y="136.8" fill-rule="evenodd" clip-rule="evenodd" fill="#866E5E" width="7.6" height="19"/>
				</g>
				<!-- <g>
					<path fill="#FFFFFF" d="M39.6,141.2h4.9c0,0.1,0,0.2,0,0.3s0,0.2,0,0.3s0,0.2,0,0.3s0,0.2,0,0.3h-3.6v2.7h3c0,0.1,0,0.2,0,0.3
						s0,0.2,0,0.3s0,0.2,0,0.3s0,0.2,0,0.3h-3v4.3c-0.1,0-0.2,0-0.3,0c-0.1,0-0.2,0-0.3,0c-0.1,0-0.2,0-0.3,0c-0.1,0-0.2,0-0.3,0
						V141.2z"/>
					<path fill="#FFFFFF" d="M51.7,148.4h-3.5l-0.6,2.2c-0.1,0-0.2,0-0.3,0c-0.1,0-0.2,0-0.3,0c-0.1,0-0.2,0-0.4,0c-0.1,0-0.2,0-0.3,0
						l3-9.3c0.1,0,0.2,0,0.4,0c0.1,0,0.3,0,0.4,0c0.1,0,0.2,0,0.4,0c0.1,0,0.3,0,0.4,0l3,9.3c-0.1,0-0.2,0-0.4,0c-0.1,0-0.3,0-0.4,0
						c-0.1,0-0.2,0-0.3,0c-0.1,0-0.2,0-0.3,0L51.7,148.4z M48.5,147.2h2.8l-1.4-4.8L48.5,147.2z"/>
					<path fill="#FFFFFF" d="M56.6,141.2c0.1,0,0.2,0,0.3,0c0.1,0,0.2,0,0.3,0c0.1,0,0.2,0,0.3,0c0.1,0,0.2,0,0.3,0v3.8h4v-3.8
						c0.1,0,0.2,0,0.3,0c0.1,0,0.2,0,0.3,0c0.1,0,0.2,0,0.3,0c0.1,0,0.2,0,0.3,0v9.3c-0.1,0-0.2,0-0.3,0c-0.1,0-0.2,0-0.4,0
						c-0.1,0-0.2,0-0.3,0c-0.1,0-0.2,0-0.3,0v-4.3h-4v4.3c-0.1,0-0.2,0-0.3,0c-0.1,0-0.2,0-0.3,0c-0.1,0-0.2,0-0.3,0
						c-0.1,0-0.2,0-0.3,0V141.2z"/>
					<path fill="#FFFFFF" d="M67.1,141.2c0.2,0,0.4,0,0.5-0.1s0.3,0,0.5,0c0.2,0,0.3,0,0.5,0c0.2,0,0.3,0,0.5,0c0.4,0,0.9,0,1.3,0.1
						c0.4,0.1,0.8,0.2,1.2,0.5s0.6,0.5,0.8,0.9c0.2,0.4,0.3,0.8,0.3,1.4c0,0.3-0.1,0.6-0.2,0.9s-0.3,0.5-0.4,0.7
						c-0.2,0.2-0.4,0.4-0.6,0.6s-0.4,0.3-0.6,0.4l-0.2,0.1l2.7,3.9c-0.2,0-0.5,0-0.8,0c-0.2,0-0.5,0-0.7,0l-3-4.3v-0.1l0.1,0
						c0.2-0.1,0.5-0.1,0.7-0.2s0.5-0.2,0.7-0.4c0.2-0.2,0.4-0.4,0.6-0.6s0.2-0.5,0.2-0.9c0-0.6-0.2-1.1-0.6-1.4s-0.9-0.5-1.5-0.5
						c-0.1,0-0.3,0-0.4,0c-0.1,0-0.3,0-0.4,0v8.3c-0.1,0-0.2,0-0.3,0s-0.2,0-0.3,0c-0.1,0-0.2,0-0.3,0c-0.1,0-0.2,0-0.3,0V141.2z"/>
					<path fill="#FFFFFF" d="M76.4,141.2h5.1c0,0.2,0,0.4,0,0.6c0,0.1,0,0.2,0,0.3c0,0.1,0,0.2,0,0.3h-3.8v2.7h3c0,0.1,0,0.2,0,0.3
						s0,0.2,0,0.3s0,0.2,0,0.3s0,0.2,0,0.3h-3v3.2h3.9c0,0.2,0,0.4,0,0.6c0,0.1,0,0.2,0,0.3c0,0.1,0,0.2,0,0.3h-5.2V141.2z"/>
					<path fill="#FFFFFF" d="M85,141.2c0.1,0,0.2,0,0.3,0c0.1,0,0.2,0,0.3,0c0.1,0,0.2,0,0.3,0c0.1,0,0.2,0,0.3,0l4.1,7v-7
						c0.1,0,0.2,0,0.3,0c0.1,0,0.2,0,0.3,0c0.1,0,0.2,0,0.3,0c0.1,0,0.2,0,0.3,0v9.3c-0.1,0-0.2,0-0.3,0c-0.1,0-0.2,0-0.3,0
						c-0.1,0-0.2,0-0.3,0c-0.1,0-0.2,0-0.3,0l-4.1-7v7c-0.1,0-0.2,0-0.3,0c-0.1,0-0.2,0-0.3,0c-0.1,0-0.2,0-0.3,0c-0.1,0-0.2,0-0.3,0
						V141.2z"/>
					<path fill="#FFFFFF" d="M95.4,141.2c0.1,0,0.2,0,0.3,0c0.1,0,0.2,0,0.3,0c0.1,0,0.2,0,0.3,0c0.1,0,0.2,0,0.3,0v3.8h4v-3.8
						c0.1,0,0.2,0,0.3,0c0.1,0,0.2,0,0.3,0c0.1,0,0.2,0,0.3,0c0.1,0,0.2,0,0.3,0v9.3c-0.1,0-0.2,0-0.3,0c-0.1,0-0.2,0-0.4,0
						c-0.1,0-0.2,0-0.3,0c-0.1,0-0.2,0-0.3,0v-4.3h-4v4.3c-0.1,0-0.2,0-0.3,0c-0.1,0-0.2,0-0.3,0c-0.1,0-0.2,0-0.3,0
						c-0.1,0-0.2,0-0.3,0V141.2z"/>
					<path fill="#FFFFFF" d="M105.8,141.2h5.1c0,0.2,0,0.4,0,0.6c0,0.1,0,0.2,0,0.3c0,0.1,0,0.2,0,0.3h-3.8v2.7h3c0,0.1,0,0.2,0,0.3
						c0,0.1,0,0.2,0,0.3s0,0.2,0,0.3c0,0.1,0,0.2,0,0.3h-3v3.2h3.9c0,0.2,0,0.4,0,0.6c0,0.1,0,0.2,0,0.3c0,0.1,0,0.2,0,0.3h-5.2V141.2
						z"/>
					<path fill="#FFFFFF" d="M114.4,141.2c0.1,0,0.2,0,0.3,0c0.1,0,0.2,0,0.3,0s0.2,0,0.3,0c0.1,0,0.2,0,0.3,0v9.3c-0.1,0-0.2,0-0.3,0
						c-0.1,0-0.2,0-0.3,0c-0.1,0-0.2,0-0.3,0c-0.1,0-0.2,0-0.3,0V141.2z"/>
					<path fill="#FFFFFF" d="M121.2,142.4h-2.4c0-0.1,0-0.2,0-0.3s0-0.2,0-0.3s0-0.2,0-0.3s0-0.2,0-0.3h6.2c0,0.1,0,0.2,0,0.3
						c0,0.1,0,0.2,0,0.3c0,0.1,0,0.2,0,0.3c0,0.1,0,0.2,0,0.3h-2.4v8.2c-0.2,0-0.4,0-0.6,0c-0.2,0-0.5,0-0.7,0V142.4z"/>
					<path fill="#FFFFFF" d="M132,149.6l-0.1-0.1l3.8-7.5c0.2,0,0.4,0.1,0.6,0.1c0.2,0.1,0.4,0.2,0.6,0.3l-3,6h2.6v-2.5
						c0.1,0,0.2,0,0.3,0c0.1,0,0.2,0,0.3,0c0.1,0,0.2,0,0.3,0c0.1,0,0.2,0,0.3,0v2.5h1.2c0,0.1,0,0.2,0,0.3c0,0.1,0,0.2,0,0.3
						c0,0.1,0,0.2,0,0.3s0,0.2,0,0.3h-1.2v1.8c-0.1,0-0.2,0-0.3,0s-0.2,0-0.3,0c-0.1,0-0.2,0-0.3,0s-0.2,0-0.3,0v-1.8H132z"/>
					<path fill="#FFFFFF" d="M147.4,148.3c0,0.5-0.1,1-0.3,1.4s-0.5,0.7-0.8,1c-0.3,0.3-0.7,0.5-1.2,0.6c-0.5,0.1-0.9,0.2-1.5,0.2
						c-0.3,0-0.7,0-1.1-0.1s-0.7-0.2-1-0.3c0-0.2,0.1-0.4,0.1-0.6s0.1-0.4,0.2-0.5c0.3,0.1,0.5,0.2,0.8,0.2c0.3,0.1,0.6,0.1,0.9,0.1
						c0.8,0,1.3-0.2,1.7-0.5c0.4-0.3,0.6-0.8,0.6-1.5c0-0.2,0-0.5-0.1-0.7c-0.1-0.2-0.2-0.4-0.4-0.6c-0.2-0.2-0.4-0.3-0.6-0.4
						c-0.3-0.1-0.6-0.1-1-0.1c-0.3,0-0.5,0-0.8,0.1s-0.5,0.1-0.7,0.2l-0.1-0.1c0-0.8,0.1-1.5,0.1-2.3s0.1-1.5,0.1-2.3h4.4
						c0,0.1,0,0.2,0,0.3c0,0.1,0,0.2,0,0.3c0,0.1,0,0.2,0,0.3c0,0.1,0,0.2,0,0.3h-3.3l-0.1,2.3c0.2,0,0.3-0.1,0.5-0.1s0.3,0,0.4,0
						c0.4,0,0.8,0.1,1.2,0.2s0.7,0.3,0.9,0.5c0.3,0.2,0.4,0.5,0.6,0.9C147.4,147.5,147.4,147.9,147.4,148.3z"/>
					<path fill="#FFFFFF" d="M151.9,144.7c-0.1-0.1-0.2-0.3-0.3-0.4c-0.1-0.1-0.1-0.3-0.2-0.5l3.5-1.7h0.2v7.3h1.9c0,0.2,0,0.4,0,0.5
						c0,0.2,0,0.4,0,0.6h-5.1c0-0.2-0.1-0.4-0.1-0.6c0-0.2,0-0.4,0.1-0.5h2v-5.6L151.9,144.7z"/>
				</g>-->
			</g>

		<g id="alarm">
			<circle fill-rule="evenodd" clip-rule="evenodd" fill="#59788D" cx="156.3" cy="99.7" r="30.1"/>
			<path fill-rule="evenodd" clip-rule="evenodd" fill="#FEFDFA" d="M156.3,124.2c13.5,0,24.4-11,24.4-24.5c0-13.5-11-24.4-24.4-24.4
				c-13.5,0-24.5,11-24.5,24.4C131.8,113.2,142.8,124.2,156.3,124.2z"/>
			<path fill-rule="evenodd" clip-rule="evenodd" fill="#59788D" d="M139.3,62.3c4.2,0,7.9,1.8,10.5,4.8c-9.6,1.9-17.7,7.9-22.4,16.2
				c-1.2-2.1-1.9-4.5-1.9-7C125.4,68.5,131.7,62.3,139.3,62.3L139.3,62.3z M173.3,62.3c7.7,0,13.9,6.2,13.9,13.9c0,2.6-0.7,5-1.9,7
				c-4.7-8.2-12.8-14.3-22.4-16.2C165.3,64.1,169.1,62.3,173.3,62.3z"/>
			<path fill-rule="evenodd" clip-rule="evenodd" fill="#59788D" d="M142.1,129.9c-0.9,1.9-2.8,3.3-5,3.3c-3,0-5.5-2.5-5.5-5.5
				c0-1.5,0.6-2.9,1.6-3.9C135.8,126.2,138.8,128.3,142.1,129.9z"/>
			<path fill-rule="evenodd" clip-rule="evenodd" fill="#59788D" d="M179.4,123.7c1,1,1.6,2.4,1.6,3.9c0,3-2.5,5.5-5.5,5.5
				c-2.3,0-4.2-1.4-5-3.3C173.8,128.3,176.8,126.2,179.4,123.7z"/>
			<path fill-rule="evenodd" clip-rule="evenodd" fill="#59788D" d="M156.3,51.8c11.3,0,20.8,5.3,24.3,12.6c1.5,0.9,2.8,2.2,3.8,3.6
				c-1.7-10.4-13.7-18.5-28.2-18.5c-14.5,0-26.5,8.1-28.2,18.5c1-1.4,2.3-2.6,3.8-3.6C135.5,57.1,145,51.8,156.3,51.8z"/>
		</g>
		
	<!-- </a>
	/ FAHRENHEIT -->
	

</g>
</svg>

