
<svg version="1.1" id="hills" xmlns="http://www.w3.org/2000/svg" xmlns:xlink="http://www.w3.org/1999/xlink" x="0px" y="0px"
	 viewBox="0 0 3601.5 863.4" style="enable-background:new 0 0 3601.5 863.4;" xml:space="preserve">
<linearGradient id="landscape_1_" gradientUnits="userSpaceOnUse" x1="1800.2377" y1="748.455" x2="1800.2377" y2="429.2197">
	<stop  offset="5.233180e-003" style="stop-color:#4D544D"/>
	<stop  offset="0.2587" style="stop-color:#474B47"/>
	<stop  offset="0.6656" style="stop-color:#383436"/>
	<stop  offset="0.8208" style="stop-color:#31292E"/>
	<stop  offset="1" style="stop-color:#292226"/>
</linearGradient>
<path id="landscape" style="fill:url(#landscape_1_);" d="M1316.8,592c17.5,7.8,24.5-12.7,35.3-18.2c10.8-5.5,19.6,9.1,43.1-6.4
	s34.5-62.7,57-71.8s61.7-35.5,86.2-52.7c24.5-17.3,59.8-18.2,86.2-16.4s51.9-33.6,81.3-35.4c29.4-1.8,78.8-37.9,90.6-41.6
	c11.8-3.7,25.5-6.6,39.2-4.7s25.5-2.8,35.3-5.5c9.8-2.7,26.7,17.2,42.3,20c15.7,2.8,26.3,13.6,57.6,7.2s92.1,17.3,92.1,17.3
	s128.9-73.4,176.9-47.4s116.3,11.4,160,80.7c16,25.3,137.9,73,176,61.3c41.3-12.7,64.7,42.7,110,52c24.8,5.1,68,14,68,14
	s53.1-31,126-32c110.1-1.5,274.2-188,418.3-193.2c154.9-5.5,286.7,30.4,303.2,31.2v514H0l-1-377.9c0,0,85.2-104.1,242.6-12.6
	c0,0,19.5,15,142.5,4.5c0,0,54.5-4.5,105.5,64.5c0,0,20.5,30,85,27c0,0,55.5-18,93,19.5s67.5-10.5,120-7.5c52.5,3,36,49.5,178.5,33
	C1108.6,598.5,1124.5,506.1,1316.8,592z"/>
<g id="house">
	<path id="bg" style="opacity:0.9;fill:#5C5559;" d="M1872,218.8l230.5,2.4c0,0,33.5,49.5,32.5,52.8c-1,3.3,0,113,0,113l-77,22
		l-177.8,2l-117.2-24l22-141.2l30-25.8L1872,218.8"/>
	<g id="center">
		<linearGradient id="bigwindow_1_" gradientUnits="userSpaceOnUse" x1="1951.1259" y1="380.9784" x2="1951.1259" y2="255.1412">
			<stop  offset="0" style="stop-color:#FF7300"/>
			<stop  offset="0.1771" style="stop-color:#F97C01"/>
			<stop  offset="0.4705" style="stop-color:#EA9602"/>
			<stop  offset="0.5521" style="stop-color:#E59E03"/>
			<stop  offset="0.8652" style="stop-color:#E5C500"/>
			<stop  offset="0.9944" style="stop-color:#BF6F00"/>
		</linearGradient>
		<rect id="bigwindow" class="fire" x="1888.2" y="327.7" style="opacity:0.8;fill:url(#bigwindow_1_);" width="125.8" height="106.5"/>
		<linearGradient id="thirdwindow_1_" gradientUnits="userSpaceOnUse" x1="1953.5458" y1="325.8822" x2="1953.5458" y2="207.0829">
			<stop  offset="0" style="stop-color:#FF7300"/>
			<stop  offset="0.1771" style="stop-color:#F97C01"/>
			<stop  offset="0.4705" style="stop-color:#EA9602"/>
			<stop  offset="0.5521" style="stop-color:#E59E03"/>
			<stop  offset="0.8652" style="stop-color:#E5C500"/>
			<stop  offset="0.9944" style="stop-color:#BF6F00"/>
		</linearGradient>
		<rect id="thirdwindow" class="fire2" x="1879.7" y="251.9" style="opacity:0.8;fill:url(#thirdwindow_1_);" width="147.6" height="44.4"/>
		<linearGradient id="secodwindow_1_" gradientUnits="userSpaceOnUse" x1="1909.9868" y1="201.2974" x2="1998.3148" y2="201.2974">
			<stop  offset="0" style="stop-color:#FF7300"/>
			<stop  offset="0.1771" style="stop-color:#F97C01"/>
			<stop  offset="0.4705" style="stop-color:#EA9602"/>
			<stop  offset="0.5521" style="stop-color:#E59E03"/>
			<stop  offset="0.8652" style="stop-color:#E5C500"/>
			<stop  offset="0.9944" style="stop-color:#BF6F00"/>
		</linearGradient>
		<rect id="secondwindow" class="fire3" x="1910" y="182.5" style="opacity:0.8;fill:url(#secodwindow_1_);" width="88.3" height="37.5"/>
		<g id="figure" class="moving_figure" style="opacity:0.9;">
			<path style="fill:#77272D;" d="M1922.3,194c0,0-6.4-3.2-9.5,1.2c-0.8,1.1,1,1.8,0.4,3.7c0,0,1.2,3,1.1,6.3
				c-0.1,2.2-1.6,4-1.1,6.9c0,0-1.4,12.1,0,9.9c1.4-2.2,1-13.2,4.2-7.7s4.8,0.6,4.8,0.6s0.3-4.1,0.3-3S1921.2,200.7,1922.3,194z"/>
			<path style="fill:#77272D;" d="M1920.3,204c0,0-3.9,3.1-1.1,0c0.2-0.3,4.6,1.3,4.7,0c0.1-1.1-0.6-1.6-0.6-3
				c0-0.3,0.8-0.6,0.9-0.9c0-0.3-0.8-1.5-0.8-1.9c0-3.2-2.5-4.3-5.3-4.1C1918.1,194,1917.7,200.2,1920.3,204z"/>
			<path style="fill-rule:evenodd;clip-rule:evenodd;fill:#77272D;" d="M1914,207.3c0,0-4,9.4-1.4,19.8h12.4c0,0,1.7-22.2-4.8-22.2
				L1914,207.3z"/>
			<path style="fill:#77272D;" d="M1913.2,206.8"/>
		</g>
		<linearGradient id="circlewindow_1_" gradientUnits="userSpaceOnUse" x1="1951.7308" y1="188.0993" x2="1951.7308" y2="132.0742">
			<stop  offset="0" style="stop-color:#FF7300"/>
			<stop  offset="0.1771" style="stop-color:#F97C01"/>
			<stop  offset="0.4705" style="stop-color:#EA9602"/>
			<stop  offset="0.5521" style="stop-color:#E59E03"/>
			<stop  offset="0.8652" style="stop-color:#E5C500"/>
			<stop  offset="0.9944" style="stop-color:#BF6F00"/>
		</linearGradient>
		<rect id="circlewindow" x="1936.9" y="137.1" style="opacity:0.8;fill:url(#circlewindow_1_);" width="29.7" height="40.2"/>
		<g id="bottom">
			<path id="cat" style="fill:#292226;" d="M1981,398c0.4,1.1,0.9,2.9,1.2,3.5c0.3,0.6,0.5,1,0.6,1.1c0.1,0.2,0,1.6,0,2.5
				c0,0.9,0,3.1,0,3.4c0,0.3-0.1,1.1-0.5,1.3c-0.3,0.2-1.1,0.4-1.1,0.9c0,0.5,0.2,0.5,0.8,0.6c0.6,0.1,1.2,0.1,1.5-0.2
				c0.3-0.3,0.7-1,0.7-1.5c0-0.5,0-1.4,0.1-1.7c0.1-0.3,0.2-0.9,0.3-0.9c0.2,0,0.3,0.3,0.4,0.6c0.1,0.3,0,1.2,0,1.3
				c-0.1,0.2-0.7,0.7-0.6,1c0.1,0.3,0.3,0.4,0.3,0.4l-0.1,0.1c0,0-0.5,0.2-0.5,0.6c0.1,0.4,0,0.8,0.7,0.9c0.6,0.1,1.3,0.2,1.7-0.1
				c0.4-0.3,0.2-1.2,0.4-1.4c0.2-0.2,0.9-0.3,1.4-0.2c0.4,0.1,0.8,0.1,0.8,0.1s-0.2,0.8,0.3,0.9c0.5,0.2,1.3,0.2,1.7,0
				c0.4-0.2,2-0.7,2.5-0.7c0.5-0.1,0.8,0,1-0.3c0.2-0.3,0.1-0.5,0.2-0.6c0.2-0.1,1.7-1,2.5-1.3c0.8-0.3,1.1-0.5,1.4-0.6
				s0.2-0.4,0-0.4c-0.2-0.1-0.6-0.4-1.7-0.3c-1.1,0.1-1.9,0.7-1.9,0.7s-0.2,0-0.1-0.6c0.1-0.6,0.3-0.8,0.2-1.4
				c-0.1-0.6-0.2-1.9-0.5-2.6c-0.3-0.7-0.4-0.8-0.4-0.8s-0.1-1.1-0.3-2.1c-0.2-1-1.2-3.1-2.1-4c-1-0.9-3.7-1.7-3.7-1.7
				s-0.2-0.5-0.4-0.8c-0.2-0.3-0.6-0.5-0.7-0.8c-0.1-0.3-0.2-0.9-0.2-0.9s0.4-1.2,0.4-1.8c0-0.7,0.2-1.6-0.3-1.8
				c-0.4-0.1-1.4,0.7-1.8,1c-0.3,0.3-0.4,0.6-0.7,0.7c-0.3,0.1-0.8,0-1.1,0c-0.3,0-0.8,0.1-1,0c-0.2-0.1-0.9-0.6-1.2-0.9
				c-0.3-0.3-1.2-1.2-1.5-0.9c-0.3,0.3,0,1.6,0.1,2.1c0.1,0.4,0.6,1.5,0.6,1.5s-0.6,0.9-0.4,1.9c0.2,1.1,1,2.2,1,2.2
				S1980.6,396.9,1981,398z"/>
			<path style="fill:#292226;" d="M2039.5,245.9H1866l3.6,197.6l168.6,2.2L2039.5,245.9z M2002.5,252.1h10.3v14.5h-10.3V252.1z
				 M2002.5,270.3h10.3v19.4h-10.3V270.3z M1985.6,252.1h12.7v14.5h-12.7V252.1z M1985.6,270.3h12.7v20l-12.7-1.2V270.3z
				 M1955.8,253.9h10.3v14.5h-10.3V253.9z M1955.8,272.1h10.1l0.2,19.4h-10.3V272.1z M1940,253.7h11.5v14.7h-12.7L1940,253.7z
				 M1938.8,272.1h12.7v18.8h-12.7V272.1z M1908.2,252.7h10.3v14.5h-10.3V252.7z M1908.2,270.9h10.3v20.6h-10.3V270.9z
				 M1892.2,253.5l11.7-0.8v14.5l-11.7,1V253.5z M1892.2,270.9h11.7v20h-11.7V270.9z M1926.9,409.4h-15.7l-1.2-41.6h16.9V409.4z
				 M1914,348.3c6.7-8.5,11.7-6,11.7-6l1.2,21.2H1910C1910,363.4,1907.3,356.8,1914,348.3z M1945.1,409.4h-12.7v-41.6h13.9
				L1945.1,409.4z M1947.5,363.4h-15.7l-1.2-21.2c0,0,9.4-1.5,13.9,7C1949,357.8,1947.5,363.4,1947.5,363.4z M1971.7,409.4h-13.3
				v-41.6h13.3V409.4z M1972.7,363.2l-14.3,0.2c0,0-1.9-9.3,2-16.2c3.9-6.8,12.5-5,12.5-5L1972.7,363.2z M1992.3,409.4h-16.3v-41.6
				h16.3V409.4z M1992.3,363.4h-15.7v-21.2c0,0,7.4-2.5,12.9,6C1995,356.8,1992.3,363.4,1992.3,363.4z M2035.8,310.2h-163.3v-3
				h163.3V310.2z"/>
			<path style="fill:#292226;" d="M1866,245.9c0,0-2-2.2-5-4.6h183.3l-4.8,4.6H1866z"/>
		</g>
		<path style="fill:#292226;" d="M2040.4,217.6c0,0-22.2-7.7-25.8-25h4c0,0,2.8-2.8-0.4-4.8c0,0-6-3.6-7.3-6h-3.6v-3.2h4.4l-4.4-4.4
			c0,0,8.5-2.8,3.6-12.5c0,0-0.8-5.2-10.9-6.5c0,0-13.7-2-17.3-10.1c0,0-3.2-1.6,0-5.6c0,0,2-4.4-1.4-3.2l-3.4,1.6v-4
			c0,0,3.6-1.4,2.4-2.6l-2.4-2l-0.2-6l4.6-6.3l-31.1-20l-29.6,22.6l6,4.6v7.5l-2.4,2c-1.2,1.2,2.4,2.6,2.4,2.6v4l-3.4-1.6
			c-3.4-1.2-1.4,3.2-1.4,3.2c3.2,4,0,5.6,0,5.6c-3.6,8.1-17.3,10.1-17.3,10.1c-10.1,1.2-10.9,6.5-10.9,6.5
			c-4.8,9.7,3.6,12.5,3.6,12.5l-4.4,4.4h4.4v3.2h-3.6c-1.2,2.4-7.3,6-7.3,6c-3.2,2-0.4,4.8-0.4,4.8h4c-3.6,17.3-25.8,25-25.8,25
			c-10.1,12.5,1.6,17.5,1.6,17.5h172C2038.8,237.6,2050.5,230.1,2040.4,217.6z M1926.1,217h-8.5l1.2-16.5h7.3V217z M1926.1,197.3
			h-8.5l1.2-9.7l7.3-1.6V197.3z M1938.2,217h-8.5v-16.5h8.5V217z M1938.6,196.1c0,2-8.9,1.2-8.9,1.2V186l8.9,0.8
			C1938.6,186.8,1938.6,194,1938.6,196.1z M1952.8,170c-5.3,0-9.7-4.3-9.7-9.7c0-5.3,4.3-9.7,9.7-9.7c5.3,0,9.7,4.3,9.7,9.7
			C1962.5,165.7,1958.1,170,1952.8,170z M1974.1,217.2h-8.5v-16.5h8.5V217.2z M1974.1,197.5h-8.5v-10.9l8.5-0.4V197.5z M1985,217.2
			h-7.3v-16.5h7.3V217.2z M1985.6,196.3c0,2-7.9,1.2-7.9,1.2v-11.3l7.9,0.4C1985.6,186.6,1985.6,194.2,1985.6,196.3z"/>
	</g>
	<g id="righthouse">
		<linearGradient id="SVGID_1_" gradientUnits="userSpaceOnUse" x1="2073.803" y1="342.3357" x2="2073.803" y2="278.6798">
			<stop  offset="0" style="stop-color:#FF7300"/>
			<stop  offset="0.1771" style="stop-color:#F97C01"/>
			<stop  offset="0.4705" style="stop-color:#EA9602"/>
			<stop  offset="0.5521" style="stop-color:#E59E03"/>
			<stop  offset="0.8652" style="stop-color:#E5C500"/>
			<stop  offset="0.9944" style="stop-color:#BF6F00"/>
		</linearGradient>
		<rect x="2045.1" y="284.4" class="fire4" style="fill:url(#SVGID_1_);" width="57.5" height="45.6"/>
		<linearGradient id="SVGID_2_" gradientUnits="userSpaceOnUse" x1="2075.5752" y1="284.3157" x2="2075.5752" y2="242.0433">
			<stop  offset="0" style="stop-color:#FF7300"/>
			<stop  offset="0.1771" style="stop-color:#F97C01"/>
			<stop  offset="0.4705" style="stop-color:#EA9602"/>
			<stop  offset="0.5521" style="stop-color:#E59E03"/>
			<stop  offset="0.8652" style="stop-color:#E5C500"/>
			<stop  offset="0.9944" style="stop-color:#BF6F00"/>
		</linearGradient>
		<path style="fill:url(#SVGID_2_);" d="M2066.1,276.2h18.9c1,0,1.8-0.8,1.8-1.8v-26.8c0-1-0.8-1.8-1.8-1.8h-18.9
			c-1,0-1.8,0.8-1.8,1.8v26.8C2064.4,275.4,2065.2,276.2,2066.1,276.2z"/>
		<path style="fill:#292226;" d="M2108.4,282.2l-70.8-0.4l0.4,135.9l71.9-3L2108.4,282.2z M2086,291.8l6.3,0.8v8.1h-6.3V291.8z
			 M2092.1,303.5v18.3h-5.2l-0.8-18.3H2092.1z M2076.4,291.8h7.3v9.3h-7.7L2076.4,291.8z M2076,303.5h7.7v18.3h-7.7V303.5z
			 M2060.6,291.8h7.6v10.5h-7.6V291.8z M2068.2,304.8v17h-7.2l-0.4-17H2068.2z M2049.7,292.7l7.7-0.8v10.5h-7.7V292.7z
			 M2049.7,304.8h7.7v17h-7.7V304.8z M2104,335.3l-64.4,0.5v-2l65.6-0.3L2104,335.3z"/>
		<path style="fill:#292226;" d="M2110.1,272.6c0,0-9.2-2.9-10.7-9.4h1.7c0,0,1.2-1.1-0.2-1.8c0,0-2.5-1.4-3-2.3h-1.5v-1.2h1.8
			l-1.8-1.7c0,0,3.5-1.1,1.5-4.7c0,0-0.3-2-4.5-2.4c0,0-5.7-0.8-7.2-3.8c0,0-1.3-0.6,0-2.1c0,0,0.8-1.7-0.6-1.2l-1.4,0.6v-1.5
			c0,0,1.5-0.5,1-1l-1-0.8l-0.1-2.3l1.9-2.3l-12.9-7.5l-12.3,8.5l2.5,1.7v2.8l-1,0.8c-0.5,0.5,1,1,1,1v1.5l-1.4-0.6
			c-1.4-0.5-0.6,1.2-0.6,1.2c1.3,1.5,0,2.1,0,2.1c-1.5,3-7.2,3.8-7.2,3.8c-4.2,0.5-4.5,2.4-4.5,2.4c-2,3.6,1.5,4.7,1.5,4.7l-1.8,1.7
			h1.8v1.2h-1.5c-0.5,0.9-3,2.3-3,2.3c-1.3,0.8-0.2,1.8-0.2,1.8h1.7c-1.5,6.5-10.7,9.4-10.7,9.4c-4.2,4.7,0.7,6.6,0.7,6.6h70.2
			C2108.4,280.1,2114.3,277.3,2110.1,272.6z M2073.8,254.8c-2.2,0-4-1.6-4-3.6c0-2,1.8-3.6,4-3.6c2.2,0,4,1.6,4,3.6
			C2077.8,253.1,2076,254.8,2073.8,254.8z"/>
	</g>
	<g id="lefthouse">
		<linearGradient id="SVGID_3_" gradientUnits="userSpaceOnUse" x1="1832.246" y1="340.0166" x2="1832.246" y2="276.3607">
			<stop  offset="0" style="stop-color:#FF7300"/>
			<stop  offset="0.1771" style="stop-color:#F97C01"/>
			<stop  offset="0.4705" style="stop-color:#EA9602"/>
			<stop  offset="0.5521" style="stop-color:#E59E03"/>
			<stop  offset="0.8652" style="stop-color:#E5C500"/>
			<stop  offset="0.9944" style="stop-color:#BF6F00"/>
		</linearGradient>
		<rect x="1803.5" y="282.1" class="fire4"  style="fill:url(#SVGID_3_);" width="57.5" height="45.6"/>
		<linearGradient id="SVGID_4_" gradientUnits="userSpaceOnUse" x1="1834.0183" y1="281.9966" x2="1834.0183" y2="239.7242">
			<stop  offset="0" style="stop-color:#FF7300"/>
			<stop  offset="0.1771" style="stop-color:#F97C01"/>
			<stop  offset="0.4705" style="stop-color:#EA9602"/>
			<stop  offset="0.5521" style="stop-color:#E59E03"/>
			<stop  offset="0.8652" style="stop-color:#E5C500"/>
			<stop  offset="0.9944" style="stop-color:#BF6F00"/>
		</linearGradient>
		<path style="fill:url(#SVGID_4_);" d="M1824.6,273.8h18.9c1,0,1.8-0.8,1.8-1.8v-26.8c0-1-0.8-1.8-1.8-1.8h-18.9
			c-1,0-1.8,0.8-1.8,1.8v26.8C1822.8,273.1,1823.6,273.8,1824.6,273.8z"/>
		<path style="fill:#292226;" d="M1869.7,282.2l-71.8-0.4l0.4,134.9l71.9,1L1869.7,282.2z M1846.3,291.8l6.3-0.2v9.1h-6.3V291.8z
			 M1852.3,303.5v18.3h-5.2l-0.8-18.3H1852.3z M1836.6,291.8h7.3v9.3h-7.7L1836.6,291.8z M1836.2,303.5h7.7v18.3h-7.7V303.5z
			 M1820.9,291.8h7.6v10.5h-7.6V291.8z M1828.4,304.8v17h-7.2l-0.4-17H1828.4z M1811,292.7l6.7-0.8v10.5h-7.7L1811,292.7z
			 M1810,304.8h7.7v17h-7.7V304.8z M1864.2,336.3l-62.4-0.5v-2l63.6-0.3L1864.2,336.3z"/>
		<path style="fill:#292226;" d="M1870.3,272.6c0,0-9.2-2.9-10.7-9.4h1.7c0,0,1.2-1.1-0.2-1.8c0,0-2.5-1.4-3-2.3h-1.5v-1.2h1.8
			l-1.8-1.7c0,0,3.5-1.1,1.5-4.7c0,0-0.3-2-4.5-2.4c0,0-5.7-0.8-7.2-3.8c0,0-1.3-0.6,0-2.1c0,0,0.8-1.7-0.6-1.2l-1.4,0.6v-1.5
			c0,0,1.5-0.5,1-1l-1-0.8l-0.1-2.3l1.9-2.3l-12.9-7.5l-12.3,8.5l2.5,1.7v2.8l-1,0.8c-0.5,0.5,1,1,1,1v1.5l-1.4-0.6
			c-1.4-0.5-0.6,1.2-0.6,1.2c1.3,1.5,0,2.1,0,2.1c-1.5,3-7.2,3.8-7.2,3.8c-4.2,0.5-4.5,2.4-4.5,2.4c-2,3.6,1.5,4.7,1.5,4.7l-1.8,1.7
			h1.8v1.2h-1.5c-0.5,0.9-3,2.3-3,2.3c-1.3,0.8-0.2,1.8-0.2,1.8h1.7c-1.5,6.5-10.7,9.4-10.7,9.4c-4.2,4.7,0.7,6.6,0.7,6.6h71.2
			C1869.6,280.1,1874.5,277.3,1870.3,272.6z M1834,254.8c-2.2,0-4-1.6-4-3.6c0-2,1.8-3.6,4-3.6c2.2,0,4,1.6,4,3.6
			C1838,253.1,1836.2,254.8,1834,254.8z"/>
	</g>
	<path id="tree1" style="fill:#292226;" d="M2182.9,320.4c0.5,1,0.8,2.1,1,3.3c0.9,3.8,0.3,7.6-3.9,7.8c-1.9,0.1-4.3,0.2-6.1,0.7
		c-1.8,0.5-2.9,2.6-4.8,2.8c-1.4,0.1-2.7-0.3-4.1-0.2c-4.5,0.1-7.8,4.2-9.2,8.6c3.2-0.4,5-3.7,8.7-3c1.6,0.3,2.8,1.4,4.6,0.9
		c2.4-0.7,4.5-3.3,5.3,0.8c1,5.1-0.3,9.5-5.4,9.6c-3.2,0.1-4.4,1.3-4.2,5c1.5-0.2,2.9-1.9,4.4-2.5c1.3-0.5,2.5-1,3.8-0.9
		c1.7,0.1,3,1.2,4.8,0.9c4-0.7,5.3-4.1,7.1-7.4c0.9-1.6,6.3-7.2,7.5-3.6c0.2,0.7,0.8,3.7,1.6,3.7c0.8,0,1.5-2.6,2.2-3
		c1.5-0.8,3.1,0.7,4.3,1.2c4.3,1.9,7.4,2.7,11.8,1c4.8-1.9,8,3.2,11.9,5c-0.4-0.2-1.1-2.1-1.5-2.6c-0.7-0.8-1.5-1.4-2.3-2.1
		c-1.7-1.3-3.1-2.1-5-2.8c-7.4-2.7-16.7-2-15.9-14.1c0.8-12.1,5.8-13.7,2.4-18.3c-3.4-4.7-2-8.2,0.8-12.1c2.8-4,3.5-2.6,3.7-7.5
		c0.3-5-0.2-17.6,4.4-14.4c4.6,3.2,8.3,14.7,14.1,11.8c5.1-2.5,10.8-4.4,16.3-5.3c2.3-0.4,4.2-0.3,6.4,0.2c4.2,1,7.7-2,11.6-3.6
		c3.4-1.4,7.7-3.1,11.2-2.3c5.9,1.4,11,4.4,13.6,4.7c2.7,0.3,5.7,4.6,8.5,6.7c0,0-2.1-6.7-4.6-7.9c-2.5-1.2,2.8-2.5,2.8-2.5
		s-5.3,1.5-8.5,0.4c-3.2-1.1,2.9-5.5,6.5-6.3c0,0-4.3-1.3-12.2,3.1c0,0-12.2-2-21.5,1.8c-1.2,0.5-6.3,3-4.2-1.6
		c2-4.6,7.2-9.9,5.5-14.2c-1.4,3.6-3.2,7.4-5.6,10.5c-1.2,1.6-3,4.2-4.6,5.2c-1.8,1.1-3.7,0.7-5.7,0.8c-1.8,0.1-3.7,0.8-5.5,1.4
		c-2.5,0.9-7.1,3.6-9.7,2.2c-2.7-1.5-7.2-6.4-3.7-6.5c3.4-0.1,12.5-2.1,12.9-7.8c0,0-2.9,7-17.5,4.9c0,0-9.9-2.9-5.7-7.1
		c4.2-4.2,11-15.4,16.8-12.5c3.6,1.8,7.1,3.7,10.2,6.2c2.5,1.9,8.2,10.9,11.7,8.4c0,0-3.1-1.6-4.8-5.5c-1.7-3.9,2-2.1,4.4-1.4
		c-0.5-0.2-1.4-1.6-1.9-2c-1.7-1.2-2.8-0.7-4.8-0.5c-1.8,0.1-2.1-1-3.3-2.2c-0.8-0.7-2.6-1.2-2.5-2.7c0.2-2.5,5.7-1.8,7.2-1.3
		c3.2,0.9,6.3,2.4,9.7,1.8c4.1-0.8,8.9-0.8,12.3,2.4c3.4,3.2,12.2,8.7,15.3,8.5c-1.6,0.1-5.1-3.5-6.3-4.4c-1.6-1.2-3.3-2.5-4.8-3.9
		c-1.1-1-3.1-2-3.8-3.3c1.3-0.7,2.9,0,4.2-0.3c-0.3-2.5-5.9-1.7-7.5-1.6c0,0-2.9-1,1.6-3.1c4.5-2.1,6.9-4.4,8.6-6.5
		c0,0-5.4,1.8-8.5,4c0,0,0.1-3.4,2.6-5.1c-3.7,1.4-4.5,5.6-7.1,8.3c-3,3.1-7.9,2-11.3,1c-2.8-0.8-5.3-2-8.2-1.3
		c-3.1,0.7-6.8,1.8-9.9,0.9c-3-0.9-3.9-3.8-1-5.9c5.3-4,12.5-10.1,18.7-8c6.2,2.1,7.4-2.2,11.7,1.5c4.4,3.7,7.6,1.9,11.2-0.2
		c-1.6,0.9-4.4,0.8-6,0.5c-1.7-0.3-2.4-1-3.5-2.1c-1.4-1.4-2.3-1.3-4.2-1.7c1.4-1.1,1.9-3,3.2-4.2c1.2-1.3,3-1.9,4.6-2.4
		c-2.2,0.8-4.1-0.3-6.3,1.7c-0.8,0.8-1.2,1.7-1.8,2.6c-0.9,1.5-0.5,1.3-2.2,2c-1.8,0.7-4.9,1.1-6.4-0.7c1.4-1.5,3.8-1.5,5.4-3.1
		c1.8-1.8,3.4-3.8,3.2-6.6c0,0-2.1,5.9-5.7,6.5c-3.7,0.7-2.9,2.6-7.8,2.6c-4.9,0-12.6,5.9-11.3,2.6c1.3-3.4,0.9-8.2,10.9-9.9
		c0,0-5.5-0.2-8.5,0.9c0,0-0.6-4.5,2.8-8.4c3.4-3.9,11.5-1.5,14.1-5c0,0-7,1.1-8.9,0.1c0,0,0.1-3,3.2-4c0,0-4.1-0.2-5.1,4.4
		c0,0-4.6,2.5-6.4,5.4c0,0-1.3-3.8-6.4-2.9c0,0,5.4,0.9,3.8,6.6c-1.6,5.7-3,10.7-4.4,12.1c-1.7,1.6-0.3,4-2.8,5.5
		c-1.1,0.7-1.7,0.9-2.6,2c-0.1,0.1-2.2,2.4-2.3,1.9c-0.3-2.6-1.2-5.5-2.9-7.4c-1.6-1.8-3.7-2.8-5.2-4.8c-2-2.6-1.2-7.2,2-8.7
		c-2.2-0.5-3.7,1.8-4.3,3.9c-1.1,3.7,1.9,7.3,4.3,8.9c2.3,1.6,4,6.2,3.4,9.2c-1.1,5.4-4.6,9-8.1,12.6c-1,1-6,7.4-7.5,4.6
		c-1.6-3.1-3.5-12.5,0.3-14.6c3.8-2.1,7.1-3.8,6.8-6.8c0,0-1.5,3.6-4.1,4c-2.6,0.4-6.8,3.4-6.8,5.9c0,0-3.7-6.2-2.7-10.7
		c1-4.4-1.4-12.4,1.6-15c3-2.6,7.9-11.5,12.3-12.9c2.4-0.8,4.7-2.1,7.1-3.2c2-1,4-1.8,6.1-2.5c0.9-0.3,1.8-0.8,2.5-1.4
		c0.8-0.7,1.1-1.7,1.7-2.3c-1.4,1.4-3.1,2.4-5,2.7c-2.7,0.5-5.1,1.4-7.7,2.6c-0.3,0.2-4.8,2.2-4.7,1.2c0.1-1.7,6-8,9.8-10.2
		c0,0-8.6,2.8-12.8,10.1c-4.1,7.2-11.2,13.1-12.1,10.6c-0.9-2.6-3.6-5.2-5.7-7.1c-2-1.9-3.9-3.9-2.9-6.7c1-2.8,0.4-7.4-2.1-8.8
		c0,0,1.6,8.1-0.3,9.8c-1.9,1.8,1.1,4.6,2,5.9c0.9,1.3-2.9,1.9-6.4-0.9c-3.5-2.8-10.4-2.3-11.9-4.7c-1.6-2.4-2.8-4.9-3.1-5.9
		c-0.3-0.9,0.1,7.3,4.3,9.2c4.3,2,10.9,3,10.6,5.5c-0.3,2.5-8.3,4.1-11.5,7.3c-3.2,3.1-7.8,3.8-10.1,2.7c0,0,4.4,4.4,12.2-1.1
		c7.8-5.5,17-7.7,19.2-5c2.2,2.7,1.1,11.8,2.1,18.2c0.4,2.6-1.7,4.1-4,4.8c-6.3,1.9-13.7,0.1-19.9-1.3c-1-0.2-2.5-0.4-3.3-1
		c-2-1.4-2.4-4-4.2-5.5c-0.4-0.3-5.5-5.6-5.1-5.7c0,0-1.6,0.4,0.1,2.9c1.7,2.5,8.7,9.5,5.2,8.7c-3.5-0.8-7.5-3.1-10.1-5.9
		c-2.6-2.8-12-7.2-13.6-2.4c0.4-1.2,4.4-0.7,5.1-0.5c4.2,1,7.4,5.2,10.6,8c-0.1,0.7-3.3,1.9-4.1,2.2c-1.4,0.5-3-0.1-4.4,0
		c-1.3,0.1-2.5,0.4-3.8,0.5c-2.6,0.2-5.1,1.1-7.4,2.7c-3.1,2.1-7,6-7.5,10.2c0.3-2.4,4.5-6,6.1-7.3c2-1.7,4.5-3.2,7-3.8
		c2.2-0.5,4.1,0,6.3,0c1.9,0,3.5-0.6,5.3,0.4c-3,2.6-17.9,6.5-14.7,12.7c2.7-4,4.6-5.7,8.8-7.7c3.4-1.6,7.5-3.1,10.2-5.9
		c2.3-2.3,17.6,2.8,22.7,2.9c5.1,0.1,14.6-2.2,16,3c0.8,3,2.7,5.2,3.3,8.2c0.8,3.8,1.5,7.4,2,11.3c-1.2-1.8-2.8-3.4-4.7-4.3
		c-1.7-0.9-3.7-0.6-5.6-0.9c-2.3-0.4-4.9-0.8-7.1,0.5c-2.2,1.3-3.4,3.9-5.5,5.2c-2.5,1.5-4.1-0.1-6.4-1.1c-3.5-1.5-6.9-0.9-10.3,0.8
		c-4.4,2.2-8.8,1.9-13.6,3.2c-4.8,1.3-17.6,0.3-19.6-3.8c0,0,3.5,7,12.8,6.9c0,0-0.9,6.8-4,6.4c-3.1-0.4-5.9-1.3-7.6,0.3
		c-1.7,1.6-4.6,4.2-6.7,0.7c0,0,0.5,5.9,7.3,1.3c6.8-4.6,6.8,4.2,10.4-2.2c3.6-6.4,6.2-6.9,14.2-7.6c8-0.7,14.6-1.4,17.7,0.9
		c3.1,2.4,5.7,2,10.1-1.4c4.3-3.4,8.9-5.3,11.8-2.3c2.9,3,6.2,16,2.4,19.5c-3.8,3.5-7.9,6.9-7.1,13.8
		C2186.6,311.1,2178.9,311.6,2182.9,320.4z"/>
	<g id="schornstein">
		<polygon style="fill:#292226;" points="1861,225.3 1846.5,225.3 1846.5,203.6 1853.8,201.6 1861,203.6 		"/>
		<polygon style="fill:#292226;" points="1835.2,225.3 1820.8,225.3 1820.8,203.6 1828,201.6 1835.2,203.6 		"/>
	</g>
	<g id="back">
		<path style="fill:#292226;" d="M2108.6,397.1l2-115.4c2.3-1.6,3.1-6.7,3.1-6.7c-3.5-4.8-11.9-9.4-11.9-9.4
			c2.5-1.5,1.9-4.1-0.2-5.6c-3.3-2.5-1.6-6.3-1.6-6.3c0-5.1-7.3-6.6-7.3-6.6c-6-1.2-6.6-7.9-6.6-7.9c0.8-4.5,2-4.2,2-4.2l-14.5-9.5
			l-9.5,6.2c-8.6,4.5-3.4,6.5-3.4,6.5c2.1,11.2-6.9,9.9-6.9,9.9c-9.6,2.9-5,10.3-5,10.3c-1.8,0.6-6,6.3-3.3,7.3l-4.6,4.6l0.6-23.2
			l5.3-7.5l-6.7-1.5c11.7-5.6,3.2-19.3,3.2-19.3l72.7-0.4c8.5,0,45.1,60.5,45.1,60.5l-2,117.8L2108.6,397.1z"/>
		<path style="fill:#292226;" d="M1798.5,397.1l-2-115.4c-2.3-1.6-3.1-6.7-3.1-6.7c3.5-4.8,12.9-8.4,12.9-8.4
			c-2.5-1.5-2.9-5.1-0.8-6.6c3.3-2.5,2.6-6.3,2.6-6.3c0-5.1,8.3-6.6,8.3-6.6c6-1.2,3.6-7.9,3.6-7.9c-0.8-4.5,0-5.2,0-5.2l13.5-8.5
			l11.5,6.2c7.3,6,1.4,5.5,1.4,5.5c-2.1,11.2,5.9,9.9,5.9,9.9c13.3,3,6,11.3,6,11.3c3.7,1.2,6.9,10.9,6.9,10.9l0.4-22.2l-8.3-6.5
			l7.7-1.5c-11.7-5.6-2.2-20.3-2.2-20.3l-70.5,0.8c-8.5,0-46.3,59.3-46.3,59.3l1,117.8L1798.5,397.1z"/>
		<g>
			<polygon style="fill:#292226;" points="1751,307.2 1697.5,308 1676.5,335.4 1676.5,401.9 1751,401.9 			"/>
			<polygon style="fill:#292226;" points="1715.7,313.3 1700.6,313.3 1700.6,291.6 1708.1,289.6 1715.7,291.6 			"/>
		</g>
		<g>
			<polygon style="fill:#292226;" points="2091,225.3 2076.5,225.3 2076.5,203.6 2083.8,201.6 2091,203.6 			"/>
			<polygon style="fill:#292226;" points="2065.2,225.3 2050.8,225.3 2050.8,203.6 2058,201.6 2065.2,203.6 			"/>
		</g>
	</g>
	<path id="tree_1_" style="fill-rule:evenodd;clip-rule:evenodd;fill:#292226;" d="M1704.7,321.6c-5.4,3.5-10.7,3.9-16.3,1.6
		c-0.5-0.2-1.1-0.3-1.6-0.4c-5.2-1.4-10.2-0.3-14.3,2.8c-5.6,4.3-10.9,9.1-16.3,13.6c-0.5,0.4-0.9,0.9-1.8,1.8
		c1.9-0.2,3.3-0.5,4.7-0.6c3-0.2,6.1-0.9,9-0.4c3.6,0.6,6.7,0.2,9.8-1.6c2-1.2,8.4-3,8.5-2.6c-1.5,0.9-2.9,1.8-4.4,2.7
		c-1.6,0.9-3.4,1.6-4.9,2.5c-0.7,0.5-1.2,1.4-1.7,2.1c0.8,0.2,5.4,0,6.8-0.1c0.9-0.1,1.7,0.2,2.6,0.4c0,0.3-7.6,3.7-11.9,2
		c-5.5-2.2-10.9-3.2-16.8-0.7c-3.8,1.6-8,2.2-12,3.2c-2.3,0.6-3.9,1.6-5.1,2.8c-1.8,1.9-2.6,4.5-3.4,7.3c-3.1,7.2-7.1,18.6-6.9,28.2
		c0,0.3,0,0.6,0,1c0,0.6,0.1,1.3,0.2,1.9c0.3,2.7-0.1,5.5-0.3,8.3c-0.5,6.5-1.3,13-1.5,19.5c-0.2,6.5,0.6,3.7,0.8,10.8l-16.6,7.9
		c-0.1-2.7-0.2-4.3-0.2-6.8c-0.1-13.9,4.7-27,5.9-40.6c0.6-6.8,1-13.7,1.4-20.6c0.1-2-0.9-2.8-3.2-3.1c-5.5-0.6-10.9-1.5-16.3-2.4
		c-0.7-0.1-1.3-1-1.9-1.4c0.2-0.4,14.5,2.4,22.4-0.5c-1.3-1.3-2.1-2.5-3.2-3c-3.4-1.4-6.8-2.7-10.4-3.5c-2-0.5-4.4-0.4-6.4,0
		c-4.5,1-16.9,2.8-16.9,2.5c2.8-1,5.6-2.1,8.4-3.2c-9.3-2.3-18.2-6.5-28.3-2.9c0.1-3.7,3.8-2.9,5-4.8c-3-4.3-8.2-5.6-12.5-8.4
		c3.5,0.7,7.2,1,10,3.4c3.8,3.4,8.3,5,13.2,5.8c1.5,0.2,3.1,0.4,5.2,0.6c-2.8-3.9-6.1-5.7-9.9-7c-0.7-0.2-1.1-1.1-1.7-1.7
		c0.7,0,1.5-0.2,2.2,0c4.5,1.5,8.4,4,11.8,7.4c1.9,1.9,3.9,3.6,7.2,3.1c-1-2-1.9-3.9-2.8-5.7c0.2-0.2,2.8,1.5,3.7,2.6
		c2.3,2.9,5.1,4.6,9,4.2c1.3-0.1,2.8,0.1,4.1,0.5c3.7,0.9,7.4,2,11.5,3.1c-0.2-1.4,0-2.9-0.6-3.8c-2.8-4.1-5.4-8.5-9-11.9
		c-5.6-5.3-5.3-5.2-11.5-1.7c-1.4,0.8-3.2,1.1-4.8,1.6c-0.2-0.4,4.4-4.4,7.4-6.3c-2.5-0.7-4.4-1.6-6.4-1.7c-3.2-0.1-6.4,0.4-9.6,0.5
		c-1.2,0-2.5-0.4-3.7-0.6c0-0.4,11.7-2.1,17.5-1.9c-1.4-2.8-3.1-5.1-3.7-7.7c-1.6-7.2-7.4-10.8-13.8-8c-1.4,0.6-2.8,0.9-4.9,1.4
		c1.6-4.5,5.9-2.9,8.3-5.2c-2.7-1.2-12.3-1-14.5-0.1c-5.5,2.4-10.6,1.3-15.5-1.2c-0.7-0.3-1.3-2.3-1.1-2.5c4.3,2,8.5,4.4,13.4,2.5
		c-1.1-4.5-3.1-6.3-7.1-8.5c-3.4-1.8-6.3-2.7-9.7-4.5c3.5-0.8,9,0.9,12.2,2.8c0.9,0.5,1.7,1.1,2.6,1.6c0.3-0.3-4.5-7.4-7.1-10.8
		c0.3-0.2,4.2,1.8,5.1,3.5c2.1,3.5,3.8,7.3,5.5,11.1c0.6,1.4,1.1,2,2.7,2c2.5,0,4.9,0.5,7.4,0.6c1.7,0.1,3.4,0.1,4.9,0.2
		c0.9-2.8-1.6-5.8,1.4-8.4c0.5,2.5,0.9,4.6,1.4,6.6c0.2,0.8,0.6,1.8,1.3,2.2c4.6,3,7.9,7,9.9,12.2c1.3,3.3,3.2,6.4,7,8.8
		c-1.9-5.7-2.9-11-2-16.4c1.3,3.5,2.6,7.1,2.9,10.8c0.8,9.6,9.1,12.5,15,17.7c-0.8-6,2-11.5,0.8-17.7c-1.8-9.8-6.4-16.8-15.6-20.7
		c-2.1-0.9-4.3-1.6-6.3-2.7c-1.7-0.9-3.6-2-4.8-3.5c-3.3-4-7.2-6.8-12.2-8.1c-1.7-0.5-3.3-1.2-4.9-1.7c-0.6-0.2-1.2-0.4-1.8-0.5
		c0.4-0.5,10.6,1,13.9,3.8c5.1,4.3,11.1,6.3,16.7,9.5c0.6,0.4,1.5,0.3,2.9,0.6c-2.3-2.9-4.4-4.9-5.8-7.3c-2.4-4.3-6-7.5-9.8-10.3
		c-2.9-2.2-5.3-4.7-7-8c-0.6-1.3-2-2.5-3.3-3c-4-1.5-8.3-2.6-12.4-3.9c-0.9-0.3-1.8-1-2.6-1.5c0.1-0.3,6.3,0.5,9.1,1.3
		c2.8,0.8,5.6,1.9,8.9,3c-0.5-4.4-1-8-4.2-10.3c-2.8-2-6-3.5-9-5.3c-0.7-0.4-1.2-1.2-1.8-1.8c0.2-0.3,8.7,2.6,13.6,4.8
		c-1.4-3.6-2.5-6.4-3.5-9.3c-0.2-0.6-0.1-1.4-0.2-2.1c4.1,5.2,7.8,17.3,8.2,23.4c0.2,3.5,0.7,6.9,4.4,9.1c2.3,1.3,4,3.8,6,5.7
		c0.9,0.9,1.8,1.7,2.8,2.5c0.3-0.1,0.2-4.3-0.1-6.3c0.2-0.1,2,2.5,2.2,3.9c0.2,1.6-0.3,3.3-0.1,4.9c0.1,1.1,0.6,2.5,1.5,3
		c6.1,3.9,10,9.7,13.5,15.8c0.5,0.8,0.9,1.6,1.5,2.5c0.3-0.6,0.5-0.7,0.5-0.9c0.1-0.6,0.2-1.1,0.3-1.6c1.1-6.1-0.4-12-1.1-18
		c-0.6-4.5-2.3-8.5-4.1-12.5c-1.8-4.1-3.8-5.1-8.3-4.8c-1.5,0.1-4.6-0.3-4.6-0.6c2.1-0.4,4.1-0.8,6.2-1.3c2.4-0.5,3.1-2.2,1.6-3.9
		c-0.7-0.8-1.6-1.6-2.5-2.1c-3-1.6-6.1-2.9-9.1-4.4c-1-0.5-1.9-1.3-2.8-2c0.3-0.4,9.3,2.8,13.6,4.8c0.2-0.2-6.7-12.1-6.5-12.3
		c0.7,0.4,1.6,0.7,1.9,1.3c5,8,11.3,15.3,13.8,24.6c0.7,2.4,1.8,4.6,4.4,5.9c2.5-3.3,2-7.1,1.7-10.7c-0.3-3.6-0.6-7.1,0.4-10.6
		c0.8-2.6,0.6-5.1-1.8-7c-4.7-3.6-9.3-7.1-14-10.7c-0.6-0.5-1.3-1-1.9-1.4c0.1-0.2,3.5,0.1,5.6,0.6c-2-4.2-3.9-8-5.6-11.7
		c-0.5-1.1-0.7-2.3-1-3.4c0.9,0.8,2.2,1.4,2.8,2.4c1.9,3.2,5.8,10.1,6.1,10.1c0.4-0.9,0.2-17.8,0.6-17.9c0.3,1,0.9,1.9,1,2.9
		c0.5,4.7,1.4,9.4,1.3,14c-0.3,6.5,3.3,10.6,7.5,14.6c1.3,1.2,2.9,2,4.4,3.1c2.1-3.8,4.1-7.1,5.6-10.7c0.7-1.5,1.1-3.6,0.6-5.1
		c-1.6-5-3.4-9.8-5.4-14.6c-3.3-5.1-3.8-12.6-3.5-12.6c1.6,4.6,2,9.9,7.2,12.1c1.2-1.9,9.3-9.2,7.5-13.9c0.9,0.5,1.3,1.1,1.4,1.7
		c0.4,3.4-1.2,6-3.1,8.6c-1.4,2-3.7,4.1-3.7,6.3c-0.1,4,1.1,8.1,1.9,12.6c2.1-3.4,3.8-6.2,5.6-9c1.8-2.7,3.6-5.4,5.5-7.9
		c1.8-2.4,2.4-5.7,5.1-7.4c-2.1,4.8-4.6,9.4-7.2,14c-4.5,7.7-10.1,14.8-12.7,23.6c-0.1,0.4-0.3,0.7-0.6,1c-3.9,5-5.3,10.8-6,16.9
		c-0.6,5.4-1.8,17.2-1.7,18c0.5-0.3,10.1-18.3,10.2-19.3c0.1-3.1,0-6.3,0.2-9.4c0-0.8,1.3-2.3,1.6-2.3c0.3,2.1,1.4,6.3,1.7,6.3
		c2.2-2.8,5-5.4,5.7-9.1c1.1-6,1.9-12,2.9-18c0.3-1.4,1.1-2.6,1.7-3.9c0.5,0.1-0.3,14.1-0.2,21.1c4.4-4.1,11.5-17.6,12.1-19.4
		c0.2-0.7,1.8,1.1,1.5,3.2c3.1-2,5.5-3.6,8-5.2c-2.8,3.5-6.3,6.3-8.9,9.7c-2.6,3.5-5.4,7.1-6.2,11.8c1.5-0.4,2.8-0.9,3.8-1.8
		c3.5-3.2,6.8-6.5,10.2-9.7c0.6-0.6,1.3-1,2-1.4c-2.3,3.7-5.3,6.6-7.5,10c-2.9,4.3-6.7,6.2-11.6,6.9c-6.8,0.9-10.2,6.3-13,11.6
		c-1.5,2.9-5.1,9.5-5.3,9.9c-1.6,3.1-3,6.4-5,9.1c-1.9,2.7-2.9,5.5-3.2,8.6c-0.2,1.8-0.4,3.7-0.5,5.5c-0.2,5.6-0.3,11.3-0.5,17.5
		c5.9-3.9,8.2-9,10.1-14.4c1.5-4.3,3-8.7,5.2-12.6c2.4-4.3,3.8-8.7,4.4-13.5c0.1-1.2,1.4-3.3,1.6-3.2c-0.9,7.4-2.3,14.7-6.2,21.3
		c3.1,1.5,4.8,1.2,6.3-1.1c1.9-3.1,3.7-6.2,5.5-9.3c0.7,1-3.7,11.3-7.1,13.8c-5.1,3.6-8.3,8.1-11,13.4c-1.2,2.4-3.2,4.4-4.8,6.5
		c-1,1.4-2.3,2.6-3.1,4.1c-4.2,8.2-1,16.8-1.5,25.2c0,0,0.1,0.1,0.1,0.1c2.6-3,5-6,7.7-8.7c1.6-1.6,2.1-3.2,1.9-5.4
		c-0.3-3.6-0.9-7.3-0.3-10.7c1.1-5.7,3-11.4,4.6-17c0.2-0.8,1-1.5,1.4-2.3c0.3,0.1,0.9,2.9,0.9,4.3c3.4-1.1,10.3-2.6,10.4-2.3
		c-1.1,1.6-3.1,1.7-4.7,2.3c-3,1.1-5.8,2.2-7.3,5.4c-2.1,4.4-3.2,9-2.8,13.9c0.3,3.8,0.5,7.6,0.8,11.4c4.5-3.4,9-6.9,10.1-13.2
		c0.4-2.2,1.1-4.3,1.9-6.3c1.7-4.9,3.1-10,5.5-14.7c2.9-5.8,6.3-11.4,10.1-16.8c6.3-8.8,9.9-13.2,16.5-21.9c1.2-1.6,5.4-5.7,6.7-4.1
		c-8,5.4-10.6,15-17.4,21.6c4.9,0.3,8.3-5.1,13.5-2.9c-5.9,3.8-13,5.5-17.5,11.5c-4.2,5.7-9.1,11-10.5,19c4.5-2.8,8.6-5.1,12.4-7.8
		c1.3-0.9,2.2-2.6,2.9-4.1c1.7-3.5,1.4-3.7,3.1-7.2c0.9-1.8,3.9-6.7,6.7-5.8c-4.2,4.2-6.9,9-7.7,15.6c3-3,5.9-5.3,8.2-8.1
		c8.6-10.1,14.2-10.9,14.3-10.6c-8,3.9-12.6,11-17.3,18.2c5.7,0.5,10.9,0.5,15.7-2.7c0.7-0.5,1.8-0.5,2.7-0.7
		c0.1,0.3-6.8,6.1-11.8,5.2c-2.9-0.5-6.2-0.5-8.9,0.4c-5.3,1.9-10.3,4.5-15.3,7c-4.6,2.4-8,6-9.5,11.2c-1.7,6-4.6,11.4-9.3,15.7
		c-1.3,1.2-2.2,2.8-3.6,4.8c4.7-0.8,8.6-1.4,11.6-4.6c3.9-4,7.9-7.9,12.4-11.3c3.7-2.9,6-6,6.5-10.8c0.4-3.5,5.7-7.4,9-7.4
		c-2.5,3.2-8.3,4.5-6.2,10.5c7.9-2,15.3-4.3,20.5-11.2c0.3,0.4-0.6,2.4-0.3,2.8c2.8-1,5.5-5.7,8.4-6.3c0.2,0.3-3.9,5.3-6.7,7.5
		c1.4,0.8,1.8,1,2.8,1.6c0,0.2-4.1,0.5-5.9,1.2c-1.9,0.7-3.6,2.2-5.7,3.6c4.4,1.8,7.9,1.7,11.1-0.7c2.8-2.1,5.5-4.4,8.3-6.4
		c0.6-0.4,1.5-0.3,2.2-0.4c0.1,0.3-7.1,6.5-10.7,9.4c1.5,0.1,2.6-0.3,3.9-0.5C1702.3,321.4,1703.5,321.6,1704.7,321.6z"/>
</g>
</svg>
