
<svg version="1.1" id="Ebene_1" xmlns="http://www.w3.org/2000/svg" xmlns:xlink="http://www.w3.org/1999/xlink" x="0px" y="0px"
	 viewBox="0 0 889.5 587.5" style="enable-background:new 0 0 889.5 587.5;" xml:space="preserve">
<g>
	<defs>
		<path id="SVGID_1_" d="M417.5,56.8c7.1-4.2,2.1-9.8,3.4-12.8l-2.3-10.1l-0.7-10.6c0,0-0.3-9.4-5.1-11.7C405.4,8,403.4-3,402.4,1
			c-1,4,8.1,16.6,8.1,16.6l-2.5,9.3l-0.8,8.8l1.2,8.3c0,3-2.7,4.2-5.3,12.9c-1,3.3-0.1,17.6-8.2,26.6c-4.1,4.6,0.2,10.3-0.2,11.1
			c-1.4,2.8,2.2,4.8,2.2,7.4c0,2.6,0,2.7-3.2,5.3c-3.2,2.6-3.2,1.7-3.9,3.9c-0.8,2.2,2.6,0.6-0.8,2.3c-3.3,1.7-5.5,2.8-7.9,1.5
			c-2.4-1.3-0.8-0.2-5.7-2.1c-4.9-1.9-7.7,0.2-10.4-3.9c-2.8-4.1-16.8-11.6-9.6-26.8l0.8-21.8L345,48.9l-0.5,1.9c0,0,0,1.9,1.4,3.9
			c1.4,2,6.3,6.2,6.2,10.9c-0.2,10-6.2,26.3-5.1,27.7c2,2.6,0.8,9.9,0.8,9.9s-1.3,4.9,7.6,11.6c0,0-7.4,1.8-15.4,2.1v-2.1
			c0,0-2.8-8.3-3.4-11.1s1.1-5.9,0.3-7.5c-0.8-1.7-4.5-6.2-4.5-6.2s-1,0.7,0.7,3.3c1.7,2.6,2.3,7.3,1.8,10.2c-0.6,2.8-1,4.7,1.3,6.6
			c2.3,1.9,2.2,6.8,2.2,6.8c-2.6-0.2-4.9-0.7-6.7-1.7c-7.3-4.1-9.5-4.3-12-6.2c-2.6-1.9-6.5-12.3-6.5-12.3s-6-2.5-6.3-6.1
			c-0.1-2.1-2.1-6.9-3.9-9.6c-1.4-2.1-2.9-2.4-2.9-2.4l2.7,5.2l-0.4,3.3c0,0-1.2,1.3-6.7-5.3c-1.4-1.7-3.8-4.3-5-5.3
			c-3.6-3-4.9-1.9-4.9-1.9s2.7,2.4,4.5,4.9c1.3,1.8,1.6,3.6,2.8,4.6c2.8,2.6,7.3,6.9,7.3,6.9l6.9,6.2c0,0,1.2,3.5,3.5,7.4
			c2.2,3.9,5.5,8.1,7.4,9.5l-10.6,2.4c0,0-4.7-3.7-7.3-3.2c-2.6,0.6-6.3-2.6-11.4-3.4c-5.1-0.7-3.2-3.7-9.8-3.6
			c-6.7,0.2-3-1.2-7.5-1.3c-4.5-0.2-6.5-3.3-5.9-6.1c0.6-2.8,2.9-3.7-0.1-5.6c-3-1.9-4.3,5-7.8,0.9c-3.5-4.1-4.7-13-6.2-14.9
			c-1.6-1.9-2.8-3.2-4.5-3.9c-1.8-0.7,1.1,3.7,1.1,3.7l2.4,8.1l1.8,6.2c0,0,3.3,3.9,3.9,7.9c0.3,2,0.4,3.6,1.9,5.4s4.4,3.9,10.3,6.8
			c0,0,8.9,4.7,12,5c3.2,0.4,5.7,3.2,5.7,3.2s-7.1,0.6-7.7,1.9c-0.6,1.3-3.3-0.2-5.5,1.1c-2.2,1.3-7.1-1.1-9.1,0.2
			c-2,1.3-7.7-5.8-7.7-5.8l-2.2-2.2l0.6,2.1c0,0,5,6.9,6.4,8.2c1.4,1.3,12,1.5,16.7,0.2c4.7-1.3,26.6-7.3,24.4,0.6
			c0,0,0.2,3.6,0.2,5.8c0,2.2,3.2,1.5,4.3,5.6c1.2,4.1-1,7.9,2.6,11.2c3.5,3.4,0.4,5.2,1.8,8.6c1.4,3.4,5.1,4.7,5.7,8.2
			c0,0,0.4,4.3,5.1,7.3c4.7,3,8.9,12.7,8.1,15.1c-0.8,2.4-4.9,5.2-5.5,8c-0.6,2.8-3,1.1-4.5,6.4c-1.6,5.2-3.7,3.9-4.1,8
			c-0.4,4.1-2.6-2.1-6.5,7.3s-3,1.5-5.5,7.7c-2.6,6.2-13.8,5.3-16.3,15.7c0,0-8.5-3.3-7.9-5.9c0.6-2.6-0.6-3.2-2.8-3.6
			c-2.2-0.4-3.3-4.3-1-7.7c2.4-3.4,2.4-5.4,2.4-6.7c0-1.3,2.6-2.4,1.8-4.9c-0.8-2.4,2.4-5.4,1.6-6.7c-0.8-1.3,2.6-4.3,2.6-4.3
			s8.9-7.1,12.8-13.3c0,0,11.4-0.4,14-0.6c0,0,1.8,1.1,4.7-2.1c0,0,2.4-5.2,8.7-8l-1.4-0.4c-1.2,0.2-3.2,2.1-6.5,3.2
			c-3.3,1.1-3.9,3.6-3.9,3.6H299c0,0,0.8-1,4.1-4.5c0,0,0.8-2.6,3.2-3.9c0,0,1.8-0.2-0.2-3.7c0,0-0.6-5.7-0.2-7.8
			c0.4-2.1-1.6-8.4-1.6-8.4l0.2,6c0,0-0.8,5.4-0.8,6.2s1.2,4.5-2.4,9.5c-3.5,5-3.2,2.1-7.3,7.5c-4.1,5.4-5.5,5.8-7.7,8.2
			c-2.2,2.4-5.9,5.8-5.9,5.8s3-8.3,5.8-12.4c2.8-4.1,3.8-9.3,8.5-14l2.6-5.8l-6.3,6.4l-1.8-4.5c0,0-4.3-4.3-4.7-7.3c0,0,0,6,2.6,7.5
			c0,0,0.4,4.1,1.2,6.4c0.8,2.3-2.7,6.4-2.7,6.4l-1.3-5.3l-3.3-1.1l1,1.5c0,0,2.8,0.2,1.6,7.5c0,0-4,6.4-5.9,7.7
			c0.7,0.9-1.8,1-0.2,0.1c0.1,0,0.1-0.1,0.2-0.1c-0.1-0.1-0.1-0.1-0.2-0.2c-1.4-1.1-0.2-4.7-2.4-6.7c-2.2-2.1-2.8-10.3-4.3-12.3
			c-1.6-2.1-2.2-7.1-3.3-8.4c-1.2-1.3,3.2-4.3-3-9.7c0,0-2-16.6-1-22.5c0.1-0.6,0.2-1.1,0.4-1.4c0,0-0.6,1.3-1.8,3.4
			c0,0-1.6,10.1-2.8,11.5c0,0-0.2,3.7,1.4,5.3c0,0-0.6,4.3,1,5.8c0,0-3.3-2.2-4.7-5.6l-8.1-4.1l-7.5-0.2c0,0,6.5,1.3,7.7,1.9
			l4.8,3.1l7.1,7.5l3.7,7.7l2.4,8c0,0-1.2,10.5,0,16.1c1.2,5.6,1.4,8.8,2.4,10.1c1,1.3-3,11-4.1,11.6c-1.2,0.6-2.4,1.5-2.4,1.5
			l-2-4.5l-0.6-3.6c0,0-3.2-6.7-4.7-8c-1.6-1.3-3.7-10.7-3.7-10.7l-1,0.4l1.6,9c0,0,4.3,4.1,5.9,11.2c0,0-0.8,2.4,0.2,6
			c1,3.6,1.6,8.2,1.6,8.2s-2.2,7.8-6.1,6.7c-3.9-1.1-4.1-7.6-5.3-7.4c-1.2,0.2-5.9-0.7-6.3-4.5c-0.4-3.7,0-5.4-2.6-6.7
			s-0.4-7.3-2.2-9c-1.8-1.7-2-10.5-3.9-12.5c-2-2.1,1.2-3.9,3.2-5.8s3.5-1.7,5.1-5.8c1.6-4.1,5.1-3.4,5.1-3.4l0.2-0.9l-5.7,1.3
			c0,0-0.2,3.6-2.8,4.7c-2.6,1.1-3.5,4.5-4.9,4.5s1.9-7.7-0.8-10.1c-2.7-2.4-1-10.7-2.9-13.6c-2-3,1.2-6.7,2.2-7.9
			c1-1.1,4.7-3.2,4.5-7.3c-0.2-4.1-0.4-4.5,2.2-6.9c2.6-2.4,3.5-9.7,3-11.8c-0.6-2.1,8.6-8.6,8.6-10.1s3.1-7,6.1-8l0.6-1.3l-5,3.2
			c0,0-1.6,2.8-3.2,4.5c-1.6,1.7-7.3,7.2-7.3,7.2s0-6.5,0.4-8.5c0.4-2.1,1.4-4.3,1.4-4.3s-0.8-6.5,0.2-9.7c1-3.2,1-9.3,1-9.3
			s-1,3-2.6,5.6c-1.6,2.6-3.2,2.2-3,6c0.2,3.7,1.2,4.9,0.8,8.4c-0.4,3.6-1.2,4.5-1.4,7.3c-0.2,2.8,0.4,2.4-0.2,4.6
			c-0.6,2.2-1.6-1.6-2,3.1c-0.4,4.7-0.2,5.4-0.2,6.9c0,1.5-2.2,5.8-3.5,6.9c-1.4,1.1-0.2-0.6-0.2-0.6l-3.5-6.9c0,0-0.7-8.2-2.3-10.3
			c-1.6-2.1-2.9-7.3-0.6-9.3c2.4-2.1,3.3-7.3,7-9.5l-0.4-0.9l-4.7,5.2c0,0-5.7,4.4-5.3,6.3c0,0-1.4,6.4,0,10.5
			c1.4,4.1,2.1,8.7,2.3,11.1c0.2,2.4,3.2,8,3.2,8s-6.5,4.6-6.9,7.2c-0.4,2.5-7.3-1.2-7.9-3.2c-0.6-2-5.9-7.7-8.3-7.7
			c-2.4,0-1-11.6-4.1-14.2c0,0,4.5-4.1,5.3-8.4c0.1-0.5,0.2-0.9,0.2-1.2c0,0,0,0,0,0s0.5-2.5,0,0c0.1-0.3,0.7-1.9,2.1-4.1
			c1.6-2.4-1-2.6-1-2.6s0.2,0.7-1.2,2.8c-1.4,2.1-0.8,6.5-4.3,8.2c-3.5,1.7-4.1,4.1-3.3,6.8c0.8,2.6,1.4,10.5,1.4,10.5
			s-19.9-10.1-21.7-14.3c-1.8-4.2-16.1-14.6-15.9-18.1c0.2-3.6-6.1-13-4.5-16h-1.6c0,0-0.2,1.6,0,3.9c0.2,2.2,3.2,6.8,2.6,8.2
			c-0.6,1.3-0.2,5.5-0.2,5.5s-18.7-8.4-19.1-17.4c0,0-2.8-3.7-7.7-3.4c0,0,6.1,2.3,6.1,5.2c0,0,0.2,3.2,2.4,6.5
			c0,0,6.5,3.6,12.6,13.5c0,0,5.9-0.9,10.4,3.2c4.5,4.1,10.4,19.3,17.1,21.2c6.7,1.8,8.9,7.5,14.8,7.3c5.9-0.2,15.6,13.5,15.6,13.5
			s0.2,3.9-9.6,0c-9.8-3.9-18.9-8-26.2-6.9c-7.3,1.1-8.1-4.3-8.1-4.3l-1-0.2l1,3.7l-6.7,2.1c0,0-1.4,2.4-0.8,4.4l0.8,0.7
			c0,0-0.4-2.8,1.8-3c2.2-0.2,6.3-1.9,9.3-1.1c3,0.7,12.4-0.9,28.2,7.3c0,0-4.3,2.4-7.1,2.8c-2.8,0.4-3,0.4-3.9,3.6
			c0,0-0.4,1.3-1.4,2.2c0,0,0.3,3.3,4.5-3.6c0,0,5.6-1.2,11.4-3.7c0,0,5.1-0.6,8.9,2.4c3.7,3,6.7,1.3,7.1,2.2
			c0.4,0.9,4.5,3.2,3.9,5.8c-0.6,2.6-2,6.4-0.8,8.8c1.2,2.4-1,11.8,0.6,13.8c1.6,2.1-1.2,2.8,0.4,6.4c1.6,3.6,2.4,3.6,2.8,7.7
			c0.4,3.8-0.6,7.2,1.4,11.4c0.2,0.4,0.4,0.7,0.6,1.1c2.8,4.7,0.6,6.5,3.3,11.6c2.8,5,11.4,16.1,16.7,18.9c5.3,2.8,6.5-1.2,9.6,1.2
			c3.2,2.4,14.2,8.9,15.6,14.2c1.4,5.2,9.1,10.6,6.5,14.7c-2.6,4.1-2.8,16.1-8.3,18.7c-5.5,2.6-14.6,3.9-19.1,0.6
			c0,0-3.9-0.4-4.1-3.9c-0.2-3.6-0.4-9-0.4-9s1.8-3-0.6-10.3c0,0-1.4-4.4,0.6-8.3l0.4-3.1H247c0,0-1,4.9-2.2,6.9
			c0,0,0.4,8.2,0.6,8.9c0.2,0.7,0.1,7.1-1.8,11.5c-0.4,0.9-4.1-5.3-4.3-5.8c-0.2-0.6-3.5-5.8-5.3-5.6c-1.8,0.2-0.8-3.2-2-4.3
			c-1.2-1.1,1.8-8.4-2.6-16.6c-4.3-8.2-5.1-10.5-4.9-14c0.2-3.6-2.4-15-3.7-16.3c0,0,1.6-2.6,1.8-3.9c0.2-1.3,3.7-5.8,3.7-5.8
			l-0.6-1.7l-3.2,3c0,0-1.9,5.8-2.9,4.9c-1-0.9-2.4-4.1-1.6-5.6c0.8-1.5-0.2-6.4-2.2-8c-1.7-1.5-1.3-4.1-3.4-7.5
			c-2-3.2-8.5-11.2-8.5-12s-4.8-9.9-4.8-9.9l-0.6,0.4l3,8.8l-4.9-1.5c-0.1,0.4-0.2,0.8-0.3,1.2c2.3,0.8,6,2.6,6,2.6l8.9,14.8
			c0,0-2.6-1.1-5.5-3.5c-3-2.4-7.9-3.2-7.9-3.2l-0.4,0.3c0,0.1,0,0.3,0,0.4c0.7,0,2,0.4,3.7,1.9c2.6,2.4,7.3,6.4,10.2,8.6
			c3,2.2,4.1,11.2,4.1,11.2s4.9,10.3,3.9,18.6c0,0-5.9-2.5-6.7-6.1c-0.8-3.6-3.5-2.6-5.9-7.5c-2.4-4.9-5.7-9.5-7-9.5
			c-1.4,0-1.5-7.9-1.7-11.2c-0.1-2-0.5-4.1-0.7-6c-0.4,0-0.6,0.1-0.6,0.1l0.6-0.5c-0.1-1.2-0.1-2.4-0.7-3.5
			c-0.9-1.7-0.9-4.9-0.4-7.4c-0.3-0.1-0.7-0.2-0.9-0.3c-0.3,2.2-2,5.1-1.8,7.5c0,0,1.5,6.4,0.8,10.1c-0.8,3.7,0.1,6.7,0.1,6.7
			s-8.3-10.1-15.8-10.3c-7.5-0.2-13.4-9.2-14.8-12.5c-1.1-2.7-1-8.5-9.2-13.4c-2-1.2-6.1-2.1-8.9-3.2c0,0-4.5-1.4-10.6-3
			c-8.7-2.3-20.5-5.2-26.8-5.2c0,0-12.6-11.6-8.3-13.5c4.3-1.9,3.9-12.7,8.3-11.6l1.6-3l-5.5,2.2c0,0-4.2,8-5.2,8.1
			c-1.1,0.1-5.4,2-5,3.1c0.4,1.1,3.3,9.9,7.7,13.6c0,0-17.9-1.3-23-6.2c0,0-10.2-4.9-9.1-7.9l-4.7-0.7l2.4,4.9l5.5,3l2,3
			c0,0-6.7-1.9-9.8,0.7c-3.2,2.6-10,7.3-14,11c-3.9,3.7-12,3.6-12,3.6l2.8,1.1l3.2-0.4c0,0,6.3,0,8.3-2.6c2-2.6,14.2-9.5,14.2-9.5
			s5.1-0.8,30.3,4.4c0,0,7.5,2.5,11.8,2.2c4.3-0.4,7.1,4.5,13,4.1c5.9-0.4,20.1,3.7,20.5,7.1c0,0-18.5,2.2-25.2-0.4
			c-6.7-2.6-13.8,0.7-13.8,0.7l3.2,1.1l6.3-0.4c0,0,9.8,3.7,12.2,2.6c0,0-2,4.9-1.6,6l2.4-0.2c0,0,0-3.2,1.6-4.3
			c1.6-1.1,18.7-3.4,21.1-1.1c0,0,5.3-0.7,10,10.5c4.7,11.2,13,15,16.9,15.7c3.9,0.7,10.2,0.7,16.9,11.6
			c6.7,10.8,13.4,14.8,14.6,16.6c1.2,1.8,11.4,29.3,4.3,36.8c0,0-13.6-3-23.7-23.9c-2-4.1-6.9-7.2-9.1-9.8c-2.5-3.1-2.4-5.5-5-7
			c-6.2-3.7-12.2-4.2-16.6-8.8c-1.2-1.3-2.4-5-3.6-6.4c-6.2-7.4-10.8-13.4-9.8-19.4l-1.8,0.4c0,0-0.9,4.5,0.6,8.1l4.4,8.1
			c0,0-4,2.1-9.9-0.6c0,0-8.2-3.2-17.7-2.2c-3.5,0.4-7.2,1.5-10.7,3.3c0,0-17.3-1.1-16.5-10.8c0,0,2.4-7.1-7.1-11.6
			c0,0-8.3-8.2-7.9-12.7l7.1-4.9l-2.5-1.9c0,0-6.9,4.9-7.3,6c-0.4,1.1,0,6,1.6,7.1c0,0-6.7-1.5-9.5-6c-1.4-2.2-2.6-4.6-3.9-6.2
			c-1.3-1.6-2.8-2.6-4.8-2l3.3,3.7l1.4,5.6c0,0,3.6,6,6.8,4.9c0,0,8.9,4.5,10.1,6c1.2,1.5,9.5,4.5,8.7,9.7c-0.8,5.2-2.4,9-2.4,9
			s-26.4,5.2-29.9,4.9c-3.5-0.4-11-6-17.3-8.2l-5.9-4.9c0,0,2.8,6,6.3,8.2c0,0,10.2,5.2,10.6,7.1l22.1,0.7c0,0,9.9-7.7,24.4-1.5
			c7.8,3.4,10.4,2.7,10.4,2.7s0.7,2.1,5.4-0.1c4.7-2.2,15.2-2.6,19.8-0.7c4.6,1.9,12.1,4.5,12.1,4.5s1.2,0,9.1,7.5
			c7.9,7.5,17.8,13.4,19.9,21.1c0.7,2.5-10.4,0.6-10.4,0.6l0.8,4.5c0,0,8,0.3,16.7,5.9c8.7,5.6,12.1,11.3,13.7,15.1
			c1.6,3.7,4.3,4.9,4.3,4.9s20.5,12.4,21.9,15.5c1.2,2.6-11.5,11.2-23.9,9.4c-7.7-1.1-17.4-4.8-26.5-6.6c-5.5-1.1-10.8-1.4-15.3,0
			c0,0-18,6.6-22.3,6.3c-4.3-0.3-6.8-0.5-6.8-0.5l-5.9-0.1c-1.3-2.2-8.9-8.6-8.9-8.6c3-8.7-1.8-14.5-1.8-14.5
			c1.3,2.2,1.4,9.5,0.4,12.3c-1.1,2.8-0.2,4.1-0.2,4.1c2.6,1.2,5.3,4.5,5.9,5.2c0.6,0.7-4-0.4-4-0.4c-3.8-0.6-6.2-2.2-6.2-2.2
			c-1.5-3.3-7.1-9.4-7.1-9.4c2.6-4,0.4-5.3,0.4-5.3s-0.1,2.6-1.6,3.8c-1.5,1.2-0.1,3.2-0.1,3.2l3.1,3.8c1.3,2,1.7,3.3-2.1,1.4
			c-3.8-1.9-9.1-4.1-9.1-4.1l-5.5-8.2c-1.7-6.3-4.1-12.9-4.1-12.9l-0.6,0.6c2.2,5.2,2.6,13.9,2.6,13.9l3.8,4.7l2.1,2.9
			c-1.8-0.3-7-1.2-7-1.2c-12.7-2.7-9.9,0-9.9,0c4.3-0.5,17.1,3.6,17.1,3.6l4.8,0.9c13.7,2.8,5.5,3.1,5.5,3.1c-2.2-0.8-7.2,1-8.7,0.2
			c-1.4-0.9-9.7-0.5-9.7-0.5c-1.5-1.8-12-0.1-12-0.1c-0.9-1.6-4.2-1.5-4.2-1.5l-4.6-2.1l-4.6-2.1l-7-2.5l-3.5-2.5l-5.4-1.7l-3.6-1.5
			l-5.8-6.9c0,0-4.6-4.8-6-7l1.8-11.6l-1.8,0.6l-2.6,8.3c0,0-2,1.9-6.7-3.7l-4.6-4.2l-3.6-8.5c0,0-1,2.3-0.2,5.5
			c0.7,2.8,3.3,6.6,4,8c1.6,3,8.8,6.3,10.9,8.2l2.1,2c4.2,1.3,7.8,7.9,7.8,7.9l1.1,2.4c2,1.2,3.7,3,3.7,3l9.5,4.7c0,0,0.5,1.9,3,1.9
			c2.6,0.1,8.2,2.9,8.2,2.9l0.6,0.9l-15.9,0.8l-4.9-3.5l-1.3-3.5l-0.2,3.9l4.3,3.4c0,0-7.3-0.5-7.9-0.4c-0.6,0-2-1-3.1-2.1
			c-1-1.1-2.5-2.9-2.5-2.9c-1.2-1.7-2.9-3.1-4.2-4c2.2,2.3,2.9,6,2.9,6l3.7,3.4c-1,0.6-9.7,3.4-9.7,3.4c1.8,0.3,8.8-1.5,12.1-2.2
			c3.3-0.7,10.7,1.2,10.7,1.2l15.7-0.6c0,0-2.8,2.6-5,3.6c-2.1,1-5.5,1.2-10.2,1.8c-4.7,0.6-11.7,3.6-11.7,3.6s-2.2,3.6-6.9,0.8
			c-4.7-2.8-9-3.2-11-3.5c-2-0.3-5.8-2.2-5.8-2.2c4.3,4.3,5.9,4.3,7.7,4.2c1.8-0.1,4.9,3.4,6.9,4c2,0.7,3.5,3.6,3.5,3.6
			c2.2-2.9,12.4-4.6,12.4-4.6s-3.3,5.4-4.3,9.3c-1,4-1.6,3.6-4.2,3.7c-2.6,0.1-9.9,6.8-9.9,6.8s10.2-4.9,12.2-4.8
			c2,0.1,3.6-2.8,3.6-2.8l7.4-14.1c4.1-0.5,22.3-7.3,22.3-7.3c5-3.2,8.6-0.5,8.6-0.5s6-2.3,10.6-0.4c4.6,1.9,10.1,1.3,10.1,1.3
			c4.8,2.1,7.2,1.4,7.2,1.4c3.7-1.5,7.5,0.8,9.7,0.7c2.2-0.1,3.3-0.9,4.7-0.2c1.4,0.7,8.2,2.5,13.9,2.6c0,0,2.1,1.3,11.2,0
			c17.6-2.4,32.7,0.7,41,4.1c8.3,3.4,24,4.1,34.3,0c10.2-4.1,30.6-6.3,30.6-6.3s19.9-0.8,23.4,2.2c3.5,3,18.8,11.2,14.1,18.3
			c-4.7,7.1-0.1,61.9-0.1,61.9c1.2,9.3-7.4,19.7-5.1,55.7c1.4,22.5-21.8,42.5-21.8,42.5s-13.4,2.1-20.7,10.1
			c-3.8,4.2-2.3,12.9-4.1,17.6c0,0-20.3,28-20.3,31s10.1-1.4,22.4-15.5c7.7-8.9,22.6-22.7,34.3-26.6c6.9-2.3,22.6-16.5,25.1-16.4
			c1.9,0,3.1,4,0.8,9.8c-1.7,4.3-6.7,9.7-7.6,15.4c-1.1,6.4,3.1,13.2,3.7,19.3c0.7,6.5-2,12.2-1.3,15.5c3,13,4.3,18.8,4.3,18.8
			s1.6-4.5,3.7-7c2.7-3.4,6.2-5.5,7.5-10.9c1.8-7.9-3.5-16.6,0.2-21.7c3.3-4.6,10.8-13.1,14-11.1c3.2,0.1-0.3-5.2,6.4-6.5
			c3.4-0.7,7.1-6.2,12-5.3c8.8,1.7,18.9,10.8,20.8,11.6c11.7,4.9,17-4.4,20.2-4.8c2.1-0.3,28.8,5,25.2,0.9
			c-4.2-4.8-23.8-9.1-29.4-11.4c-16.9-6.9-24.6-28.2-24.6-28.2c1.3-24.2-12.3-11-12.1-21.8c0.3-16.5,0.1-16.7-2.1-27.7
			c-4.1-20.6,1.2-23.8-5.7-33.9c-1.2,2.9-8.1-21.1-8.5-26c-0.4-4.9,2.8-26.3,4-31.9c1.2-5.6,0.1-15.9,7-18.4
			c6.9-2.4,29.2-5.3,33.3-7.9c4.1-2.6,14-3,18.3-10.7c0,0,3-2.1,7.7-3.2c4.7-1.1,4.5-2.2,5.3-4.1s1.8-0.2,4.1-2.2
			c2.4-2.1,7.7-1.7,11.8,2.2c4.1,3.9,5.7,1.3,10.4,3c4.7,1.7,15,5.8,15,5.8s6.3,0.2,11.4-1.5c5.1-1.7,20.7-9.5,20.7-9.5l5.7-1.2
			c0,0,4.5-2.7,5.3-4.2c0.8-1.5,11.6-10.5,22.8-14c0,0,5.1-0.4,6.3-2.1c0.7-1,6.4-3.5,13.4-5c5.3-1.1,11.4-1.3,16.5-0.8
			c11.8,1.1,26.6,3.4,26.6,3.4s4.7-1,7.7,2.2s4.3,4.7,4.3,4.7s-1,3.6,0,5.4c0,0-0.6-1.7,2.6-4.5l-4.6-5.9c0,0-3.5-1.9,4-0.3
			c6.5,1.3,6.5,1.3,6.5,1.3l5.9,6.5c0,0,1.8,2.8,3.2,5.8c1.5,3,2.6,6.4,3.7,7.5c0,0-0.2-4.5-1.6-6.9c-1.4-2.4-1.8-4.1-2-5.4
			c-0.1-0.8-1.5-3.2-3.3-5.2c-1.3-1.4-1.4-4,2.6-5.1c4-1.2,9.9-2,11-2.6c0,0-3.7-0.5-8.6,0c-1.8,0.2-4,1.3-5.8,1.5
			c-3.5,0.3-6.9,1.3-9.2,0.6c-3-0.9-6.4-1.4-9.3-2.1c-3.7-1-6.5-2.2-6.5-2.2s-11.2-0.8-11.8-1.2c-0.6-0.4-4.7-2.1-4.7-2.1l-5.5-0.9
			c0,0-5.9-1.1,11.4-2.2c17.3-1.1,15.2-4.3,20.3-5.4c5.1-1.1,12-2.4,14.8-1.7c0,0,0.6-0.6,1.8-2.3c1.2-1.7,8.9-10.7,8.9-10.7
			s-1-12.9-0.8-15.9h-1.4l0.2,5.1l-0.6,3.2l0.9,5.9c0,0,0.3,1.2-1.2,2.7s-5.1,5.8-5.1,5.8v-2.1c0,0,0.7-2.8,1.5-3.4
			c0.8-0.6-1.7-3.4-0.9-5.6l1.9-3.2l-4,2.8c0,0,1.2,10.3-4.4,13.1c0,0-4.9,2.8-13.2,3.7c0,0-9.8,3.4-18.3,3.4
			c-8.5,0-12.6,1.1-12.6,1.1s0.2,0,3.8-5.1c0,0,2.5-4.3,2.2-6.8c-0.3-2.5,0-3.7,0.7-5.6s1.5-4.5,1.5-4.5l-0.4-6.8c0,0-1.1-3-1.3-4.4
			c-0.3-1.4-3-2.4-3-2.4h-1.2c0,0,4.4,3.7,3.5,7.3c-0.5,1.9,3.1-0.3-0.5,7.4c-0.1,0.1-0.1-1.3-0.2-1.2l0.1,0.4h-0.4
			c-0.1,3-0.2,1.7-0.3,2.1l-0.2,0.5c-0.4,3-0.8,4.4-1.1,5.8c-0.4,2.2-1,4.3-1,4.3c-0.4,2.2-4.2,5.4-4.2,5.4s-4.3,5.7-9.6,7.6
			c0,0-5.7-0.1-8.3,1c0,0-3.7-1.3-4.7,0.8c0,0-1.1-1-2.3-0.9c-1,0-1.9-0.6-1.9-1.5c-0.1-1.2,0.9-4.2,0.3-5.2
			c-0.5-0.9,1.2-2.7,2.3-4.1c1.5-2,2.8-3.6,2.8-3.6s-7.4,2.6-7.8,9.9c-0.4,7.3-5.9,7.1-5.9,7.1s-1.8,1.3-2.2,2.4
			c-0.4,1.1-2.4-2.2-3.3,0.4c-1,2.6-8.5,5-8.5,5s-4.1,0.2-6.9,3c-2.8,2.8-10.4,5.4-10.4,5.4s-3.3,1.9-4.7,2.2
			c-1.4,0.4-5.7-0.7-7.5,3c0,0-4.9,0.4-6.7,3.2c0,0-3.3,0.7-4.7,2.8c0,0-4.7,3.2-1.6-1.3l3-2.6c0,0-1.4-12.3-0.4-15.7
			c0,0-3,9.5-2,14.6c0,0-4.5,3.7-6.1,7.1c0,0-1.2,0.9-4.7,0.2c-3.5-0.7-7.5-3.6-9.6-3.4c-2.2,0.2-4.5-0.6-6.7-2.1
			c-2.2-1.5-4.5-2.2-7.5-2.1c-3,0.2-6.9-4.1-5.5-6.4c1.4-2.2,7.5-7.3,6.5-13.8c0,0,3.5-4.9,2.8-6c-0.8-1.1,2-6.7,8.1-6
			c0,0,1.6-2.4,5.3,1.1c0,0,3.5,3,5.7,2.8l1.3-0.3l3.8-0.8c0,0-5.1,0.6-6.1-0.9c-1-1.5-5.3-4.5-8.5-4.9c0,0,8.9-2.8,10.2-3.2
			c1.4-0.4,6.1,1.1,12.6-4.3l8.9-0.6c0,0,4.9-3,7.5-3.6c2.6-0.6,5.1-2.2,6.7-1.3c1.6,0.9,1.6,0.9,1.6,0.9s4.5-1.5,5.3-0.7
			c0.8,0.7,5.9-0.9,7.9,0c2,0.9,41.2,2.4,50-0.4c0,0,3.3,1.7,4.9,0l3.2-1c0.1-0.4,0.1,0.9,0.2-2.1h0.3c0.1,0,0.2,0.4,0.3,0.1
			l-0.3-5.4l-2.9-0.6c0,0-1.3,1-5.6,1.9c-4.3,0.9-6.4,0.6-10.4-0.3c-3.9-0.9-5.9,0-7.6,0.2c-1.8,0.2-6.5-1.9-10.2-0.9
			c-3.7,0.9-5.7-1.7-8.5-0.7c-2.8,0.9-6.7-1.1-10,0c-3.3,1.1-3.9-0.9-6.5-0.6c-2.6,0.4-5.1-0.7-5.1-0.7s7.3-10.7,8.1-13.1
			c0.8-2.4,3.5-5.8,5.3-6.7c1.8-0.9,13.8,2.5,20.3,1.9c9.4-0.9,8.8,3.3,12.9,4.8c4.1,1.5,1.6-3.1-2-4c0,0-2.4-2.7-9.2-3.9
			c0,0-1.2,0.7-4.1,0s-12.8,0.2-14.2-1.7c0,0-1.8-1.3-0.6-2.6c1.2-1.3,2.4-3.9,2.4-3.9s1.2-4.5,3.2-4.9c2-0.4,6.9-1.7,10.2-0.4
			c3.3,1.3,6.5,1.1,6.5,1.1l7.5,7.1c0,0,0.6,5.2,1.8,5.8c0,0,0-4.7,1.4-5.2l-5.9-6.5c0,0,12,3.4,16.7,3.2c4.7-0.2,3,1.3,10.2,2.8
			l6.3,5.6c0,0,6.3,13.3,7.1,14c0,0-0.8-3.9-1.7-6.2c-1-2.2-1.2-5.2-1.2-5.2s14.6,0.6,16.1-0.4c0,0-1.8-0.6-6.1-1.1l-11.8-0.9
			l-7.1-8l-12.6-3.4l-11-2.1l-9.6-1.5c0,0-4.1-2.4-6.3-2.6c0,0,12.4-3.2,17.3-4.9c0,0,5,0.8,11.4,0.6c2.8-0.1,5.9-1.5,8.9-2
			c4.9-0.9,9.7-1.4,13-4.6l7.1-7.7c0,0,3.7-8.6,8.5-10.1c0,0,3.5-0.9,7.3-3.6c3.7-2.6,4.5-4.3,8.5-6.4c0,0,4.7-3,4.3-6.4
			c0,0-2.8,3.9-6.1,5c-3.3,1.1-5.9,2.6-8.3,4.8c0,0-2.6,2-4.7,2.6c0,0-0.2-5.6-0.8-10.6l-0.4-4.8h-0.6l-0.6,8.5c0,0,1.4,5.4,0.6,6.7
			c-0.8,1.3-2.8,1.1-4.1,3.3c-1.4,2.2-4.3,4.7-6.9,6.9c-2.6,2.2-6.3,6.4-8.9,7.5c-2.6,1.1-13.6,4.7-19.7,3.6
			c-6.1-1.1-5.1-0.1-5.1-0.1s-1.2-0.6,1.2-3.3c2.4-2.6,3.7-4.7,3.7-4.7s-1.6-13.8-1.8-15.7c-0.2-1.9-1,0.6-1,0.6s0.8,3.4,0,6.2
			c-0.8,2.8,0.4,5.8,0.8,7.1c0.4,1.3-5.7,4.3-8.5,9.3c0,0-1.8,0.9-5.5,1.5c-3.7,0.6-8.1,1.9-8.9,2.6s-5.1,1.9-5.5-2.6
			c-0.4-4.5,1.2-4.3-1.6-11.6l-0.4-3l6.5-6.4l3.3-5.2l4.5-3.9l-1.4,0.2l-4.7,3c0,0-4.5,6.5-7.7,7.7l1-4.3l2-2.8l0.2-3.6l2.6-4.5
			l1-2.7l1.2-2.5l1.6-5.2c0,0,0.2-7.7,1-8.4c-0.3,0.3-0.8,0.7-0.8,0.7l-1.2,1.9c0,0-0.6,3.7-0.6,4.3c0,0.6-2.4,6.4-3.2,7.3
			c-0.8,0.9-3,4.9-3,4.9l-1.8,4.7l-2,3.4l-0.4,2.4l-4.3,8.6l0.2,18.1c0,0-10.4,16.3-14.8,20.4c-0.5,0.5-0.9,0.8-1.2,1.2l-0.2,0.3
			c1.2,0,7.5,0,7.5,0l-4.6,1.7c0,0,2.4,2.1,1.1,2.6c-0.1,0.1-3.6-1-5.3-1.4l-0.9,0.8c0,0-0.1-0.5-0.1-0.7c-0.2,0.5-0.5,1.1-0.7,1.4
			c-1.2,2.2-6.9,8.2-8.7,9.5c-1.8,1.3-4.9,3.9-6.1,4.9c-1.2,0.9-4.3,4.1-7.7,5.2c-3.3,1.1-3.2,3.2-3.2,3.2s-5.9,0-8.1,1.1
			c-2.2,1.1-10.2,2.8-11.8,3.9c-1.6,1.1-3.3-0.2-2.2-1.9c1.2-1.7,2.8-2.8,3.7-9.3l0.6-2.2l4.5-6l-1.2-0.4l-4.3,5l-2,5.4l-3.3,5.8
			c0,0-2,5-3.5,6c-1.6,0.9-10,2.2-10,2.2s-10,9-11.6,11.8c-1.6,2.8-0.6,4.9-0.6,4.9s-4.7,6.5-7.7,9.3c-3,2.8-4.7,4.9-4.7,6.2
			s-2.6,4.7-4.1,7.9c-1.6,3.2-3,4.1-3,4.1s-4.5,0.2-7.7,3.6c-3.2,3.4-2.8,0.6-6.9,4.5c-4.1,3.9-15.6,5.2-15.6,5.2s-14,2.4-14.8,2.4
			s-19.7,0-18.2-5.8c0,0,0.3-6.4-1.1-8.8c-1.4-2.4-0.2-2.6-0.2-2.6s0.8-6.3,2.2-9.1c1.4-2.8,6.8-8.6,6.4-9.9
			c-0.4-1.3,8.8-6.5,7.8-11.2c0,0,4.6-7.2,12.3-11c7.7-3.7,3.5-1.7,11-2.5c0,0,1,2.2,4.5,1.1c3.5-1.1,7.5,1.6,10.6-1.9
			c3.2-3.6,15-4.7,21.1-5c0,0,1.4-1.7,6.7-1.9c0,0,2.8-0.9,3-1.5c0.2-0.6,6.3,0.2,13.8-8.6c7.5-8.8,11.8-6.2,14.8-8
			c3-1.9,11-3.4,15.2-7.3c0,0,23.6-1.7,26.8,0c1.4,0.8,2.8,0.6,3.8,0.2c0,0,0,0,0,0c0-0.1,0.1-0.1,0.1-0.2c0-0.1,0.4-0.6,0.9-0.5
			l1.3-1.7c0,0,0,0-0.1,0c0.1,0,0.2-0.6,0.3-0.7c-2.5-0.4-5.6-1.4-5.3-1.5c0.6-0.2,0.4,0.2,3-1.1c2.6-1.3,2-6.4,2-6.4
			s0.8-3.6,3.2-5.3c0,0-3.5-3.6-3.5-5.2c0-1.7,0.2-4.5-0.6-7.3l8.7-12l-10.2,9.2c0,0-1.4,1.3-1,3.9c0,0-0.2,8,2.2,11
			c0,0-1.4,4.3-2.6,6.4c-1.2,2.1,0,3-3.5,3.6c0,0-4.9-1.6-8.7,2c0,0-5.1,0.7-12.6-0.6c-7.5-1.3-7.7,1.9-9.6,2.5
			c-2,0.6-6.1,2.7-6.1,2.7l-27.2,8c0,0-4.5,3.6-7.5,3.9c-3,0.4-5.3,1.3-7.5,2.4c-2.2,1.1-8.5,1.1-8.5,1.1s-10.2,5-14.6,4.9
			c-4.3-0.2-21.4-0.4-21.4-0.4l4.1-8.2l2.4-3c0,0,4.8-11,14.8-18.1c0,0,12.5-1.7,17-2.9c4.5-1.1,20.1-2.7,26,1.1c0,0,4,0.9,7.2-1.2
			c4-2.6,7.8-8.6,15.1-13c4-2.4,8.4-3.5,13-6.5c0,0,2.3,0.4,5.8-0.8c3.9-1.4,9.2-4.6,14.1-4.5c0,0,2.8-3.4,5.1-3.7
			c2.4-0.4,5.1-9.3,8.9-10.8c3.7-1.5,4.9-5.4,5.1-6.5c0.2-1.1,6.1-6.2,6.1-7.7s-0.6-4.1-0.6-4.1s1.6-3,2.4-7.5
			c0.8-4.5,0.6-7.9-0.2-8.4c-0.8-0.6,3.5-3.2,2.4-4.9c0,0,21.5-9.2,33.5-7.3c12,1.9,11.2-3.2,37.2,11c0,0,4.5,3.6,6.9,6.5
			s8.5,10.1,11.2,10.5c2.8,0.4,12.6-1.9,20.1,0.2c0,0,4.5,0.2,8.5,2.4c3.9,2.2,7.5,2.4,7.5,2.4s13.6,6.2,15.5,6.4c0,0,8.5,6,10.2,9
			c0,0,7.4,10.7,8.8,14.4l16,6l0.3-1.3c0,0-1.8,0.6-5.3-2.4c-3.5-3-6.6-4-8.4-4.6c0,0-2.5-6.4-4-7.4c0,0-1.4-1.5,4.1,0.2
			c5.5,1.7,9.2,1.1,12.8,0.6l4.7,1.5l6.7,0.2l12,2.8l5.1,0.4l17.3,5.2c0,0-14-6.4-16.3-7.1c0,0-12-0.2-19.9-4.3l-7.3-0.6
			c0,0-3.7-1.3-7.7-0.7s-7.8-0.6-8.8-1.9c-1-1.3,2.8-2.9,3.8-3.2c1-0.4,0.4-3.9,0.4-3.9l5.7-5.2l-6.6,3.4c0,0-0.5,2.6-3.1,3.7
			c-2.6,1.1-2.9,1-5.1,1.2c-2.2,0.2-4.4-0.4-5.7-2.6c-1.4-2.2-4.5-5.8-6.5-7c-2-1.1-13.8-8-13-9.3c0,0,3.8-0.6,6.3-1.5
			c2.6-0.9,14-2.8,16.1-1.9c2.2,0.9,12.4,9.2,14.6,8.8c2.2-0.4,5.3,1.3,5.3,1.3s2.6-0.9,4.7,2.1c2.2,3,3.7,2.2,7.1,5.9
			c3.3,3.7,20.7,0.7,20.7,0.7h7.1l5.1,2.4c0,0,1,6.1,3.7,9.4c0,0-2-8-1.6-9.5c0,0,1.4-3.2-1.4-4.3c0,0-3.3-2-1.9-2.9
			c1.4-0.9,5.8,0.1,9.2-2.7c3.3-2.8,6.5-3.9,6.5-3.9s4.9,8.8,6.7,12.5c0,0,5.5,3.5,15.2,6c0,0-4.9-2.8-5.1-3.6c-0.2-0.7-5.3-3-7.7-3
			c0,0-1.2-3.9-3.7-6.5c-2.6-2.6-2.6-6.2-2.6-6.2s10.6-4.3,13.6-2.6c3,1.7,7.1,3.7,8.9,3.4l2.2,1.7c0,0,7.9,3,10,3.6
			c0,0,1.2,3.7,3.7,6.4c2.6,2.6,2.6,8.4,2.6,8.4l8.5,15c0,0,1.6,4.9,2,6.4c0,0,2.7,3.9,7,6.2l12.4,7.9l-1.8,14.2l5.3,13.5
			c0,0,1.4,0.1,0-1.7c-1.4-1.8-2-10.1-2.6-10.7c-0.6-0.6,0.2-6,0.8-7.5c0.6-1.5,1-5.6,1-5.6l11.9,7.6l-11.3-11
			c0,0-17.3-9.9-17.3-10.7s0-0.7,0-0.7s15.1-1.7,18.9,0.2c3.7,1.9,6.7,6.2,6.7,6.2l4.6,3.7c0,0,7.8,5.6,12.7,12c0,0,14.8,3,20.5,3
			l9.3,11.2l9.7,0.9c0,0,5.5,0,5.9-1.5c0,0-3.7,0.9-5.5-0.2c-1.8-1.1-8.1-0.4-8.1-0.4l-6.9-10.3c0,0,12.2-3.4,12.8-3.4
			c0.6,0,7.7-3,7.7-3l-1.4-0.7l-5.7,1.5c0,0-4.7,1.3-5.3,1.7c-0.6,0.4-7.7,2.8-11.2,1.9c-3.5-0.9-13-1.7-13-1.7s-7.9-1.3-11.4-6.2
			c-3.5-4.9-5.3-4.9-5.3-4.9s-3.5-6.4-5.3-7.9l4.9,0.9c0,0,10.4,0.2,12.8,1.1c0,0-4.1-3-12-3l-13.4-5.9c0,0-17.1,0.4-19.1,0
			c0,0-4.5,2-4.7-1.2c-0.2-3.2-0.9-9-0.9-9s-4.8-5.2-6.8-9c-2-3.7-1.3-9.4-1.3-9.4s5,2.3,5.8,3.6c0,0,4.9,0.9,8.7,0.2
			c3.7-0.7,9.6-0.1,12.2,0.7c2.6,0.7,10.6-2,13.6-0.3c0,0-1.8-2.2-7.5-2.4c-5.7-0.2-11.8-0.6-14.4-1.7c-2.6-1.1-10-0.7-11.8-0.7
			c-1.8,0-5.9-3.7-7.9-3.7s-11.8-5.8-13.8-6.5c-2-0.7-11.8-7.9-15.9-7.9c0,0,2.4-3.9,5.7-6c3.3-2.1,2.4-3.9,3.3-4.9
			c1-0.9,6.7-6.2,6.7-6.2l-6.7,3.7c0,0-1.2,0.7-3,4.5c0,0-4.1,2.1-5.5,3.6c-1.4,1.5-3.9,4.3-7.3,5c-3.3,0.7-3.5,2.4-9.3,3
			c-5.7,0.6-8.9,3.2-15.9,5.8c0,0-7.7,0.4-13.2,2.4c-5.5,2.1-7.3-1.5-9.1-0.4c-1.8,1.1-9.1-0.6-11.8-1.9c-2.8-1.3-3.3-3.6-5.7-3.2
			c-2.4,0.4-3.7-1.5-6.1-3.7c-2.4-2.2-2.2-6.2-4.7-7.5c0,0,0.2-1.1,2.4-2.2c2.2-1.1,11.4-5.2,12.2-7.5c0,0-1-1.9,3.7-3
			c4.7-1.1,3.9-4.3,4.7-4.5c0.8-0.2,4.1-6.5,8.9-7.2c4.7-0.7,9.1-3.9,9.5-5.8c0.3-1.4,3.9-1.1,7.6-5.9c1.3-1.6,5.1-4,5-5.6
			c0,0,2-4.4,0.6-4.3c-0.3,0-6.2,8.8-11.1,7.6c-4.3-1.1-7.5-12.3-10.4-10.7c-1.7,1,6.5,10.9,4.6,12c-6.2,3.6-15.1,10.5-22.7,12.5
			c-8.3,2.2-8.5,6.3-10.6,7.4c0,0-5.3,1-9.1,2.3c-3.7,1.3-0.6,2.6-8.1,4.3c-7.5,1.7-4.3,6.9-19.9,7.1c0,0-6.3,0.6-10.4,2.8
			c-4.1,2.2-9.5-0.6-13.6,0.2c-4.1,0.7-5.9,0.2-9.1,0c-3.2-0.2-5.9-1.1-4.3-3c1.6-1.9,4.9-4.3,4.9-5.6c0-1.3,8.5-4.3,8.1-9
			c0,0,4.1-8.3,9.5-10.8l1.4-3.9h-1.4c0,0-0.8,3.7-5.1,5.5c-4.3,1.9-5.7,7.3-5.7,7.3l-16.3,12.5c0,0-7.3-4.1-12.4-7.4
			c-5.1-3.4-5.1-3.1-8.3-4.4c-3.2-1.3-2-0.3-4.1-2c-2.2-1.7-4.3-1.7-5.9-4.5c-0.5-0.9-0.5-3.9,1.9-8.9c0.5-1,3.7-2.3,4.6-3.5
			c1.3-1.6,0.3-3.1,1-5c0.7-2.1-0.6-4.4-0.5-6.7c0.1-3.2,1.5-6.6,2.7-9.8c1.2-3.4,1.2-6.5,3.5-9.2c1.1-1.3,2.5-2.4,3.9-3.4
			c2.5-1.7,5.2-4.5,7-7.5c0,0,7.5-10.1,11.2-16.2c2-3.3,1.5-3.3,1.4-4.8c-0.1-1.9-5,5.7-10.5,10.4c-7.4,6.3-15.9,10.6-15.9,10.6
			s-9.7,12.1-15.4,23.7c-1.7,3.4-6.2,7.2-8.5,10.4c-4,5.6-4,10.8-9.5,14c-4.7,2.8-14.9,4.1-19.2,4.7c-3.1,0.4-5.4,0.7-6.9,0.9
			c-1.8,0.4-3.9,1-5.9,1.6c-5.3,1.7-7.3-0.4-9.6,0.9c-2.4,1.3-5.1-2.2-8.9,1.7c-3.7,3.9-5.7,3.6-4.9,9.4c0.8,5.8-3.5,11.9-3.7,20
			c-0.2,8-4.7,6.9-7.9,12.7c-3.2,5.8-4.3,0.2-7.3,4c-3,3.7-6.9,1.9-9.1,6c-2.2,4.1-6.7,3-7.5,3.7c-0.8,0.7-3.9,0.9-3.9,0.9
			s-8.3,3.6-12.2,6.2c-3.9,2.6-11.4,5.2-13.6,4.9c-2.2-0.4-19.9-2.4-21.2-6c-2.2-6.4,6.7-17.5,6.7-17.5s7.8-3.5,10.2-5.4
			c2.4-1.9,3.2-5.7,3.7-7.4c0.6-1.7,7.1-9.2,7.1-9.2l-6.9,5.4c0,0-2.6,3.7-4.1,6.7c-1.6,3-7.1,6.3-7.2,2.7c-0.2-3.6,1.9-3.6,3.3-5.1
			c1.4-1.5,0.2-0.9,1-4.5c0.8-3.6,0.8-3.2,1.4-4.9c0.6-1.7,1.2,0.4,0.8-3c-0.4-3.4-2.4-1.9,0-5.2c2.4-3.4,7.3-7.1,7.7-8.8
			c0.4-1.7-2.8-1.7,0.4-3c3.2-1.3-0.7,0.4,1.3-1.1c2-1.5-3.6,0.2,0.5-2.4c4.1-2.6-2.5-7.2-0.1-9.3c2.4-2.1-4-5.5-2.4-6.6
			c0,0,11.2-17.9,22.2-21.7c0,0,3.6-5.4,9.6-2.3c6,3.1,6.5-1.9,6.5-1.9s-0.3-4.2,2.3-4.2s-2.8,0,2.6,0c5.4,0,7.7-8,7.7-8h-5.7
			c0,0-10.3,5.2-16.2,5.2c-16.4,0-13,2.6-23.6,6.8l-7.8,1.8L417.5,56.8z M327.1,149.5c0,0-0.8-2.1-1.6-3.9c-0.8-1.9,0-1.7-1.2-3.7
			c-1.2-2.1-1.2-2.2-1.2-5c0-2.8-2-3.9-2.8-4.9c-0.8-0.9,0.8-3.2-1.8-4.7c-2.6-1.5-5.1-6.7-5.1-6.7c7.7-3,25.8,0,25.8,0
			c2.6,2.2,3.7,15.3,2.4,15c-1.4-0.4-2.8,5.2-4.5,10.1C335.4,150.4,327.1,149.5,327.1,149.5z M373,135.8c-4.1,8-4.1,4.6-4.9,7.6
			c-0.8,3-3.3,5.2-2.4,6.4c1,1.2-0.8,3.5-2.8,4.2c-2,0.7-1.8,2.2-2.4,4.4c-0.6,2.2-0.2,2.4-3.3,4.3c-3.2,1.9-2.8,3.3-5.5,4.1
			c-2.8,0.7-3,4.8-5.7,3.5c-2.8-1.3-9.3-5.6-9.5-9c-0.2-3.4,1-7.5,3.2-8.6c2.2-1.1,3.9-2.8,4.5-4.7c0.6-1.9-1.8-4.3,1.6-6.7
			c0,0,5.3-3,7.5-8.2l1.8-1.9c0,0,8.2-5.8,6.7-5.2c-1.6,0.6-8.5,4.3-8.5,4.3s-1.6,4.1-4.3,5.8c0,0-2,2.7-2.8-4.2c0,0-1.4-7-2.4-7
			h17.7C361.6,125,377.1,127.8,373,135.8z"/>
	</defs>
	<clipPath id="SVGID_2_">
		<use xlink:href="#SVGID_1_"  style="overflow:visible;"/>
	</clipPath>
	
		<linearGradient id="SVGID_3_" gradientUnits="userSpaceOnUse" x1="497.7236" y1="2448.7832" x2="497.7236" y2="964.3489" gradientTransform="matrix(1 0 0 -0.6285 0 1397.4132)">
		<stop  offset="0" style="stop-color:#6E78AA"/>
		<stop  offset="0.263" style="stop-color:#61658E"/>
		<stop  offset="0.8274" style="stop-color:#3F3648"/>
		<stop  offset="0.8443" style="stop-color:#3E3446"/>
		<stop  offset="1" style="stop-color:#3C3250"/>
	</linearGradient>
	
		<rect x="-283.5" y="-141.7" style="clip-path:url(#SVGID_2_);fill-rule:evenodd;clip-rule:evenodd;fill:url(#SVGID_3_);" width="1562.4" height="933"/>
	
		<rect x="-63.6" y="-122" style="display:none;opacity:0.2;clip-path:url(#SVGID_2_);fill-rule:evenodd;clip-rule:evenodd;fill:#FFFFFF;" width="984" height="773"/>
</g>
</svg>
