
<svg version="1.1" id="bogen" xmlns="http://www.w3.org/2000/svg" xmlns:xlink="http://www.w3.org/1999/xlink" x="0px" y="0px"
	 viewBox="0 352.1 1519.5 137" style="enable-background:new 0 352.1 1519.5 137;" xml:space="preserve">
<path id="links" style="fill:#221B16;" d="M0,489.4h277.9v-62.9c0,0,0-50.4,30.8-74.3H0V489.4z"/>
<g id="saeulen">
	<g id="pillar">
		<rect x="434.4" y="361.1" style="fill:#221B16;" width="20.5" height="120"/>
		<g>
			<path style="fill:#221B16;" d="M461.3,354.6h-33.3c-0.6,0-1.1-0.5-1.1-1.1v-0.3c0-0.6,0.5-1.1,1.1-1.1h33.3
				c0.6,0,1.1,0.5,1.1,1.1v0.4C462.4,354.1,461.9,354.6,461.3,354.6z"/>
			<path style="fill:#221B16;" d="M459.2,358H430c-0.9,0-1.7-0.7-1.7-1.7v-1.5c0-0.9,0.7-1.7,1.7-1.7h29.2c0.9,0,1.7,0.7,1.7,1.7
				v1.5C460.9,357.3,460.1,358,459.2,358z"/>
			<path style="fill:#221B16;" d="M454.9,362.5h-20.6c-2.3,0-4.2-1.9-4.2-4.2v-1c0-2.3,1.9-4.2,4.2-4.2h20.6c2.3,0,4.2,1.9,4.2,4.2
				v1C459.1,360.6,457.2,362.5,454.9,362.5z"/>
			<path style="fill:#221B16;" d="M454.5,371h-20.5c-0.5,0-0.9-0.4-0.9-0.9v-0.2c0-0.5,0.4-0.9,0.9-0.9h20.4c0.5,0,0.9,0.4,0.9,0.9
				v0.2C455.5,370.5,455,371,454.5,371z"/>
			<path style="fill:#221B16;" d="M433.9,370.7c-0.1,0,0-0.9,0-1.1c0,0-1.3-1.1-1.4-1.6s0.2-1.1,0.5-1.1h1.5v3.9L433.9,370.7z"/>
			<path style="fill:#221B16;" d="M454.4,370.7c0.1,0,0-0.9,0-1.1c0,0,1.3-1.1,1.4-1.6c0.2-0.5-0.2-1.1-0.5-1.1h-1.5v3.9
				L454.4,370.7z"/>
		</g>
		<g>
			<path style="fill:#221B16;" d="M461.3,483.4h-33.3c-0.6,0-1.1,0.5-1.1,1.1v0.4c0,0.6,0.5,1.1,1.1,1.1h33.3c0.6,0,1.1-0.5,1.1-1.1
				v-0.4C462.4,483.9,461.9,483.4,461.3,483.4z"/>
			<path style="fill:#221B16;" d="M459.2,480H430c-0.9,0-1.7,0.7-1.7,1.7v1.5c0,0.9,0.7,1.7,1.7,1.7h29.2c0.9,0,1.7-0.7,1.7-1.7
				v-1.5C460.9,480.7,460.1,480,459.2,480z"/>
			<path style="fill:#221B16;" d="M454.9,475.5h-20.6c-2.3,0-4.2,1.9-4.2,4.2v1c0,2.3,1.9,4.2,4.2,4.2h20.6c2.3,0,4.2-1.9,4.2-4.2
				v-1C459.1,477.4,457.2,475.5,454.9,475.5z"/>
		</g>
	</g>
	<g id="pillar_1_">
		<rect x="544.1" y="361.1" style="fill:#221B16;" width="20.5" height="120"/>
		<g>
			<path style="fill:#221B16;" d="M571,354.6h-33.3c-0.6,0-1.1-0.5-1.1-1.1v-0.3c0-0.6,0.5-1.1,1.1-1.1H571c0.6,0,1.1,0.5,1.1,1.1
				v0.4C572.1,354.1,571.6,354.6,571,354.6z"/>
			<path style="fill:#221B16;" d="M569,358h-29.2c-0.9,0-1.7-0.7-1.7-1.7v-1.5c0-0.9,0.7-1.7,1.7-1.7H569c0.9,0,1.7,0.7,1.7,1.7v1.5
				C570.6,357.3,569.9,358,569,358z"/>
			<path style="fill:#221B16;" d="M564.6,362.5H544c-2.3,0-4.2-1.9-4.2-4.2v-1c0-2.3,1.9-4.2,4.2-4.2h20.6c2.3,0,4.2,1.9,4.2,4.2v1
				C568.9,360.6,567,362.5,564.6,362.5z"/>
			<path style="fill:#221B16;" d="M564.3,371h-20.4c-0.5,0-0.9-0.4-0.9-0.9v-0.2c0-0.5,0.4-0.9,0.9-0.9h20.4c0.5,0,0.9,0.4,0.9,0.9
				v0.2C565.2,370.5,564.8,371,564.3,371z"/>
			<path style="fill:#221B16;" d="M543.6,370.7c-0.1,0,0-0.9,0-1.1c0,0-1.3-1.1-1.4-1.6s0.2-1.1,0.5-1.1h1.5v3.9L543.6,370.7z"/>
			<path style="fill:#221B16;" d="M564.1,370.7c0.1,0,0-0.9,0-1.1c0,0,1.3-1.1,1.4-1.6c0.2-0.5-0.2-1.1-0.5-1.1h-1.5v3.9
				L564.1,370.7z"/>
		</g>
		<g>
			<path style="fill:#221B16;" d="M571,483.4h-33.3c-0.6,0-1.1,0.5-1.1,1.1v0.4c0,0.6,0.5,1.1,1.1,1.1H571c0.6,0,1.1-0.5,1.1-1.1
				v-0.4C572.1,483.9,571.6,483.4,571,483.4z"/>
			<path style="fill:#221B16;" d="M569,480h-29.2c-0.9,0-1.7,0.7-1.7,1.7v1.5c0,0.9,0.7,1.7,1.7,1.7H569c0.9,0,1.7-0.7,1.7-1.7v-1.5
				C570.6,480.7,569.9,480,569,480z"/>
			<path style="fill:#221B16;" d="M564.6,475.5H544c-2.3,0-4.2,1.9-4.2,4.2v1c0,2.3,1.9,4.2,4.2,4.2h20.6c2.3,0,4.2-1.9,4.2-4.2v-1
				C568.9,477.4,567,475.5,564.6,475.5z"/>
		</g>
	</g>
	<g id="pillar_2_">
		<rect x="653.9" y="361.1" style="fill:#221B16;" width="20.5" height="120"/>
		<g>
			<path style="fill:#221B16;" d="M680.8,354.6h-33.3c-0.6,0-1.1-0.5-1.1-1.1v-0.3c0-0.6,0.5-1.1,1.1-1.1h33.3
				c0.6,0,1.1,0.5,1.1,1.1v0.4C681.8,354.1,681.3,354.6,680.8,354.6z"/>
			<path style="fill:#221B16;" d="M678.7,358h-29.2c-0.9,0-1.7-0.7-1.7-1.7v-1.5c0-0.9,0.7-1.7,1.7-1.7h29.2c0.9,0,1.7,0.7,1.7,1.7
				v1.5C680.4,357.3,679.6,358,678.7,358z"/>
			<path style="fill:#221B16;" d="M674.4,362.5h-20.6c-2.3,0-4.2-1.9-4.2-4.2v-1c0-2.3,1.9-4.2,4.2-4.2h20.6c2.3,0,4.2,1.9,4.2,4.2
				v1C678.6,360.6,676.7,362.5,674.4,362.5z"/>
			<path style="fill:#221B16;" d="M674,371h-20.4c-0.5,0-0.9-0.4-0.9-0.9v-0.2c0-0.5,0.4-0.9,0.9-0.9H674c0.5,0,0.9,0.4,0.9,0.9v0.2
				C675,370.5,674.5,371,674,371z"/>
			<path style="fill:#221B16;" d="M653.4,370.7c-0.1,0,0-0.9,0-1.1c0,0-1.3-1.1-1.4-1.6s0.2-1.1,0.5-1.1h1.5v3.9L653.4,370.7z"/>
			<path style="fill:#221B16;" d="M673.9,370.7c0.1,0,0-0.9,0-1.1c0,0,1.3-1.1,1.4-1.6c0.2-0.5-0.2-1.1-0.5-1.1h-1.5v3.9
				L673.9,370.7z"/>
		</g>
		<g>
			<path style="fill:#221B16;" d="M680.8,483.4h-33.3c-0.6,0-1.1,0.5-1.1,1.1v0.4c0,0.6,0.5,1.1,1.1,1.1h33.3c0.6,0,1.1-0.5,1.1-1.1
				v-0.4C681.8,483.9,681.3,483.4,680.8,483.4z"/>
			<path style="fill:#221B16;" d="M678.7,480h-29.2c-0.9,0-1.7,0.7-1.7,1.7v1.5c0,0.9,0.7,1.7,1.7,1.7h29.2c0.9,0,1.7-0.7,1.7-1.7
				v-1.5C680.4,480.7,679.6,480,678.7,480z"/>
			<path style="fill:#221B16;" d="M674.4,475.5h-20.6c-2.3,0-4.2,1.9-4.2,4.2v1c0,2.3,1.9,4.2,4.2,4.2h20.6c2.3,0,4.2-1.9,4.2-4.2
				v-1C678.6,477.4,676.7,475.5,674.4,475.5z"/>
		</g>
	</g>
</g>
<rect id="boden" x="276.4" y="485.6" style="fill:#221B16;" width="737.2" height="3.9"/>
<linearGradient id="SVGID_1_" gradientUnits="userSpaceOnUse" x1="1079.1061" y1="419.3067" x2="1232.1666" y2="419.3067">
	<stop  offset="0" style="stop-color:#FFFFFF"/>
	<stop  offset="1" style="stop-color:#FFFFFF;stop-opacity:0.5"/>
</linearGradient>
<rect x="1079.1" y="372.2" style="opacity:0.13;fill:url(#SVGID_1_);" width="153.1" height="94.2"/>
<path style="fill:#221B16;" d="M977.6,352.3c30.8,23.9,30.8,74.3,30.8,74.3v62.9h572.1V352.3H977.6z M1143.7,455.9h-48
	c-1.2-29.7-0.6-55.8,2-62.6c7.3-12.9,22-14.4,22-14.4c18.1,2.3,27.3,14.6,24.3,39.4C1144.4,434.6,1143.7,455.9,1143.7,455.9z
	 M1220.9,455.6h-48c-1.2-29.7-0.6-55.8,2-62.6c7.3-12.9,22-14.4,22-14.4c16.4,2.7,27.3,14.6,24.3,39.4
	C1221.6,434.3,1220.9,455.6,1220.9,455.6z"/>
<path id="window1" style="fill:#221B16;" d="M1112.9,460.7c-0.7,0.4-1.5,0.3-1.7,0.2c-0.3-0.1-0.3,0-0.2,0.2
	c0.1,0.1,0.3,0.5,0.3,0.8c0,0.3-0.1,0.6-0.2,0.7c-0.1,0.1-0.2,0-0.3-0.1c-0.1-0.2-0.5-0.3-0.8-0.3c-0.3-0.1-0.8-0.6-0.9-1.1
	c-0.1-0.4-0.4-1.1-0.6-1.3c-0.2-0.2-0.2-0.1-0.1,0.1c0.4,0.7,0.2,1.5,0.1,1.8c-0.1,0.1-0.2,0.3-0.4,0.1c-0.2-0.2-0.8-0.6-0.9-0.8
	c-0.1-0.2-0.2-0.1-0.3-0.1c-0.1,0.1-0.5,0.2-0.6,0c-0.3-0.4-0.1-1-0.2-1.4c0-0.4-0.3-0.8-0.7-1c-0.3-0.2-0.8-0.1-1,0.2
	c-0.2,0.2-0.2,0.6-0.4,0.8c0,0-0.1,0.1-0.1,0.1c-0.5,0.1-0.4-0.5-0.4-0.8c0.1-0.5,0.4-0.9,0.8-1.2c1.8-1.3,3.9,0.9,5.2,1.9
	c1.1,0.9,2.1,1.1,2.9,0.3c0.5-0.5,0.4-1,0.3-1.3c-0.1-0.2,0.1-0.3,0.3-0.2C1113.8,458.8,1113.7,460.3,1112.9,460.7z M1135.1,458.7
	c0.2,0.2,0.2,0.6,0.4,0.8c0,0,0.1,0.1,0.1,0.1c0.5,0.1,0.4-0.5,0.4-0.8c-0.1-0.5-0.4-0.9-0.8-1.2c-1.8-1.3-3.9,0.9-5.2,1.9
	c-1.1,0.9-2.1,1.1-2.9,0.3c-0.5-0.5-0.4-1-0.3-1.3c0.1-0.2-0.1-0.3-0.3-0.2c-0.9,0.4-0.8,1.9,0,2.3c0.7,0.4,1.5,0.3,1.7,0.2
	c0.3-0.1,0.3,0,0.2,0.2c-0.1,0.1-0.3,0.5-0.3,0.8c0,0.3,0.1,0.6,0.2,0.7c0.1,0.1,0.2,0,0.3-0.1c0.1-0.2,0.5-0.3,0.8-0.3
	c0.3-0.1,0.8-0.6,0.9-1.1c0.1-0.4,0.4-1.1,0.6-1.3c0.2-0.2,0.2-0.1,0.1,0.1c-0.4,0.7-0.2,1.5-0.1,1.8c0.1,0.1,0.2,0.3,0.4,0.1
	c0.2-0.2,0.8-0.6,0.9-0.8c0.1-0.2,0.2-0.1,0.3-0.1c0.1,0.1,0.5,0.2,0.6,0c0.2-0.4,0.1-1,0.2-1.4c0-0.4,0.3-0.8,0.7-1
	C1134.4,458.4,1134.9,458.4,1135.1,458.7z M1150.2,453.1c-0.4,1-1.1,1.7-1.9,2.3c-0.8,0.6-1.7,1-2.6,1.4c-0.9,0.5-1.8,1-2.7,1.5
	c-1.6,1-3,2.4-3.9,4.1c-0.8,1.5-0.9,3.5-0.1,5c0.7,1.4,2.3,2.3,3.9,2.1c1.4-0.2,2.4-1.4,2.7-2.7c0.3-1.3-0.3-2.9-1.7-3.4
	c-1.1-0.4-2.6,0.3-2.7,1.5c0,0.6,0.3,1.1,0.9,1.2c0.5,0.1,0.8-0.4,0.7-0.8c-0.1-0.4,0.1-0.8,0.5-0.9c0.4-0.1,0.7,0.1,0.9,0.5
	c0.3,0.9-0.2,2-1,2.4c-0.9,0.5-2,0.2-2.7-0.6c-0.7-0.7-0.8-1.8-0.5-2.8c0.3-0.9,1-1.6,1.9-1.9c1.8-0.8,3.9,0.3,4.7,2
	c0.9,1.8,0.4,4.1-1,5.5c-1.3,1.3-3.3,1.6-5,1c-1.8-0.7-3-2.3-3.4-4.1c-0.4-1.8,0.1-3.7,1-5.3c-0.1,0-0.2,0-0.4,0
	c-0.7-0.2-2.1-0.8-2.8-0.1c-0.3,0.4-0.5,1,0,1.4c0.1,0.1,0.2,0.1,0.3,0.2c0,0,0,0,0-0.1c-0.1-0.3-0.2-0.7,0-0.9
	c0.2-0.3,0.6-0.5,1-0.4c0.4,0.1,0.6,0.4,0.6,0.8c0,0.2,0,0.3-0.1,0.4c-0.1,0.2-0.2,0.4-0.3,0.5c-1.1,1.2-3.1-0.7-2.2-2
	c1.1-1.5,2.8-0.2,4.2-0.3c0.5-0.7,1-1.3,1.7-1.9c0-0.5-0.2-0.9-0.7-1.2c-0.9-0.6-2.1-0.1-2.4,0.9c0.2,0.3,0.4,0.5,0.6,0.7
	c0,0,0,0,0.1,0c-0.1-0.2-0.2-0.5-0.1-0.7c0.1-0.4,0.7-0.8,1.1-0.7c0.5,0.1,0.8,0.4,0.9,0.9c0.2,0.9-0.9,1.5-1.7,1.3
	c-0.9-0.2-1.9-2.1-2.1-2.4c-0.3-0.4-0.6-0.7-1-0.8h-1.3c-1,0.2-2,0.8-2.8,1.4c-0.6,0.4-1.1,0.8-1.5,1.2c-0.4,0.4-1,0.9-1.6,0.5
	c-0.3-0.2-0.5-0.7-0.3-1c0.1-0.4,0.7-0.8,1.1-0.5c0-0.2-0.2-0.5-0.3-0.6c-0.3-0.3-0.8-0.2-1.1,0c-0.5,0.3-0.8,0.7-1.2,1.1
	c-0.3,0.4-0.7,0.7-1.1,1c-0.9,0.6-1.9,1-3,0.8c-0.8-0.1-1.6-0.6-2-1.4c-0.4,0.7-1.2,1.2-2,1.4c-1.1,0.2-2.1-0.2-3-0.8
	c-0.4-0.3-0.8-0.6-1.1-1c-0.4-0.4-0.7-0.8-1.2-1.1c-0.3-0.2-0.8-0.2-1.1,0c-0.2,0.1-0.3,0.4-0.3,0.6c0.4-0.2,1,0.1,1.1,0.5
	c0.1,0.4,0,0.8-0.3,1c-0.6,0.4-1.2-0.1-1.6-0.5c-0.5-0.5-1-0.9-1.5-1.2c-0.8-0.6-1.8-1.1-2.8-1.4h-1.3c-0.4,0.1-0.7,0.4-1,0.8
	c-0.2,0.3-1.2,2.2-2.1,2.4c-0.8,0.2-1.9-0.4-1.7-1.3c0.1-0.5,0.4-0.8,0.9-0.9c0.5-0.1,1,0.3,1.1,0.7c0.1,0.3,0,0.5-0.1,0.7
	c0,0,0,0,0.1,0c0.3-0.2,0.5-0.4,0.6-0.7c-0.2-1.1-1.5-1.5-2.4-0.9c-0.5,0.3-0.7,0.8-0.7,1.2c0.6,0.6,1.2,1.2,1.7,1.9
	c1.4,0.1,3.1-1.2,4.2,0.3c0.9,1.3-1.1,3.2-2.2,2c-0.1-0.1-0.2-0.3-0.3-0.5c-0.1-0.1-0.1-0.3-0.1-0.4c0-0.4,0.3-0.7,0.7-0.8
	c0.4-0.1,0.7,0.1,1,0.4c0.2,0.3,0.2,0.6,0,0.9c0,0,0,0,0,0.1c0.1,0,0.2-0.1,0.3-0.2c0.4-0.4,0.3-1,0-1.4c-0.7-0.7-2,0-2.8,0.1
	c-0.1,0-0.3,0-0.4,0c0.9,1.6,1.4,3.5,1,5.3c-0.4,1.9-1.6,3.4-3.4,4.1c-1.7,0.7-3.7,0.4-5-1c-1.4-1.4-1.9-3.7-1-5.5
	c0.8-1.7,2.9-2.7,4.7-2c0.9,0.4,1.6,1,1.9,1.9c0.3,0.9,0.2,2-0.5,2.8c-0.7,0.7-1.8,1-2.7,0.6c-0.8-0.4-1.3-1.5-1-2.4
	c0.1-0.4,0.5-0.6,0.9-0.5c0.3,0.1,0.6,0.5,0.5,0.9c-0.2,0.4,0.2,0.9,0.7,0.8c0.6-0.1,0.9-0.6,0.9-1.2c-0.1-1.3-1.6-1.9-2.7-1.5
	c-1.3,0.5-2,2-1.7,3.4c0.3,1.3,1.3,2.5,2.7,2.7c1.6,0.3,3.2-0.7,3.9-2.1c0.8-1.6,0.7-3.5-0.1-5c-0.9-1.7-2.3-3.1-3.9-4.1
	c-0.9-0.6-1.8-1.1-2.7-1.5c-0.9-0.4-1.8-0.8-2.6-1.4c-0.8-0.6-1.5-1.3-1.9-2.3c-0.4-0.9-0.4-1.9,0-2.8c0.9-1.7,3.2-2.2,4.7-0.9
	c0.2,0.2,0.4,0.5,0.6,0.7v-1.3v-38.6v-5.9l0.1-1.9c0.2-2.8,0.8-5.4,1.9-8c1.3-3,3.1-5.7,5.4-8.1c2.3-2.3,5-4.1,8-5.4
	c0.1,0,0.2-0.1,0.3-0.1c0.1-0.1,0.2-0.1,0.4-0.2c0.6-0.3,1.1-0.8,1.5-1.4c0.8-1.2,1.5-2.4,2.8-3.1c1.1-0.7,2.3-1.1,3.6-1.2
	c0,0,0,0,0-0.1c0-0.5,0-0.9,0.1-1.3c-0.4-0.3-0.6-0.8-0.6-1.3c0-0.9,0.7-1.7,1.6-1.7c0.9,0,1.6,0.7,1.6,1.7c0,0.5-0.2,1-0.6,1.3
	c0.1,0.4,0.1,0.9,0.1,1.3c0,0,0,0,0,0.1c1.2,0.2,2.5,0.5,3.6,1.2c1.3,0.8,1.9,1.9,2.8,3.1c0.4,0.6,0.9,1.1,1.5,1.4
	c0.2,0.1,0.3,0.1,0.4,0.2c0.1,0,0.2,0.1,0.3,0.1c3,1.3,5.7,3.1,8,5.4c2.3,2.3,4.1,5,5.4,8.1c1.1,2.6,1.7,5.2,1.9,8l0.1,1.9v5.9v38.6
	v1.3c0.2-0.3,0.4-0.5,0.6-0.7c1.4-1.3,3.8-0.8,4.7,0.9C1150.6,451.2,1150.6,452.2,1150.2,453.1z M1094.7,453.1
	c-0.2,0.4-0.5,0.7-0.9,0.9c-0.5,0.3-1.1,0.4-1.7,0.2c0.7,0.5,1.5,0.9,2.2,1.2c0.1,0.1,0.3,0.1,0.4,0.2V453.1z M1139.5,391.2h-4.7
	c0.6,1.2,1.1,2.5,1.5,3.8c0.8,2.5,1.3,5,1.5,7.6h5.6C1143.1,398.5,1141.7,394.6,1139.5,391.2z M1143.5,448v-11.5h-5.3v11.2
	c0.7-0.7,1.5-1.4,2.2-2.1c0.1-0.1,0.2-0.2,0.4-0.2c0.1,0,0.3,0,0.4,0.2C1141.8,446.4,1142.7,447.2,1143.5,448z M1140.7,446.8
	c-0.7,0.7-1.5,1.4-2.2,2.1h4.4C1142.1,448.2,1141.4,447.5,1140.7,446.8z M1126,450.3c1.8,0.5,3.2,1.7,4.8,2.7c0.8,0.5,1.8,1,2.8,1
	c0.7,0,1.4-0.3,1.7-0.8c-0.3,0-0.6-0.1-0.9-0.2c-0.8-0.5-0.9-1.7,0-2.1c0.8-0.4,1.6,0.1,2,0.8c0.3-0.2,0.5-0.3,0.6-0.4
	c1.7-1,4-1.6,5.6-0.1c0.4,0.4,0.7,0.9,0.8,1.4v-2.3H1126z M1135.3,452c-0.1-0.1-0.2-0.2-0.3-0.2c-0.1,0-0.2,0.1-0.2,0.2
	c0.1,0.3,0.4,0.3,0.6,0.2C1135.4,452.1,1135.4,452,1135.3,452z M1122.4,448.1v-11.6h-2.6h-2.6v11.6c0.8-0.8,1.7-1.6,2.5-2.4
	c0,0,0.1-0.1,0.1-0.1c0,0,0.1,0.1,0.1,0.1C1120.8,446.5,1121.6,447.3,1122.4,448.1z M1119.8,447c-0.7,0.6-1.3,1.3-2,1.9h2h2
	C1121.1,448.3,1120.5,447.6,1119.8,447z M1122.5,434.7c0,0,0-14,0-14c0-3.2,0-6.3-0.1-9.5c-0.8,0.8-1.6,1.6-2.5,2.4
	c0,0-0.1,0.1-0.1,0.1c0,0-0.1-0.1-0.1-0.1c-0.8-0.8-1.6-1.6-2.5-2.4c0,3.2,0,20.3-0.1,23.5c0,0,0,0,0,0h2.7H1122.5z M1104.3,453.3
	c0.4,0.6,1,0.9,1.7,0.8c1,0,1.9-0.5,2.8-1c1.5-1,3-2.2,4.8-2.7h-17.4v2.3c0.1-0.5,0.4-1,0.8-1.4c1.6-1.4,4-0.8,5.6,0.1
	c0.1,0.1,0.3,0.2,0.6,0.4c0.4-0.7,1.2-1.3,2-0.8c0.9,0.5,0.8,1.6,0,2.1C1104.9,453.2,1104.6,453.3,1104.3,453.3z M1104.8,452
	c0-0.1-0.1-0.1-0.2-0.2c-0.1,0-0.2,0.1-0.3,0.2c-0.1,0.1-0.1,0.2-0.1,0.2C1104.4,452.3,1104.6,452.2,1104.8,452z M1096.1,436.5V448
	c0.8-0.8,1.6-1.6,2.4-2.4c0.1-0.1,0.2-0.2,0.4-0.2c0.1,0,0.2,0,0.4,0.2c0.7,0.7,1.4,1.4,2.2,2.1v-11.2H1096.1z M1098.9,446.8
	c-0.7,0.7-1.5,1.4-2.2,2.1h4.4C1100.4,448.2,1099.7,447.5,1098.9,446.8z M1101.5,408.9h1c-0.3-0.3-0.6-0.6-0.7-1
	c-0.1-0.2-0.1-0.4-0.2-0.5c-0.2-0.6-0.1-1.2,0.1-1.8c0.2-0.6,0.6-1.2,1.2-1.5h-1.1h-1.8c0.2,0.1,0.4,0.3,0.5,0.5
	c0.5,0.6,0.7,1.5,0.4,2.3c-0.3,0.9-1.3,1.5-2.2,1.3c-0.9-0.2-1.6-1-1.4-1.9c0-0.3,0.2-0.5,0.5-0.5c0.3,0,0.6,0.2,0.5,0.5
	c-0.1,0.6,0.5,1.1,1.1,0.8c0.5-0.3,0.8-0.8,0.6-1.4c-0.2-0.5-0.6-1-1.2-1c-0.6,0-1.2,0.2-1.5,0.7c-0.8,1.2,0,2.7,1.2,3.3
	c0.2,0.1,0.3,0.2,0.5,0.2H1101.5z M1096.8,410.3c0.7,0.7,1.4,1.4,2.2,2.1c0.7-0.7,1.4-1.4,2.2-2.1H1096.8z M1116,392.4
	c0-0.4,0-0.8,0.1-1.2h-3.6c-0.2,0.6-0.3,1.3-0.5,1.9c-0.5,2.2-0.9,4.4-1.1,6.6c-0.1,1-0.2,1.9-0.3,2.9h5.3
	C1115.8,399.2,1115.8,395.8,1116,392.4z M1114.3,404L1114.3,404h-3.1c0.2,0.1,0.4,0.3,0.6,0.5c0.5,0.6,0.7,1.5,0.4,2.3
	c-0.3,0.8-1.2,1.4-2.1,1.3c0,0-0.1,0-0.1,0c-0.5-0.1-1-0.4-1.2-0.9c-0.2-0.3-0.2-0.6-0.2-1c0-0.2,0.1-0.4,0.3-0.5
	c0.1,0,0.2-0.1,0.2-0.1c0.3,0,0.6,0.2,0.5,0.5c0,0.4,0.2,0.8,0.6,0.9c0.1,0,0.3,0,0.5-0.1c0.5-0.3,0.8-0.8,0.6-1.4
	c-0.1-0.4-0.5-0.8-0.9-0.9c-0.1,0-0.2,0-0.3,0c-0.4,0-0.8,0.1-1.1,0.4c-0.1,0.1-0.3,0.2-0.3,0.4c-0.5,0.8-0.3,1.8,0.2,2.4
	c0.3,0.3,0.6,0.6,1,0.8c0.1,0.1,0.2,0.1,0.4,0.2c0,0,0.1,0,0.1,0h3.8c-0.3-0.3-0.5-0.6-0.7-1C1112.6,406.5,1113,404.8,1114.3,404z
	 M1110.8,410.3c0.7,0.7,1.4,1.4,2.2,2.1c0.7-0.7,1.4-1.4,2.2-2.1H1110.8z M1108.6,447.8v-11.3h-5.7v11.8c0.9-0.9,1.8-1.8,2.7-2.6
	c0.1-0.1,0.2-0.2,0.4-0.2c0.1,0,0.2,0,0.4,0.2C1107.1,446.4,1107.8,447.1,1108.6,447.8z M1106,446.8c-0.7,0.7-1.5,1.4-2.2,2.1h4.4
	C1107.4,448.2,1106.7,447.5,1106,446.8z M1108.6,411.3c-0.8,0.7-1.5,1.5-2.3,2.2c-0.1,0.1-0.2,0.2-0.4,0.2c-0.1,0-0.2,0-0.4-0.2
	c-0.9-0.9-1.8-1.8-2.7-2.7c0,1.1,0,23.8,0,23.8h5.7C1108.6,434.7,1108.6,411.8,1108.6,411.3z M1106,412.4c0.7-0.7,1.4-1.4,2.2-2.1
	h-4.3C1104.5,411,1105.2,411.7,1106,412.4z M1111,391.2h-4.6c-1.9,3.6-2.8,7.4-3.2,11.4h5.9c0-0.4,0.1-0.8,0.1-1.1
	c0.3-2.3,0.6-4.6,1-6.8C1110.4,393.5,1110.7,392.3,1111,391.2z M1103,405.1c-0.1,0.1-0.2,0.2-0.3,0.3c-0.5,0.8-0.4,1.7,0.1,2.4
	c0.3,0.4,0.6,0.7,1,0.9c0.2,0.1,0.3,0.2,0.5,0.2h3.7c-0.3-0.3-0.5-0.6-0.7-1c-0.7-1.4-0.2-3.1,1.1-3.9h-3.1c0.2,0.1,0.4,0.3,0.5,0.5
	c0.5,0.6,0.7,1.5,0.4,2.3c-0.3,0.8-1.3,1.5-2.2,1.3c-0.6-0.1-1.1-0.5-1.3-1c-0.1-0.3-0.2-0.6-0.2-0.9c0-0.2,0.1-0.3,0.2-0.4
	c0.1-0.1,0.2-0.1,0.3-0.1c0.3,0,0.6,0.2,0.5,0.5c-0.1,0.6,0.5,1.1,1.1,0.8c0.5-0.3,0.8-0.8,0.6-1.4c-0.2-0.5-0.6-1-1.2-1
	C1103.8,404.7,1103.3,404.8,1103,405.1z M1115.2,448.9c-0.7-0.7-1.5-1.4-2.2-2.1c-0.7,0.7-1.5,1.4-2.2,2.1H1115.2z M1115.7,448
	v-11.4h-5.8v11.7c0.9-0.9,1.8-1.7,2.6-2.6c0.1-0.1,0.2-0.2,0.4-0.2c0.1,0,0.2,0,0.4,0.2C1114.2,446.4,1114.9,447.2,1115.7,448z
	 M1115.8,411.2c-0.8,0.8-1.6,1.6-2.4,2.4c-0.1,0.1-0.2,0.2-0.4,0.2c-0.1,0-0.2,0-0.4-0.2c-0.9-0.8-1.7-1.7-2.6-2.5
	c0,0.8,0,23.6,0,23.6h5.7L1115.8,411.2z M1115.8,408.9c0,0,0.1,0,0.1,0.1h1.3h2.2V404h-2.2h-0.3c0.1,0.1,0.2,0.1,0.3,0.2
	c0.1,0.1,0.2,0.2,0.3,0.3c0.5,0.6,0.7,1.5,0.4,2.3c-0.2,0.4-0.4,0.7-0.7,0.9c-0.4,0.3-0.9,0.5-1.4,0.4c0,0,0,0-0.1,0
	c-0.9-0.2-1.6-1-1.4-1.9c0-0.3,0.2-0.5,0.5-0.5c0.3,0,0.6,0.2,0.5,0.5c0,0.4,0.2,0.7,0.5,0.8c0.2,0.1,0.4,0.1,0.6,0
	c0.5-0.3,0.8-0.8,0.6-1.4c-0.2-0.5-0.6-0.9-1.1-1c0,0,0,0-0.1,0c-0.6,0-1.2,0.2-1.5,0.8c-0.8,1.2,0,2.7,1.2,3.3
	C1115.6,408.8,1115.7,408.8,1115.8,408.9z M1119.8,410.3h-1.9c0.6,0.6,1.3,1.3,1.9,1.9c0.7-0.6,1.3-1.3,1.9-1.9H1119.8z
	 M1119.8,402.6h2.6c0-3.1,0-6.2-0.1-9.2c0-0.7-0.1-1.5-0.1-2.2h-2.3h-2.3c0,0.7-0.1,1.5-0.1,2.2c-0.1,3.1-0.1,6.1-0.1,9.2H1119.8z
	 M1123.7,408.9c0,0,0.1,0,0.1-0.1c0.1,0,0.2-0.1,0.4-0.2c1.2-0.6,1.9-2,1.2-3.3c-0.3-0.5-0.9-0.8-1.5-0.8c0,0,0,0-0.1,0
	c-0.6,0-1,0.5-1.1,1c-0.2,0.6,0.1,1.1,0.6,1.4c0.2,0.1,0.4,0.1,0.6,0c0.3-0.1,0.5-0.5,0.5-0.8c0-0.3,0.3-0.5,0.5-0.5
	c0.3,0,0.5,0.2,0.5,0.5c0.1,0.9-0.6,1.7-1.4,1.9c0,0,0,0-0.1,0c-0.5,0.1-1-0.1-1.4-0.4c-0.3-0.2-0.6-0.6-0.7-0.9
	c-0.3-0.8-0.1-1.7,0.4-2.3c0.1-0.1,0.2-0.2,0.3-0.3c0.1-0.1,0.2-0.1,0.3-0.2h-0.3h-2.2v4.9h2.2H1123.7L1123.7,408.9z M1136.8,410.9
	c-0.9,0.9-1.8,1.8-2.7,2.7c-0.1,0.1-0.2,0.2-0.4,0.2c-0.1,0-0.3,0-0.4-0.2c-0.8-0.7-1.5-1.5-2.3-2.2c0,0.5,0,23.3,0,23.3h5.7
	C1136.7,434.7,1136.7,412,1136.8,410.9z M1136.7,448.3v-11.8h-5.7v11.3c0.7-0.7,1.5-1.5,2.2-2.2c0.1-0.1,0.2-0.2,0.4-0.2
	c0.1,0,0.3,0,0.4,0.2C1134.9,446.5,1135.8,447.4,1136.7,448.3z M1133.6,446.8c-0.7,0.7-1.5,1.4-2.2,2.1h4.4
	C1135.1,448.2,1134.4,447.5,1133.6,446.8z M1129.4,408.9c0,0,0.1,0,0.1,0c0.1,0,0.3-0.1,0.4-0.2c0.4-0.2,0.7-0.5,1-0.8
	c0.5-0.7,0.7-1.6,0.2-2.4c-0.1-0.2-0.2-0.3-0.3-0.4c-0.3-0.2-0.7-0.4-1.1-0.4c-0.1,0-0.2,0-0.3,0c-0.4,0.1-0.8,0.5-0.9,0.9
	c-0.2,0.6,0.1,1.1,0.6,1.4c0.2,0.1,0.3,0.1,0.5,0.1c0.4-0.1,0.6-0.5,0.6-0.9c0-0.3,0.3-0.5,0.5-0.5c0.1,0,0.2,0,0.2,0.1
	c0.2,0.1,0.3,0.3,0.3,0.5c0,0.3,0,0.7-0.2,1c-0.3,0.5-0.7,0.8-1.2,0.9c0,0-0.1,0-0.1,0c-0.9,0.1-1.8-0.5-2.1-1.3
	c-0.3-0.8-0.1-1.7,0.4-2.3c0.2-0.2,0.4-0.4,0.6-0.5h-3.1l0,0c1.3,0.7,1.8,2.5,1.1,3.9c-0.2,0.4-0.4,0.7-0.7,1H1129.4L1129.4,408.9z
	 M1124.4,410.3c0.7,0.7,1.4,1.4,2.2,2.1c0.7-0.7,1.4-1.4,2.2-2.1H1124.4z M1133.6,412.4c0.7-0.7,1.4-1.4,2.2-2.1h-4.3
	C1132.2,411,1132.9,411.7,1133.6,412.4z M1136.9,405.4c-0.1-0.1-0.2-0.2-0.3-0.3c-0.3-0.3-0.8-0.4-1.2-0.4c-0.6,0-1,0.4-1.2,1
	c-0.2,0.6,0.1,1.1,0.6,1.4c0.6,0.3,1.1-0.2,1.1-0.8c0-0.3,0.3-0.5,0.5-0.5c0.1,0,0.2,0,0.3,0.1c0.1,0.1,0.2,0.2,0.2,0.4
	c0,0.3,0,0.6-0.2,0.9c-0.2,0.5-0.7,0.9-1.3,1c-0.9,0.2-1.9-0.4-2.2-1.3c-0.3-0.8-0.1-1.7,0.4-2.3c0.2-0.2,0.3-0.4,0.5-0.5h-3.1
	c1.3,0.7,1.8,2.5,1.1,3.9c-0.2,0.4-0.4,0.7-0.7,1h3.7c0.2-0.1,0.3-0.1,0.5-0.2c0.4-0.2,0.8-0.5,1-0.9
	C1137.2,407.1,1137.4,406.3,1136.9,405.4z M1136.4,402.6c-0.4-4-1.3-7.9-3.2-11.4h-4.6c0.3,1.1,0.5,2.3,0.8,3.5
	c0.4,2.3,0.8,4.6,1,6.8c0,0.4,0.1,0.8,0.1,1.1H1136.4z M1127.6,393.1c-0.1-0.6-0.3-1.3-0.5-1.9h-3.6c0,0.4,0.1,0.8,0.1,1.2
	c0.2,3.4,0.2,6.8,0.2,10.2h5.3c-0.1-1-0.2-1.9-0.3-2.9C1128.5,397.5,1128.1,395.3,1127.6,393.1z M1123.8,411.2l0.1,23.5h5.7
	c0,0,0-22.8,0-23.6c-0.9,0.8-1.7,1.7-2.6,2.5c-0.1,0.1-0.2,0.2-0.4,0.2c-0.1,0-0.3,0-0.4-0.2C1125.4,412.8,1124.6,412,1123.8,411.2z
	 M1123.8,448c0.8-0.8,1.6-1.6,2.4-2.3c0.1-0.1,0.2-0.2,0.4-0.2c0.1,0,0.3,0,0.4,0.2c0.9,0.9,1.8,1.7,2.6,2.6v-11.7h-5.8V448z
	 M1124.4,448.9h4.4c-0.7-0.7-1.5-1.4-2.2-2.1C1125.9,447.5,1125.1,448.2,1124.4,448.9z M1138.1,407.3c0,0.2-0.1,0.4-0.2,0.5
	c-0.2,0.4-0.4,0.8-0.7,1h1h2.6c0.2-0.1,0.3-0.1,0.5-0.2c1.2-0.6,1.9-2,1.2-3.3c-0.3-0.5-0.9-0.8-1.5-0.7c-0.6,0-1,0.4-1.2,1
	c-0.2,0.6,0.1,1.1,0.6,1.4c0.6,0.3,1.1-0.2,1.1-0.8c0-0.3,0.3-0.5,0.5-0.5c0.3,0,0.5,0.2,0.5,0.5c0.1,0.9-0.6,1.7-1.4,1.9
	c-0.9,0.2-1.9-0.4-2.2-1.3c-0.3-0.8-0.1-1.7,0.4-2.3c0.2-0.2,0.3-0.4,0.5-0.5h-1.8h-1.1c0.6,0.3,1,0.9,1.2,1.5
	C1138.2,406.1,1138.3,406.7,1138.1,407.3z M1138.5,410.3c0.7,0.7,1.4,1.4,2.2,2.1c0.7-0.7,1.4-1.4,2.2-2.1H1138.5z M1125.6,381.4
	c1.7,0.9,3.3,2.1,4.6,3.5c1.5,1.4,2.7,3.1,3.8,4.9h4.4c-0.6-0.8-1.3-1.5-2-2.2c-2.9-2.9-6.5-5-10.4-6.1H1125.6z M1124.2,382.2
	c1.5,1.8,2.7,3.9,3.5,6.1c0.2,0.5,0.3,0.9,0.5,1.4h4.2c-0.1-0.2-0.2-0.3-0.3-0.5C1130.2,386.3,1127.4,383.9,1124.2,382.2z
	 M1121.7,381.8c0.9,2.6,1.4,5.3,1.7,8h3.3c-0.3-1-0.7-1.9-1.1-2.8C1124.7,385,1123.4,383.2,1121.7,381.8z M1117.6,389.8h2.2h2.2
	c-0.3-2.8-0.8-5.7-1.9-8.3l-0.3,0l-0.3,0C1118.4,384.1,1117.9,386.9,1117.6,389.8z M1114,387c-0.4,0.9-0.8,1.8-1.1,2.8h3.3
	c0.3-2.7,0.8-5.4,1.7-8C1116.2,383.2,1114.9,385,1114,387z M1107.5,389.3c-0.1,0.2-0.2,0.3-0.3,0.5h4.2c0.1-0.5,0.3-1,0.5-1.4
	c0.8-2.2,2-4.3,3.5-6.1C1112.2,383.9,1109.4,386.3,1107.5,389.3z M1101.2,389.8h4.4c1-1.8,2.3-3.4,3.8-4.9c1.4-1.3,3-2.5,4.6-3.5
	h-0.4c-3.9,1.1-7.5,3.2-10.4,6.1C1102.4,388.3,1101.8,389,1101.2,389.8z M1096.2,402.6h5.6c0.3-2.6,0.7-5.1,1.5-7.6
	c0.4-1.3,0.9-2.6,1.5-3.8h-4.7C1097.9,394.6,1096.5,398.5,1096.2,402.6z M1096.1,434.7h5.4c0,0,0-22.4,0-23.2
	c-0.7,0.7-1.4,1.4-2.2,2.1c-0.1,0.1-0.2,0.2-0.4,0.2c-0.1,0-0.3,0-0.4-0.2c-0.8-0.8-1.6-1.6-2.4-2.4v9.5V434.7z M1096.1,455.2h1.3
	c-0.6-0.2-1.1-0.8-1.3-1.4V455.2z M1100.2,456.6h-3.8c0.1,0.1,0.3,0.2,0.4,0.2c0.7,0.4,1.3,0.8,1.9,1.3
	C1098.9,457.5,1099.5,456.9,1100.2,456.6z M1103.4,456.6h-1.9c0.5,0.2,0.9,0.6,1.2,1c0-0.1,0.1-0.1,0.1-0.2
	C1103,457.2,1103.2,456.9,1103.4,456.6z M1110.8,456.6h-0.9c0,0.3-0.3,0.5-0.5,0.7c-0.1,0-0.2,0.1-0.3,0.1c0.3,0.2,0.6,0.5,0.9,0.7
	c0.1-0.5,0.3-1,0.7-1.3C1110.7,456.7,1110.8,456.7,1110.8,456.6z M1114.9,455.2c-0.5-0.5-0.7-1.3-0.2-1.9c0.5-0.7,1.5-0.9,2.1-0.2
	c0.4,0.5-0.3,1.3-0.7,0.7c-0.3-0.3-0.7,0.1-0.5,0.5c0.4,0.7,1.4,0.3,1.7-0.3c0.4-0.7,0.3-1.5-0.2-2c-1.4-1.6-3.7-0.8-5.2,0.2
	c-1.7,1.1-3.3,2.6-5.5,2.8c-0.9,0.1-1.9-0.1-2.6-0.8c-0.4-0.4-0.7-0.9-0.7-1.5c-0.1-0.1-0.3-0.2-0.4-0.3c-0.8-0.6-1.8-1.1-2.9-1.2
	c-0.7-0.1-1.5,0-2,0.5c0.1,0,0.2,0,0.3-0.1c0.6-0.1,1.3,0.3,1.6,0.8c0.3,0.6,0.3,1.3-0.1,1.9c-0.2,0.3-0.5,0.5-0.8,0.6H1114.9
	L1114.9,455.2z M1118.3,457.1c-0.3-0.2-0.7-0.2-1,0c-0.2,0.1-0.4,0.5-0.2,0.7c0.2,0.1,0.3,0,0.3-0.2c0.1-0.3,0.4-0.5,0.7-0.4
	c0.3,0.1,0.4,0.4,0.4,0.7c-0.2,0.9-1.4,1.3-2.1,0.7c-0.6-0.5-0.7-1.4-0.3-2.1h-3c0.1,0.1,0.2,0.1,0.3,0.2c0.8,0.6,1.4,1.6,2.3,2.1
	c0.8,0.5,2,0.7,2.7,0.1C1119.1,458.5,1119.1,457.5,1118.3,457.1z M1120.1,456.6h-0.3h-0.3c0.1,0.1,0.2,0.3,0.3,0.4
	C1119.9,456.9,1120,456.8,1120.1,456.6z M1121.9,455.2c0,0-0.1-0.1-0.1-0.1c-0.6-0.6-0.8-1.5-0.7-2.3c0.2-1.3,1.2-2.1,2.4-2.5h-3.7
	h-3.7c1.2,0.3,2.2,1.2,2.4,2.5c0.1,0.8-0.1,1.7-0.7,2.3c0,0-0.1,0.1-0.1,0.1h2.1H1121.9z M1126.4,456.6h-3c0.4,0.6,0.4,1.5-0.3,2.1
	c-0.7,0.6-1.9,0.2-2.1-0.7c-0.1-0.3,0.1-0.6,0.4-0.7c0.3-0.1,0.6,0.1,0.7,0.4c0,0.2,0.2,0.3,0.3,0.2c0.3-0.2,0-0.6-0.2-0.7
	c-0.3-0.2-0.7-0.2-1,0c-0.7,0.5-0.8,1.4-0.1,2c0.8,0.7,1.9,0.4,2.7-0.1c0.9-0.6,1.4-1.5,2.3-2.1
	C1126.2,456.7,1126.3,456.7,1126.4,456.6z M1130.5,457.4c-0.1,0-0.2-0.1-0.3-0.1c-0.3-0.2-0.5-0.4-0.5-0.7h-0.9
	c0.1,0,0.1,0.1,0.2,0.1c0.4,0.3,0.6,0.8,0.7,1.3C1129.9,457.9,1130.2,457.6,1130.5,457.4z M1138.1,456.6h-1.9
	c0.2,0.3,0.4,0.5,0.6,0.9c0,0.1,0.1,0.1,0.1,0.2C1137.1,457.2,1137.6,456.8,1138.1,456.6z M1140.8,455.2c-0.3-0.1-0.6-0.3-0.8-0.6
	c-0.4-0.6-0.4-1.3-0.1-1.9c0.3-0.6,1-0.9,1.6-0.8c0.1,0,0.2,0,0.3,0.1c-0.5-0.5-1.3-0.6-2-0.5c-1,0.1-2,0.6-2.9,1.2
	c-0.1,0.1-0.3,0.2-0.4,0.3c-0.1,0.6-0.4,1.1-0.7,1.5c-0.7,0.7-1.7,0.9-2.6,0.8c-2.1-0.2-3.7-1.8-5.5-2.8c-1.5-1-3.8-1.7-5.2-0.2
	c-0.5,0.5-0.6,1.4-0.2,2c0.3,0.6,1.3,1,1.7,0.3c0.2-0.4-0.2-0.8-0.5-0.5c-0.5,0.5-1.2-0.2-0.7-0.7c0.6-0.7,1.6-0.5,2.1,0.2
	c0.4,0.6,0.2,1.4-0.2,1.9H1140.8L1140.8,455.2z M1143.2,456.6h-3.8c0.7,0.3,1.3,0.9,1.5,1.6c0.6-0.5,1.2-0.9,1.9-1.3
	C1142.9,456.8,1143,456.7,1143.2,456.6z M1143.5,453.8c-0.2,0.6-0.7,1.2-1.3,1.4h1.3V453.8z M1143.5,411.2c-0.8,0.8-1.6,1.6-2.4,2.4
	c-0.1,0.1-0.2,0.2-0.4,0.2c-0.1,0-0.3,0-0.4-0.2c-0.7-0.7-1.4-1.4-2.2-2.1c0,0.9,0,23.2,0,23.2h5.4V411.2z M1147.5,454.3
	c-0.5,0.2-1.1,0.1-1.7-0.2c-0.4-0.2-0.7-0.5-0.9-0.9v2.5c0.1-0.1,0.3-0.1,0.4-0.2C1146,455.1,1146.8,454.8,1147.5,454.3z
	 M1121.5,450.7h-1.8h-1.7c0,0,1.9,1.3,0.7,3.9h1.1h1.1C1119.6,452,1121.5,450.7,1121.5,450.7z"/>
<path id="window2" style="fill:#221B16;" d="M1189.9,460.7c-0.7,0.4-1.5,0.3-1.7,0.2c-0.3-0.1-0.3,0-0.2,0.2
	c0.1,0.1,0.3,0.5,0.3,0.8c0,0.3-0.1,0.6-0.2,0.7c-0.1,0.1-0.2,0-0.3-0.1c-0.1-0.2-0.5-0.3-0.8-0.3c-0.3-0.1-0.8-0.6-0.9-1.1
	c-0.1-0.4-0.4-1.1-0.6-1.3c-0.2-0.2-0.2-0.1-0.1,0.1c0.4,0.7,0.2,1.5,0.1,1.8c-0.1,0.1-0.2,0.3-0.4,0.1c-0.2-0.2-0.8-0.6-0.9-0.8
	c-0.1-0.2-0.2-0.1-0.3-0.1c-0.1,0.1-0.5,0.2-0.6,0c-0.3-0.4-0.1-1-0.2-1.4c0-0.4-0.3-0.8-0.7-1c-0.3-0.2-0.8-0.1-1,0.2
	c-0.2,0.2-0.2,0.6-0.4,0.8c0,0-0.1,0.1-0.1,0.1c-0.5,0.1-0.4-0.5-0.4-0.8c0.1-0.5,0.4-0.9,0.8-1.2c1.8-1.3,3.9,0.9,5.2,1.9
	c1.1,0.9,2.1,1.1,2.9,0.3c0.5-0.5,0.4-1,0.3-1.3c-0.1-0.2,0.1-0.3,0.3-0.2C1190.8,458.8,1190.7,460.3,1189.9,460.7z M1212.1,458.7
	c0.2,0.2,0.2,0.6,0.4,0.8c0,0,0.1,0.1,0.1,0.1c0.5,0.1,0.4-0.5,0.4-0.8c-0.1-0.5-0.4-0.9-0.8-1.2c-1.8-1.3-3.9,0.9-5.2,1.9
	c-1.1,0.9-2.1,1.1-2.9,0.3c-0.5-0.5-0.4-1-0.3-1.3c0.1-0.2-0.1-0.3-0.3-0.2c-0.9,0.4-0.8,1.9,0,2.3c0.7,0.4,1.5,0.3,1.7,0.2
	c0.3-0.1,0.3,0,0.2,0.2c-0.1,0.1-0.3,0.5-0.3,0.8c0,0.3,0.1,0.6,0.2,0.7c0.1,0.1,0.2,0,0.3-0.1c0.1-0.2,0.5-0.3,0.8-0.3
	c0.3-0.1,0.8-0.6,0.9-1.1c0.1-0.4,0.4-1.1,0.6-1.3c0.2-0.2,0.2-0.1,0.1,0.1c-0.4,0.7-0.2,1.5-0.1,1.8c0.1,0.1,0.2,0.3,0.4,0.1
	c0.2-0.2,0.8-0.6,0.9-0.8c0.1-0.2,0.2-0.1,0.3-0.1c0.1,0.1,0.5,0.2,0.6,0c0.2-0.4,0.1-1,0.2-1.4c0-0.4,0.3-0.8,0.7-1
	C1211.4,458.4,1211.9,458.4,1212.1,458.7z M1227.2,453.1c-0.4,1-1.1,1.7-1.9,2.3c-0.8,0.6-1.7,1-2.6,1.4c-0.9,0.5-1.8,1-2.7,1.5
	c-1.6,1-3,2.4-3.9,4.1c-0.8,1.5-0.9,3.5-0.1,5c0.7,1.4,2.3,2.3,3.9,2.1c1.4-0.2,2.4-1.4,2.7-2.7c0.3-1.3-0.3-2.9-1.7-3.4
	c-1.1-0.4-2.6,0.3-2.7,1.5c0,0.6,0.3,1.1,0.9,1.2c0.5,0.1,0.8-0.4,0.7-0.8c-0.1-0.4,0.1-0.8,0.5-0.9c0.4-0.1,0.7,0.1,0.9,0.5
	c0.3,0.9-0.2,2-1,2.4c-0.9,0.5-2,0.2-2.7-0.6c-0.7-0.7-0.8-1.8-0.5-2.8c0.3-0.9,1-1.6,1.9-1.9c1.8-0.8,3.9,0.3,4.7,2
	c0.9,1.8,0.4,4.1-1,5.5c-1.3,1.3-3.3,1.6-5,1c-1.8-0.7-3-2.3-3.4-4.1c-0.4-1.8,0.1-3.7,1-5.3c-0.1,0-0.2,0-0.4,0
	c-0.7-0.2-2.1-0.8-2.8-0.1c-0.3,0.4-0.5,1,0,1.4c0.1,0.1,0.2,0.1,0.3,0.2c0,0,0,0,0-0.1c-0.1-0.3-0.2-0.7,0-0.9
	c0.2-0.3,0.6-0.5,1-0.4c0.4,0.1,0.6,0.4,0.6,0.8c0,0.2,0,0.3-0.1,0.4c-0.1,0.2-0.2,0.4-0.3,0.5c-1.1,1.2-3.1-0.7-2.2-2
	c1.1-1.5,2.8-0.2,4.2-0.3c0.5-0.7,1-1.3,1.7-1.9c0-0.5-0.2-0.9-0.7-1.2c-0.9-0.6-2.1-0.1-2.4,0.9c0.2,0.3,0.4,0.5,0.6,0.7
	c0,0,0,0,0.1,0c-0.1-0.2-0.2-0.5-0.1-0.7c0.1-0.4,0.7-0.8,1.1-0.7c0.5,0.1,0.8,0.4,0.9,0.9c0.2,0.9-0.9,1.5-1.7,1.3
	c-0.9-0.2-1.9-2.1-2.1-2.4c-0.3-0.4-0.6-0.7-1-0.8h-1.3c-1,0.2-2,0.8-2.8,1.4c-0.6,0.4-1.1,0.8-1.5,1.2c-0.4,0.4-1,0.9-1.6,0.5
	c-0.3-0.2-0.5-0.7-0.3-1c0.1-0.4,0.7-0.8,1.1-0.5c0-0.2-0.2-0.5-0.3-0.6c-0.3-0.3-0.8-0.2-1.1,0c-0.5,0.3-0.8,0.7-1.2,1.1
	c-0.3,0.4-0.7,0.7-1.1,1c-0.9,0.6-1.9,1-3,0.8c-0.8-0.1-1.6-0.6-2-1.4c-0.4,0.7-1.2,1.2-2,1.4c-1.1,0.2-2.1-0.2-3-0.8
	c-0.4-0.3-0.8-0.6-1.1-1c-0.4-0.4-0.7-0.8-1.2-1.1c-0.3-0.2-0.8-0.2-1.1,0c-0.2,0.1-0.3,0.4-0.3,0.6c0.4-0.2,1,0.1,1.1,0.5
	c0.1,0.4,0,0.8-0.3,1c-0.6,0.4-1.2-0.1-1.6-0.5c-0.5-0.5-1-0.9-1.5-1.2c-0.8-0.6-1.8-1.1-2.8-1.4h-1.3c-0.4,0.1-0.7,0.4-1,0.8
	c-0.2,0.3-1.2,2.2-2.1,2.4c-0.8,0.2-1.9-0.4-1.7-1.3c0.1-0.5,0.4-0.8,0.9-0.9c0.5-0.1,1,0.3,1.1,0.7c0.1,0.3,0,0.5-0.1,0.7
	c0,0,0,0,0.1,0c0.3-0.2,0.5-0.4,0.6-0.7c-0.2-1.1-1.5-1.5-2.4-0.9c-0.5,0.3-0.7,0.8-0.7,1.2c0.6,0.6,1.2,1.2,1.7,1.9
	c1.4,0.1,3.1-1.2,4.2,0.3c0.9,1.3-1.1,3.2-2.2,2c-0.1-0.1-0.2-0.3-0.3-0.5c-0.1-0.1-0.1-0.3-0.1-0.4c0-0.4,0.3-0.7,0.7-0.8
	c0.4-0.1,0.7,0.1,1,0.4c0.2,0.3,0.2,0.6,0,0.9c0,0,0,0,0,0.1c0.1,0,0.2-0.1,0.3-0.2c0.4-0.4,0.3-1,0-1.4c-0.7-0.7-2,0-2.8,0.1
	c-0.1,0-0.3,0-0.4,0c0.9,1.6,1.4,3.5,1,5.3c-0.4,1.9-1.6,3.4-3.4,4.1c-1.7,0.7-3.7,0.4-5-1c-1.4-1.4-1.9-3.7-1-5.5
	c0.8-1.7,2.9-2.7,4.7-2c0.9,0.4,1.6,1,1.9,1.9c0.3,0.9,0.2,2-0.5,2.8c-0.7,0.7-1.8,1-2.7,0.6c-0.8-0.4-1.3-1.5-1-2.4
	c0.1-0.4,0.5-0.6,0.9-0.5c0.3,0.1,0.6,0.5,0.5,0.9c-0.2,0.4,0.2,0.9,0.7,0.8c0.6-0.1,0.9-0.6,0.9-1.2c-0.1-1.3-1.6-1.9-2.7-1.5
	c-1.3,0.5-2,2-1.7,3.4c0.3,1.3,1.3,2.5,2.7,2.7c1.6,0.3,3.2-0.7,3.9-2.1c0.8-1.6,0.7-3.5-0.1-5c-0.9-1.7-2.3-3.1-3.9-4.1
	c-0.9-0.6-1.8-1.1-2.7-1.5c-0.9-0.4-1.8-0.8-2.6-1.4c-0.8-0.6-1.5-1.3-1.9-2.3c-0.4-0.9-0.4-1.9,0-2.8c0.9-1.7,3.2-2.2,4.7-0.9
	c0.2,0.2,0.4,0.5,0.6,0.7v-1.3v-38.6v-5.9l0.1-1.9c0.2-2.8,0.8-5.4,1.9-8c1.3-3,3.1-5.7,5.4-8.1c2.3-2.3,5-4.1,8-5.4
	c0.1,0,0.2-0.1,0.3-0.1c0.1-0.1,0.2-0.1,0.4-0.2c0.6-0.3,1.1-0.8,1.5-1.4c0.8-1.2,1.5-2.4,2.8-3.1c1.1-0.7,2.3-1.1,3.6-1.2
	c0,0,0,0,0-0.1c0-0.5,0-0.9,0.1-1.3c-0.4-0.3-0.6-0.8-0.6-1.3c0-0.9,0.7-1.7,1.6-1.7c0.9,0,1.6,0.7,1.6,1.7c0,0.5-0.2,1-0.6,1.3
	c0.1,0.4,0.1,0.9,0.1,1.3c0,0,0,0,0,0.1c1.2,0.2,2.5,0.5,3.6,1.2c1.3,0.8,1.9,1.9,2.8,3.1c0.4,0.6,0.9,1.1,1.5,1.4
	c0.2,0.1,0.3,0.1,0.4,0.2c0.1,0,0.2,0.1,0.3,0.1c3,1.3,5.7,3.1,8,5.4c2.3,2.3,4.1,5,5.4,8.1c1.1,2.6,1.7,5.2,1.9,8l0.1,1.9v5.9v38.6
	v1.3c0.2-0.3,0.4-0.5,0.6-0.7c1.4-1.3,3.8-0.8,4.7,0.9C1227.6,451.2,1227.6,452.2,1227.2,453.1z M1171.7,453.1
	c-0.2,0.4-0.5,0.7-0.9,0.9c-0.5,0.3-1.1,0.4-1.7,0.2c0.7,0.5,1.5,0.9,2.2,1.2c0.1,0.1,0.3,0.1,0.4,0.2V453.1z M1216.5,391.2h-4.7
	c0.6,1.2,1.1,2.5,1.5,3.8c0.8,2.5,1.3,5,1.5,7.6h5.6C1220.1,398.5,1218.7,394.6,1216.5,391.2z M1220.5,448v-11.5h-5.3v11.2
	c0.7-0.7,1.5-1.4,2.2-2.1c0.1-0.1,0.2-0.2,0.4-0.2c0.1,0,0.3,0,0.4,0.2C1218.8,446.4,1219.7,447.2,1220.5,448z M1217.7,446.8
	c-0.7,0.7-1.5,1.4-2.2,2.1h4.4C1219.1,448.2,1218.4,447.5,1217.7,446.8z M1203,450.3c1.8,0.5,3.2,1.7,4.8,2.7c0.8,0.5,1.8,1,2.8,1
	c0.7,0,1.4-0.3,1.7-0.8c-0.3,0-0.6-0.1-0.9-0.2c-0.8-0.5-0.9-1.7,0-2.1c0.8-0.4,1.6,0.1,2,0.8c0.3-0.2,0.5-0.3,0.6-0.4
	c1.7-1,4-1.6,5.6-0.1c0.4,0.4,0.7,0.9,0.8,1.4v-2.3H1203z M1212.3,452c-0.1-0.1-0.2-0.2-0.3-0.2c-0.1,0-0.2,0.1-0.2,0.2
	c0.1,0.3,0.4,0.3,0.6,0.2C1212.4,452.1,1212.4,452,1212.3,452z M1199.4,448.1v-11.6h-2.6h-2.6v11.6c0.8-0.8,1.7-1.6,2.5-2.4
	c0,0,0.1-0.1,0.1-0.1c0,0,0.1,0.1,0.1,0.1C1197.8,446.5,1198.6,447.3,1199.4,448.1z M1196.8,447c-0.7,0.6-1.3,1.3-2,1.9h2h2
	C1198.1,448.3,1197.5,447.6,1196.8,447z M1199.5,434.7c0,0,0-14,0-14c0-3.2,0-6.3-0.1-9.5c-0.8,0.8-1.6,1.6-2.5,2.4
	c0,0-0.1,0.1-0.1,0.1c0,0-0.1-0.1-0.1-0.1c-0.8-0.8-1.6-1.6-2.5-2.4c0,3.2,0,20.3-0.1,23.5c0,0,0,0,0,0h2.7H1199.5z M1181.3,453.3
	c0.4,0.6,1,0.9,1.7,0.8c1,0,1.9-0.5,2.8-1c1.5-1,3-2.2,4.8-2.7h-17.4v2.3c0.1-0.5,0.4-1,0.8-1.4c1.6-1.4,4-0.8,5.6,0.1
	c0.1,0.1,0.3,0.2,0.6,0.4c0.4-0.7,1.2-1.3,2-0.8c0.9,0.5,0.8,1.6,0,2.1C1181.9,453.2,1181.6,453.3,1181.3,453.3z M1181.8,452
	c0-0.1-0.1-0.1-0.2-0.2c-0.1,0-0.2,0.1-0.3,0.2c-0.1,0.1-0.1,0.2-0.1,0.2C1181.4,452.3,1181.6,452.2,1181.8,452z M1173.1,436.5V448
	c0.8-0.8,1.6-1.6,2.4-2.4c0.1-0.1,0.2-0.2,0.4-0.2c0.1,0,0.2,0,0.4,0.2c0.7,0.7,1.4,1.4,2.2,2.1v-11.2H1173.1z M1175.9,446.8
	c-0.7,0.7-1.5,1.4-2.2,2.1h4.4C1177.4,448.2,1176.7,447.5,1175.9,446.8z M1178.5,408.9h1c-0.3-0.3-0.6-0.6-0.7-1
	c-0.1-0.2-0.1-0.4-0.2-0.5c-0.2-0.6-0.1-1.2,0.1-1.8c0.2-0.6,0.6-1.2,1.2-1.5h-1.1h-1.8c0.2,0.1,0.4,0.3,0.5,0.5
	c0.5,0.6,0.7,1.5,0.4,2.3c-0.3,0.9-1.3,1.5-2.2,1.3c-0.9-0.2-1.6-1-1.4-1.9c0-0.3,0.2-0.5,0.5-0.5c0.3,0,0.6,0.2,0.5,0.5
	c-0.1,0.6,0.5,1.1,1.1,0.8c0.5-0.3,0.8-0.8,0.6-1.4c-0.2-0.5-0.6-1-1.2-1c-0.6,0-1.2,0.2-1.5,0.7c-0.8,1.2,0,2.7,1.2,3.3
	c0.2,0.1,0.3,0.2,0.5,0.2H1178.5z M1173.8,410.3c0.7,0.7,1.4,1.4,2.2,2.1c0.7-0.7,1.4-1.4,2.2-2.1H1173.8z M1193,392.4
	c0-0.4,0-0.8,0.1-1.2h-3.6c-0.2,0.6-0.3,1.3-0.5,1.9c-0.5,2.2-0.9,4.4-1.1,6.6c-0.1,1-0.2,1.9-0.3,2.9h5.3
	C1192.8,399.2,1192.8,395.8,1193,392.4z M1191.3,404L1191.3,404h-3.1c0.2,0.1,0.4,0.3,0.6,0.5c0.5,0.6,0.7,1.5,0.4,2.3
	c-0.3,0.8-1.2,1.4-2.1,1.3c0,0-0.1,0-0.1,0c-0.5-0.1-1-0.4-1.2-0.9c-0.2-0.3-0.2-0.6-0.2-1c0-0.2,0.1-0.4,0.3-0.5
	c0.1,0,0.2-0.1,0.2-0.1c0.3,0,0.6,0.2,0.5,0.5c0,0.4,0.2,0.8,0.6,0.9c0.1,0,0.3,0,0.5-0.1c0.5-0.3,0.8-0.8,0.6-1.4
	c-0.1-0.4-0.5-0.8-0.9-0.9c-0.1,0-0.2,0-0.3,0c-0.4,0-0.8,0.1-1.1,0.4c-0.1,0.1-0.3,0.2-0.3,0.4c-0.5,0.8-0.3,1.8,0.2,2.4
	c0.3,0.3,0.6,0.6,1,0.8c0.1,0.1,0.2,0.1,0.4,0.2c0,0,0.1,0,0.1,0h3.8c-0.3-0.3-0.5-0.6-0.7-1C1189.6,406.5,1190,404.8,1191.3,404z
	 M1187.8,410.3c0.7,0.7,1.4,1.4,2.2,2.1c0.7-0.7,1.4-1.4,2.2-2.1H1187.8z M1185.6,447.8v-11.3h-5.7v11.8c0.9-0.9,1.8-1.8,2.7-2.6
	c0.1-0.1,0.2-0.2,0.4-0.2c0.1,0,0.2,0,0.4,0.2C1184.1,446.4,1184.8,447.1,1185.6,447.8z M1183,446.8c-0.7,0.7-1.5,1.4-2.2,2.1h4.4
	C1184.4,448.2,1183.7,447.5,1183,446.8z M1185.6,411.3c-0.8,0.7-1.5,1.5-2.3,2.2c-0.1,0.1-0.2,0.2-0.4,0.2c-0.1,0-0.2,0-0.4-0.2
	c-0.9-0.9-1.8-1.8-2.7-2.7c0,1.1,0,23.8,0,23.8h5.7C1185.6,434.7,1185.6,411.8,1185.6,411.3z M1183,412.4c0.7-0.7,1.4-1.4,2.2-2.1
	h-4.3C1181.5,411,1182.2,411.7,1183,412.4z M1188,391.2h-4.6c-1.9,3.6-2.8,7.4-3.2,11.4h5.9c0-0.4,0.1-0.8,0.1-1.1
	c0.3-2.3,0.6-4.6,1-6.8C1187.4,393.5,1187.7,392.3,1188,391.2z M1180,405.1c-0.1,0.1-0.2,0.2-0.3,0.3c-0.5,0.8-0.4,1.7,0.1,2.4
	c0.3,0.4,0.6,0.7,1,0.9c0.2,0.1,0.3,0.2,0.5,0.2h3.7c-0.3-0.3-0.5-0.6-0.7-1c-0.7-1.4-0.2-3.1,1.1-3.9h-3.1c0.2,0.1,0.4,0.3,0.5,0.5
	c0.5,0.6,0.7,1.5,0.4,2.3c-0.3,0.8-1.3,1.5-2.2,1.3c-0.6-0.1-1.1-0.5-1.3-1c-0.1-0.3-0.2-0.6-0.2-0.9c0-0.2,0.1-0.3,0.2-0.4
	c0.1-0.1,0.2-0.1,0.3-0.1c0.3,0,0.6,0.2,0.5,0.5c-0.1,0.6,0.5,1.1,1.1,0.8c0.5-0.3,0.8-0.8,0.6-1.4c-0.2-0.5-0.6-1-1.2-1
	C1180.8,404.7,1180.3,404.8,1180,405.1z M1192.2,448.9c-0.7-0.7-1.5-1.4-2.2-2.1c-0.7,0.7-1.5,1.4-2.2,2.1H1192.2z M1192.7,448
	v-11.4h-5.8v11.7c0.9-0.9,1.8-1.7,2.6-2.6c0.1-0.1,0.2-0.2,0.4-0.2c0.1,0,0.2,0,0.4,0.2C1191.2,446.4,1191.9,447.2,1192.7,448z
	 M1192.8,411.2c-0.8,0.8-1.6,1.6-2.4,2.4c-0.1,0.1-0.2,0.2-0.4,0.2c-0.1,0-0.2,0-0.4-0.2c-0.9-0.8-1.7-1.7-2.6-2.5
	c0,0.8,0,23.6,0,23.6h5.7L1192.8,411.2z M1192.8,408.9c0,0,0.1,0,0.1,0.1h1.3h2.2V404h-2.2h-0.3c0.1,0.1,0.2,0.1,0.3,0.2
	c0.1,0.1,0.2,0.2,0.3,0.3c0.5,0.6,0.7,1.5,0.4,2.3c-0.2,0.4-0.4,0.7-0.7,0.9c-0.4,0.3-0.9,0.5-1.4,0.4c0,0,0,0-0.1,0
	c-0.9-0.2-1.6-1-1.4-1.9c0-0.3,0.2-0.5,0.5-0.5c0.3,0,0.6,0.2,0.5,0.5c0,0.4,0.2,0.7,0.5,0.8c0.2,0.1,0.4,0.1,0.6,0
	c0.5-0.3,0.8-0.8,0.6-1.4c-0.2-0.5-0.6-0.9-1.1-1c0,0,0,0-0.1,0c-0.6,0-1.2,0.2-1.5,0.8c-0.8,1.2,0,2.7,1.2,3.3
	C1192.6,408.8,1192.7,408.8,1192.8,408.9z M1196.8,410.3h-1.9c0.6,0.6,1.3,1.3,1.9,1.9c0.7-0.6,1.3-1.3,1.9-1.9H1196.8z
	 M1196.8,402.6h2.6c0-3.1,0-6.2-0.1-9.2c0-0.7-0.1-1.5-0.1-2.2h-2.3h-2.3c0,0.7-0.1,1.5-0.1,2.2c-0.1,3.1-0.1,6.1-0.1,9.2H1196.8z
	 M1200.7,408.9c0,0,0.1,0,0.1-0.1c0.1,0,0.2-0.1,0.4-0.2c1.2-0.6,1.9-2,1.2-3.3c-0.3-0.5-0.9-0.8-1.5-0.8c0,0,0,0-0.1,0
	c-0.6,0-1,0.5-1.1,1c-0.2,0.6,0.1,1.1,0.6,1.4c0.2,0.1,0.4,0.1,0.6,0c0.3-0.1,0.5-0.5,0.5-0.8c0-0.3,0.3-0.5,0.5-0.5
	c0.3,0,0.5,0.2,0.5,0.5c0.1,0.9-0.6,1.7-1.4,1.9c0,0,0,0-0.1,0c-0.5,0.1-1-0.1-1.4-0.4c-0.3-0.2-0.6-0.6-0.7-0.9
	c-0.3-0.8-0.1-1.7,0.4-2.3c0.1-0.1,0.2-0.2,0.3-0.3c0.1-0.1,0.2-0.1,0.3-0.2h-0.3h-2.2v4.9h2.2H1200.7L1200.7,408.9z M1213.8,410.9
	c-0.9,0.9-1.8,1.8-2.7,2.7c-0.1,0.1-0.2,0.2-0.4,0.2c-0.1,0-0.3,0-0.4-0.2c-0.8-0.7-1.5-1.5-2.3-2.2c0,0.5,0,23.3,0,23.3h5.7
	C1213.7,434.7,1213.7,412,1213.8,410.9z M1213.7,448.3v-11.8h-5.7v11.3c0.7-0.7,1.5-1.5,2.2-2.2c0.1-0.1,0.2-0.2,0.4-0.2
	c0.1,0,0.3,0,0.4,0.2C1211.9,446.5,1212.8,447.4,1213.7,448.3z M1210.6,446.8c-0.7,0.7-1.5,1.4-2.2,2.1h4.4
	C1212.1,448.2,1211.4,447.5,1210.6,446.8z M1206.4,408.9c0,0,0.1,0,0.1,0c0.1,0,0.3-0.1,0.4-0.2c0.4-0.2,0.7-0.5,1-0.8
	c0.5-0.7,0.7-1.6,0.2-2.4c-0.1-0.2-0.2-0.3-0.3-0.4c-0.3-0.2-0.7-0.4-1.1-0.4c-0.1,0-0.2,0-0.3,0c-0.4,0.1-0.8,0.5-0.9,0.9
	c-0.2,0.6,0.1,1.1,0.6,1.4c0.2,0.1,0.3,0.1,0.5,0.1c0.4-0.1,0.6-0.5,0.6-0.9c0-0.3,0.3-0.5,0.5-0.5c0.1,0,0.2,0,0.2,0.1
	c0.2,0.1,0.3,0.3,0.3,0.5c0,0.3,0,0.7-0.2,1c-0.3,0.5-0.7,0.8-1.2,0.9c0,0-0.1,0-0.1,0c-0.9,0.1-1.8-0.5-2.1-1.3
	c-0.3-0.8-0.1-1.7,0.4-2.3c0.2-0.2,0.4-0.4,0.6-0.5h-3.1l0,0c1.3,0.7,1.8,2.5,1.1,3.9c-0.2,0.4-0.4,0.7-0.7,1H1206.4L1206.4,408.9z
	 M1201.4,410.3c0.7,0.7,1.4,1.4,2.2,2.1c0.7-0.7,1.4-1.4,2.2-2.1H1201.4z M1210.6,412.4c0.7-0.7,1.4-1.4,2.2-2.1h-4.3
	C1209.2,411,1209.9,411.7,1210.6,412.4z M1213.9,405.4c-0.1-0.1-0.2-0.2-0.3-0.3c-0.3-0.3-0.8-0.4-1.2-0.4c-0.6,0-1,0.4-1.2,1
	c-0.2,0.6,0.1,1.1,0.6,1.4c0.6,0.3,1.1-0.2,1.1-0.8c0-0.3,0.3-0.5,0.5-0.5c0.1,0,0.2,0,0.3,0.1c0.1,0.1,0.2,0.2,0.2,0.4
	c0,0.3,0,0.6-0.2,0.9c-0.2,0.5-0.7,0.9-1.3,1c-0.9,0.2-1.9-0.4-2.2-1.3c-0.3-0.8-0.1-1.7,0.4-2.3c0.2-0.2,0.3-0.4,0.5-0.5h-3.1
	c1.3,0.7,1.8,2.5,1.1,3.9c-0.2,0.4-0.4,0.7-0.7,1h3.7c0.2-0.1,0.3-0.1,0.5-0.2c0.4-0.2,0.8-0.5,1-0.9
	C1214.2,407.1,1214.4,406.3,1213.9,405.4z M1213.4,402.6c-0.4-4-1.3-7.9-3.2-11.4h-4.6c0.3,1.1,0.5,2.3,0.8,3.5
	c0.4,2.3,0.8,4.6,1,6.8c0,0.4,0.1,0.8,0.1,1.1H1213.4z M1204.6,393.1c-0.1-0.6-0.3-1.3-0.5-1.9h-3.6c0,0.4,0.1,0.8,0.1,1.2
	c0.2,3.4,0.2,6.8,0.2,10.2h5.3c-0.1-1-0.2-1.9-0.3-2.9C1205.5,397.5,1205.1,395.3,1204.6,393.1z M1200.8,411.2l0.1,23.5h5.7
	c0,0,0-22.8,0-23.6c-0.9,0.8-1.7,1.7-2.6,2.5c-0.1,0.1-0.2,0.2-0.4,0.2c-0.1,0-0.3,0-0.4-0.2C1202.4,412.8,1201.6,412,1200.8,411.2z
	 M1200.8,448c0.8-0.8,1.6-1.6,2.4-2.3c0.1-0.1,0.2-0.2,0.4-0.2c0.1,0,0.3,0,0.4,0.2c0.9,0.9,1.8,1.7,2.6,2.6v-11.7h-5.8V448z
	 M1201.4,448.9h4.4c-0.7-0.7-1.5-1.4-2.2-2.1C1202.9,447.5,1202.1,448.2,1201.4,448.9z M1215.1,407.3c0,0.2-0.1,0.4-0.2,0.5
	c-0.2,0.4-0.4,0.8-0.7,1h1h2.6c0.2-0.1,0.3-0.1,0.5-0.2c1.2-0.6,1.9-2,1.2-3.3c-0.3-0.5-0.9-0.8-1.5-0.7c-0.6,0-1,0.4-1.2,1
	c-0.2,0.6,0.1,1.1,0.6,1.4c0.6,0.3,1.1-0.2,1.1-0.8c0-0.3,0.3-0.5,0.5-0.5c0.3,0,0.5,0.2,0.5,0.5c0.1,0.9-0.6,1.7-1.4,1.9
	c-0.9,0.2-1.9-0.4-2.2-1.3c-0.3-0.8-0.1-1.7,0.4-2.3c0.2-0.2,0.3-0.4,0.5-0.5h-1.8h-1.1c0.6,0.3,1,0.9,1.2,1.5
	C1215.2,406.1,1215.3,406.7,1215.1,407.3z M1215.5,410.3c0.7,0.7,1.4,1.4,2.2,2.1c0.7-0.7,1.4-1.4,2.2-2.1H1215.5z M1202.6,381.4
	c1.7,0.9,3.3,2.1,4.6,3.5c1.5,1.4,2.7,3.1,3.8,4.9h4.4c-0.6-0.8-1.3-1.5-2-2.2c-2.9-2.9-6.5-5-10.4-6.1H1202.6z M1201.2,382.2
	c1.5,1.8,2.7,3.9,3.5,6.1c0.2,0.5,0.3,0.9,0.5,1.4h4.2c-0.1-0.2-0.2-0.3-0.3-0.5C1207.2,386.3,1204.4,383.9,1201.2,382.2z
	 M1198.7,381.8c0.9,2.6,1.4,5.3,1.7,8h3.3c-0.3-1-0.7-1.9-1.1-2.8C1201.7,385,1200.4,383.2,1198.7,381.8z M1194.6,389.8h2.2h2.2
	c-0.3-2.8-0.8-5.7-1.9-8.3l-0.3,0l-0.3,0C1195.4,384.1,1194.9,386.9,1194.6,389.8z M1191,387c-0.4,0.9-0.8,1.8-1.1,2.8h3.3
	c0.3-2.7,0.8-5.4,1.7-8C1193.2,383.2,1191.9,385,1191,387z M1184.5,389.3c-0.1,0.2-0.2,0.3-0.3,0.5h4.2c0.1-0.5,0.3-1,0.5-1.4
	c0.8-2.2,2-4.3,3.5-6.1C1189.2,383.9,1186.4,386.3,1184.5,389.3z M1178.2,389.8h4.4c1-1.8,2.3-3.4,3.8-4.9c1.4-1.3,3-2.5,4.6-3.5
	h-0.4c-3.9,1.1-7.5,3.2-10.4,6.1C1179.4,388.3,1178.8,389,1178.2,389.8z M1173.2,402.6h5.6c0.3-2.6,0.7-5.1,1.5-7.6
	c0.4-1.3,0.9-2.6,1.5-3.8h-4.7C1174.9,394.6,1173.5,398.5,1173.2,402.6z M1173.1,434.7h5.4c0,0,0-22.4,0-23.2
	c-0.7,0.7-1.4,1.4-2.2,2.1c-0.1,0.1-0.2,0.2-0.4,0.2c-0.1,0-0.3,0-0.4-0.2c-0.8-0.8-1.6-1.6-2.4-2.4v9.5V434.7z M1173.1,455.2h1.3
	c-0.6-0.2-1.1-0.8-1.3-1.4V455.2z M1177.2,456.6h-3.8c0.1,0.1,0.3,0.2,0.4,0.2c0.7,0.4,1.3,0.8,1.9,1.3
	C1175.9,457.5,1176.5,456.9,1177.2,456.6z M1180.4,456.6h-1.9c0.5,0.2,0.9,0.6,1.2,1c0-0.1,0.1-0.1,0.1-0.2
	C1180,457.2,1180.2,456.9,1180.4,456.6z M1187.8,456.6h-0.9c0,0.3-0.3,0.5-0.5,0.7c-0.1,0-0.2,0.1-0.3,0.1c0.3,0.2,0.6,0.5,0.9,0.7
	c0.1-0.5,0.3-1,0.7-1.3C1187.7,456.7,1187.8,456.7,1187.8,456.6z M1191.9,455.2c-0.5-0.5-0.7-1.3-0.2-1.9c0.5-0.7,1.5-0.9,2.1-0.2
	c0.4,0.5-0.3,1.3-0.7,0.7c-0.3-0.3-0.7,0.1-0.5,0.5c0.4,0.7,1.4,0.3,1.7-0.3c0.4-0.7,0.3-1.5-0.2-2c-1.4-1.6-3.7-0.8-5.2,0.2
	c-1.7,1.1-3.3,2.6-5.5,2.8c-0.9,0.1-1.9-0.1-2.6-0.8c-0.4-0.4-0.7-0.9-0.7-1.5c-0.1-0.1-0.3-0.2-0.4-0.3c-0.8-0.6-1.8-1.1-2.9-1.2
	c-0.7-0.1-1.5,0-2,0.5c0.1,0,0.2,0,0.3-0.1c0.6-0.1,1.3,0.3,1.6,0.8c0.3,0.6,0.3,1.3-0.1,1.9c-0.2,0.3-0.5,0.5-0.8,0.6H1191.9
	L1191.9,455.2z M1195.3,457.1c-0.3-0.2-0.7-0.2-1,0c-0.2,0.1-0.4,0.5-0.2,0.7c0.2,0.1,0.3,0,0.3-0.2c0.1-0.3,0.4-0.5,0.7-0.4
	c0.3,0.1,0.4,0.4,0.4,0.7c-0.2,0.9-1.4,1.3-2.1,0.7c-0.6-0.5-0.7-1.4-0.3-2.1h-3c0.1,0.1,0.2,0.1,0.3,0.2c0.8,0.6,1.4,1.6,2.3,2.1
	c0.8,0.5,2,0.7,2.7,0.1C1196.1,458.5,1196.1,457.5,1195.3,457.1z M1197.1,456.6h-0.3h-0.3c0.1,0.1,0.2,0.3,0.3,0.4
	C1196.9,456.9,1197,456.8,1197.1,456.6z M1198.9,455.2c0,0-0.1-0.1-0.1-0.1c-0.6-0.6-0.8-1.5-0.7-2.3c0.2-1.3,1.2-2.1,2.4-2.5h-3.7
	h-3.7c1.2,0.3,2.2,1.2,2.4,2.5c0.1,0.8-0.1,1.7-0.7,2.3c0,0-0.1,0.1-0.1,0.1h2.1H1198.9z M1203.4,456.6h-3c0.4,0.6,0.4,1.5-0.3,2.1
	c-0.7,0.6-1.9,0.2-2.1-0.7c-0.1-0.3,0.1-0.6,0.4-0.7c0.3-0.1,0.6,0.1,0.7,0.4c0,0.2,0.2,0.3,0.3,0.2c0.3-0.2,0-0.6-0.2-0.7
	c-0.3-0.2-0.7-0.2-1,0c-0.7,0.5-0.8,1.4-0.1,2c0.8,0.7,1.9,0.4,2.7-0.1c0.9-0.6,1.4-1.5,2.3-2.1
	C1203.2,456.7,1203.3,456.7,1203.4,456.6z M1207.5,457.4c-0.1,0-0.2-0.1-0.3-0.1c-0.3-0.2-0.5-0.4-0.5-0.7h-0.9
	c0.1,0,0.1,0.1,0.2,0.1c0.4,0.3,0.6,0.8,0.7,1.3C1206.9,457.9,1207.2,457.6,1207.5,457.4z M1215.1,456.6h-1.9
	c0.2,0.3,0.4,0.5,0.6,0.9c0,0.1,0.1,0.1,0.1,0.2C1214.1,457.2,1214.6,456.8,1215.1,456.6z M1217.8,455.2c-0.3-0.1-0.6-0.3-0.8-0.6
	c-0.4-0.6-0.4-1.3-0.1-1.9c0.3-0.6,1-0.9,1.6-0.8c0.1,0,0.2,0,0.3,0.1c-0.5-0.5-1.3-0.6-2-0.5c-1,0.1-2,0.6-2.9,1.2
	c-0.1,0.1-0.3,0.2-0.4,0.3c-0.1,0.6-0.4,1.1-0.7,1.5c-0.7,0.7-1.7,0.9-2.6,0.8c-2.1-0.2-3.7-1.8-5.5-2.8c-1.5-1-3.8-1.7-5.2-0.2
	c-0.5,0.5-0.6,1.4-0.2,2c0.3,0.6,1.3,1,1.7,0.3c0.2-0.4-0.2-0.8-0.5-0.5c-0.5,0.5-1.2-0.2-0.7-0.7c0.6-0.7,1.6-0.5,2.1,0.2
	c0.4,0.6,0.2,1.4-0.2,1.9H1217.8L1217.8,455.2z M1220.2,456.6h-3.8c0.7,0.3,1.3,0.9,1.5,1.6c0.6-0.5,1.2-0.9,1.9-1.3
	C1219.9,456.8,1220,456.7,1220.2,456.6z M1220.5,453.8c-0.2,0.6-0.7,1.2-1.3,1.4h1.3V453.8z M1220.5,411.2c-0.8,0.8-1.6,1.6-2.4,2.4
	c-0.1,0.1-0.2,0.2-0.4,0.2c-0.1,0-0.3,0-0.4-0.2c-0.7-0.7-1.4-1.4-2.2-2.1c0,0.9,0,23.2,0,23.2h5.4V411.2z M1224.5,454.3
	c-0.5,0.2-1.1,0.1-1.7-0.2c-0.4-0.2-0.7-0.5-0.9-0.9v2.5c0.1-0.1,0.3-0.1,0.4-0.2C1223,455.1,1223.8,454.8,1224.5,454.3z
	 M1198.5,450.7h-1.8h-1.7c0,0,1.9,1.3,0.7,3.9h1.1h1.1C1196.6,452,1198.5,450.7,1198.5,450.7z"/>
<g id="candle">
	<g style="display:none;">
		
			<radialGradient id="SVGID_2_" cx="1980.9639" cy="396.5846" r="9.568" gradientTransform="matrix(0.9929 0 0 0.9929 -764.8643 2.8939)" gradientUnits="userSpaceOnUse">
			<stop  offset="0" style="stop-color:#F8C964;stop-opacity:0.6"/>
			<stop  offset="0.2961" style="stop-color:#EDA43B;stop-opacity:0.4517"/>
			<stop  offset="0.5991" style="stop-color:#E28215;stop-opacity:0.3"/>
			<stop  offset="0.6769" style="stop-color:#EB9626;stop-opacity:0.2417"/>
			<stop  offset="0.8014" style="stop-color:#F6B03B;stop-opacity:0.1486"/>
			<stop  offset="0.9131" style="stop-color:#FDC048;stop-opacity:6.505887e-002"/>
			<stop  offset="1" style="stop-color:#FFC64D;stop-opacity:0"/>
		</radialGradient>
		<circle style="display:inline;opacity:0.7;fill:url(#SVGID_2_);" cx="1202" cy="396.7" r="9.5"/>
		<g>
			<path style="display:inline;fill:#28201A;" d="M1200.4,410.1c-0.5-0.3,4-0.3,3.5,0s-0.2,4.9,0,5.2s-1.7,0.6-1.7,0.6
				s-2-0.2-1.7-0.6S1200.9,410.4,1200.4,410.1z"/>
			<polygon style="display:inline;fill:#28201A;" points="1201,414.7 1201.2,421.2 1203.2,421.2 1203.4,414.1 			"/>
			<path style="display:inline;fill:#28201A;" d="M1206.7,412.6c0.4-0.3-9.4-0.2-8.9,0c0.5,0.2-0.3,0.7,1.2,1.2s3.2,1.5,3.2,1.5
				l0.2-0.5c0,0,1.6-0.5,2.5-0.9C1206.5,413.5,1206.3,412.8,1206.7,412.6z"/>
			<ellipse style="display:inline;fill:#28201A;" cx="1202.2" cy="420.9" rx="2" ry="1.1"/>
		</g>
	</g>
</g>
</svg>
