
<svg version="1.1" xmlns="http://www.w3.org/2000/svg" xmlns:xlink="http://www.w3.org/1999/xlink" x="0px" y="0px"
	 viewBox="0 0 1602.5 157" style="enable-background:new 0 0 1602.5 157;" xml:space="preserve">
<g id="cat1">
	<g>
		<path id="body" style="fill:#251D15;" d="M116.3,63.3c0,0,11.5-16.3,52.8-11.5c0,0,36.8,6.2,57.6-0.4c0.5-0.2,1-0.3,1.4-0.5
			l18.8,29.6c0,0-28.5,26.3-44.3,30.3s-48,4.8-55.3-3c0,0-45.5,2.8-41.8-22.5C105.5,85.3,107.5,69.8,116.3,63.3z"/>
		<path style="fill:#251D15;" d="M136.3,55.8c0,0-19.3-7.9-46.8,14C79.6,77.6,42.3,97,32.3,94s-18.8,6-5,8.9c0,0,12,6.6,40.8-9.7
			c29.4-16.6,43.8-27.5,52.3-23C128,74.3,136.3,55.8,136.3,55.8z"/>
		<path id="back_right" style="fill:#251D15;" d="M122.6,100c0,0-5.6,27.5-3.1,32s25.3,17.8,25.3,17.8s10.8,3.8,11.5-3s-3-8.8-9-9
			s-16.5-8.8-15.8-11s15.3-4,19.3-20S122.6,100,122.6,100z"/>
		<path id="back_left" style="fill:#251D15;" d="M108.3,83c0,0-9,18.8-16.3,19s-10-1.3-23.5,17.5c0,0-8.8,12-16.3,14.8
			c-4.2,1.5-8.3,11.8,7.3,8c0,0,3.7-3.2,6-5.3c7.8-6.8,17.3-20.5,17.3-20.5s5.3,7.5,24.3,1.8c0,0,25-1.9,33.5-25.2S115,78,108.3,83z
			"/>
		<path id="front_right" style="fill:#251D15;" d="M200.8,93.8c0,0-24.8,23.3-28.3,47.5c0,0-1,9.5,8,10.5c0,0,5.2,1.1,7.2,0.1
			s3-6.8-1.3-7.7c-5.9-1.1-3.1-12.5,7.5-23.2c0,0,22.5-15.8,29.3-21S219.8,84.3,200.8,93.8z"/>
		<path id="front_left" style="fill:#251D15;" d="M230.3,79.7c0,0,9.5,11.3,7.5,25.3c0,0,34.1,12.6,37.6,22.6c0,0,4.4,8.2-0.1,14.6
			c0,0-8,1.8-10.3-9.7c0,0,1-3.3-5-4.5c0,0-19-9.2-26.3-10c0,0-7,0-8-2.6c-2-5.2-5.5-9.7-12-16.6C213.8,98.8,214.6,78.3,230.3,79.7z
			"/>
		<path id="head" style="fill:#251D15;" d="M231,49.1c0,0,2.5-0.5,10-8.8c0,0,5-8.3,15.2-11.8c0,0,0.5-10.7,9.8-17.8l3.5-2.8
			c0,0,0.3,5.2,3.5,7.8s3.5,9.8,3.5,9.8s5.7-2.8,6.8-7.5c1.2-4.7,2.2,0,2.2,0s4,10.5,1.7,14.8c0,0,6.8,6.7,7.5,10.7
			c0.7,4,2,13.2,3.3,16.8c1.3,3.7,3.2,3.7,3.2,6.7s0.5,3.2-1.7,7s-7.2,6.7-7.2,6.7s-4-4.2-6.8-4c-2.8,0.2-1.1,4.3,1,4.7
			c0,0,0.9,2.2-1,2.7c-0.8,0.2-19.7,3.6-31-5.5c-1.7-1.4-4.5-1.1-7.8,2l-24.6-28C222.1,52.5,226.8,51.4,231,49.1z"/>
	</g>
</g>
<g id="cat2">
	<g>
		<path id="back_right_2_" style="fill:#251D15;" d="M440.1,100c0,0-3.6,24.5-1.1,29s26.3,15.8,26.3,15.8s14.8,3.8,15.5-3
			s-7-6.8-13-7s-16.5-7.8-15.8-10s12.3-5,16.3-21S440.1,100,440.1,100z"/>
		<path id="back_left_1_" style="fill:#251D15;" d="M429.2,79.3c0,0-3.5,7.8-3,12.3S412,94,412,94s-18-1.8-18.5,2s-1.3,14-0.8,20.7
			c0,0,0.7,2.3-2.8,3.3s-13,5.2-6.3,10c6.7,4.8,15.2,1.8,18.5-4.3c0,0,1-11.3,0.7-16c-0.3-4.7,0.3-4.5,3.2-2.8
			c0,0,12.2,10.3,37.3,4.1C443.2,111,453.8,83.3,429.2,79.3z"/>
		<path id="front_right_1_" style="fill:#251D15;" d="M531.5,100.2c0,0,0.2,19.2-5.3,26.5c-5.5,7.3-23,11.5-30.3,9.2
			c-3.4-1.1-1.3-5.3,1.8-7.4c3.7-2.4,8.8-2.6,8.8-2.6s3.8-1.3,8.2-3.2c0,0,2.8-7.2,1.7-14.8C515.2,100.2,531.5,100.2,531.5,100.2z"
			/>
		<path id="body_7_" style="fill:#251D15;" d="M436.8,63.3c0,0,11.5-16.3,52.8-11.5c0,0,36.8,6.2,57.6-0.4c0.5-0.2,1-0.3,1.4-0.5
			l18.8,29.6c0,0-28.5,26.3-44.3,30.3s-58,4.8-65.3-3c0,0-35.5,2.8-31.8-22.5C426,85.3,428,69.8,436.8,63.3z"/>
		<path style="fill:#251D15;" d="M457.3,55.8c0,0-19.3-7.9-46.8,14c-9.9,7.8-47.2,23.3-57.3,20.3s-18.8,6-5,8.9
			c0,0,13.6,5.3,40.8-5.7c31.3-12.7,43.8-27.5,52.3-23C449,74.3,457.3,55.8,457.3,55.8z"/>
		<path id="head_1_" style="fill:#251D15;" d="M551.5,49.1c0,0,2.5-0.5,10-8.8c0,0,5-8.3,15.2-11.8c0,0,0.5-10.7,9.8-17.8l3.5-2.8
			c0,0,0.3,5.2,3.5,7.8s3.5,9.8,3.5,9.8s5.7-2.8,6.8-7.5c1.2-4.7,2.2,0,2.2,0s4,10.5,1.7,14.8c0,0,6.8,6.7,7.5,10.7
			c0.7,4,2,13.2,3.3,16.8c1.3,3.7,3.2,3.7,3.2,6.7s0.5,3.2-1.7,7s-10.2,7.7-10.2,7.7s-1.2-3.1-3.8-5c0,0,0.3,2.6,1,4.7
			c0,0,0.9,2.2-1,2.7c-0.8,0.2-19.7,3.6-31-5.5c-1.7-1.4-4.5-1.1-7.8,2l-24.6-28C542.6,52.5,547.3,51.4,551.5,49.1z"/>
		<path id="front_left_2_" style="fill:#251D15;" d="M548.4,117.2c-4.2-3.8-8.5-12.7-15-19.6c0,0,5.8-18.4,21.5-17
			c0,0,6.8,12.5,7.5,27.3c0,0,10.5,3.3,23.1,11.8c12.8,8.7,14.3,10.8,13.7,14.8c-0.7,4-10.7,0.2-14-2c-3.3-2.2-23.7-10.7-26-12.3
			C556,117.9,550.5,119.1,548.4,117.2z"/>
	</g>
</g>
<g id="cat3">
	<g>
		<path id="back_left_3_" style="fill:#251D15;" d="M752.4,117.7c0,0,3.8,12.3,10.3,15.6s14.5,0.8,12.8,11.3c0,0-7.5,3.3-12.5,1.3
			s-9.3-2-14-10.8s-15.5-21.4-15.5-21.4s-3.3-5.1,1.8-7.9s11.1-9.8,12-24.7c1-14.8,23,10.4,23,10.4s-11.5,20.5-17.5,22.1
			C752.6,113.7,749.9,115.4,752.4,117.7z"/>
		<path id="front_left_1_" style="fill:#251D15;" d="M859.7,113c-4.2-3.8-4.5-8.7-11-15.6c0,0,3.8-22.4,19.5-21
			c0,0,5.8,12.5,6.5,27.3c0,0,14.5,11.3,27.1,19.8c12.8,8.7,14.3,10.8,13.7,14.8s-10.7,1.2-14-1s-29.7-15.7-32-17.3
			C866.2,117.6,861.7,114.9,859.7,113z"/>
		<path id="front_rightz" style="fill:#251D15;" d="M830.4,109.3c0,0,7.8,4.6,4,6.4c-3.8,1.9-11,1.4-8.8,7.4
			c2.4,6.3,16.8,3.3,19.5,0.8s3.8-5.2,0.9-16.2L830.4,109.3z"/>
		<path style="fill:#251D15;" d="M794.6,107.3c0,0-9.3,0-15.3,1.5c0,0-5,1.5-1.3,4.9c3.8,3.4,8.5,11.3,7.5,16.2
			c0,0-0.3,10.2-7.5,3.9c0,0-2-3.3-2.3-7c0,0-2.5-4.8-5.5-7.8s-5.4-6.2-9.1-8.9c0,0-2.4-15.9,18.3-19.1
			C800.4,87.8,794.6,107.3,794.6,107.3z"/>
		<path id="body_3_" style="fill:#251D15;" d="M756.6,62.9c0,0,11.5-16.3,52.8-11.5c0,0,36.8,6.2,57.6-0.4c0.5-0.2,1-0.3,1.4-0.5
			l18.8,29.6c0,0-28.5,26.3-44.3,30.3s-58,4.8-65.3-3c0,0-35.5,2.8-31.8-22.5C745.8,84.9,747.8,69.4,756.6,62.9z"/>
		<path id="head_3_" style="fill:#251D15;" d="M871.3,48.8c0,0,2.5-0.5,10-8.8c0,0,5-8.3,15.2-11.8c0,0,0.5-10.7,9.8-17.8l3.5-2.8
			c0,0,0.3,5.2,3.5,7.8c3.2,2.7,3.5,9.8,3.5,9.8s5.7-2.8,6.8-7.5c1.2-4.7,2.2,0,2.2,0s4,10.5,1.7,14.8c0,0,6.8,6.7,7.5,10.7
			s2,13.2,3.3,16.8c1.3,3.7,3.2,3.7,3.2,6.7c0,3,0.5,3.2-1.7,7c-1.8,3.1-8,6.2-10.3,7.3c-0.4,0.2-0.9-0.1-0.9-0.5
			c-0.2-1-1.6-1.6-2.8-4.1c-0.7-1.5,1.2,2.5,2,4.7c0,0-0.1,2.2-2,2.7c-0.8,0.2-19.7,3.6-31-5.5c-1.7-1.4-4.5-1.1-7.8,2l-24.6-28
			C862.5,52.2,867.2,51.1,871.3,48.8z"/>
		<path style="fill:#251D15;" d="M774.1,55.8c0,0-17.6-7-43.8,14C702.7,91.9,685.1,88,675.1,85c-10-3-15.2,2.3-5,8.9
			c0,0,11.6,10.3,38.8-0.7c31.3-12.7,43.8-27.5,52.3-23C768.8,74.3,774.1,55.8,774.1,55.8z"/>
	</g>
</g>
<g id="cat4">
	<g>
		<g>
			<path id="front_right_3_" style="fill:#251D15;" d="M1173.5,99.3c0,0-7,13,12,29.7s22.8,17.7,22.8,17.7h7.6c0,0,6-2.3,5.7-5.3
				s-3-6.7-10-7c0,0-11.9-8.6-14.6-12.7c0,0-14.8-19-13.2-26C1185.2,88.7,1173.5,99.3,1173.5,99.3z"/>
			<path id="front_left_3_" style="fill:#251D15;" d="M1190.8,92.7c0,0,7.3,6.9,9.3,13.6c2,6.7,1,7.1-5,13.7l-22.3-21.7L1190.8,92.7
				z"/>
		</g>
		<path style="fill:#251D15;" d="M1125.8,106.9c0,0-9,10.3-12.7,11c0,0,18.7,1.6,23.3,6s3,12.4-3,10.4s-8.3-3.7-14-4
			c-5.7-0.3-14-0.7-14-0.7s-8-3-6.7-9c1.3-6-2.3-21-2.3-21S1127.8,101.7,1125.8,106.9z"/>
		<path style="fill:#251D15;" d="M1100.2,104.3c-0.4,1.4-3.4,14.3-33.4,15.6l6.7,14.8c0,0,3.3,3.8,8.7,4.2c0,0,12.7,5.7-1.7,12
			c0,0-10.8-0.7-13.7-6c-2.9-5.3-11.3-21.7-11.3-21.7s-3.7-12.8,3.7-13.7c0,0,12.3-3.4,11-17.3
			C1070.2,92.3,1103.5,91.7,1100.2,104.3z"/>
		<path id="body_2_" style="fill:#251D15;" d="M1077.8,63.3c0,0,11.5-16.3,52.8-11.5c0,0,36.8,6.2,57.6-0.4c0.5-0.2,1-0.3,1.4-0.5
			l18.8,29.6c0,0-28.5,26.3-44.3,30.3s-58,4.8-65.3-3c0,0-35.5,2.8-31.8-22.5C1067,85.3,1069,69.8,1077.8,63.3z"/>
		<path style="fill:#251D15;" d="M1098.3,55.8c0,0-19.3-7.9-46.8,14c-9.9,7.8-47.2,23.3-57.3,20.3c-10-3-18.8,6-5,8.9
			c0,0,13.6,5.3,40.8-5.7c31.3-12.7,43.8-27.5,52.3-23C1090,74.3,1098.3,55.8,1098.3,55.8z"/>
		<path id="head_2_" style="fill:#251D15;" d="M1192.5,49.1c0,0,2.5-0.5,10-8.8c0,0,5-8.3,15.2-11.8c0,0,0.5-10.7,9.8-17.8l3.5-2.8
			c0,0,0.3,5.2,3.5,7.8s3.5,9.8,3.5,9.8s5.7-2.8,6.8-7.5c1.2-4.7,2.2,0,2.2,0s4,10.5,1.7,14.8c0,0,6.8,6.7,7.5,10.7
			c0.7,4,2,13.2,3.3,16.8c1.3,3.7,3.2,3.7,3.2,6.7s0.5,3.2-1.7,7s-9.2,6.7-9.2,6.7s-2-4.2-4.8-4c-2.8,0.2-1.1,4.3,1,4.7
			c0,0,0.9,2.2-1,2.7c-0.8,0.2-19.7,3.6-31-5.5c-1.7-1.4-4.5-1.1-7.8,2l-24.6-28C1183.6,52.5,1188.3,51.4,1192.5,49.1z"/>
	</g>
</g>

<g id="cat5">
	<g>
		<path style="fill:#251D15;" d="M1478.2,101c0,0,1.3,30.3,3.5,39c2.2,8.7,4.8,15.3,14.8,13c0,0,9.3-2.3,1.7-8.7
			c0,0-6.3-2.3-4.3-10.3c0,0,1-27.7,6-35.3c0,0-15.7-8-24.3-3.7C1466.9,99.4,1478.2,101,1478.2,101z"/>
		<path id="back_left_5_" style="fill:#251D15;" d="M1365.1,118.5c0,0,6.3,4.5,25.3-1.3c0,0,21-3.9,29.5-27.2s-18.5-17-25.3-12
			c0,0-19,23.8-26.3,24s-8-1.3-21.5,17.5c0,0-10.6,14.2-6.9,24.4c0,0,3,4.6,8.8,4.5c8.1-0.2,7-4.5,7-4.5s-0.8-3.8-5.8-5.3
			c0,0-2.5-4,6.5-10.8L1365.1,118.5z"/>
		<path style="fill:#251D15;" d="M1493.3,97.7c0,0,0,12.9,24.7,16.7c0,0,4,0.3,7.8,0.3c5.3,0,11.2,0.6,13.4,8c0,0-0.7,9.7,5.4,5
			c6.1-4.7,2.7-12.8,0.9-15.7c-3.4-5.4-6.8-10-20.1-10.7c-4.2-0.2-5.8-7.2-8.4-13C1516.9,88.4,1494.6,89.1,1493.3,97.7z"/>
		<path style="fill:#251D15;" d="M1428.5,86.9c0,0,21,12.8,2.8,32.3c0,0-10.3,12.8-17.5,15.5c0,0-3.8,1.8-4,5.5s5.5,2.5,5.5,2.5
			s12.5-1.3,11.8,2.8c0,0,3.2,5.5-7.3,6c0,0-10.1,1.2-12.7,0c-6.5-3-16.8-10.8-14.5-15c0,0-0.2-3.9,8.5-8.5c0,0,8.5-7.8,5.8-17.5
			s-0.5-1.3-0.5-1.3S1391.3,78.4,1428.5,86.9z"/>
		<path id="body_6_" style="fill:#251D15;" d="M1398.1,63.4c0,0,11.5-16.3,52.8-11.5c0,0,36.8,6.2,57.6-0.4c0.5-0.2,1-0.3,1.4-0.5
			l18.8,29.6c0,0-28.5,26.3-44.3,30.3s-48,4.8-55.3-3c0,0-45.5,2.8-41.8-22.5C1387.4,85.4,1389.4,69.9,1398.1,63.4z"/>
		<path style="fill:#251D15;" d="M1418.1,55.9c0,0-19.3-7.9-46.8,14c-9.9,7.8-47.2,27.3-57.3,24.3c-10-3-18.8,6-5,8.9
			c0,0,12,6.6,40.8-9.7c29.4-16.6,43.8-27.5,52.3-23C1409.8,74.5,1418.1,55.9,1418.1,55.9z"/>
		<path id="head_6_" style="fill:#251D15;" d="M1512.9,49.3c0,0,2.5-0.5,10-8.8c0,0,5-8.3,15.2-11.8c0,0,0.5-10.7,9.8-17.8l3.5-2.8
			c0,0,0.3,5.2,3.5,7.8c3.2,2.7,3.5,9.8,3.5,9.8s5.7-2.8,6.8-7.5s2.2,0,2.2,0s4,10.5,1.7,14.8c0,0,6.8,6.7,7.5,10.7
			c0.7,4,2,13.2,3.3,16.8c1.3,3.7,3.2,3.7,3.2,6.7s0.5,3.2-1.7,7c-2.2,3.8-7.2,6.7-7.2,6.7s-4-4.2-6.8-4c-2.8,0.2-1.1,4.3,1,4.7
			c0,0,0.9,2.2-1,2.7c-0.8,0.2-19.7,3.6-31-5.5c-1.7-1.4-4.5-1.1-7.8,2l-24.6-28C1504,52.7,1508.7,51.6,1512.9,49.3z"/>
	</g>
</g>
</svg>
