<svg version="1.1" id="isaak" xmlns="http://www.w3.org/2000/svg" xmlns:xlink="http://www.w3.org/1999/xlink" x="0px" y="0px"
	 viewBox="0 0 1103.3 248.9" style="enable-background:new 0 0 1103.3 248.9;" xml:space="preserve">
	 
	<path id="cat" class="meow" style="fill:#251D15;" d="M702.2,229.4c-1.5-0.9-3.9,0-6.1,0.2c-2.1,0.2-3.5-0.2-5.7-0.5c-2.2-0.3-3.6,0.1-7,0.5
		c-3.4,0.4-4.5,0.7-5.3-0.2c-0.8-0.9,0.4-3.2,0.7-5.8c0.3-2.7-0.9-3.7-1.3-5.3c-0.4-1.6,0.5-1.9-0.1-5.7c-0.6-3.8-3.3-10.8-8.4-15.1
		c-5.1-4.3-9.5-4-13.6-5.3c-4.1-1.4-7-4.8-8.5-5.9c-1.6-1-3.3-3.3-4.3-4.3c-1-1-2.6-1.5-2.6-1.5s-0.9-1.4-1.5-1.9
		c-0.6-0.6-2-1-2.5-1c-0.5,0-1.1,0.6-1.4,1.6c-0.3,1,0.2,2.3-0.3,2.7c-0.5,0.4-2.7-0.2-4.3-0.4c-1.6-0.2-3.6-1.6-4.1-0.8
		c-0.4,0.8,3.3,3.9,3.4,4.8c0.1,0.9-0.1,2.2-0.8,3.2c-0.7,1-0.6,2.5-0.4,3.3c0.2,0.7,1.5,1.9,1.3,2.2c-0.2,0.3-0.1,1.5-0.1,1.5
		s0.2,0.3,0.8,1.1c0.6,0.8,1.2,0.9,1.8,1.1c0.6,0.1,0.5,0.7,1.5,1c1,0.3,1.2,0.1,1.6,0.9c0.4,0.8,0.9,4.8,1.7,7.5
		c0.8,2.6,5.3,6,6.2,7.2c0.9,1.2,2.2,5.8,2.3,6.9c0.2,1.1-0.5,2.9-0.8,4.4c-0.2,1.5-1.5,4-2.1,5.2c-0.6,1.2-0.5,1.6-0.5,1.6
		s-0.2,0.1-0.8-0.1c-0.5-0.2-1.4,0.2-1.8,0.9c-0.4,0.7-0.6,2.3,0.4,3c1.1,0.8,4.4,0.2,5.6-0.2c1.2-0.4,1.5-1.6,1.5-1.6s1.4,0.2,2,0
		c0.7-0.2,1-0.5,1-0.5s1.4,0.2,2.4,0.2c1,0,3.1-0.1,3.1-0.1s0,0.2,0.3,0.9c0.3,0.6,4,1.1,5.7,0.7c1.8-0.4,4.3-0.2,5.4,0
		c1.1,0.3,3.4,0,4.6-0.1c1.2-0.1,2.6,0.7,4.5,0.5c1.9-0.1,2.2-1,2.2-1s0.7,0,2.8-0.3c2-0.3,6.7,0.4,8.5,0.1c1.9-0.3,6.8,0.1,9.8,0.3
		c3,0.2,5.2-0.3,5.7-1.4C705.6,232.6,703.7,230.3,702.2,229.4z M653.6,230.2c-0.1,0.2-0.6,0.3-1.5,0.2c-0.9-0.1-0.8,0.2-0.8-2.5
		c0-2.7,0.8-3.3,1-3.2c0.2,0.1,0.2,2.7,0.3,3.6C652.8,229.1,653.7,229.9,653.6,230.2z"/>
</svg>
