<svg version="1.1" id="isaak" xmlns="http://www.w3.org/2000/svg" xmlns:xlink="http://www.w3.org/1999/xlink" x="0px" y="0px"
	 viewBox="0 0 1103.3 248.9" style="enable-background:new 0 0 1103.3 248.9;" xml:space="preserve">

<path id="candleholder" style="fill:#251D15;" d="M349.9,105.1c-1.2-1.1-1.6-2.9-0.7-4.3c0.7-1,2.2-1.2,3.1-0.5
	c-0.7-0.4-1.5-0.3-2.1,0.3c-0.5,0.6-0.7,1.5-0.4,2.2c0.3,0.8,1.2,1.3,2,1.3c0.9,0,1.7-0.6,2.1-1.4c0.4-0.9,0.3-1.9-0.2-2.7
	c-0.3-0.5-0.8-0.9-1.3-1.1c0,0,0,0,0,0c0.1-0.1,0.3-0.1,0.4-0.2c0.5-0.3,0.7-0.8,1.1-1.3c0.1-0.2,0.3-0.4,0.6-0.6
	c0.5-0.3,0-0.3-0.4-0.3h-3h-3c-0.5,0-1,0-0.4,0.3c0.2,0.1,0.4,0.3,0.6,0.6c0.3,0.5,0.6,1,1.1,1.3c0.1,0.1,0.2,0.1,0.3,0.2
	c0,0,0,0,0,0c-0.1,0-0.1,0-0.2,0.1c-1.7,0.7-2.3,2.6-2,4.3c0.3,1.9,1.8,3.2,3.5,3.8c2,0.8,4.2,0.4,6.2-0.3c2.1-0.7,4-1.8,6.1-2.6
	c0.8-0.3,1.7-0.6,2.6-0.8c0.5,1.2,1.4,2.3,2.4,3.2c1.3,1.2,3,2.3,3.5,4.1c0.2,0.7,0.1,1.5-0.3,2.1c-0.4,0.6-1.1,0.9-1.8,0.9
	c-1.3,0-2.3-1.5-1.7-2.7c0.3-0.6,1-1,1.5-0.5c0.4,0.3,0,0.9-0.4,0.7c-0.7-0.4-1.3,0.7-0.6,1.1c0.8,0.5,1.7,0.1,2.2-0.6
	c0.6-0.8,0.1-1.8-0.6-2.4c-0.8-0.6-1.8-0.3-2.6,0.2c-0.7,0.5-1,1.5-0.9,2.3c0.1,1.7,1.7,3.2,3.4,3c0.5,0,1-0.2,1.4-0.4c0,0,0,0,0,0
	c0,0.2,0,0.4,0.1,0.6l2.1,4.3l0,0.1c-0.4,0.1-0.6,0.4-0.6,0.8v0.1c0,0.4,0.3,0.7,0.6,0.7l0,2.1c-0.3,0.1-0.5,0.4-0.5,0.7v4.2
	c-1,0.2-1.9,0.5-2.7,1.1c-1.2,0.8-1.9,1.9-2.7,3.1c-0.4,0.6-0.9,1-1.5,1.3c-1.4,0.7-0.1,0.6,1.1,0.6l7.7,0l7.7,0
	c1.2,0,2.5,0.1,1.1-0.6c-0.6-0.3-1.1-0.8-1.5-1.3c-0.8-1.2-1.5-2.3-2.7-3.1c-0.8-0.5-1.8-0.9-2.7-1.1v-4.2c0-0.4-0.2-0.6-0.5-0.7
	l0-2.1c0.3-0.1,0.6-0.4,0.6-0.7v-0.1c0-0.4-0.3-0.7-0.6-0.8l0-0.1l2.1-4.3c0.1-0.2,0.1-0.4,0.1-0.6c0,0,0,0,0,0
	c0.4,0.2,0.9,0.4,1.4,0.4c1.7,0.2,3.3-1.3,3.4-3c0.1-0.8-0.3-1.8-0.9-2.3c-0.7-0.6-1.8-0.8-2.6-0.2c-0.7,0.5-1.2,1.5-0.6,2.4
	c0.5,0.7,1.4,1.1,2.2,0.6c0.7-0.4,0.1-1.5-0.6-1.1c-0.3,0.2-0.8-0.3-0.4-0.7c0.5-0.5,1.2-0.1,1.5,0.5c0.6,1.1-0.4,2.7-1.7,2.7
	c-0.7,0-1.4-0.4-1.8-0.9c-0.5-0.6-0.6-1.4-0.3-2.1c0.5-1.8,2.2-2.9,3.5-4.1c1-0.9,1.9-2,2.4-3.2c0.9,0.2,1.7,0.5,2.6,0.8
	c2.1,0.7,4,1.9,6.1,2.6c2,0.7,4.2,1,6.2,0.3c1.7-0.6,3.2-2,3.5-3.8c0.3-1.7-0.3-3.6-2-4.3c-0.1,0-0.1,0-0.2-0.1c0,0,0,0,0,0
	c0.1-0.1,0.2-0.1,0.3-0.2c0.5-0.3,0.7-0.8,1.1-1.3c0.1-0.2,0.3-0.4,0.6-0.6c0.5-0.3,0-0.3-0.4-0.3h-3h-3c-0.5,0-1,0-0.4,0.3
	c0.2,0.1,0.4,0.3,0.6,0.6c0.3,0.5,0.6,1,1.1,1.3c0.1,0.1,0.3,0.2,0.4,0.2c0,0,0,0,0,0c-0.5,0.2-1,0.6-1.3,1.1
	c-0.5,0.8-0.6,1.8-0.2,2.7c0.4,0.8,1.2,1.3,2.1,1.4c0.9,0,1.7-0.4,2-1.3c0.3-0.7,0.1-1.6-0.4-2.2c-0.6-0.6-1.4-0.7-2.1-0.3
	c0.9-0.7,2.5-0.5,3.1,0.5c0.9,1.4,0.5,3.2-0.7,4.3c-1.4,1.3-3.5,1.5-5.3,1.1c-2.2-0.5-4.1-1.5-6.1-2.4c-1.3-0.6-2.7-1-4.1-1.4
	c0-0.2,0.1-0.4,0.1-0.6c0.3-1.8,0.1-4.4-1.9-5.3c-0.9-0.4-1.9-0.4-2.7,0.3c-0.7,0.6-0.9,1.6-0.5,2.4c0.4,0.8,1.4,1.2,2.2,0.8
	c0.7-0.4,1.1-1.2,0.8-2c0.3,0.3,0.6,0.8,0.7,1.3c0.2,0.9,0.2,1.9,0,2.8c0,0,0,0.1,0,0.1c-0.3-0.1-0.6-0.1-0.9-0.1
	c-1.9-0.3-4.4-0.6-5.9,1.1c-0.2,0.2-0.3,0.4-0.4,0.7v-0.1l-0.3-12.7c0.4-0.1,0.8-0.2,1.1-0.5c0.5-0.3,0.7-0.8,1.1-1.3
	c0.1-0.2,0.3-0.4,0.6-0.6c0.5-0.3,0-0.3-0.4-0.3h-3h-3c-0.5,0-1,0-0.4,0.3c0.2,0.1,0.4,0.3,0.6,0.6c0.3,0.5,0.6,1,1.1,1.3
	c0.3,0.2,0.7,0.4,1.1,0.5l-0.3,12.7v0.1c-0.1-0.2-0.3-0.5-0.4-0.6c-1.4-1.7-3.9-1.3-5.9-1.1c-0.3,0-0.6,0.1-0.9,0.1c0,0,0-0.1,0-0.1
	c-0.2-0.9-0.2-1.9,0-2.8c0.1-0.4,0.3-0.9,0.7-1.3c-0.3,0.8,0.1,1.6,0.8,2c0.8,0.5,1.8,0,2.2-0.8c0.5-0.8,0.2-1.8-0.5-2.4
	c-0.8-0.7-1.8-0.7-2.7-0.3c-1.9,0.9-2.1,3.5-1.9,5.3c0,0.2,0.1,0.4,0.1,0.6c-1.4,0.3-2.8,0.8-4.1,1.4c-2,0.9-4,2-6.1,2.4
	C353.4,106.5,351.4,106.3,349.9,105.1z M373.2,110.9L373.2,110.9c-0.3-1.8-1.8-3.2-3.2-4.3c-0.8-0.6-1.5-1.3-2.1-2
	c-0.3-0.4-0.5-0.8-0.7-1.2c0.2,0,0.4-0.1,0.5-0.1c1.3-0.2,3-0.5,4.2,0.2c0.8,0.4,1.5,1.7,0.5,2.4c-0.2,0.1-0.4,0.2-0.5,0.1
	c-0.1,0-0.2-0.1-0.3-0.3c-0.1-0.1-0.1-0.3-0.1-0.4c0-0.1,0-0.1,0.1-0.2c0.7-0.4,0.1-1.5-0.6-1.1c-0.7,0.4-0.9,1.2-0.7,2
	c0.2,0.8,0.9,1.3,1.7,1.3c0.8,0,1.4-0.5,1.8-1.1v0.1l-0.1,2.5h-0.1c-0.4,0-0.8,0.3-0.8,0.8v0.1c0,0.4,0.2,0.7,0.6,0.7L373.2,110.9z
	 M376,108.6L376,108.6l-0.1-2.5V106c0.4,0.6,1,1.1,1.8,1.1c0.8,0,1.5-0.6,1.7-1.3c0.2-0.7,0-1.5-0.7-2c-0.7-0.4-1.3,0.7-0.6,1.1
	c0.1,0.1,0.1,0.1,0.1,0.2c0,0.2,0,0.3-0.1,0.4c-0.1,0.1-0.2,0.2-0.3,0.3c-0.2,0.1-0.4,0-0.5-0.1c-1-0.7-0.3-1.9,0.5-2.4
	c1.2-0.7,2.9-0.4,4.2-0.2c0.2,0,0.4,0.1,0.5,0.1c-0.2,0.4-0.4,0.8-0.7,1.2c-0.6,0.8-1.4,1.4-2.1,2c-1.4,1.2-2.9,2.6-3.1,4.4l0-0.1
	l-0.4-0.7c0.3-0.1,0.6-0.4,0.6-0.7v-0.1C376.7,109,376.4,108.6,376,108.6z M347.2,95.7c0-0.2,0.1-0.3,0.3-0.3h2.3v-9l1.4-1.9
	l1.4,1.9v9h2.3c0.2,0,0.3,0.1,0.3,0.3c0,0.2-0.1,0.3-0.3,0.3h-7.4C347.3,96,347.2,95.9,347.2,95.7z M394.5,95.7
	c0-0.2,0.1-0.3,0.3-0.3h2.3v-9l1.4-1.9l1.4,1.9v9h2.3c0.2,0,0.3,0.1,0.3,0.3c0,0.2-0.1,0.3-0.3,0.3h-7.4
	C394.7,96,394.5,95.9,394.5,95.7z M370.8,87.4c0-0.2,0.1-0.3,0.3-0.3h2.3v-9l1.4-1.9l1.4,1.9v9h2.3c0.2,0,0.3,0.1,0.3,0.3
	c0,0.2-0.1,0.3-0.3,0.3h-7.4C371,87.7,370.8,87.6,370.8,87.4z"/>
<path id="candleholder_1_" style="fill:#251D15;" d="M798.6,106.5c-1.2-1.1-1.6-2.9-0.7-4.3c0.7-1,2.2-1.2,3.1-0.5
	c-0.7-0.4-1.5-0.3-2.1,0.3c-0.5,0.6-0.7,1.5-0.4,2.2c0.3,0.8,1.2,1.3,2,1.3c0.9,0,1.7-0.6,2.1-1.4c0.4-0.9,0.3-1.9-0.2-2.7
	c-0.3-0.5-0.8-0.9-1.3-1.1c0,0,0,0,0,0c0.1-0.1,0.3-0.1,0.4-0.2c0.5-0.3,0.7-0.8,1.1-1.3c0.1-0.2,0.3-0.4,0.6-0.6
	c0.5-0.3,0-0.3-0.4-0.3h-3h-3c-0.5,0-1,0-0.4,0.3c0.2,0.1,0.4,0.3,0.6,0.6c0.3,0.5,0.6,1,1.1,1.3c0.1,0.1,0.2,0.1,0.3,0.2
	c0,0,0,0,0,0c-0.1,0-0.1,0-0.2,0.1c-1.7,0.7-2.3,2.6-2,4.3c0.3,1.9,1.8,3.2,3.5,3.8c2,0.8,4.2,0.4,6.2-0.3c2.1-0.7,4-1.8,6.1-2.6
	c0.8-0.3,1.7-0.6,2.6-0.8c0.5,1.2,1.4,2.3,2.4,3.2c1.3,1.2,3,2.3,3.5,4.1c0.2,0.7,0.1,1.5-0.3,2.1c-0.4,0.6-1.1,0.9-1.8,0.9
	c-1.3,0-2.3-1.5-1.7-2.7c0.3-0.6,1-1,1.5-0.5c0.4,0.3,0,0.9-0.4,0.7c-0.7-0.4-1.3,0.7-0.6,1.1c0.8,0.5,1.7,0.1,2.2-0.6
	c0.6-0.8,0.1-1.8-0.6-2.4c-0.8-0.6-1.8-0.3-2.6,0.2c-0.7,0.5-1,1.5-0.9,2.3c0.1,1.7,1.7,3.2,3.4,3c0.5,0,1-0.2,1.4-0.4c0,0,0,0,0,0
	c0,0.2,0,0.4,0.1,0.6l2.1,4.3l0,0.1c-0.4,0.1-0.6,0.4-0.6,0.8v0.1c0,0.4,0.3,0.7,0.6,0.7l0,2.1c-0.3,0.1-0.5,0.4-0.5,0.7v4.2
	c-1,0.2-1.9,0.5-2.7,1.1c-1.2,0.8-1.9,1.9-2.7,3.1c-0.4,0.6-0.9,1-1.5,1.3c-1.4,0.7-0.1,0.6,1.1,0.6l7.7,0l7.7,0
	c1.2,0,2.5,0.1,1.1-0.6c-0.6-0.3-1.1-0.8-1.5-1.3c-0.8-1.2-1.5-2.3-2.7-3.1c-0.8-0.5-1.8-0.9-2.7-1.1v-4.2c0-0.4-0.2-0.6-0.5-0.7
	l0-2.1c0.3-0.1,0.6-0.4,0.6-0.7v-0.1c0-0.4-0.3-0.7-0.6-0.8l0-0.1l2.1-4.3c0.1-0.2,0.1-0.4,0.1-0.6c0,0,0,0,0,0
	c0.4,0.2,0.9,0.4,1.4,0.4c1.7,0.2,3.3-1.3,3.4-3c0.1-0.8-0.3-1.8-0.9-2.3c-0.7-0.6-1.8-0.8-2.6-0.2c-0.7,0.5-1.2,1.5-0.6,2.4
	c0.5,0.7,1.4,1.1,2.2,0.6c0.7-0.4,0.1-1.5-0.6-1.1c-0.3,0.2-0.8-0.3-0.4-0.7c0.5-0.5,1.2-0.1,1.5,0.5c0.6,1.1-0.4,2.7-1.7,2.7
	c-0.7,0-1.4-0.4-1.8-0.9c-0.5-0.6-0.6-1.4-0.3-2.1c0.5-1.8,2.2-2.9,3.5-4.1c1-0.9,1.9-2,2.4-3.2c0.9,0.2,1.7,0.5,2.6,0.8
	c2.1,0.7,4,1.9,6.1,2.6c2,0.7,4.2,1,6.2,0.3c1.7-0.6,3.2-2,3.5-3.8c0.3-1.7-0.3-3.6-2-4.3c-0.1,0-0.1,0-0.2-0.1c0,0,0,0,0,0
	c0.1-0.1,0.2-0.1,0.3-0.2c0.5-0.3,0.7-0.8,1.1-1.3c0.1-0.2,0.3-0.4,0.6-0.6c0.5-0.3,0-0.3-0.4-0.3h-3h-3c-0.5,0-1,0-0.4,0.3
	c0.2,0.1,0.4,0.3,0.6,0.6c0.3,0.5,0.6,1,1.1,1.3c0.1,0.1,0.3,0.2,0.4,0.2c0,0,0,0,0,0c-0.5,0.2-1,0.6-1.3,1.1
	c-0.5,0.8-0.6,1.8-0.2,2.7c0.4,0.8,1.2,1.3,2.1,1.4c0.9,0,1.7-0.4,2-1.3c0.3-0.7,0.1-1.6-0.4-2.2c-0.6-0.6-1.4-0.7-2.1-0.3
	c0.9-0.7,2.5-0.5,3.1,0.5c0.9,1.4,0.5,3.2-0.7,4.3c-1.4,1.3-3.5,1.5-5.3,1.1c-2.2-0.5-4.1-1.5-6.1-2.4c-1.3-0.6-2.7-1-4.1-1.4
	c0-0.2,0.1-0.4,0.1-0.6c0.3-1.8,0.1-4.4-1.9-5.3c-0.9-0.4-1.9-0.4-2.7,0.3c-0.7,0.6-0.9,1.6-0.5,2.4c0.4,0.8,1.4,1.2,2.2,0.8
	c0.7-0.4,1.1-1.2,0.8-2c0.3,0.3,0.6,0.8,0.7,1.3c0.2,0.9,0.2,1.9,0,2.8c0,0,0,0.1,0,0.1c-0.3-0.1-0.6-0.1-0.9-0.1
	c-1.9-0.3-4.4-0.6-5.9,1.1c-0.2,0.2-0.3,0.4-0.4,0.7V105l-0.3-12.7c0.4-0.1,0.8-0.2,1.1-0.5c0.5-0.3,0.7-0.8,1.1-1.3
	c0.1-0.2,0.3-0.4,0.6-0.6c0.5-0.3,0-0.3-0.4-0.3h-3h-3c-0.5,0-1,0-0.4,0.3c0.2,0.1,0.4,0.3,0.6,0.6c0.3,0.5,0.6,1,1.1,1.3
	c0.3,0.2,0.7,0.4,1.1,0.5l-0.3,12.7v0.1c-0.1-0.2-0.3-0.5-0.4-0.6c-1.4-1.7-3.9-1.3-5.9-1.1c-0.3,0-0.6,0.1-0.9,0.1c0,0,0-0.1,0-0.1
	c-0.2-0.9-0.2-1.9,0-2.8c0.1-0.4,0.3-0.9,0.7-1.3c-0.3,0.8,0.1,1.6,0.8,2c0.8,0.5,1.8,0,2.2-0.8c0.5-0.8,0.2-1.8-0.5-2.4
	c-0.8-0.7-1.8-0.7-2.7-0.3c-1.9,0.9-2.1,3.5-1.9,5.3c0,0.2,0.1,0.4,0.1,0.6c-1.4,0.3-2.8,0.8-4.1,1.4c-2,0.9-4,2-6.1,2.4
	C802.1,107.9,800,107.7,798.6,106.5z M821.8,112.3L821.8,112.3c-0.3-1.8-1.8-3.2-3.2-4.3c-0.8-0.6-1.5-1.3-2.1-2
	c-0.3-0.4-0.5-0.8-0.7-1.2c0.2,0,0.4-0.1,0.5-0.1c1.3-0.2,3-0.5,4.2,0.2c0.8,0.4,1.5,1.7,0.5,2.4c-0.2,0.1-0.4,0.2-0.5,0.1
	c-0.1,0-0.2-0.1-0.3-0.3c-0.1-0.1-0.1-0.3-0.1-0.4c0-0.1,0-0.1,0.1-0.2c0.7-0.4,0.1-1.5-0.6-1.1c-0.7,0.4-0.9,1.2-0.7,2
	c0.2,0.8,0.9,1.3,1.7,1.3c0.8,0,1.4-0.5,1.8-1.1v0.1l-0.1,2.5h-0.1c-0.4,0-0.8,0.3-0.8,0.8v0.1c0,0.4,0.2,0.7,0.6,0.7L821.8,112.3z
	 M824.6,110L824.6,110l-0.1-2.5v-0.1c0.4,0.6,1,1.1,1.8,1.1c0.8,0,1.5-0.6,1.7-1.3c0.2-0.7,0-1.5-0.7-2c-0.7-0.4-1.3,0.7-0.6,1.1
	c0.1,0.1,0.1,0.1,0.1,0.2c0,0.2,0,0.3-0.1,0.4c-0.1,0.1-0.2,0.2-0.3,0.3c-0.2,0.1-0.4,0-0.5-0.1c-1-0.7-0.3-1.9,0.5-2.4
	c1.2-0.7,2.9-0.4,4.2-0.2c0.2,0,0.4,0.1,0.5,0.1c-0.2,0.4-0.4,0.8-0.7,1.2c-0.6,0.8-1.4,1.4-2.1,2c-1.4,1.2-2.9,2.6-3.1,4.4l0-0.1
	l-0.4-0.7c0.3-0.1,0.6-0.4,0.6-0.7v-0.1C825.4,110.4,825,110,824.6,110z M795.8,97.1c0-0.2,0.1-0.3,0.3-0.3h2.3v-9l1.4-1.9l1.4,1.9
	v9h2.3c0.2,0,0.3,0.1,0.3,0.3c0,0.2-0.1,0.3-0.3,0.3h-7.4C795.9,97.4,795.8,97.3,795.8,97.1z M843.2,97.1c0-0.2,0.1-0.3,0.3-0.3h2.3
	v-9l1.4-1.9l1.4,1.9v9h2.3c0.2,0,0.3,0.1,0.3,0.3c0,0.2-0.1,0.3-0.3,0.3h-7.4C843.3,97.4,843.2,97.3,843.2,97.1z M819.5,88.8
	c0-0.2,0.1-0.3,0.3-0.3h2.3v-9l1.4-1.9l1.4,1.9v9h2.3c0.2,0,0.3,0.1,0.3,0.3c0,0.2-0.1,0.3-0.3,0.3h-7.4
	C819.6,89.1,819.5,89,819.5,88.8z"/>
	
<g id="railing_1_">
	<g id="railing">
		<rect x="0.4" y="134.5" style="fill:#251D15;" width="1128.4" height="8"/>
		<g>
			<g>
				<path style="fill:#251D15;" d="M103.2,143.3c0-1,0-2.1,0-3.2c5.1,0,10.1,0,15.3,0c0,1.1,0,2.2,0,3.2c-0.1-0.1-0.3-0.2-0.4-0.3
					c-1.2,1-2.3,2.3-3.7,3c-2.2,1.1-1.2,2.8-1.4,4.2c-0.2,1.6,0,3.1,0.1,4.7c0,0.2,0.3,0.5,0.5,0.6c1,0.8,1.4,1.5,0.2,2.5
					c-0.4,0.3-0.4,1.1-0.3,1.6c1,5.1,2,10.2,3.1,15.3c0.7,3.1,0.2,5.8-3.2,7.7c0.5,0.3,0.8,0.5,1.5,0.9c-3,0-5.5,0-8,0
					c0-0.1,0-0.2-0.1-0.3c0.4-0.2,0.8-0.3,1.3-0.6c-3.3-1.9-3.9-4.6-3.3-7.7c1.1-5.2,2.2-10.3,3.1-15.5c0.1-0.6-0.1-1.4-0.6-1.8
					c-0.8-0.8-0.5-1.2,0.1-1.8c0.5-0.5,0.8-1.3,0.9-1.9c0.1-1.8,0-3.6,0.1-5.3c0.2-1.7-0.9-2.6-2.3-3.3c-0.3-0.2-0.5-0.4-0.8-0.6
					c-0.6-0.5-1.3-1-1.9-1.5C103.5,143.3,103.4,143.3,103.2,143.3z"/>
				<path style="fill:#251D15;" d="M23.6,143.4c0-1,0-2.1,0-3.2c5.1,0,10.1,0,15.3,0c0,1.1,0,2.1,0,3.2c-0.1-0.1-0.3-0.2-0.4-0.3
					c-1.2,1-2.3,2.2-3.7,3c-2.2,1.1-1.2,2.8-1.4,4.2c-0.2,1.6-0.7,3.7,0.2,4.6c1.9,1.8,0.1,3.1,0.2,4.6c0.3,2.7,0.8,5.4,1.3,8.1
					c0.5,2.3,1.1,4.6,1.7,6.9c0.8,3.2,0.6,6.2-3.1,8.2c0.5,0.2,0.8,0.4,1.2,0.6c0,0.1,0,0.2-0.1,0.3c-2.5,0-5,0-8,0
					c0.8-0.4,1.2-0.6,1.7-0.8c-4-2.2-3.8-5.3-3.1-8.7c1.1-4.7,2-9.5,2.9-14.2c0.1-0.7-0.5-1.4-0.6-2.1c-0.1-0.5-0.1-1.1,0.1-1.6
					c0.3-0.8,0.9-1.6,1-2.4c0.2-1.6,0-3.1,0.1-4.7c0.1-1.7-0.3-3.1-2.4-3.7c-0.3-0.1-0.5-0.4-0.8-0.6c-0.6-0.5-1.2-0.9-1.8-1.4
					C23.9,143.3,23.7,143.3,23.6,143.4z"/>
				<path style="fill:#251D15;" d="M166.6,182.7c0.4,0.2,0.8,0.4,1.1,0.5c0,0.1,0,0.2-0.1,0.3c-2.5,0-5,0-7.9,0
					c0.7-0.4,1-0.5,1.5-0.8c-4.2-2.3-3.7-5.8-2.9-9.3c1-4.5,2-9.1,2.7-13.6c0.2-0.9-1-2-1-2.9c0.1-0.9,1.3-1.7,1.4-2.7
					c0.2-1.9,0-3.8,0.1-5.7c0.1-1.6-1-2.4-2.3-3.2c-0.3-0.2-0.5-0.4-0.8-0.6c-0.6-0.5-1.3-1-1.9-1.5c-0.1,0.1-0.3,0.2-0.4,0.2
					c0-1.1,0-2.1,0-3.4c2.5,0,5,0,7.5,0c2.5,0,5,0,7.7,0c0,1.2,0,2.2,0,2.9c-1,0.8-1.6,1.3-2.3,1.8c-0.7,0.5-1.4,1.1-2,1.7
					c-0.4,0.4-1,1-1,1.5c-0.1,1.8-0.1,3.6-0.1,5.3c0,1.1,0,2.2,1.2,3c0.3,0.2,0.3,1.1,0.1,1.3c-0.9,0.7-0.9,1.5-0.7,2.4
					c1.1,5.1,2.1,10.2,3.2,15.3C170.5,178.8,169.9,180.2,166.6,182.7z"/>
				<path style="fill:#251D15;" d="M87,182.7c0.5,0.3,0.8,0.5,1.5,0.8c-2.9,0-5.5,0-8,0c0-0.1,0-0.2-0.1-0.3
					c0.4-0.1,0.7-0.3,1.3-0.5c-4.2-2.3-3.8-5.6-3-9.1c1.1-4.7,2-9.4,2.9-14.1c0.1-0.5,0-1.1-0.3-1.4c-1.1-0.9-1-1.6,0.1-2.5
					c0.4-0.3,0.6-0.9,0.6-1.4c0.1-1.8,0-3.7,0.1-5.5c0.1-1.7-0.7-2.8-2.4-3.5c-1.1-0.5-1-2.4-3.1-1.6c0-1.3,0-2.4,0-3.6
					c2.6,0,5.1,0,7.6,0c2.5,0,5,0,7.6,0c0,1.2,0,2.2,0,2.8c-1.5,1.1-2.7,2.2-4.1,3c-2.2,1.4-1.3,3.4-1.3,5.1c0,1.8-0.7,3.9,1.5,5.4
					c0.2,0.1,0.1,0.8-0.1,1c-1.2,0.8-1,1.8-0.8,2.8c1,4.9,2,9.8,3.1,14.7C90.8,178.1,90.3,180.7,87,182.7z"/>
				<path style="fill:#251D15;" d="M53.9,183.3c0.4-0.1,0.7-0.3,1.3-0.5c-4.2-2.4-3.8-5.7-3-9.2c1.1-4.6,1.9-9.3,2.8-13.9
					c0.1-0.6-0.2-1.4-0.6-1.8c-0.7-0.7-0.6-1.1,0-1.7c0.5-0.6,0.9-1.4,1-2.2c0.2-1.7,0-3.4,0.1-5c0.2-1.7-0.8-2.7-2.4-3.5
					c-0.3-0.2-0.5-0.4-0.8-0.6c-0.6-0.5-1.3-1-1.9-1.5c-0.1,0.1-0.3,0.2-0.4,0.2c0-1.1,0-2.1,0-3.3c5.1,0,10.1,0,15.3,0
					c0,1.1,0,2.2,0,3.2c-0.1-0.1-0.3-0.2-0.4-0.3c-1.2,1-2.3,2.3-3.7,3c-2.2,1.1-1.2,2.8-1.4,4.2c-0.2,1.6,0,3.1,0.1,4.7
					c0,0.2,0.3,0.5,0.5,0.6c1,0.8,1.4,1.5,0.2,2.5c-0.3,0.3-0.4,1-0.3,1.4c1,5.2,2,10.3,3.1,15.5c0.7,3.1,0.2,5.8-3.2,7.7
					c0.5,0.3,0.8,0.5,1.5,0.9c-3,0-5.5,0-8,0C53.9,183.4,53.9,183.4,53.9,183.3z"/>
				<path style="fill:#251D15;" d="M190.1,145.6c1.3,0.1,2.6,0.1,3.6,0.2c-0.4,1-0.9,1.8-0.9,2.7c-0.1,1.7-0.2,3.5,0,5.2
					c0.1,0.9,0.8,1.6,1.1,2.5c0.2,0.5,0.2,1,0.1,1.5c-0.2,0.8-0.8,1.5-0.6,2.3c0.9,5.1,2,10.1,3.1,15.2c0.7,3.1,0.1,5.8-3.2,7.7
					c0.5,0.2,0.8,0.4,1.7,0.9c-3,0-5.5,0-8.4,0c0.7-0.4,1-0.6,1.5-0.9c-4.1-2.2-3.7-5.5-3-9c1-4.6,1.8-9.3,3-13.9
					c0.4-1.6-2.8-3.2,0.2-4.5c0.1-1.8,0.2-3.6,0.2-5.3c0-1.5,0.3-3.1-1.3-4.2c-1.3-0.9-2.6-1.7-4.2-2.8c0-0.6,0-1.7,0-2.9
					c5.1,0,10.1,0,15.3,0c0,1.1,0,2.1,0,2.8c-1,0.8-1.7,1.4-2.6,1.9c-0.6,0.3-1.3,0.6-2,0.6C192.5,145.6,191.3,145.5,190.1,145.6
					C190.1,145.5,190.1,145.6,190.1,145.6z"/>
				<path style="fill:#251D15;" d="M129.8,140.1c5.1,0,10.1,0,15.3,0c0,1.1,0,2.1,0,2.8c-1,0.7-1.7,1.3-2.5,1.8
					c-0.6,0.3-1.3,0.6-1.9,0.7c-1.4,0.1-2.9,0-4.3,0.1c1.6,0.1,3.1,0.1,4.3,0.2c-0.4,0.9-0.9,1.7-1,2.4c-0.1,1.8,0,3.7,0,5.5
					c0,0.3-0.1,0.6,0.1,0.8c0.9,1.5,1.6,2.7,0.5,4.6c-0.8,1.4,0.3,3.6,0.6,5.4c0.3,1.8,0.8,3.5,1.2,5.3c0.4,1.7,0.8,3.5,1.2,5.2
					c0.8,3.1,0.2,5.9-3.2,7.8c0.5,0.2,0.8,0.4,1.2,0.5c0,0.1,0,0.2,0,0.3c-2.5,0-5,0-7.8,0c0.6-0.3,1-0.5,1.5-0.8
					c-4.2-2.2-3.8-5.6-3-9.1c1-4.7,2-9.4,2.9-14.1c0.1-0.6-0.2-1.4-0.6-1.8c-0.7-0.7-0.6-1.1,0-1.7c0.5-0.6,0.9-1.4,1-2.2
					c0.1-1.8-0.1-3.6,0.1-5.3c0.2-1.4-0.9-2.1-1.7-3c-0.5-0.6-1.2-1.1-1.9-1.5c-0.5-0.3-1.2-0.4-1.9-0.6
					C129.8,142.4,129.8,141.3,129.8,140.1z"/>
				<path style="fill:#251D15;" d="M158.6,184.3c3.8,0,7.1,0,10.6,0c-0.6,0.6-0.9,0.9-1.3,1.3c0.9,1.1,1.8,2.2,2.5,3.4
					c0.2,0.3-0.2,1.4-0.3,1.4c-4,0.1-8.1,0.1-12.1,0c-0.2,0-0.8-1-0.6-1.1c0.8-0.7,1.1-1.8,1.7-2.5
					C159.8,185.8,160.3,185.3,158.6,184.3z"/>
				<path style="fill:#251D15;" d="M195.9,184.3c-0.7,0.6-1,1-1.4,1.3c0.9,1.2,1.8,2.2,2.6,3.4c0.6,0.9,0,1.5-1,1.5
					c-3.7,0.1-7.4,0-11,0c-0.4,0-1-0.5-1.1-0.8c-0.1-0.2,0.4-0.7,0.6-1c0.7-1,1.4-1.9,2-3c0.1-0.2-0.5-0.8-1-1.4
					C188.9,184.3,192.2,184.3,195.9,184.3z"/>
				<path style="fill:#251D15;" d="M107,185.6c-0.4-0.4-0.8-0.7-1.4-1.3c3.6,0,6.8,0,10.4,0c-1.3,1-1.2,1.6-0.1,2.6
					c0.6,0.5,0.5,1.6,1.5,2.2c0.1,0.1-0.4,1.3-0.6,1.3c-4,0.1-7.9,0.1-11.9,0c-0.2,0-0.7-1-0.5-1.3
					C105.1,187.8,106.1,186.8,107,185.6z"/>
				<path style="fill:#251D15;" d="M36.5,184.3c-1.5,1-1.3,1.6-0.3,2.5c0.6,0.6,0.6,1.7,1.6,2.3c-0.4,0.5-0.7,1.3-1.1,1.4
					c-3.7,0.1-7.4,0.1-11,0c-0.4,0-1.1-1.1-1-1.4c0.7-1.2,1.7-2.3,2.6-3.5c-0.4-0.4-0.7-0.8-1.3-1.3
					C29.5,184.3,32.8,184.3,36.5,184.3z"/>
				<path style="fill:#251D15;" d="M80.4,185.6c-0.4-0.4-0.8-0.8-1.3-1.3c3.6,0,6.8,0,10.5,0c-1.5,1-1.4,1.5-0.4,2.5
					c0.6,0.6,0.8,1.8,1.7,2.4c-0.4,0.4-0.8,1.2-1.2,1.2c-3.7,0.1-7.3,0.1-11,0c-1,0-1.6-0.6-1-1.5C78.6,187.9,79.5,186.8,80.4,185.6
					z"/>
				<path style="fill:#251D15;" d="M52.8,184.3c3.4,0,6.6,0,10,0c-0.4,0.6-1.1,1.2-0.9,1.5c0.5,1,1.3,1.9,1.9,2.9
					c0.3,0.4,0.7,0.8,0.6,1.2c0,0.3-0.7,0.7-1,0.7c-3.7,0.1-7.5,0.1-11.2,0c-0.4,0-0.9-0.4-1-0.7c-0.1-0.3,0.2-0.7,0.5-1.1
					c0.7-1,1.5-1.9,2.1-2.9C53.8,185.5,53.1,184.9,52.8,184.3z"/>
				<path style="fill:#251D15;" d="M133.5,185.6c-0.4-0.4-0.7-0.7-1.3-1.3c3.6,0,6.9,0,10.5,0c-1.3,0.9-1.5,1.5-0.3,2.5
					c0.7,0.6,0.7,1.8,1.7,2.4c-0.4,0.4-0.7,1.3-1.1,1.3c-3.7,0.1-7.5,0.1-11.2,0c-0.9,0-1.5-0.6-0.9-1.5
					C131.7,187.9,132.6,186.8,133.5,185.6z"/>
				<path style="fill:#251D15;" d="M103.3,191.1c5.2,0,10.2,0,15.3,0c0,1.1,0,2.2,0,3.4c-5.1,0-10.1,0-15.3,0
					C103.3,193.3,103.3,192.2,103.3,191.1z"/>
				<path style="fill:#251D15;" d="M76.7,191.1c5.1,0,10.1,0,15.2,0c0,1.1,0,2.2,0,3.3c-5.1,0-10.1,0-15.2,0
					C76.7,193.4,76.7,192.3,76.7,191.1z"/>
				<path style="fill:#251D15;" d="M182.9,194.4c0-1.2,0-2.2,0-3.3c5.1,0,10.2,0,15.3,0c0,1.1,0,2.2,0,3.3
					C193.1,194.4,188,194.4,182.9,194.4z"/>
				<path style="fill:#251D15;" d="M23.6,194.4c0-1.1,0-2.1,0-3.3c5.1,0,10.1,0,15.3,0c0,1,0,2.1,0,3.3
					C33.8,194.4,28.8,194.4,23.6,194.4z"/>
				<path style="fill:#251D15;" d="M65.4,191.1c0,1.2,0,2.2,0,3.3c-5.1,0-10.1,0-15.3,0c0-1.1,0-2.2,0-3.3
					C55.2,191.1,60.3,191.1,65.4,191.1z"/>
				<path style="fill:#251D15;" d="M156.3,191.1c5.1,0,10.1,0,15.3,0c0,1.1,0,2.2,0,3.3c-5.1,0-10.1,0-15.3,0
					C156.3,193.3,156.3,192.3,156.3,191.1z"/>
				<path style="fill:#251D15;" d="M145,194.5c-5.1,0-10,0-15.2,0c0-1.1,0-2.1,0-3.3c5,0,10,0,15.2,0C145,192.2,145,193.2,145,194.5
					z"/>
				<path style="fill:#251D15;" d="M1.4,143.4c0-1,0-2.1,0-3.2c5.1,0,10.1,0,15.3,0c0,1.1,0,2.1,0,3.2c-0.1-0.1-0.3-0.2-0.4-0.3
					c-1.2,1-2.3,2.2-3.7,3c-2.2,1.1-1.2,2.8-1.4,4.2c-0.2,1.6-0.7,3.7,0.2,4.6c1.9,1.8,0.1,3.1,0.2,4.6c0.3,2.7,0.8,5.4,1.3,8.1
					c0.5,2.3,1.1,4.6,1.7,6.9c0.8,3.2,0.6,6.2-3.1,8.2c0.5,0.2,0.8,0.4,1.2,0.6c0,0.1,0,0.2-0.1,0.3c-2.5,0-5,0-8,0
					c0.8-0.4,1.2-0.6,1.7-0.8c-4-2.2-3.8-5.3-3.1-8.7c1.1-4.7,2-9.5,2.9-14.2c0.1-0.7-0.5-1.4-0.6-2.1c-0.1-0.5-0.1-1.1,0.1-1.6
					c0.3-0.8,0.9-1.6,1-2.4c0.2-1.6,0-3.1,0.1-4.7c0.1-1.7-0.3-3.1-2.4-3.7c-0.3-0.1-0.5-0.4-0.8-0.6c-0.6-0.5-1.2-0.9-1.8-1.4
					C1.7,143.3,1.5,143.3,1.4,143.4z"/>
				<path style="fill:#251D15;" d="M14.3,184.3c-1.5,1-1.3,1.6-0.3,2.5c0.6,0.6,0.6,1.7,1.6,2.3c-0.4,0.5-0.7,1.3-1.1,1.4
					c-3.7,0.1-7.4,0.1-11,0c-0.4,0-1.1-1.1-1-1.4c0.7-1.2,1.7-2.3,2.6-3.5c-0.4-0.4-0.7-0.8-1.3-1.3
					C7.3,184.3,10.5,184.3,14.3,184.3z"/>
				<path style="fill:#251D15;" d="M1.4,194.4c0-1.1,0-2.1,0-3.3c5.1,0,10.1,0,15.3,0c0,1,0,2.1,0,3.3
					C11.6,194.4,6.6,194.4,1.4,194.4z"/>
			</g>
			<g>
				<path style="fill:#251D15;" d="M287.8,143.3c0-1,0-2.1,0-3.2c5.1,0,10.1,0,15.3,0c0,1.1,0,2.2,0,3.2c-0.1-0.1-0.3-0.2-0.4-0.3
					c-1.2,1-2.3,2.3-3.7,3c-2.2,1.1-1.2,2.8-1.4,4.2c-0.2,1.6,0,3.1,0.1,4.7c0,0.2,0.3,0.5,0.5,0.6c1,0.8,1.4,1.5,0.2,2.5
					c-0.4,0.3-0.4,1.1-0.3,1.6c1,5.1,2,10.2,3.1,15.3c0.7,3.1,0.2,5.8-3.2,7.7c0.5,0.3,0.8,0.5,1.5,0.9c-3,0-5.5,0-8,0
					c0-0.1,0-0.2-0.1-0.3c0.4-0.2,0.8-0.3,1.3-0.6c-3.3-1.9-3.9-4.6-3.3-7.7c1.1-5.2,2.2-10.3,3.1-15.5c0.1-0.6-0.1-1.4-0.6-1.8
					c-0.8-0.8-0.5-1.2,0.1-1.8c0.5-0.5,0.8-1.3,0.9-1.9c0.1-1.8,0-3.6,0.1-5.3c0.2-1.7-0.9-2.6-2.3-3.3c-0.3-0.2-0.5-0.4-0.8-0.6
					c-0.6-0.5-1.3-1-1.9-1.5C288.1,143.3,287.9,143.3,287.8,143.3z"/>
				<path style="fill:#251D15;" d="M208.2,143.4c0-1,0-2.1,0-3.2c5.1,0,10.1,0,15.3,0c0,1.1,0,2.1,0,3.2c-0.1-0.1-0.3-0.2-0.4-0.3
					c-1.2,1-2.3,2.2-3.7,3c-2.2,1.1-1.2,2.8-1.4,4.2c-0.2,1.6-0.7,3.7,0.2,4.6c1.9,1.8,0.1,3.1,0.2,4.6c0.3,2.7,0.8,5.4,1.3,8.1
					c0.5,2.3,1.1,4.6,1.7,6.9c0.8,3.2,0.6,6.2-3.1,8.2c0.5,0.2,0.8,0.4,1.2,0.6c0,0.1,0,0.2-0.1,0.3c-2.5,0-5,0-8,0
					c0.8-0.4,1.2-0.6,1.7-0.8c-4-2.2-3.8-5.3-3.1-8.7c1.1-4.7,2-9.5,2.9-14.2c0.1-0.7-0.5-1.4-0.6-2.1c-0.1-0.5-0.1-1.1,0.1-1.6
					c0.3-0.8,0.9-1.6,1-2.4c0.2-1.6,0-3.1,0.1-4.7c0.1-1.7-0.3-3.1-2.4-3.7c-0.3-0.1-0.5-0.4-0.8-0.6c-0.6-0.5-1.2-0.9-1.8-1.4
					C208.5,143.3,208.3,143.3,208.2,143.4z"/>
				<path style="fill:#251D15;" d="M351.2,182.7c0.4,0.2,0.8,0.4,1.1,0.5c0,0.1,0,0.2-0.1,0.3c-2.5,0-5,0-7.9,0
					c0.7-0.4,1-0.5,1.5-0.8c-4.2-2.3-3.7-5.8-2.9-9.3c1-4.5,2-9.1,2.7-13.6c0.2-0.9-1-2-1-2.9c0.1-0.9,1.3-1.7,1.4-2.7
					c0.2-1.9,0-3.8,0.1-5.7c0.1-1.6-1-2.4-2.3-3.2c-0.3-0.2-0.5-0.4-0.8-0.6c-0.6-0.5-1.3-1-1.9-1.5c-0.1,0.1-0.3,0.2-0.4,0.2
					c0-1.1,0-2.1,0-3.4c2.5,0,5,0,7.5,0c2.5,0,5,0,7.7,0c0,1.2,0,2.2,0,2.9c-1,0.8-1.6,1.3-2.3,1.8c-0.7,0.5-1.4,1.1-2,1.7
					c-0.4,0.4-1,1-1,1.5c-0.1,1.8-0.1,3.6-0.1,5.3c0,1.1,0,2.2,1.2,3c0.3,0.2,0.3,1.1,0.1,1.3c-0.9,0.7-0.9,1.5-0.7,2.4
					c1.1,5.1,2.1,10.2,3.2,15.3C355.1,178.8,354.5,180.2,351.2,182.7z"/>
				<path style="fill:#251D15;" d="M271.5,182.7c0.5,0.3,0.8,0.5,1.5,0.8c-2.9,0-5.5,0-8,0c0-0.1,0-0.2-0.1-0.3
					c0.4-0.1,0.7-0.3,1.3-0.5c-4.2-2.3-3.8-5.6-3-9.1c1.1-4.7,2-9.4,2.9-14.1c0.1-0.5,0-1.1-0.3-1.4c-1.1-0.9-1-1.6,0.1-2.5
					c0.4-0.3,0.6-0.9,0.6-1.4c0.1-1.8,0-3.7,0.1-5.5c0.1-1.7-0.7-2.8-2.4-3.5c-1.1-0.5-1-2.4-3.1-1.6c0-1.3,0-2.4,0-3.6
					c2.6,0,5.1,0,7.6,0c2.5,0,5,0,7.6,0c0,1.2,0,2.2,0,2.8c-1.5,1.1-2.7,2.2-4.1,3c-2.2,1.4-1.3,3.4-1.3,5.1c0,1.8-0.7,3.9,1.5,5.4
					c0.2,0.1,0.1,0.8-0.1,1c-1.2,0.8-1,1.8-0.8,2.8c1,4.9,2,9.8,3.1,14.7C275.4,178.1,274.9,180.7,271.5,182.7z"/>
				<path style="fill:#251D15;" d="M238.5,183.3c0.4-0.1,0.7-0.3,1.3-0.5c-4.2-2.4-3.8-5.7-3-9.2c1.1-4.6,1.9-9.3,2.8-13.9
					c0.1-0.6-0.2-1.4-0.6-1.8c-0.7-0.7-0.6-1.1,0-1.7c0.5-0.6,0.9-1.4,1-2.2c0.2-1.7,0-3.4,0.1-5c0.2-1.7-0.8-2.7-2.4-3.5
					c-0.3-0.2-0.5-0.4-0.8-0.6c-0.6-0.5-1.3-1-1.9-1.5c-0.1,0.1-0.3,0.2-0.4,0.2c0-1.1,0-2.1,0-3.3c5.1,0,10.1,0,15.3,0
					c0,1.1,0,2.2,0,3.2c-0.1-0.1-0.3-0.2-0.4-0.3c-1.2,1-2.3,2.3-3.7,3c-2.2,1.1-1.2,2.8-1.4,4.2c-0.2,1.6,0,3.1,0.1,4.7
					c0,0.2,0.3,0.5,0.5,0.6c1,0.8,1.4,1.5,0.2,2.5c-0.3,0.3-0.4,1-0.3,1.4c1,5.2,2,10.3,3.1,15.5c0.7,3.1,0.2,5.8-3.2,7.7
					c0.5,0.3,0.8,0.5,1.5,0.9c-3,0-5.5,0-8,0C238.5,183.4,238.5,183.4,238.5,183.3z"/>
				<path style="fill:#251D15;" d="M374.7,145.6c1.3,0.1,2.6,0.1,3.6,0.2c-0.4,1-0.9,1.8-0.9,2.7c-0.1,1.7-0.2,3.5,0,5.2
					c0.1,0.9,0.8,1.6,1.1,2.5c0.2,0.5,0.2,1,0.1,1.5c-0.2,0.8-0.8,1.5-0.6,2.3c0.9,5.1,2,10.1,3.1,15.2c0.7,3.1,0.1,5.8-3.2,7.7
					c0.5,0.2,0.8,0.4,1.7,0.9c-3,0-5.5,0-8.4,0c0.7-0.4,1-0.6,1.5-0.9c-4.1-2.2-3.7-5.5-3-9c1-4.6,1.8-9.3,3-13.9
					c0.4-1.6-2.8-3.2,0.2-4.5c0.1-1.8,0.2-3.6,0.2-5.3c0-1.5,0.3-3.1-1.3-4.2c-1.3-0.9-2.6-1.7-4.2-2.8c0-0.6,0-1.7,0-2.9
					c5.1,0,10.1,0,15.3,0c0,1.1,0,2.1,0,2.8c-1,0.8-1.7,1.4-2.6,1.9c-0.6,0.3-1.3,0.6-2,0.6C377.1,145.6,375.9,145.5,374.7,145.6
					C374.7,145.5,374.7,145.6,374.7,145.6z"/>
				<path style="fill:#251D15;" d="M314.3,140.1c5.1,0,10.1,0,15.3,0c0,1.1,0,2.1,0,2.8c-1,0.7-1.7,1.3-2.5,1.8
					c-0.6,0.3-1.3,0.6-1.9,0.7c-1.4,0.1-2.9,0-4.3,0.1c1.6,0.1,3.1,0.1,4.3,0.2c-0.4,0.9-0.9,1.7-1,2.4c-0.1,1.8,0,3.7,0,5.5
					c0,0.3-0.1,0.6,0.1,0.8c0.9,1.5,1.6,2.7,0.5,4.6c-0.8,1.4,0.3,3.6,0.6,5.4c0.3,1.8,0.8,3.5,1.2,5.3c0.4,1.7,0.8,3.5,1.2,5.2
					c0.8,3.1,0.2,5.9-3.2,7.8c0.5,0.2,0.8,0.4,1.2,0.5c0,0.1,0,0.2,0,0.3c-2.5,0-5,0-7.8,0c0.6-0.3,1-0.5,1.5-0.8
					c-4.2-2.2-3.8-5.6-3-9.1c1-4.7,2-9.4,2.9-14.1c0.1-0.6-0.2-1.4-0.6-1.8c-0.7-0.7-0.6-1.1,0-1.7c0.5-0.6,0.9-1.4,1-2.2
					c0.1-1.8-0.1-3.6,0.1-5.3c0.2-1.4-0.9-2.1-1.7-3c-0.5-0.6-1.2-1.1-1.9-1.5c-0.5-0.3-1.2-0.4-1.9-0.6
					C314.3,142.4,314.3,141.3,314.3,140.1z"/>
				<path style="fill:#251D15;" d="M343.1,184.3c3.8,0,7.1,0,10.6,0c-0.6,0.6-0.9,0.9-1.3,1.3c0.9,1.1,1.8,2.2,2.5,3.4
					c0.2,0.3-0.2,1.4-0.3,1.4c-4,0.1-8.1,0.1-12.1,0c-0.2,0-0.8-1-0.6-1.1c0.8-0.7,1.1-1.8,1.7-2.5
					C344.4,185.8,344.8,185.3,343.1,184.3z"/>
				<path style="fill:#251D15;" d="M380.4,184.3c-0.7,0.6-1,1-1.4,1.3c0.9,1.2,1.8,2.2,2.6,3.4c0.6,0.9,0,1.5-1,1.5
					c-3.7,0.1-7.4,0-11,0c-0.4,0-1-0.5-1.1-0.8c-0.1-0.2,0.4-0.7,0.6-1c0.7-1,1.4-1.9,2-3c0.1-0.2-0.5-0.8-1-1.4
					C373.5,184.3,376.7,184.3,380.4,184.3z"/>
				<path style="fill:#251D15;" d="M291.6,185.6c-0.4-0.4-0.8-0.7-1.4-1.3c3.6,0,6.8,0,10.4,0c-1.3,1-1.2,1.6-0.1,2.6
					c0.6,0.5,0.5,1.6,1.5,2.2c0.1,0.1-0.4,1.3-0.6,1.3c-4,0.1-7.9,0.1-11.9,0c-0.2,0-0.7-1-0.5-1.3
					C289.7,187.8,290.7,186.8,291.6,185.6z"/>
				<path style="fill:#251D15;" d="M221.1,184.3c-1.5,1-1.3,1.6-0.3,2.5c0.6,0.6,0.6,1.7,1.6,2.3c-0.4,0.5-0.7,1.3-1.1,1.4
					c-3.7,0.1-7.4,0.1-11,0c-0.4,0-1.1-1.1-1-1.4c0.7-1.2,1.7-2.3,2.6-3.5c-0.4-0.4-0.7-0.8-1.3-1.3
					C214.1,184.3,217.3,184.3,221.1,184.3z"/>
				<path style="fill:#251D15;" d="M265,185.6c-0.4-0.4-0.8-0.8-1.3-1.3c3.6,0,6.8,0,10.5,0c-1.5,1-1.4,1.5-0.4,2.5
					c0.6,0.6,0.8,1.8,1.7,2.4c-0.4,0.4-0.8,1.2-1.2,1.2c-3.7,0.1-7.3,0.1-11,0c-1,0-1.6-0.6-1-1.5C263.1,187.9,264,186.8,265,185.6z
					"/>
				<path style="fill:#251D15;" d="M237.3,184.3c3.4,0,6.6,0,10,0c-0.4,0.6-1.1,1.2-0.9,1.5c0.5,1,1.3,1.9,1.9,2.9
					c0.3,0.4,0.7,0.8,0.6,1.2c0,0.3-0.7,0.7-1,0.7c-3.7,0.1-7.5,0.1-11.2,0c-0.4,0-0.9-0.4-1-0.7c-0.1-0.3,0.2-0.7,0.5-1.1
					c0.7-1,1.5-1.9,2.1-2.9C238.4,185.5,237.7,184.9,237.3,184.3z"/>
				<path style="fill:#251D15;" d="M318.1,185.6c-0.4-0.4-0.7-0.7-1.3-1.3c3.6,0,6.9,0,10.5,0c-1.3,0.9-1.5,1.5-0.3,2.5
					c0.7,0.6,0.7,1.8,1.7,2.4c-0.4,0.4-0.7,1.3-1.1,1.3c-3.7,0.1-7.5,0.1-11.2,0c-0.9,0-1.5-0.6-0.9-1.5
					C316.3,187.9,317.2,186.8,318.1,185.6z"/>
				<path style="fill:#251D15;" d="M287.8,191.1c5.2,0,10.2,0,15.3,0c0,1.1,0,2.2,0,3.4c-5.1,0-10.1,0-15.3,0
					C287.8,193.3,287.8,192.2,287.8,191.1z"/>
				<path style="fill:#251D15;" d="M261.3,191.1c5.1,0,10.1,0,15.2,0c0,1.1,0,2.2,0,3.3c-5.1,0-10.1,0-15.2,0
					C261.3,193.4,261.3,192.3,261.3,191.1z"/>
				<path style="fill:#251D15;" d="M367.4,194.4c0-1.2,0-2.2,0-3.3c5.1,0,10.2,0,15.3,0c0,1.1,0,2.2,0,3.3
					C377.6,194.4,372.6,194.4,367.4,194.4z"/>
				<path style="fill:#251D15;" d="M208.2,194.4c0-1.1,0-2.1,0-3.3c5.1,0,10.1,0,15.3,0c0,1,0,2.1,0,3.3
					C218.4,194.4,213.4,194.4,208.2,194.4z"/>
				<path style="fill:#251D15;" d="M250,191.1c0,1.2,0,2.2,0,3.3c-5.1,0-10.1,0-15.3,0c0-1.1,0-2.2,0-3.3
					C239.8,191.1,244.8,191.1,250,191.1z"/>
				<path style="fill:#251D15;" d="M340.9,191.1c5.1,0,10.1,0,15.3,0c0,1.1,0,2.2,0,3.3c-5.1,0-10.1,0-15.3,0
					C340.9,193.3,340.9,192.3,340.9,191.1z"/>
				<path style="fill:#251D15;" d="M329.5,194.5c-5.1,0-10,0-15.2,0c0-1.1,0-2.1,0-3.3c5,0,10,0,15.2,0
					C329.5,192.2,329.5,193.2,329.5,194.5z"/>
			</g>
			<g>
				<path style="fill:#251D15;" d="M471.9,143.3c0-1,0-2.1,0-3.2c5.1,0,10.1,0,15.3,0c0,1.1,0,2.2,0,3.2c-0.1-0.1-0.3-0.2-0.4-0.3
					c-1.2,1-2.3,2.3-3.7,3c-2.2,1.1-1.2,2.8-1.4,4.2c-0.2,1.6,0,3.1,0.1,4.7c0,0.2,0.3,0.5,0.5,0.6c1,0.8,1.4,1.5,0.2,2.5
					c-0.4,0.3-0.4,1.1-0.3,1.6c1,5.1,2,10.2,3.1,15.3c0.7,3.1,0.2,5.8-3.2,7.7c0.5,0.3,0.8,0.5,1.5,0.9c-3,0-5.5,0-8,0
					c0-0.1,0-0.2-0.1-0.3c0.4-0.2,0.8-0.3,1.3-0.6c-3.3-1.9-3.9-4.6-3.3-7.7c1.1-5.2,2.2-10.3,3.1-15.5c0.1-0.6-0.1-1.4-0.6-1.8
					c-0.8-0.8-0.5-1.2,0.1-1.8c0.5-0.5,0.8-1.3,0.9-1.9c0.1-1.8,0-3.6,0.1-5.3c0.2-1.7-0.9-2.6-2.3-3.3c-0.3-0.2-0.5-0.4-0.8-0.6
					c-0.6-0.5-1.3-1-1.9-1.5C472.2,143.3,472,143.3,471.9,143.3z"/>
				<path style="fill:#251D15;" d="M392.3,143.4c0-1,0-2.1,0-3.2c5.1,0,10.1,0,15.3,0c0,1.1,0,2.1,0,3.2c-0.1-0.1-0.3-0.2-0.4-0.3
					c-1.2,1-2.3,2.2-3.7,3c-2.2,1.1-1.2,2.8-1.4,4.2c-0.2,1.6-0.7,3.7,0.2,4.6c1.9,1.8,0.1,3.1,0.2,4.6c0.3,2.7,0.8,5.4,1.3,8.1
					c0.5,2.3,1.1,4.6,1.7,6.9c0.8,3.2,0.6,6.2-3.1,8.2c0.5,0.2,0.8,0.4,1.2,0.6c0,0.1,0,0.2-0.1,0.3c-2.5,0-5,0-8,0
					c0.8-0.4,1.2-0.6,1.7-0.8c-4-2.2-3.8-5.3-3.1-8.7c1.1-4.7,2-9.5,2.9-14.2c0.1-0.7-0.5-1.4-0.6-2.1c-0.1-0.5-0.1-1.1,0.1-1.6
					c0.3-0.8,0.9-1.6,1-2.4c0.2-1.6,0-3.1,0.1-4.7c0.1-1.7-0.3-3.1-2.4-3.7c-0.3-0.1-0.5-0.4-0.8-0.6c-0.6-0.5-1.2-0.9-1.8-1.4
					C392.6,143.3,392.4,143.3,392.3,143.4z"/>
				<path style="fill:#251D15;" d="M535.3,182.7c0.4,0.2,0.8,0.4,1.1,0.5c0,0.1,0,0.2-0.1,0.3c-2.5,0-5,0-7.9,0
					c0.7-0.4,1-0.5,1.5-0.8c-4.2-2.3-3.7-5.8-2.9-9.3c1-4.5,2-9.1,2.7-13.6c0.2-0.9-1-2-1-2.9c0.1-0.9,1.3-1.7,1.4-2.7
					c0.2-1.9,0-3.8,0.1-5.7c0.1-1.6-1-2.4-2.3-3.2c-0.3-0.2-0.5-0.4-0.8-0.6c-0.6-0.5-1.3-1-1.9-1.5c-0.1,0.1-0.3,0.2-0.4,0.2
					c0-1.1,0-2.1,0-3.4c2.5,0,5,0,7.5,0c2.5,0,5,0,7.7,0c0,1.2,0,2.2,0,2.9c-1,0.8-1.6,1.3-2.3,1.8c-0.7,0.5-1.4,1.1-2,1.7
					c-0.4,0.4-1,1-1,1.5c-0.1,1.8-0.1,3.6-0.1,5.3c0,1.1,0,2.2,1.2,3c0.3,0.2,0.3,1.1,0.1,1.3c-0.9,0.7-0.9,1.5-0.7,2.4
					c1.1,5.1,2.1,10.2,3.2,15.3C539.2,178.8,538.6,180.2,535.3,182.7z"/>
				<path style="fill:#251D15;" d="M455.6,182.7c0.5,0.3,0.8,0.5,1.5,0.8c-2.9,0-5.5,0-8,0c0-0.1,0-0.2-0.1-0.3
					c0.4-0.1,0.7-0.3,1.3-0.5c-4.2-2.3-3.8-5.6-3-9.1c1.1-4.7,2-9.4,2.9-14.1c0.1-0.5,0-1.1-0.3-1.4c-1.1-0.9-1-1.6,0.1-2.5
					c0.4-0.3,0.6-0.9,0.6-1.4c0.1-1.8,0-3.7,0.1-5.5c0.1-1.7-0.7-2.8-2.4-3.5c-1.1-0.5-1-2.4-3.1-1.6c0-1.3,0-2.4,0-3.6
					c2.6,0,5.1,0,7.6,0c2.5,0,5,0,7.6,0c0,1.2,0,2.2,0,2.8c-1.5,1.1-2.7,2.2-4.1,3c-2.2,1.4-1.3,3.4-1.3,5.1c0,1.8-0.7,3.9,1.5,5.4
					c0.2,0.1,0.1,0.8-0.1,1c-1.2,0.8-1,1.8-0.8,2.8c1,4.9,2,9.8,3.1,14.7C459.5,178.1,459,180.7,455.6,182.7z"/>
				<path style="fill:#251D15;" d="M422.6,183.3c0.4-0.1,0.7-0.3,1.3-0.5c-4.2-2.4-3.8-5.7-3-9.2c1.1-4.6,1.9-9.3,2.8-13.9
					c0.1-0.6-0.2-1.4-0.6-1.8c-0.7-0.7-0.6-1.1,0-1.7c0.5-0.6,0.9-1.4,1-2.2c0.2-1.7,0-3.4,0.1-5c0.2-1.7-0.8-2.7-2.4-3.5
					c-0.3-0.2-0.5-0.4-0.8-0.6c-0.6-0.5-1.3-1-1.9-1.5c-0.1,0.1-0.3,0.2-0.4,0.2c0-1.1,0-2.1,0-3.3c5.1,0,10.1,0,15.3,0
					c0,1.1,0,2.2,0,3.2c-0.1-0.1-0.3-0.2-0.4-0.3c-1.2,1-2.3,2.3-3.7,3c-2.2,1.1-1.2,2.8-1.4,4.2c-0.2,1.6,0,3.1,0.1,4.7
					c0,0.2,0.3,0.5,0.5,0.6c1,0.8,1.4,1.5,0.2,2.5c-0.3,0.3-0.4,1-0.3,1.4c1,5.2,2,10.3,3.1,15.5c0.7,3.1,0.2,5.8-3.2,7.7
					c0.5,0.3,0.8,0.5,1.5,0.9c-3,0-5.5,0-8,0C422.6,183.4,422.6,183.4,422.6,183.3z"/>
				<path style="fill:#251D15;" d="M558.8,145.6c1.3,0.1,2.6,0.1,3.6,0.2c-0.4,1-0.9,1.8-0.9,2.7c-0.1,1.7-0.2,3.5,0,5.2
					c0.1,0.9,0.8,1.6,1.1,2.5c0.2,0.5,0.2,1,0.1,1.5c-0.2,0.8-0.8,1.5-0.6,2.3c0.9,5.1,2,10.1,3.1,15.2c0.7,3.1,0.1,5.8-3.2,7.7
					c0.5,0.2,0.8,0.4,1.7,0.9c-3,0-5.5,0-8.4,0c0.7-0.4,1-0.6,1.5-0.9c-4.1-2.2-3.7-5.5-3-9c1-4.6,1.8-9.3,3-13.9
					c0.4-1.6-2.8-3.2,0.2-4.5c0.1-1.8,0.2-3.6,0.2-5.3c0-1.5,0.3-3.1-1.3-4.2c-1.3-0.9-2.6-1.7-4.2-2.8c0-0.6,0-1.7,0-2.9
					c5.1,0,10.1,0,15.3,0c0,1.1,0,2.1,0,2.8c-1,0.8-1.7,1.4-2.6,1.9c-0.6,0.3-1.3,0.6-2,0.6C561.2,145.6,560,145.5,558.8,145.6
					C558.8,145.5,558.8,145.6,558.8,145.6z"/>
				<path style="fill:#251D15;" d="M498.4,140.1c5.1,0,10.1,0,15.3,0c0,1.1,0,2.1,0,2.8c-1,0.7-1.7,1.3-2.5,1.8
					c-0.6,0.3-1.3,0.6-1.9,0.7c-1.4,0.1-2.9,0-4.3,0.1c1.6,0.1,3.1,0.1,4.3,0.2c-0.4,0.9-0.9,1.7-1,2.4c-0.1,1.8,0,3.7,0,5.5
					c0,0.3-0.1,0.6,0.1,0.8c0.9,1.5,1.6,2.7,0.5,4.6c-0.8,1.4,0.3,3.6,0.6,5.4c0.3,1.8,0.8,3.5,1.2,5.3c0.4,1.7,0.8,3.5,1.2,5.2
					c0.8,3.1,0.2,5.9-3.2,7.8c0.5,0.2,0.8,0.4,1.2,0.5c0,0.1,0,0.2,0,0.3c-2.5,0-5,0-7.8,0c0.6-0.3,1-0.5,1.5-0.8
					c-4.2-2.2-3.8-5.6-3-9.1c1-4.7,2-9.4,2.9-14.1c0.1-0.6-0.2-1.4-0.6-1.8c-0.7-0.7-0.6-1.1,0-1.7c0.5-0.6,0.9-1.4,1-2.2
					c0.1-1.8-0.1-3.6,0.1-5.3c0.2-1.4-0.9-2.1-1.7-3c-0.5-0.6-1.2-1.1-1.9-1.5c-0.5-0.3-1.2-0.4-1.9-0.6
					C498.4,142.4,498.4,141.3,498.4,140.1z"/>
				<path style="fill:#251D15;" d="M527.2,184.3c3.8,0,7.1,0,10.6,0c-0.6,0.6-0.9,0.9-1.3,1.3c0.9,1.1,1.8,2.2,2.5,3.4
					c0.2,0.3-0.2,1.4-0.3,1.4c-4,0.1-8.1,0.1-12.1,0c-0.2,0-0.8-1-0.6-1.1c0.8-0.7,1.1-1.8,1.7-2.5
					C528.5,185.8,528.9,185.3,527.2,184.3z"/>
				<path style="fill:#251D15;" d="M564.5,184.3c-0.7,0.6-1,1-1.4,1.3c0.9,1.2,1.8,2.2,2.6,3.4c0.6,0.9,0,1.5-1,1.5
					c-3.7,0.1-7.4,0-11,0c-0.4,0-1-0.5-1.1-0.8c-0.1-0.2,0.4-0.7,0.6-1c0.7-1,1.4-1.9,2-3c0.1-0.2-0.5-0.8-1-1.4
					C557.6,184.3,560.8,184.3,564.5,184.3z"/>
				<path style="fill:#251D15;" d="M475.7,185.6c-0.4-0.4-0.8-0.7-1.4-1.3c3.6,0,6.8,0,10.4,0c-1.3,1-1.2,1.6-0.1,2.6
					c0.6,0.5,0.5,1.6,1.5,2.2c0.1,0.1-0.4,1.3-0.6,1.3c-4,0.1-7.9,0.1-11.9,0c-0.2,0-0.7-1-0.5-1.3
					C473.8,187.8,474.8,186.8,475.7,185.6z"/>
				<path style="fill:#251D15;" d="M405.2,184.3c-1.5,1-1.3,1.6-0.3,2.5c0.6,0.6,0.6,1.7,1.6,2.3c-0.4,0.5-0.7,1.3-1.1,1.4
					c-3.7,0.1-7.4,0.1-11,0c-0.4,0-1.1-1.1-1-1.4c0.7-1.2,1.7-2.3,2.6-3.5c-0.4-0.4-0.7-0.8-1.3-1.3
					C398.2,184.3,401.4,184.3,405.2,184.3z"/>
				<path style="fill:#251D15;" d="M449.1,185.6c-0.4-0.4-0.8-0.8-1.3-1.3c3.6,0,6.8,0,10.5,0c-1.5,1-1.4,1.5-0.4,2.5
					c0.6,0.6,0.8,1.8,1.7,2.4c-0.4,0.4-0.8,1.2-1.2,1.2c-3.7,0.1-7.3,0.1-11,0c-1,0-1.6-0.6-1-1.5
					C447.2,187.9,448.1,186.8,449.1,185.6z"/>
				<path style="fill:#251D15;" d="M421.4,184.3c3.4,0,6.6,0,10,0c-0.4,0.6-1.1,1.2-0.9,1.5c0.5,1,1.3,1.9,1.9,2.9
					c0.3,0.4,0.7,0.8,0.6,1.2c0,0.3-0.7,0.7-1,0.7c-3.7,0.1-7.5,0.1-11.2,0c-0.4,0-0.9-0.4-1-0.7c-0.1-0.3,0.2-0.7,0.5-1.1
					c0.7-1,1.5-1.9,2.1-2.9C422.5,185.5,421.8,184.9,421.4,184.3z"/>
				<path style="fill:#251D15;" d="M502.2,185.6c-0.4-0.4-0.7-0.7-1.3-1.3c3.6,0,6.9,0,10.5,0c-1.3,0.9-1.5,1.5-0.3,2.5
					c0.7,0.6,0.7,1.8,1.7,2.4c-0.4,0.4-0.7,1.3-1.1,1.3c-3.7,0.1-7.5,0.1-11.2,0c-0.9,0-1.5-0.6-0.9-1.5
					C500.4,187.9,501.3,186.8,502.2,185.6z"/>
				<path style="fill:#251D15;" d="M471.9,191.1c5.2,0,10.2,0,15.3,0c0,1.1,0,2.2,0,3.4c-5.1,0-10.1,0-15.3,0
					C471.9,193.3,471.9,192.2,471.9,191.1z"/>
				<path style="fill:#251D15;" d="M445.4,191.1c5.1,0,10.1,0,15.2,0c0,1.1,0,2.2,0,3.3c-5.1,0-10.1,0-15.2,0
					C445.4,193.4,445.4,192.3,445.4,191.1z"/>
				<path style="fill:#251D15;" d="M551.5,194.4c0-1.2,0-2.2,0-3.3c5.1,0,10.2,0,15.3,0c0,1.1,0,2.2,0,3.3
					C561.7,194.4,556.7,194.4,551.5,194.4z"/>
				<path style="fill:#251D15;" d="M392.3,194.4c0-1.1,0-2.1,0-3.3c5.1,0,10.1,0,15.3,0c0,1,0,2.1,0,3.3
					C402.5,194.4,397.5,194.4,392.3,194.4z"/>
				<path style="fill:#251D15;" d="M434.1,191.1c0,1.2,0,2.2,0,3.3c-5.1,0-10.1,0-15.3,0c0-1.1,0-2.2,0-3.3
					C423.9,191.1,428.9,191.1,434.1,191.1z"/>
				<path style="fill:#251D15;" d="M525,191.1c5.1,0,10.1,0,15.3,0c0,1.1,0,2.2,0,3.3c-5.1,0-10.1,0-15.3,0
					C525,193.3,525,192.3,525,191.1z"/>
				<path style="fill:#251D15;" d="M513.7,194.5c-5.1,0-10,0-15.2,0c0-1.1,0-2.1,0-3.3c5,0,10,0,15.2,0
					C513.7,192.2,513.7,193.2,513.7,194.5z"/>
			</g>
			<g>
				<path style="fill:#251D15;" d="M656.4,143.3c0-1,0-2.1,0-3.2c5.1,0,10.1,0,15.3,0c0,1.1,0,2.2,0,3.2c-0.1-0.1-0.3-0.2-0.4-0.3
					c-1.2,1-2.3,2.3-3.7,3c-2.2,1.1-1.2,2.8-1.4,4.2c-0.2,1.6,0,3.1,0.1,4.7c0,0.2,0.3,0.5,0.5,0.6c1,0.8,1.4,1.5,0.2,2.5
					c-0.4,0.3-0.4,1.1-0.3,1.6c1,5.1,2,10.2,3.1,15.3c0.7,3.1,0.2,5.8-3.2,7.7c0.5,0.3,0.8,0.5,1.5,0.9c-3,0-5.5,0-8,0
					c0-0.1,0-0.2-0.1-0.3c0.4-0.2,0.8-0.3,1.3-0.6c-3.3-1.9-3.9-4.6-3.3-7.7c1.1-5.2,2.2-10.3,3.1-15.5c0.1-0.6-0.1-1.4-0.6-1.8
					c-0.8-0.8-0.5-1.2,0.1-1.8c0.5-0.5,0.8-1.3,0.9-1.9c0.1-1.8,0-3.6,0.1-5.3c0.2-1.7-0.9-2.6-2.3-3.3c-0.3-0.2-0.5-0.4-0.8-0.6
					c-0.6-0.5-1.3-1-1.9-1.5C656.7,143.3,656.6,143.3,656.4,143.3z"/>
				<path style="fill:#251D15;" d="M576.8,143.4c0-1,0-2.1,0-3.2c5.1,0,10.1,0,15.3,0c0,1.1,0,2.1,0,3.2c-0.1-0.1-0.3-0.2-0.4-0.3
					c-1.2,1-2.3,2.2-3.7,3c-2.2,1.1-1.2,2.8-1.4,4.2c-0.2,1.6-0.7,3.7,0.2,4.6c1.9,1.8,0.1,3.1,0.2,4.6c0.3,2.7,0.8,5.4,1.3,8.1
					c0.5,2.3,1.1,4.6,1.7,6.9c0.8,3.2,0.6,6.2-3.1,8.2c0.5,0.2,0.8,0.4,1.2,0.6c0,0.1,0,0.2-0.1,0.3c-2.5,0-5,0-8,0
					c0.8-0.4,1.2-0.6,1.7-0.8c-4-2.2-3.8-5.3-3.1-8.7c1.1-4.7,2-9.5,2.9-14.2c0.1-0.7-0.5-1.4-0.6-2.1c-0.1-0.5-0.1-1.1,0.1-1.6
					c0.3-0.8,0.9-1.6,1-2.4c0.2-1.6,0-3.1,0.1-4.7c0.1-1.7-0.3-3.1-2.4-3.7c-0.3-0.1-0.5-0.4-0.8-0.6c-0.6-0.5-1.2-0.9-1.8-1.4
					C577.1,143.3,577,143.3,576.8,143.4z"/>
				<path style="fill:#251D15;" d="M719.9,182.7c0.4,0.2,0.8,0.4,1.1,0.5c0,0.1,0,0.2-0.1,0.3c-2.5,0-5,0-7.9,0
					c0.7-0.4,1-0.5,1.5-0.8c-4.2-2.3-3.7-5.8-2.9-9.3c1-4.5,2-9.1,2.7-13.6c0.2-0.9-1-2-1-2.9c0.1-0.9,1.3-1.7,1.4-2.7
					c0.2-1.9,0-3.8,0.1-5.7c0.1-1.6-1-2.4-2.3-3.2c-0.3-0.2-0.5-0.4-0.8-0.6c-0.6-0.5-1.3-1-1.9-1.5c-0.1,0.1-0.3,0.2-0.4,0.2
					c0-1.1,0-2.1,0-3.4c2.5,0,5,0,7.5,0c2.5,0,5,0,7.7,0c0,1.2,0,2.2,0,2.9c-1,0.8-1.6,1.3-2.3,1.8c-0.7,0.5-1.4,1.1-2,1.7
					c-0.4,0.4-1,1-1,1.5c-0.1,1.8-0.1,3.6-0.1,5.3c0,1.1,0,2.2,1.2,3c0.3,0.2,0.3,1.1,0.1,1.3c-0.9,0.7-0.9,1.5-0.7,2.4
					c1.1,5.1,2.1,10.2,3.2,15.3C723.7,178.8,723.1,180.2,719.9,182.7z"/>
				<path style="fill:#251D15;" d="M640.2,182.7c0.5,0.3,0.8,0.5,1.5,0.8c-2.9,0-5.5,0-8,0c0-0.1,0-0.2-0.1-0.3
					c0.4-0.1,0.7-0.3,1.3-0.5c-4.2-2.3-3.8-5.6-3-9.1c1.1-4.7,2-9.4,2.9-14.1c0.1-0.5,0-1.1-0.3-1.4c-1.1-0.9-1-1.6,0.1-2.5
					c0.4-0.3,0.6-0.9,0.6-1.4c0.1-1.8,0-3.7,0.1-5.5c0.1-1.7-0.7-2.8-2.4-3.5c-1.1-0.5-1-2.4-3.1-1.6c0-1.3,0-2.4,0-3.6
					c2.6,0,5.1,0,7.6,0c2.5,0,5,0,7.6,0c0,1.2,0,2.2,0,2.8c-1.5,1.1-2.7,2.2-4.1,3c-2.2,1.4-1.3,3.4-1.3,5.1c0,1.8-0.7,3.9,1.5,5.4
					c0.2,0.1,0.1,0.8-0.1,1c-1.2,0.8-1,1.8-0.8,2.8c1,4.9,2,9.8,3.1,14.7C644,178.1,643.5,180.7,640.2,182.7z"/>
				<path style="fill:#251D15;" d="M607.1,183.3c0.4-0.1,0.7-0.3,1.3-0.5c-4.2-2.4-3.8-5.7-3-9.2c1.1-4.6,1.9-9.3,2.8-13.9
					c0.1-0.6-0.2-1.4-0.6-1.8c-0.7-0.7-0.6-1.1,0-1.7c0.5-0.6,0.9-1.4,1-2.2c0.2-1.7,0-3.4,0.1-5c0.2-1.7-0.8-2.7-2.4-3.5
					c-0.3-0.2-0.5-0.4-0.8-0.6c-0.6-0.5-1.3-1-1.9-1.5c-0.1,0.1-0.3,0.2-0.4,0.2c0-1.1,0-2.1,0-3.3c5.1,0,10.1,0,15.3,0
					c0,1.1,0,2.2,0,3.2c-0.1-0.1-0.3-0.2-0.4-0.3c-1.2,1-2.3,2.3-3.7,3c-2.2,1.1-1.2,2.8-1.4,4.2c-0.2,1.6,0,3.1,0.1,4.7
					c0,0.2,0.3,0.5,0.5,0.6c1,0.8,1.4,1.5,0.2,2.5c-0.3,0.3-0.4,1-0.3,1.4c1,5.2,2,10.3,3.1,15.5c0.7,3.1,0.2,5.8-3.2,7.7
					c0.5,0.3,0.8,0.5,1.5,0.9c-3,0-5.5,0-8,0C607.2,183.4,607.1,183.4,607.1,183.3z"/>
				<path style="fill:#251D15;" d="M743.4,145.6c1.3,0.1,2.6,0.1,3.6,0.2c-0.4,1-0.9,1.8-0.9,2.7c-0.1,1.7-0.2,3.5,0,5.2
					c0.1,0.9,0.8,1.6,1.1,2.5c0.2,0.5,0.2,1,0.1,1.5c-0.2,0.8-0.8,1.5-0.6,2.3c0.9,5.1,2,10.1,3.1,15.2c0.7,3.1,0.1,5.8-3.2,7.7
					c0.5,0.2,0.8,0.4,1.7,0.9c-3,0-5.5,0-8.4,0c0.7-0.4,1-0.6,1.5-0.9c-4.1-2.2-3.7-5.5-3-9c1-4.6,1.8-9.3,3-13.9
					c0.4-1.6-2.8-3.2,0.2-4.5c0.1-1.8,0.2-3.6,0.2-5.3c0-1.5,0.3-3.1-1.3-4.2c-1.3-0.9-2.6-1.7-4.2-2.8c0-0.6,0-1.7,0-2.9
					c5.1,0,10.1,0,15.3,0c0,1.1,0,2.1,0,2.8c-1,0.8-1.7,1.4-2.6,1.9c-0.6,0.3-1.3,0.6-2,0.6C745.7,145.6,744.5,145.5,743.4,145.6
					C743.4,145.5,743.4,145.6,743.4,145.6z"/>
				<path style="fill:#251D15;" d="M683,140.1c5.1,0,10.1,0,15.3,0c0,1.1,0,2.1,0,2.8c-1,0.7-1.7,1.3-2.5,1.8
					c-0.6,0.3-1.3,0.6-1.9,0.7c-1.4,0.1-2.9,0-4.3,0.1c1.6,0.1,3.1,0.1,4.3,0.2c-0.4,0.9-0.9,1.7-1,2.4c-0.1,1.8,0,3.7,0,5.5
					c0,0.3-0.1,0.6,0.1,0.8c0.9,1.5,1.6,2.7,0.5,4.6c-0.8,1.4,0.3,3.6,0.6,5.4c0.3,1.8,0.8,3.5,1.2,5.3c0.4,1.7,0.8,3.5,1.2,5.2
					c0.8,3.1,0.2,5.9-3.2,7.8c0.5,0.2,0.8,0.4,1.2,0.5c0,0.1,0,0.2,0,0.3c-2.5,0-5,0-7.8,0c0.6-0.3,1-0.5,1.5-0.8
					c-4.2-2.2-3.8-5.6-3-9.1c1-4.7,2-9.4,2.9-14.1c0.1-0.6-0.2-1.4-0.6-1.8c-0.7-0.7-0.6-1.1,0-1.7c0.5-0.6,0.9-1.4,1-2.2
					c0.1-1.8-0.1-3.6,0.1-5.3c0.2-1.4-0.9-2.1-1.7-3c-0.5-0.6-1.2-1.1-1.9-1.5c-0.5-0.3-1.2-0.4-1.9-0.6
					C683,142.4,683,141.3,683,140.1z"/>
				<path style="fill:#251D15;" d="M711.8,184.3c3.8,0,7.1,0,10.6,0c-0.6,0.6-0.9,0.9-1.3,1.3c0.9,1.1,1.8,2.2,2.5,3.4
					c0.2,0.3-0.2,1.4-0.3,1.4c-4,0.1-8.1,0.1-12.1,0c-0.2,0-0.8-1-0.6-1.1c0.8-0.7,1.1-1.8,1.7-2.5
					C713,185.8,713.5,185.3,711.8,184.3z"/>
				<path style="fill:#251D15;" d="M749.1,184.3c-0.7,0.6-1,1-1.4,1.3c0.9,1.2,1.8,2.2,2.6,3.4c0.6,0.9,0,1.5-1,1.5
					c-3.7,0.1-7.4,0-11,0c-0.4,0-1-0.5-1.1-0.8c-0.1-0.2,0.4-0.7,0.6-1c0.7-1,1.4-1.9,2-3c0.1-0.2-0.5-0.8-1-1.4
					C742.1,184.3,745.4,184.3,749.1,184.3z"/>
				<path style="fill:#251D15;" d="M660.2,185.6c-0.4-0.4-0.8-0.7-1.4-1.3c3.6,0,6.8,0,10.4,0c-1.3,1-1.2,1.6-0.1,2.6
					c0.6,0.5,0.5,1.6,1.5,2.2c0.1,0.1-0.4,1.3-0.6,1.3c-4,0.1-7.9,0.1-11.9,0c-0.2,0-0.7-1-0.5-1.3
					C658.4,187.8,659.3,186.8,660.2,185.6z"/>
				<path style="fill:#251D15;" d="M589.8,184.3c-1.5,1-1.3,1.6-0.3,2.5c0.6,0.6,0.6,1.7,1.6,2.3c-0.4,0.5-0.7,1.3-1.1,1.4
					c-3.7,0.1-7.4,0.1-11,0c-0.4,0-1.1-1.1-1-1.4c0.7-1.2,1.7-2.3,2.6-3.5c-0.4-0.4-0.7-0.8-1.3-1.3
					C582.8,184.3,586,184.3,589.8,184.3z"/>
				<path style="fill:#251D15;" d="M633.6,185.6c-0.4-0.4-0.8-0.8-1.3-1.3c3.6,0,6.8,0,10.5,0c-1.5,1-1.4,1.5-0.4,2.5
					c0.6,0.6,0.8,1.8,1.7,2.4c-0.4,0.4-0.8,1.2-1.2,1.2c-3.7,0.1-7.3,0.1-11,0c-1,0-1.6-0.6-1-1.5
					C631.8,187.9,632.7,186.8,633.6,185.6z"/>
				<path style="fill:#251D15;" d="M606,184.3c3.4,0,6.6,0,10,0c-0.4,0.6-1.1,1.2-0.9,1.5c0.5,1,1.3,1.9,1.9,2.9
					c0.3,0.4,0.7,0.8,0.6,1.2c0,0.3-0.7,0.7-1,0.7c-3.7,0.1-7.5,0.1-11.2,0c-0.4,0-0.9-0.4-1-0.7c-0.1-0.3,0.2-0.7,0.5-1.1
					c0.7-1,1.5-1.9,2.1-2.9C607,185.5,606.4,184.9,606,184.3z"/>
				<path style="fill:#251D15;" d="M686.7,185.6c-0.4-0.4-0.7-0.7-1.3-1.3c3.6,0,6.9,0,10.5,0c-1.3,0.9-1.5,1.5-0.3,2.5
					c0.7,0.6,0.7,1.8,1.7,2.4c-0.4,0.4-0.7,1.3-1.1,1.3c-3.7,0.1-7.5,0.1-11.2,0c-0.9,0-1.5-0.6-0.9-1.5
					C684.9,187.9,685.8,186.8,686.7,185.6z"/>
				<path style="fill:#251D15;" d="M656.5,191.1c5.2,0,10.2,0,15.3,0c0,1.1,0,2.2,0,3.4c-5.1,0-10.1,0-15.3,0
					C656.5,193.3,656.5,192.2,656.5,191.1z"/>
				<path style="fill:#251D15;" d="M629.9,191.1c5.1,0,10.1,0,15.2,0c0,1.1,0,2.2,0,3.3c-5.1,0-10.1,0-15.2,0
					C629.9,193.4,629.9,192.3,629.9,191.1z"/>
				<path style="fill:#251D15;" d="M736.1,194.4c0-1.2,0-2.2,0-3.3c5.1,0,10.2,0,15.3,0c0,1.1,0,2.2,0,3.3
					C746.3,194.4,741.3,194.4,736.1,194.4z"/>
				<path style="fill:#251D15;" d="M576.8,194.4c0-1.1,0-2.1,0-3.3c5.1,0,10.1,0,15.3,0c0,1,0,2.1,0,3.3
					C587.1,194.4,582.1,194.4,576.8,194.4z"/>
				<path style="fill:#251D15;" d="M618.7,191.1c0,1.2,0,2.2,0,3.3c-5.1,0-10.1,0-15.3,0c0-1.1,0-2.2,0-3.3
					C608.5,191.1,613.5,191.1,618.7,191.1z"/>
				<path style="fill:#251D15;" d="M709.5,191.1c5.1,0,10.1,0,15.3,0c0,1.1,0,2.2,0,3.3c-5.1,0-10.1,0-15.3,0
					C709.5,193.3,709.5,192.3,709.5,191.1z"/>
				<path style="fill:#251D15;" d="M698.2,194.5c-5.1,0-10,0-15.2,0c0-1.1,0-2.1,0-3.3c5,0,10,0,15.2,0
					C698.2,192.2,698.2,193.2,698.2,194.5z"/>
			</g>
			<g>
				<path style="fill:#251D15;" d="M842.2,143.3c0-1,0-2.1,0-3.2c5.1,0,10.1,0,15.3,0c0,1.1,0,2.2,0,3.2c-0.1-0.1-0.3-0.2-0.4-0.3
					c-1.2,1-2.3,2.3-3.7,3c-2.2,1.1-1.2,2.8-1.4,4.2c-0.2,1.6,0,3.1,0.1,4.7c0,0.2,0.3,0.5,0.5,0.6c1,0.8,1.4,1.5,0.2,2.5
					c-0.4,0.3-0.4,1.1-0.3,1.6c1,5.1,2,10.2,3.1,15.3c0.7,3.1,0.2,5.8-3.2,7.7c0.5,0.3,0.8,0.5,1.5,0.9c-3,0-5.5,0-8,0
					c0-0.1,0-0.2-0.1-0.3c0.4-0.2,0.8-0.3,1.3-0.6c-3.3-1.9-3.9-4.6-3.3-7.7c1.1-5.2,2.2-10.3,3.1-15.5c0.1-0.6-0.1-1.4-0.6-1.8
					c-0.8-0.8-0.5-1.2,0.1-1.8c0.5-0.5,0.8-1.3,0.9-1.9c0.1-1.8,0-3.6,0.1-5.3c0.2-1.7-0.9-2.6-2.3-3.3c-0.3-0.2-0.5-0.4-0.8-0.6
					c-0.6-0.5-1.3-1-1.9-1.5C842.5,143.3,842.4,143.3,842.2,143.3z"/>
				<path style="fill:#251D15;" d="M762.6,143.4c0-1,0-2.1,0-3.2c5.1,0,10.1,0,15.3,0c0,1.1,0,2.1,0,3.2c-0.1-0.1-0.3-0.2-0.4-0.3
					c-1.2,1-2.3,2.2-3.7,3c-2.2,1.1-1.2,2.8-1.4,4.2c-0.2,1.6-0.7,3.7,0.2,4.6c1.9,1.8,0.1,3.1,0.2,4.6c0.3,2.7,0.8,5.4,1.3,8.1
					c0.5,2.3,1.1,4.6,1.7,6.9c0.8,3.2,0.6,6.2-3.1,8.2c0.5,0.2,0.8,0.4,1.2,0.6c0,0.1,0,0.2-0.1,0.3c-2.5,0-5,0-8,0
					c0.8-0.4,1.2-0.6,1.7-0.8c-4-2.2-3.8-5.3-3.1-8.7c1.1-4.7,2-9.5,2.9-14.2c0.1-0.7-0.5-1.4-0.6-2.1c-0.1-0.5-0.1-1.1,0.1-1.6
					c0.3-0.8,0.9-1.6,1-2.4c0.2-1.6,0-3.1,0.1-4.7c0.1-1.7-0.3-3.1-2.4-3.7c-0.3-0.1-0.5-0.4-0.8-0.6c-0.6-0.5-1.2-0.9-1.8-1.4
					C762.9,143.3,762.8,143.3,762.6,143.4z"/>
				<path style="fill:#251D15;" d="M905.6,182.7c0.4,0.2,0.8,0.4,1.1,0.5c0,0.1,0,0.2-0.1,0.3c-2.5,0-5,0-7.9,0
					c0.7-0.4,1-0.5,1.5-0.8c-4.2-2.3-3.7-5.8-2.9-9.3c1-4.5,2-9.1,2.7-13.6c0.2-0.9-1-2-1-2.9c0.1-0.9,1.3-1.7,1.4-2.7
					c0.2-1.9,0-3.8,0.1-5.7c0.1-1.6-1-2.4-2.3-3.2c-0.3-0.2-0.5-0.4-0.8-0.6c-0.6-0.5-1.3-1-1.9-1.5c-0.1,0.1-0.3,0.2-0.4,0.2
					c0-1.1,0-2.1,0-3.4c2.5,0,5,0,7.5,0c2.5,0,5,0,7.7,0c0,1.2,0,2.2,0,2.9c-1,0.8-1.6,1.3-2.3,1.8c-0.7,0.5-1.4,1.1-2,1.7
					c-0.4,0.4-1,1-1,1.5c-0.1,1.8-0.1,3.6-0.1,5.3c0,1.1,0,2.2,1.2,3c0.3,0.2,0.3,1.1,0.1,1.3c-0.9,0.7-0.9,1.5-0.7,2.4
					c1.1,5.1,2.1,10.2,3.2,15.3C909.5,178.8,908.9,180.2,905.6,182.7z"/>
				<path style="fill:#251D15;" d="M826,182.7c0.5,0.3,0.8,0.5,1.5,0.8c-2.9,0-5.5,0-8,0c0-0.1,0-0.2-0.1-0.3
					c0.4-0.1,0.7-0.3,1.3-0.5c-4.2-2.3-3.8-5.6-3-9.1c1.1-4.7,2-9.4,2.9-14.1c0.1-0.5,0-1.1-0.3-1.4c-1.1-0.9-1-1.6,0.1-2.5
					c0.4-0.3,0.6-0.9,0.6-1.4c0.1-1.8,0-3.7,0.1-5.5c0.1-1.7-0.7-2.8-2.4-3.5c-1.1-0.5-1-2.4-3.1-1.6c0-1.3,0-2.4,0-3.6
					c2.6,0,5.1,0,7.6,0c2.5,0,5,0,7.6,0c0,1.2,0,2.2,0,2.8c-1.5,1.1-2.7,2.2-4.1,3c-2.2,1.4-1.3,3.4-1.3,5.1c0,1.8-0.7,3.9,1.5,5.4
					c0.2,0.1,0.1,0.8-0.1,1c-1.2,0.8-1,1.8-0.8,2.8c1,4.9,2,9.8,3.1,14.7C829.8,178.1,829.3,180.7,826,182.7z"/>
				<path style="fill:#251D15;" d="M792.9,183.3c0.4-0.1,0.7-0.3,1.3-0.5c-4.2-2.4-3.8-5.7-3-9.2c1.1-4.6,1.9-9.3,2.8-13.9
					c0.1-0.6-0.2-1.4-0.6-1.8c-0.7-0.7-0.6-1.1,0-1.7c0.5-0.6,0.9-1.4,1-2.2c0.2-1.7,0-3.4,0.1-5c0.2-1.7-0.8-2.7-2.4-3.5
					c-0.3-0.2-0.5-0.4-0.8-0.6c-0.6-0.5-1.3-1-1.9-1.5c-0.1,0.1-0.3,0.2-0.4,0.2c0-1.1,0-2.1,0-3.3c5.1,0,10.1,0,15.3,0
					c0,1.1,0,2.2,0,3.2c-0.1-0.1-0.3-0.2-0.4-0.3c-1.2,1-2.3,2.3-3.7,3c-2.2,1.1-1.2,2.8-1.4,4.2c-0.2,1.6,0,3.1,0.1,4.7
					c0,0.2,0.3,0.5,0.5,0.6c1,0.8,1.4,1.5,0.2,2.5c-0.3,0.3-0.4,1-0.3,1.4c1,5.2,2,10.3,3.1,15.5c0.7,3.1,0.2,5.8-3.2,7.7
					c0.5,0.3,0.8,0.5,1.5,0.9c-3,0-5.5,0-8,0C792.9,183.4,792.9,183.4,792.9,183.3z"/>
				<path style="fill:#251D15;" d="M929.1,145.6c1.3,0.1,2.6,0.1,3.6,0.2c-0.4,1-0.9,1.8-0.9,2.7c-0.1,1.7-0.2,3.5,0,5.2
					c0.1,0.9,0.8,1.6,1.1,2.5c0.2,0.5,0.2,1,0.1,1.5c-0.2,0.8-0.8,1.5-0.6,2.3c0.9,5.1,2,10.1,3.1,15.2c0.7,3.1,0.1,5.8-3.2,7.7
					c0.5,0.2,0.8,0.4,1.7,0.9c-3,0-5.5,0-8.4,0c0.7-0.4,1-0.6,1.5-0.9c-4.1-2.2-3.7-5.5-3-9c1-4.6,1.8-9.3,3-13.9
					c0.4-1.6-2.8-3.2,0.2-4.5c0.1-1.8,0.2-3.6,0.2-5.3c0-1.5,0.3-3.1-1.3-4.2c-1.3-0.9-2.6-1.7-4.2-2.8c0-0.6,0-1.7,0-2.9
					c5.1,0,10.1,0,15.3,0c0,1.1,0,2.1,0,2.8c-1,0.8-1.7,1.4-2.6,1.9c-0.6,0.3-1.3,0.6-2,0.6C931.5,145.6,930.3,145.5,929.1,145.6
					C929.2,145.5,929.1,145.6,929.1,145.6z"/>
				<path style="fill:#251D15;" d="M868.8,140.1c5.1,0,10.1,0,15.3,0c0,1.1,0,2.1,0,2.8c-1,0.7-1.7,1.3-2.5,1.8
					c-0.6,0.3-1.3,0.6-1.9,0.7c-1.4,0.1-2.9,0-4.3,0.1c1.6,0.1,3.1,0.1,4.3,0.2c-0.4,0.9-0.9,1.7-1,2.4c-0.1,1.8,0,3.7,0,5.5
					c0,0.3-0.1,0.6,0.1,0.8c0.9,1.5,1.6,2.7,0.5,4.6c-0.8,1.4,0.3,3.6,0.6,5.4c0.3,1.8,0.8,3.5,1.2,5.3c0.4,1.7,0.8,3.5,1.2,5.2
					c0.8,3.1,0.2,5.9-3.2,7.8c0.5,0.2,0.8,0.4,1.2,0.5c0,0.1,0,0.2,0,0.3c-2.5,0-5,0-7.8,0c0.6-0.3,1-0.5,1.5-0.8
					c-4.2-2.2-3.8-5.6-3-9.1c1-4.7,2-9.4,2.9-14.1c0.1-0.6-0.2-1.4-0.6-1.8c-0.7-0.7-0.6-1.1,0-1.7c0.5-0.6,0.9-1.4,1-2.2
					c0.1-1.8-0.1-3.6,0.1-5.3c0.2-1.4-0.9-2.1-1.7-3c-0.5-0.6-1.2-1.1-1.9-1.5c-0.5-0.3-1.2-0.4-1.9-0.6
					C868.8,142.4,868.8,141.3,868.8,140.1z"/>
				<path style="fill:#251D15;" d="M897.6,184.3c3.8,0,7.1,0,10.6,0c-0.6,0.6-0.9,0.9-1.3,1.3c0.9,1.1,1.8,2.2,2.5,3.4
					c0.2,0.3-0.2,1.4-0.3,1.4c-4,0.1-8.1,0.1-12.1,0c-0.2,0-0.8-1-0.6-1.1c0.8-0.7,1.1-1.8,1.7-2.5
					C898.8,185.8,899.3,185.3,897.6,184.3z"/>
				<path style="fill:#251D15;" d="M934.9,184.3c-0.7,0.6-1,1-1.4,1.3c0.9,1.2,1.8,2.2,2.6,3.4c0.6,0.9,0,1.5-1,1.5
					c-3.7,0.1-7.4,0-11,0c-0.4,0-1-0.5-1.1-0.8c-0.1-0.2,0.4-0.7,0.6-1c0.7-1,1.4-1.9,2-3c0.1-0.2-0.5-0.8-1-1.4
					C927.9,184.3,931.2,184.3,934.9,184.3z"/>
				<path style="fill:#251D15;" d="M846,185.6c-0.4-0.4-0.8-0.7-1.4-1.3c3.6,0,6.8,0,10.4,0c-1.3,1-1.2,1.6-0.1,2.6
					c0.6,0.5,0.5,1.6,1.5,2.2c0.1,0.1-0.4,1.3-0.6,1.3c-4,0.1-7.9,0.1-11.9,0c-0.2,0-0.7-1-0.5-1.3
					C844.1,187.8,845.1,186.8,846,185.6z"/>
				<path style="fill:#251D15;" d="M775.5,184.3c-1.5,1-1.3,1.6-0.3,2.5c0.6,0.6,0.6,1.7,1.6,2.3c-0.4,0.5-0.7,1.3-1.1,1.4
					c-3.7,0.1-7.4,0.1-11,0c-0.4,0-1.1-1.1-1-1.4c0.7-1.2,1.7-2.3,2.6-3.5c-0.4-0.4-0.7-0.8-1.3-1.3
					C768.5,184.3,771.8,184.3,775.5,184.3z"/>
				<path style="fill:#251D15;" d="M819.4,185.6c-0.4-0.4-0.8-0.8-1.3-1.3c3.6,0,6.8,0,10.5,0c-1.5,1-1.4,1.5-0.4,2.5
					c0.6,0.6,0.8,1.8,1.7,2.4c-0.4,0.4-0.8,1.2-1.2,1.2c-3.7,0.1-7.3,0.1-11,0c-1,0-1.6-0.6-1-1.5
					C817.6,187.9,818.5,186.8,819.4,185.6z"/>
				<path style="fill:#251D15;" d="M791.8,184.3c3.4,0,6.6,0,10,0c-0.4,0.6-1.1,1.2-0.9,1.5c0.5,1,1.3,1.9,1.9,2.9
					c0.3,0.4,0.7,0.8,0.6,1.2c0,0.3-0.7,0.7-1,0.7c-3.7,0.1-7.5,0.1-11.2,0c-0.4,0-0.9-0.4-1-0.7c-0.1-0.3,0.2-0.7,0.5-1.1
					c0.7-1,1.5-1.9,2.1-2.9C792.8,185.5,792.1,184.9,791.8,184.3z"/>
				<path style="fill:#251D15;" d="M872.5,185.6c-0.4-0.4-0.7-0.7-1.3-1.3c3.6,0,6.9,0,10.5,0c-1.3,0.9-1.5,1.5-0.3,2.5
					c0.7,0.6,0.7,1.8,1.7,2.4c-0.4,0.4-0.7,1.3-1.1,1.3c-3.7,0.1-7.5,0.1-11.2,0c-0.9,0-1.5-0.6-0.9-1.5
					C870.7,187.9,871.6,186.8,872.5,185.6z"/>
				<path style="fill:#251D15;" d="M842.3,191.1c5.2,0,10.2,0,15.3,0c0,1.1,0,2.2,0,3.4c-5.1,0-10.1,0-15.3,0
					C842.3,193.3,842.3,192.2,842.3,191.1z"/>
				<path style="fill:#251D15;" d="M815.7,191.1c5.1,0,10.1,0,15.2,0c0,1.1,0,2.2,0,3.3c-5.1,0-10.1,0-15.2,0
					C815.7,193.4,815.7,192.3,815.7,191.1z"/>
				<path style="fill:#251D15;" d="M921.9,194.4c0-1.2,0-2.2,0-3.3c5.1,0,10.2,0,15.3,0c0,1.1,0,2.2,0,3.3
					C932.1,194.4,927.1,194.4,921.9,194.4z"/>
				<path style="fill:#251D15;" d="M762.6,194.4c0-1.1,0-2.1,0-3.3c5.1,0,10.1,0,15.3,0c0,1,0,2.1,0,3.3
					C772.8,194.4,767.8,194.4,762.6,194.4z"/>
				<path style="fill:#251D15;" d="M804.4,191.1c0,1.2,0,2.2,0,3.3c-5.1,0-10.1,0-15.3,0c0-1.1,0-2.2,0-3.3
					C794.2,191.1,799.3,191.1,804.4,191.1z"/>
				<path style="fill:#251D15;" d="M895.3,191.1c5.1,0,10.1,0,15.3,0c0,1.1,0,2.2,0,3.3c-5.1,0-10.1,0-15.3,0
					C895.3,193.3,895.3,192.3,895.3,191.1z"/>
				<path style="fill:#251D15;" d="M884,194.5c-5.1,0-10,0-15.2,0c0-1.1,0-2.1,0-3.3c5,0,10,0,15.2,0C884,192.2,884,193.2,884,194.5
					z"/>
			</g>
			<g>
				<path style="fill:#251D15;" d="M1030.5,143.3c0-1,0-2.1,0-3.2c5.1,0,10.1,0,15.3,0c0,1.1,0,2.2,0,3.2c-0.1-0.1-0.3-0.2-0.4-0.3
					c-1.2,1-2.3,2.3-3.7,3c-2.2,1.1-1.2,2.8-1.4,4.2c-0.2,1.6,0,3.1,0.1,4.7c0,0.2,0.3,0.5,0.5,0.6c1,0.8,1.4,1.5,0.2,2.5
					c-0.4,0.3-0.4,1.1-0.3,1.6c1,5.1,2,10.2,3.1,15.3c0.7,3.1,0.2,5.8-3.2,7.7c0.5,0.3,0.8,0.5,1.5,0.9c-3,0-5.5,0-8,0
					c0-0.1,0-0.2-0.1-0.3c0.4-0.2,0.8-0.3,1.3-0.6c-3.3-1.9-3.9-4.6-3.3-7.7c1.1-5.2,2.2-10.3,3.1-15.5c0.1-0.6-0.1-1.4-0.6-1.8
					c-0.8-0.8-0.5-1.2,0.1-1.8c0.5-0.5,0.8-1.3,0.9-1.9c0.1-1.8,0-3.6,0.1-5.3c0.2-1.7-0.9-2.6-2.3-3.3c-0.3-0.2-0.5-0.4-0.8-0.6
					c-0.6-0.5-1.3-1-1.9-1.5C1030.8,143.3,1030.7,143.3,1030.5,143.3z"/>
				<path style="fill:#251D15;" d="M950.9,143.4c0-1,0-2.1,0-3.2c5.1,0,10.1,0,15.3,0c0,1.1,0,2.1,0,3.2c-0.1-0.1-0.3-0.2-0.4-0.3
					c-1.2,1-2.3,2.2-3.7,3c-2.2,1.1-1.2,2.8-1.4,4.2c-0.2,1.6-0.7,3.7,0.2,4.6c1.9,1.8,0.1,3.1,0.2,4.6c0.3,2.7,0.8,5.4,1.3,8.1
					c0.5,2.3,1.1,4.6,1.7,6.9c0.8,3.2,0.6,6.2-3.1,8.2c0.5,0.2,0.8,0.4,1.2,0.6c0,0.1,0,0.2-0.1,0.3c-2.5,0-5,0-8,0
					c0.8-0.4,1.2-0.6,1.7-0.8c-4-2.2-3.8-5.3-3.1-8.7c1.1-4.7,2-9.5,2.9-14.2c0.1-0.7-0.5-1.4-0.6-2.1c-0.1-0.5-0.1-1.1,0.1-1.6
					c0.3-0.8,0.9-1.6,1-2.4c0.2-1.6,0-3.1,0.1-4.7c0.1-1.7-0.3-3.1-2.4-3.7c-0.3-0.1-0.5-0.4-0.8-0.6c-0.6-0.5-1.2-0.9-1.8-1.4
					C951.2,143.3,951.1,143.3,950.9,143.4z"/>
				<path style="fill:#251D15;" d="M1094,182.7c0.4,0.2,0.8,0.4,1.1,0.5c0,0.1,0,0.2-0.1,0.3c-2.5,0-5,0-7.9,0
					c0.7-0.4,1-0.5,1.5-0.8c-4.2-2.3-3.7-5.8-2.9-9.3c1-4.5,2-9.1,2.7-13.6c0.2-0.9-1-2-1-2.9c0.1-0.9,1.3-1.7,1.4-2.7
					c0.2-1.9,0-3.8,0.1-5.7c0.1-1.6-1-2.4-2.3-3.2c-0.3-0.2-0.5-0.4-0.8-0.6c-0.6-0.5-1.3-1-1.9-1.5c-0.1,0.1-0.3,0.2-0.4,0.2
					c0-1.1,0-2.1,0-3.4c2.5,0,5,0,7.5,0c2.5,0,5,0,7.7,0c0,1.2,0,2.2,0,2.9c-1,0.8-1.6,1.3-2.3,1.8c-0.7,0.5-1.4,1.1-2,1.7
					c-0.4,0.4-1,1-1,1.5c-0.1,1.8-0.1,3.6-0.1,5.3c0,1.1,0,2.2,1.2,3c0.3,0.2,0.3,1.1,0.1,1.3c-0.9,0.7-0.9,1.5-0.7,2.4
					c1.1,5.1,2.1,10.2,3.2,15.3C1097.8,178.8,1097.3,180.2,1094,182.7z"/>
				<path style="fill:#251D15;" d="M1014.3,182.7c0.5,0.3,0.8,0.5,1.5,0.8c-2.9,0-5.5,0-8,0c0-0.1,0-0.2-0.1-0.3
					c0.4-0.1,0.7-0.3,1.3-0.5c-4.2-2.3-3.8-5.6-3-9.1c1.1-4.7,2-9.4,2.9-14.1c0.1-0.5,0-1.1-0.3-1.4c-1.1-0.9-1-1.6,0.1-2.5
					c0.4-0.3,0.6-0.9,0.6-1.4c0.1-1.8,0-3.7,0.1-5.5c0.1-1.7-0.7-2.8-2.4-3.5c-1.1-0.5-1-2.4-3.1-1.6c0-1.3,0-2.4,0-3.6
					c2.6,0,5.1,0,7.6,0c2.5,0,5,0,7.6,0c0,1.2,0,2.2,0,2.8c-1.5,1.1-2.7,2.2-4.1,3c-2.2,1.4-1.3,3.4-1.3,5.1c0,1.8-0.7,3.9,1.5,5.4
					c0.2,0.1,0.1,0.8-0.1,1c-1.2,0.8-1,1.8-0.8,2.8c1,4.9,2,9.8,3.1,14.7C1018.1,178.1,1017.6,180.7,1014.3,182.7z"/>
				<path style="fill:#251D15;" d="M981.2,183.3c0.4-0.1,0.7-0.3,1.3-0.5c-4.2-2.4-3.8-5.7-3-9.2c1.1-4.6,1.9-9.3,2.8-13.9
					c0.1-0.6-0.2-1.4-0.6-1.8c-0.7-0.7-0.6-1.1,0-1.7c0.5-0.6,0.9-1.4,1-2.2c0.2-1.7,0-3.4,0.1-5c0.2-1.7-0.8-2.7-2.4-3.5
					c-0.3-0.2-0.5-0.4-0.8-0.6c-0.6-0.5-1.3-1-1.9-1.5c-0.1,0.1-0.3,0.2-0.4,0.2c0-1.1,0-2.1,0-3.3c5.1,0,10.1,0,15.3,0
					c0,1.1,0,2.2,0,3.2c-0.1-0.1-0.3-0.2-0.4-0.3c-1.2,1-2.3,2.3-3.7,3c-2.2,1.1-1.2,2.8-1.4,4.2c-0.2,1.6,0,3.1,0.1,4.7
					c0,0.2,0.3,0.5,0.5,0.6c1,0.8,1.4,1.5,0.2,2.5c-0.3,0.3-0.4,1-0.3,1.4c1,5.2,2,10.3,3.1,15.5c0.7,3.1,0.2,5.8-3.2,7.7
					c0.5,0.3,0.8,0.5,1.5,0.9c-3,0-5.5,0-8,0C981.3,183.4,981.3,183.4,981.2,183.3z"/>
				<path style="fill:#251D15;" d="M1117.5,145.6c1.3,0.1,2.6,0.1,3.6,0.2c-0.4,1-0.9,1.8-0.9,2.7c-0.1,1.7-0.2,3.5,0,5.2
					c0.1,0.9,0.8,1.6,1.1,2.5c0.2,0.5,0.2,1,0.1,1.5c-0.2,0.8-0.8,1.5-0.6,2.3c0.9,5.1,2,10.1,3.1,15.2c0.7,3.1,0.1,5.8-3.2,7.7
					c0.5,0.2,0.8,0.4,1.7,0.9c-3,0-5.5,0-8.4,0c0.7-0.4,1-0.6,1.5-0.9c-4.1-2.2-3.7-5.5-3-9c1-4.6,1.8-9.3,3-13.9
					c0.4-1.6-2.8-3.2,0.2-4.5c0.1-1.8,0.2-3.6,0.2-5.3c0-1.5,0.3-3.1-1.3-4.2c-1.3-0.9-2.6-1.7-4.2-2.8c0-0.6,0-1.7,0-2.9
					c5.1,0,10.1,0,15.3,0c0,1.1,0,2.1,0,2.8c-1,0.8-1.7,1.4-2.6,1.9c-0.6,0.3-1.3,0.6-2,0.6C1119.8,145.6,1118.7,145.5,1117.5,145.6
					C1117.5,145.5,1117.5,145.6,1117.5,145.6z"/>
				<path style="fill:#251D15;" d="M1057.1,140.1c5.1,0,10.1,0,15.3,0c0,1.1,0,2.1,0,2.8c-1,0.7-1.7,1.3-2.5,1.8
					c-0.6,0.3-1.3,0.6-1.9,0.7c-1.4,0.1-2.9,0-4.3,0.1c1.6,0.1,3.1,0.1,4.3,0.2c-0.4,0.9-0.9,1.7-1,2.4c-0.1,1.8,0,3.7,0,5.5
					c0,0.3-0.1,0.6,0.1,0.8c0.9,1.5,1.6,2.7,0.5,4.6c-0.8,1.4,0.3,3.6,0.6,5.4c0.3,1.8,0.8,3.5,1.2,5.3c0.4,1.7,0.8,3.5,1.2,5.2
					c0.8,3.1,0.2,5.9-3.2,7.8c0.5,0.2,0.8,0.4,1.2,0.5c0,0.1,0,0.2,0,0.3c-2.5,0-5,0-7.8,0c0.6-0.3,1-0.5,1.5-0.8
					c-4.2-2.2-3.8-5.6-3-9.1c1-4.7,2-9.4,2.9-14.1c0.1-0.6-0.2-1.4-0.6-1.8c-0.7-0.7-0.6-1.1,0-1.7c0.5-0.6,0.9-1.4,1-2.2
					c0.1-1.8-0.1-3.6,0.1-5.3c0.2-1.4-0.9-2.1-1.7-3c-0.5-0.6-1.2-1.1-1.9-1.5c-0.5-0.3-1.2-0.4-1.9-0.6
					C1057.1,142.4,1057.1,141.3,1057.1,140.1z"/>
				<path style="fill:#251D15;" d="M1085.9,184.3c3.8,0,7.1,0,10.6,0c-0.6,0.6-0.9,0.9-1.3,1.3c0.9,1.1,1.8,2.2,2.5,3.4
					c0.2,0.3-0.2,1.4-0.3,1.4c-4,0.1-8.1,0.1-12.1,0c-0.2,0-0.8-1-0.6-1.1c0.8-0.7,1.1-1.8,1.7-2.5
					C1087.1,185.8,1087.6,185.3,1085.9,184.3z"/>
				<path style="fill:#251D15;" d="M1123.2,184.3c-0.7,0.6-1,1-1.4,1.3c0.9,1.2,1.8,2.2,2.6,3.4c0.6,0.9,0,1.5-1,1.5
					c-3.7,0.1-7.4,0-11,0c-0.4,0-1-0.5-1.1-0.8c-0.1-0.2,0.4-0.7,0.6-1c0.7-1,1.4-1.9,2-3c0.1-0.2-0.5-0.8-1-1.4
					C1116.3,184.3,1119.5,184.3,1123.2,184.3z"/>
				<path style="fill:#251D15;" d="M1034.3,185.6c-0.4-0.4-0.8-0.7-1.4-1.3c3.6,0,6.8,0,10.4,0c-1.3,1-1.2,1.6-0.1,2.6
					c0.6,0.5,0.5,1.6,1.5,2.2c0.1,0.1-0.4,1.3-0.6,1.3c-4,0.1-7.9,0.1-11.9,0c-0.2,0-0.7-1-0.5-1.3
					C1032.5,187.8,1033.4,186.8,1034.3,185.6z"/>
				<path style="fill:#251D15;" d="M963.9,184.3c-1.5,1-1.3,1.6-0.3,2.5c0.6,0.6,0.6,1.7,1.6,2.3c-0.4,0.5-0.7,1.3-1.1,1.4
					c-3.7,0.1-7.4,0.1-11,0c-0.4,0-1.1-1.1-1-1.4c0.7-1.2,1.7-2.3,2.6-3.5c-0.4-0.4-0.7-0.8-1.3-1.3
					C956.9,184.3,960.1,184.3,963.9,184.3z"/>
				<path style="fill:#251D15;" d="M1007.7,185.6c-0.4-0.4-0.8-0.8-1.3-1.3c3.6,0,6.8,0,10.5,0c-1.5,1-1.4,1.5-0.4,2.5
					c0.6,0.6,0.8,1.8,1.7,2.4c-0.4,0.4-0.8,1.2-1.2,1.2c-3.7,0.1-7.3,0.1-11,0c-1,0-1.6-0.6-1-1.5
					C1005.9,187.9,1006.8,186.8,1007.7,185.6z"/>
				<path style="fill:#251D15;" d="M980.1,184.3c3.4,0,6.6,0,10,0c-0.4,0.6-1.1,1.2-0.9,1.5c0.5,1,1.3,1.9,1.9,2.9
					c0.3,0.4,0.7,0.8,0.6,1.2c0,0.3-0.7,0.7-1,0.7c-3.7,0.1-7.5,0.1-11.2,0c-0.4,0-0.9-0.4-1-0.7c-0.1-0.3,0.2-0.7,0.5-1.1
					c0.7-1,1.5-1.9,2.1-2.9C981.1,185.5,980.5,184.9,980.1,184.3z"/>
				<path style="fill:#251D15;" d="M1060.9,185.6c-0.4-0.4-0.7-0.7-1.3-1.3c3.6,0,6.9,0,10.5,0c-1.3,0.9-1.5,1.5-0.3,2.5
					c0.7,0.6,0.7,1.8,1.7,2.4c-0.4,0.4-0.7,1.3-1.1,1.3c-3.7,0.1-7.5,0.1-11.2,0c-0.9,0-1.5-0.6-0.9-1.5
					C1059,187.9,1060,186.8,1060.9,185.6z"/>
				<path style="fill:#251D15;" d="M1030.6,191.1c5.2,0,10.2,0,15.3,0c0,1.1,0,2.2,0,3.4c-5.1,0-10.1,0-15.3,0
					C1030.6,193.3,1030.6,192.2,1030.6,191.1z"/>
				<path style="fill:#251D15;" d="M1004,191.1c5.1,0,10.1,0,15.2,0c0,1.1,0,2.2,0,3.3c-5.1,0-10.1,0-15.2,0
					C1004,193.4,1004,192.3,1004,191.1z"/>
				<path style="fill:#251D15;" d="M1110.2,194.4c0-1.2,0-2.2,0-3.3c5.1,0,10.2,0,15.3,0c0,1.1,0,2.2,0,3.3
					C1120.4,194.4,1115.4,194.4,1110.2,194.4z"/>
				<path style="fill:#251D15;" d="M950.9,194.4c0-1.1,0-2.1,0-3.3c5.1,0,10.1,0,15.3,0c0,1,0,2.1,0,3.3
					C961.2,194.4,956.2,194.4,950.9,194.4z"/>
				<path style="fill:#251D15;" d="M992.8,191.1c0,1.2,0,2.2,0,3.3c-5.1,0-10.1,0-15.3,0c0-1.1,0-2.2,0-3.3
					C982.6,191.1,987.6,191.1,992.8,191.1z"/>
				<path style="fill:#251D15;" d="M1083.6,191.1c5.1,0,10.1,0,15.3,0c0,1.1,0,2.2,0,3.3c-5.1,0-10.1,0-15.3,0
					C1083.6,193.3,1083.6,192.3,1083.6,191.1z"/>
				<path style="fill:#251D15;" d="M1072.3,194.5c-5.1,0-10,0-15.2,0c0-1.1,0-2.1,0-3.3c5,0,10,0,15.2,0
					C1072.3,192.2,1072.3,193.2,1072.3,194.5z"/>
			</g>
		</g>
		<rect y="189.7" style="fill:#251D15;" width="1129" height="55.8"/>
	</g>
	<rect x="0.2" y="202.9" style="fill:#2B2219;" width="1129.2" height="47"/>
</g>
<g id="books">
	<g id="_x31__2_">
		<polygon style="fill:#33281C;" points="410.3,211.4 431.5,205.2 478.7,205.2 463.5,211.4 		"/>
		<polygon style="fill:#4D3C2B;" points="464,224.6 464,211.5 475.9,205.6 475.9,215.8 		"/>
		<g>
			<rect x="410" y="211.7" style="fill:#251D15;" width="53.6" height="12.6"/>
			<rect x="452.6" y="212.8" style="fill:#33281C;" width="1.6" height="10.4"/>
			<rect x="455.7" y="212.8" style="fill:#33281C;" width="1.6" height="10.4"/>
		</g>
	</g>
	<g>
		<rect x="424.6" y="203.4" style="fill:#221B16;" width="44.3" height="6"/>
		<polygon style="fill:#2B2219;" points="439.8,198.8 424.6,203.4 468.9,203.4 478.5,199 		"/>
	</g>
	<g>
		<polygon style="fill:#251D15;" points="451.8,204.4 451.8,196.2 429,193.4 429,201.7 		"/>
		<polygon style="fill:#33281C;" points="451.8,196.2 470.7,193.4 470.7,202.2 451.8,204.4 		"/>
		<polygon style="fill:#2B2219;" points="448.9,190.7 429.2,193.4 451.7,196.9 470.9,193.6 		"/>
	</g>
	<polygon style="fill:#1E1710;" points="474.3,206.7 468.9,209.4 468.9,203.5 476.4,199.9 476.4,206.5 	"/>
	<g>
		
			<rect x="471.4" y="187.4" transform="matrix(0.9913 -0.132 0.132 0.9913 -23.2668 64.765)" style="fill:#1E1710;" width="11.2" height="41"/>
		
			<rect x="475.5" y="222.7" transform="matrix(0.9913 -0.132 0.132 0.9913 -25.323 65.173)" style="fill:#2B2219;" width="7.1" height="1.8"/>
	</g>
</g>
<g id="figures">
	
		<image style="overflow:visible;" width="725" height="725" xlink:href="./images/02/1718BCD3.png"  transform="matrix(0.2897 0 0 0.2897 559.4437 13.6)">
	</image>
	<g>
		<g id="lantern_1_">
			<ellipse style="fill-rule:evenodd;clip-rule:evenodd;fill:#221B16;" cx="663.5" cy="139.9" rx="11.5" ry="5.2"/>
			<ellipse style="fill-rule:evenodd;clip-rule:evenodd;fill:#221B16;" cx="663.4" cy="131.6" rx="6.5" ry="2.7"/>
			
				<path style="opacity:0.6;fill-rule:evenodd;clip-rule:evenodd;fill:#FFFFFF;" d="
				M671.6,120.7c0,2.2-0.8,5.8-1.6,7.6c-1.4,3.1-3.9,3.6-6.7,3.6c-2.5,0-4.7-0.5-6.2-3c-1.1-1.9-1.8-5.5-1.8-8.1
				c0-2.2,0.4-5.8,1.2-7.5c1.4-3.2,3.9,1.2,6.7,1.2c3.1,0,5.8-4.9,7.1-1.2C671,114.6,671.6,118.9,671.6,120.7z"/>
			<path style="opacity:0.6;fill-rule:evenodd;clip-rule:evenodd;fill:#FFC64D;" d="M670.6,120.8c0,1.9-0.7,5.1-1.4,6.6
				c-1.2,2.8-3.4,3.2-5.9,3.2c-2.2,0-4.1-0.5-5.4-2.7c-1-1.7-1.6-4.8-1.6-7.1c0-1.9,0.4-5.1,1.1-6.6c1.2-2.8,3.4,1,5.9,1
				c2.7,0,5.1-4.3,6.2-1C670.1,115.5,670.6,119.2,670.6,120.8z"/>
			<path style="fill-rule:evenodd;clip-rule:evenodd;fill:none;stroke:#221B16;stroke-width:1;stroke-miterlimit:1;" d="
				M662.3,95.8c0,0-1.6-3.3,0.8-3.3c1.4,0,3.2-0.3,1.8,3.2L662.3,95.8z"/>
			<path style="fill:#221B16;" d="M673.7,109l-0.3-1l1.1-0.4c0.9-3.2-0.7-7.6-0.7-7.6c-2.1-5.4-2.2-11.5-2.2-12.2
				c-0.7-2.7-2.3-5-4.7-6.7c-1.6-1.2-2.9-1.7-3.3-1.8h-0.1c-0.3,0.1-1.7,0.7-3.3,1.8c-2.3,1.7-3.9,4-4.6,6.7c0,0.8-0.1,6.8-2.2,12.2
				c0,0-1.7,4.4-0.7,7.6l1.1,0.4l-0.3,1l-1.6-0.5l-0.1-0.2c-1.2-3.6,0.6-8.4,0.7-8.6c2.1-5.5,2.1-11.9,2.1-11.9v-0.1l0-0.1
				c1-3.7,3.3-6,5.1-7.4c1.9-1.4,3.6-2,3.7-2l0.1,0h0.4l0.1,0c0.1,0,1.7,0.6,3.7,2c1.8,1.3,4.1,3.7,5.1,7.4l0,0.1v0.1
				c0,0.1,0,6.4,2.1,11.9c0.1,0.2,1.9,5,0.7,8.6l-0.1,0.2L673.7,109z"/>
			<path style="fill-rule:evenodd;clip-rule:evenodd;fill:#221B16;" d="M659.4,103.9c-3.5-0.9-3.9,4.9-3.9,4.9l-2,21.3
				c-0.6,5.2,5.4,4.2,5.4,4.2l-3.3,2.2c-5.5-0.8-4.8-6.1-4.8-6.1l2.7-22.9c0.9-6.5,5.8-6.2,5.8-6.2L659.4,103.9z"/>
			<g>
				<ellipse style="fill-rule:evenodd;clip-rule:evenodd;fill:#221B16;" cx="663.5" cy="98.5" rx="7.4" ry="3.2"/>
				<ellipse style="fill-rule:evenodd;clip-rule:evenodd;fill:#221B16;" cx="663.5" cy="107" rx="6.9" ry="2.1"/>
				<ellipse style="fill-rule:evenodd;clip-rule:evenodd;fill:#221B16;" cx="663.5" cy="112.5" rx="7.2" ry="2.4"/>
				<path style="fill-rule:evenodd;clip-rule:evenodd;fill:#221B16;" d="M657.4,112.8c0,0,2.3-2.5,1.4-4.6l10.2-0.5
					c0,0-1.6,1.9,0.6,5.5L657.4,112.8z"/>
				<path style="fill-rule:evenodd;clip-rule:evenodd;fill:#221B16;" d="M657.9,106.8c0,0,3.2-4.2-0.7-7.4l7.1-1.8l5.8,1.8
					c0,0-3.3,1.7-0.6,7.4H657.9z"/>
			</g>
			<path style="fill-rule:evenodd;clip-rule:evenodd;fill:#221B16;" d="M658.6,132.7c0,0,0.2,3.1-4.5,4.3l5.1,5.7l9.9-3.5l2.5-2.7
				c0,0-2.7-1.4-3.2-3.7C668.5,132.7,659.8,132.9,658.6,132.7z"/>
			<path style="fill-rule:evenodd;clip-rule:evenodd;fill:#221B16;" d="M668,103.9c3.5-0.9,3.9,4.9,3.9,4.9l2,21.3
				c0.6,5.2-5.4,4.2-5.4,4.2l3.3,2.2c5.5-0.8,4.8-6.1,4.8-6.1l-2.7-22.9c-0.9-6.5-5.8-6.2-5.8-6.2L668,103.9z"/>
		</g>
		
			<image class="blink1" style="overflow:visible;" width="162" height="162" xlink:href="./images/02/1718BCD1.png"  transform="matrix(0.24 0 0 0.24 643.8108 103.5584)">
		</image>
	</g>
	
		<radialGradient id="SVGID_1_" cx="1823.1118" cy="291.4373" r="631.2823" gradientTransform="matrix(0.1698 0 0 0.1698 356.08 71.3816)" gradientUnits="userSpaceOnUse">
		<stop  offset="0" style="stop-color:#FFFFFF;stop-opacity:0.9"/>
		<stop  offset="1" style="stop-color:#FFFFFF;stop-opacity:0"/>
	</radialGradient>
	
		<radialGradient id="SVGID_2_" cx="1823.1118" cy="291.4373" r="631.7823" gradientTransform="matrix(0.1698 0 0 0.1698 356.08 71.3816)" gradientUnits="userSpaceOnUse">
		<stop  offset="0" style="stop-color:#FFFFFF;stop-opacity:0.7"/>
		<stop  offset="2.752991e-003" style="stop-color:#FFFDF3;stop-opacity:0.7036"/>
		<stop  offset="1.761004e-002" style="stop-color:#FEF1B9;stop-opacity:0.7231"/>
		<stop  offset="3.247141e-002" style="stop-color:#FDE788;stop-opacity:0.7426"/>
		<stop  offset="4.699700e-002" style="stop-color:#FCDF5F;stop-opacity:0.7616"/>
		<stop  offset="6.113186e-002" style="stop-color:#FCD93F;stop-opacity:0.7801"/>
		<stop  offset="7.475722e-002" style="stop-color:#FBD528;stop-opacity:0.798"/>
		<stop  offset="8.765166e-002" style="stop-color:#FBD21B;stop-opacity:0.8149"/>
		<stop  offset="9.905660e-002" style="stop-color:#FBD116;stop-opacity:0.8298"/>
		<stop  offset="0.1435" style="stop-color:#F9B819;stop-opacity:0.8201"/>
		<stop  offset="0.2016" style="stop-color:#F89D1D;stop-opacity:0.8075"/>
		<stop  offset="0.2358" style="stop-color:#F7931E;stop-opacity:0.8"/>
		<stop  offset="0.3988" style="stop-color:#F9A530;stop-opacity:0.5383"/>
		<stop  offset="0.5472" style="stop-color:#FBB03B;stop-opacity:0.3"/>
		<stop  offset="0.7151" style="stop-color:#FDCF88;stop-opacity:0.1888"/>
		<stop  offset="0.9107" style="stop-color:#FEF1DD;stop-opacity:5.917193e-002"/>
		<stop  offset="1" style="stop-color:#FFFFFF;stop-opacity:0"/>
	</radialGradient>
	
	<circle class="blink2" style="opacity:0.3;fill-rule:evenodd;clip-rule:evenodd;fill:url(#SVGID_1_);stroke:url(#SVGID_2_);stroke-miterlimit:10;" cx="665.7" cy="120.9" r="107.2"/>
	
	<g id="isaak_1_">
		<g>
			<path style="fill:#221B16;" d="M727.4,143.1c0,0,1.1,22.5-1.1,30.3c0,0,5.5,29.6,6.7,31.8c1.1,2.2,1.1,14,1.1,14l-2.6,0.4h-12.2
				l-5.9-0.4c0,0-3.7-8.9-1.5-14.4c0,0-0.2-5.9-0.9-10.4c-0.7-4.4-6.5-12.9-3.1-21.8c0,0-2.6,10.2-1.1,15.7l1.8,16.1
				c0,0,1.8,9.6,0.4,14.8l-16.3,0.7c0,0-4.6-29-6.1-33.1s0.6-28.3,0.6-28.3v-25.1L727.4,143.1z"/>
			<path style="fill:#221B16;" d="M708.7,216.8l-13.1-1.7l-3,3c-11.3,0-12.4,3.5-12.4,3.5c-3.7,5.9,13.1,6.5,18.3,6.8l1.8-1.5
				l1.1,1.8h7C708.5,228.8,712.2,227.4,708.7,216.8z"/>
			<path style="fill:#221B16;" d="M732,212.6l-13.1-1.7l-3,3c-11.3,0-12.4,3.5-12.4,3.5c-3.7,5.9,13.1,6.5,18.3,6.8l1.8-1.5l1.1,1.8
				h7C731.8,224.6,735.5,223.1,732,212.6z"/>
		</g>
		<g>
			<path style="fill:#221B16;" d="M690.2,71.3c0,0,1.3-3.4,1.3-3.7c0.1-0.3,1.5-3,1.8-3.5c0.3-0.5,0.8-1.3,0.9-1.6
				c0.1-0.3,0.1-1.1,0.1-1.1c-0.5-0.8-1-1.1-1-1.1l-0.6-1.2l-0.2,1.2c0,0,0,0,0.2,0.3c0.2,0.3,0.1,0.5,0.1,0.5l-0.8,0.4
				c0,0,0,0-0.7-0.5c-0.7-0.5,0,0,0,0s0,0,0.1,0.7c0.1,0.7,0.3,0.8,0.3,0.8s-1.2-0.8-1.5-0.9c-0.3-0.1,0,0,0,0.6c0,0.6-0.2,1-0.2,1
				S690,62.5,689,61s0,0-0.1,0.5s-0.2,0.5-0.2,0.9c-0.1,0.4,0,0.7,0.3,1.4s-0.1,0.5-0.5,0.3c-0.4-0.2-0.4-0.3-0.4-0.3s0,0,0.2,0.9
				c0.2,0.9,0,1,0,1s0,0-0.8,0.6s0,0.4,0,1.2s0,0,0,0s0,0-0.5,0.2s0.1,0.4,0.2,1.2c0.1,0.8-0.9-0.4-0.9-0.6s0,0,0,0.6
				c0,0.1,0,0.2,0,0.2c-0.2,0.2-0.8-0.3-0.8-0.3l0,0c0,0,0,0-0.2,0.6c-0.2,0.6-0.2-0.4-0.2-0.4s0,0-0.4-0.7
				c-0.4-0.7,0.1-0.9,0.1-0.9s-1.1,0.7-1.5,0.7c-0.5,0-1.1,0.6-1.1,0.6s0,0-0.4,0.4c-0.4,0.4-0.4-0.3-0.4-0.3s0.2-0.5,0.4-1.3
				s0,0-0.4-0.6s-0.5-0.5-0.5-0.5s0,0-0.6,0.4c-0.6,0.4,0,0,0.1-0.8c0.1-0.8,0.2-0.5,0.2-0.5s-0.7-0.6-1-0.8c-0.2-0.2,0,0-0.2,0.3
				c-0.2,0.3-0.4-0.1-0.7-0.9c-0.3-0.8,0.2-0.6,0.2-0.6s-0.2,0.6-0.4,1c-0.3,0.4,0,0-0.1-0.4c-0.1-0.4-0.2-1-0.2-2.2
				c-0.1-1.2-0.1-1.1,0-1.6c0.1-0.5,0.2-0.9,0.2-0.9s0.2-0.8,0.7-1.4c0.5-0.6,0.3-0.5,0.3-0.9c0.1-0.4-0.5-0.8-0.5-0.8s0,0,0.1-0.1
				c0.1-0.2,0.2-0.4,0.3-0.7c0.1-0.4,0-0.8,0-0.8l-1,0.2c0,0,0.1-0.5,0.4-1.1c0.4-0.6,0,0,0.2-0.3c0.2-0.3,0.2-1.2,0.6-2l0.3-0.6
				l0-0.9l0.3-0.5l-0.5-0.2l0.1-0.4l-0.2-0.7l-0.2,0.5l-0.6,0.1c0,0,0.1-0.8,0.1-1.1c0-0.3,0.5-1.4,0.9-2c0.4-0.5,1.1-1.2,1.1-1.2
				l-1.9-0.1c-0.8-0.6-0.3-1.6,0.7-2.9c1-1.3,1.6-1.9,1.6-1.9c1.6-1.8,0.1-2.5,0.1-2.5c-0.5-1.9,0.4-2.2,1.4-4.9
				c1-2.7,4.3-4.7,4.3-4.7s1.1-0.9,1.3-1.2c0.2-0.3,1.9-0.1,2.4-0.2c0.5,0,0.8-0.1,1.2-0.3c0.4-0.2,1.6-0.7,1.6-0.7s2.2-0.2,2.5-0.2
				s2.8,0,3.1,0.1c0.3,0.1,1.7,0.5,2.3,0.7s3.3,3.3,3.4,3.6c0.1,0.3,0.6,0.9,1.2,2c0.7,1.2,0-3.7,0.9-2.9c0.9,0.8,0,0,0.5,0.4
				c0.5,0.4,0.7,0.5,0.7,0.5s2.9,3.6,2.2,3.8c-0.7,0.1,0,0,0.4,1.5c0.4,1.5-1.7,0.3-1,0.7c0.7,0.3,0,0.2,0.1,0.5
				c0.2,0.6-0.5,0.4-0.2,1.1c0.3,0.8,0.6,0.2,0,0.8c-0.6,0.6,0,0-0.3,0.8c-0.3,0.8-0.4,0-0.6,1c-0.2,1,0,0,0.1,0.8
				c0,0-0.7,0.2-1.1,0.3c-0.4,0.1,0,0,0.1,0.6c0,0.6-0.3,1.5-0.3,1.5l-0.6-0.4l0.6,0.8c0,0-0.7,0.5-0.3,1.7c0.5,1.2-0.3,0.2-0.4-0.1
				c-0.1-0.3-0.4-0.7-0.9-0.7c-0.5,0,0.2,0.1,0.2,0.6c0,0.5,0,0.7,0,0.7s0,0-0.2,0.3s0.1,0.9,0.3,1.2c0.2,0.3,0.4,0.2,0.8,0.4
				c0.4,0.3,0.4,0.6,0.4,0.6s0,0-0.2,0.3c-0.2,0.3-0.3,0.6-0.2,0.9c0,0.3,0,0,0.4,0c0.4,0,0.3,0.4,0.3,0.4l0.5,1.2
				c0,0,1.8,0.5,2.6,1.4s5,0.5,5.8,0.9c0,0,7.2,3.6,8,4.3s2.6,3.8,2.6,3.8l5.9,16.1l5.4,22.4c0,0,1.1,17.4,1.1,19.2s-6,12.7-6,12.7
				l0.1,15.9l-8.1,9l-39.1-5.5c-1.3-1.1-4.3-11.2-0.2-20.2c4.5-9.9,0.3-26.8,0.3-26.8L690.2,71.3z"/>
			<path style="fill:#221B16;" d="M689.2,32.3c0,0-8.5,3.2-13,1.1s-3.9-5.7,0-6.2c0,0,4.1-1.1,7.6-4.4c3.5-3.3,14.1-7,21.1-2.8
				c0,0,2,1.2,3.5,3.3c0.6,0.8,1.1,1.8,1.2,2.9c0.7,4.8,2.3,4.1,0.1,6.5C709.7,32.8,696.2,33.2,689.2,32.3z"/>
		</g>
		<g id="arm_2_">
			<path id="arm_4_" style="fill:#221B16;" d="M717.9,104.7c-0.2,0.4-0.7,0.5-1.1,0.2c-3.7-2.7-22.1-15.8-25.3-17.1
				c-0.1,0-0.2-0.1-0.2-0.1c-1.2-1.1-13.3-10.7-14.3-10.9c-1.1-0.2-10.1,8.8-11,14.5c0,0.3,0.1,0.6,0.4,0.7c0.8,0.4,2.8,1.2,4.6,1.2
				c0.4,0,0.7,0.3,0.8,0.7c0.1,1,0.3,2.9,1.1,3.4c0.8,0.6,4.3,1.6,6.1,2.1c0.3,0.1,0.5,0.3,0.6,0.6c0,0.4,0.6,1.1,2.5,2.7
				c4,3.3,8.5,7.5,18.1,11c8.4,3,17.3,3.3,19.6,3.3c0.3,0,0.6-0.2,0.7-0.5"/>
			<path style="fill:#221B16;" d="M676,78.1c0,0-3.9-6.8-9.1-6.2c0,0-4,0.3-3.7,1.7c0,0-3,0.4-2.7,1.6c0,0-2.1,1.8-0.8,2.7l1.9,1.8
				l2.9,1.2l-2.3-0.6l-1.5-1.4c0,0-0.6,1.1-0.3,2.3s1.2,2.6,1.2,2.6l4.8,1.8l6.3,3.8l4.8-5.5L676,78.1z"/>
		</g>
	</g>
	<g id="lightspots" style="opacity:0.8;">
		<g>
			<image style="overflow:visible;" width="303" class="blink3" height="303" xlink:href="./images/02/1718BCD0.png"  transform="matrix(0.24 0 0 0.24 623.5125 108.2467)">
			</image>
			
				<image style="overflow:visible;" width="378" height="378" xlink:href="./images/02/1718BCDE.png"  transform="matrix(0.24 0 0 0.24 630.3573 111.9055)">
			</image>
			
				<image style="overflow:visible;" width="113" height="113" class="blink2" xlink:href="./images/02/1718BCDF.png"  transform="matrix(0.24 0 0 0.24 612.0327 105.7343)">
			</image>
			
				<image style="overflow:visible;" class="blink3" width="746" height="746" xlink:href="./images/02/1718BCD2.png"  transform="matrix(0.24 0 0 0.24 541.6666 3.6696)">
			</image>
		</g>
	</g>
	<path id="cat_1_" style="fill:#251D15;" d="M702.2,229.4c-1.5-0.9-3.9,0-6.1,0.2c-2.1,0.2-3.5-0.2-5.7-0.5c-2.2-0.3-3.6,0.1-7,0.5
		c-3.4,0.4-4.5,0.7-5.3-0.2c-0.8-0.9,0.4-3.2,0.7-5.8c0.3-2.7-0.9-3.7-1.3-5.3c-0.4-1.6,0.5-1.9-0.1-5.7c-0.6-3.8-3.3-10.8-8.4-15.1
		c-5.1-4.3-9.5-4-13.6-5.3c-4.1-1.4-7-4.8-8.5-5.9c-1.6-1-3.3-3.3-4.3-4.3c-1-1-2.6-1.5-2.6-1.5s-0.9-1.4-1.5-1.9
		c-0.6-0.6-2-1-2.5-1c-0.5,0-1.1,0.6-1.4,1.6c-0.3,1,0.2,2.3-0.3,2.7c-0.5,0.4-2.7-0.2-4.3-0.4c-1.6-0.2-3.6-1.6-4.1-0.8
		c-0.4,0.8,3.3,3.9,3.4,4.8c0.1,0.9-0.1,2.2-0.8,3.2c-0.7,1-0.6,2.5-0.4,3.3c0.2,0.7,1.5,1.9,1.3,2.2c-0.2,0.3-0.1,1.5-0.1,1.5
		s0.2,0.3,0.8,1.1c0.6,0.8,1.2,0.9,1.8,1.1c0.6,0.1,0.5,0.7,1.5,1c1,0.3,1.2,0.1,1.6,0.9c0.4,0.8,0.9,4.8,1.7,7.5
		c0.8,2.6,5.3,6,6.2,7.2c0.9,1.2,2.2,5.8,2.3,6.9c0.2,1.1-0.5,2.9-0.8,4.4c-0.2,1.5-1.5,4-2.1,5.2c-0.6,1.2-0.5,1.6-0.5,1.6
		s-0.2,0.1-0.8-0.1c-0.5-0.2-1.4,0.2-1.8,0.9c-0.4,0.7-0.6,2.3,0.4,3c1.1,0.8,4.4,0.2,5.6-0.2c1.2-0.4,1.5-1.6,1.5-1.6s1.4,0.2,2,0
		c0.7-0.2,1-0.5,1-0.5s1.4,0.2,2.4,0.2c1,0,3.1-0.1,3.1-0.1s0,0.2,0.3,0.9c0.3,0.6,4,1.1,5.7,0.7c1.8-0.4,4.3-0.2,5.4,0
		c1.1,0.3,3.4,0,4.6-0.1c1.2-0.1,2.6,0.7,4.5,0.5c1.9-0.1,2.2-1,2.2-1s0.7,0,2.8-0.3c2-0.3,6.7,0.4,8.5,0.1c1.9-0.3,6.8,0.1,9.8,0.3
		c3,0.2,5.2-0.3,5.7-1.4C705.6,232.6,703.7,230.3,702.2,229.4z M653.6,230.2c-0.1,0.2-0.6,0.3-1.5,0.2c-0.9-0.1-0.8,0.2-0.8-2.5
		c0-2.7,0.8-3.3,1-3.2c0.2,0.1,0.2,2.7,0.3,3.6C652.8,229.1,653.7,229.9,653.6,230.2z"/>
</g>
</svg>
