<svg version="1.1" id="Ebene_1" xmlns="http://www.w3.org/2000/svg" xmlns:xlink="http://www.w3.org/1999/xlink" x="0px" y="0px"
	 viewBox="0 0 703.3 279" style="enable-background:new 0 0 703.3 279;" xml:space="preserve">
	 
<g id="ladder">
	<rect x="211.6" y="126.5" style="fill:transparent;" width="2" height="136.2"/>
	<rect x="230.4" y="126.5" style="fill:transparent;" width="2" height="136.2"/>
	<g>
		<polygon style="fill:transparent;" points="230.5,136.3 228.7,135.6 214.7,135.7 213.5,136.3 213.5,133.4 214.7,134.1 228.7,134.1 
			230.5,133.4 		"/>
		<polygon style="fill:transparent;" points="230.5,147.9 228.7,147.3 214.7,147.3 213.5,147.9 213.5,145.1 214.7,145.7 228.7,145.7 
			230.5,145.1 		"/>
		<polygon style="fill:transparent;" points="230.5,159.5 228.7,158.9 214.7,159 213.5,159.5 213.5,156.7 214.7,157.4 228.7,157.4 
			230.5,156.7 		"/>
		<polygon style="fill:transparent;" points="230.5,171.2 228.7,170.5 214.7,170.6 213.5,171.2 213.5,168.4 214.7,169 228.7,169 
			230.5,168.4 		"/>
		<polygon style="fill:transparent;" points="230.5,182.8 228.7,182.2 214.7,182.3 213.5,182.8 213.5,180 214.7,180.7 228.7,180.7 
			230.5,180 		"/>
		<polygon style="fill:transparent;" points="230.5,194.5 228.7,193.8 214.7,193.9 213.5,194.5 213.5,191.7 214.7,192.3 228.7,192.3 
			230.5,191.7 		"/>
		<polygon style="fill:transparent;" points="230.5,206.1 228.7,205.5 214.7,205.6 213.5,206.1 213.5,203.3 214.7,204 228.7,204 
			230.5,203.3 		"/>
		<polygon style="fill:transparent;" points="230.5,217.8 228.7,217.1 214.7,217.2 213.5,217.8 213.5,215 214.7,215.6 228.7,215.6 
			230.5,215 		"/>
		<polygon style="fill:transparent;" points="230.5,229.4 228.7,228.8 214.7,228.9 213.5,229.4 213.5,226.6 214.7,227.3 228.7,227.3 
			230.5,226.6 		"/>
		<polygon style="fill:transparent;" points="230.5,241.1 228.7,240.4 214.7,240.5 213.5,241.1 213.5,238.3 214.7,238.9 228.7,238.9 
			230.5,238.3 		"/>
	</g>
</g>

<g id="candles">
	<g id="candle_34_" class="flicker">
			<circle style="fill:url(#SVGID_1_);" class="blink3" cx="204.3" cy="140.8" r="6.1"/>
			<circle style="fill:url(#SVGID_2_);" class="blink3" cx="204.3" cy="140.7" r="1"/>
	</g>
	<g id="candle_33_" class="flicker">
			<circle style="fill:url(#SVGID_3_);" class="blink3"  cx="196.4" cy="227" r="7.2"/>
			<circle style="fill:url(#SVGID_4_);" class="blink3"  cx="196.4" cy="226.9" r="1.3"/>
	</g>
	<g id="candle_32_" class="flicker">
			<circle style="fill:url(#SVGID_5_);"  class="blink2" cx="218.6" cy="83.4" r="7.2"/>
			<circle style="fill:url(#SVGID_6_);" class="blink2" cx="218.5" cy="83.3" r="1.3"/>
	</g>
	<g id="candle_31_" class="flicker">
			<circle style="fill:url(#SVGID_7_);" class="blink3" cx="170" cy="46.1" r="6.1"/>
			<circle style="fill:url(#SVGID_8_);" class="blink2" cx="169.9" cy="46" r="1"/>
	</g>
	<g id="candle_30_" class="flicker">
			<circle style="opacity:0.6;fill:url(#SVGID_9_);" class="blink3" cx="134.2" cy="150.7" r="11.5"/>
			<circle style="fill:url(#SVGID_10_);"  class="blink3" cx="134.3" cy="150.6" r="1.3"/>
	</g>
	<g id="candle_29_" class="flicker">
			<circle style="fill:url(#SVGID_11_);" class="blink2"  cx="280.8" cy="46.9" r="6.1"/>
			<circle style="fill:url(#SVGID_12_);" class="blink2" cx="280.7" cy="46.9" r="1"/>
	</g>
	<g id="candle_28_" class="flicker">
			<circle style="fill:url(#SVGID_13_);" class="blink1" cx="264.9" cy="117" r="7.2"/>
			<circle style="fill:url(#SVGID_14_);" class="blink1" cx="265" cy="116.9" r="1.3"/>
	</g>
	<g id="candle_27_" class="flicker">
			<circle style="fill:url(#SVGID_15_);" class="blink2"   cx="286.6" cy="183" r="6.3"/>
			<circle style="fill:url(#SVGID_16_);" class="blink2"  cx="286.6" cy="182.9" r="1.1"/>
	</g>
	<g id="candle_26_" class="flicker">
			<circle style="fill:url(#SVGID_17_);" class="blink1" cx="339.5" cy="20.3" r="6.1"/>
			<circle style="fill:url(#SVGID_18_);" class="blink2" cx="339.5" cy="20.2" r="1"/>
	</g>
	<g id="candle_25_" class="flicker">
			<circle style="fill:url(#SVGID_19_);" class="blink2"  cx="310.8" cy="87" r="6.3"/>
			<circle style="fill:url(#SVGID_20_);"  cx="310.8" cy="86.9" r="1.1"/>
	</g>
	<g id="candle_24_" class="flicker">
			<circle style="fill:url(#SVGID_21_);" class="blink1" cx="102.6" cy="89.7" r="6.1"/>
			<circle style="fill:url(#SVGID_22_);"  class="blink1" cx="102.7" cy="89.6" r="1"/>
		</g>
	</g>
	<g id="candle_23_" class="flicker">
			<circle style="fill:url(#SVGID_23_);" class="" cx="398.3" cy="19.3" r="7.2"/>
			<circle style="fill:url(#SVGID_24_);" class="blink2" cx="398.3" cy="19.4" r="1.3"/>
		</g>
	</g>
	<g id="candle_22_" class="flicker">
			<circle style="fill:url(#SVGID_25_);"  class="blink1" cx="680.9" cy="178.2" r="7.2"/>
			<circle style="fill:url(#SVGID_26_);"  class="blink1" cx="680.9" cy="178.1" r="1.3"/>
	</g>
	<g id="candle_21_" class="flicker">
			<circle style="opacity:0.6;fill:url(#SVGID_27_);" class="blink2" cx="525.3" cy="30.5" r="11.5"/>
			<circle style="fill:url(#SVGID_28_);" class="blink2"  cx="525.3" cy="30.4" r="1.3"/>
	</g>
	<g id="candle_20_" class="flicker">
			<circle style="fill:url(#SVGID_29_);"  class="blink2" cx="624.4" cy="101.9" r="6.1"/>
			<circle style="fill:url(#SVGID_30_);" cx="624.3" cy="101.8" r="1"/>
	</g>
	<g id="candle_19_" class="flicker">
			<circle style="fill:url(#SVGID_31_);" class="blink3"cx="602.9" cy="206.2" r="7.2"/>
			<circle style="fill:url(#SVGID_32_);"  class="blink3" cx="602.9" cy="206.1" r="1.3"/>
	</g>
	<g id="candle_2_" class="flicker">
			<circle style="fill:url(#SVGID_33_);"  class="blink2" cx="655.7" cy="59" r="7.2"/>
			<circle style="fill:url(#SVGID_34_);"  class="blink2" cx="655.6" cy="58.9" r="1.3"/>
	</g>
	<g id="candle_3_" class="flicker">
			<circle style="fill:url(#SVGID_35_);" class="blink1"  cx="688.1" cy="27.7" r="10.1"/>
			<circle style="fill:url(#SVGID_36_);" class="blink1"   cx="688.1" cy="27.6" r="1.3"/>
		</g>
	</g>
	<g id="candle_4_" class="flicker">
			<circle style="fill:url(#SVGID_37_);"  class="blink2"  cx="18.9" cy="117.4" r="7.2"/>
			<circle style="fill:url(#SVGID_38_);"  class="blink2" cx="18.8" cy="117.3" r="1.3"/>
	</g>
	<g id="candle_6_" class="flicker">
			<circle style="fill:url(#SVGID_39_);" class="blink3" cx="53.3" cy="82.6" r="6.1"/>
			<circle style="fill:url(#SVGID_40_);" class="blink3"  cx="53.3" cy="82.5" r="1"/>
	</g>
</g>

</svg>
