<svg version="1.1" id="pillar" xmlns="http://www.w3.org/2000/svg" xmlns:xlink="http://www.w3.org/1999/xlink" x="0px" y="0px"
	 viewBox="0 0 64.1 241.6" style="enable-background:new 0 0 64.1 241.6;" xml:space="preserve">
<g>
	<rect x="13.6" y="16.3" style="fill:#221B16;" width="36.9" height="225.3"/>
	<g>
		<path style="fill:#221B16;" d="M62.1,4.7H2c-1.1,0-2-0.9-2-2V2c0-1.1,0.9-2,2-2h60.1c1.1,0,2,0.9,2,2v0.7
			C64.1,3.8,63.2,4.7,62.1,4.7z"/>
		<path style="fill:#221B16;" d="M58.5,10.9H5.9c-1.7,0-3-1.3-3-3V5.2c0-1.7,1.3-3,3-3h52.6c1.7,0,3,1.3,3,3v2.7
			C61.4,9.5,60,10.9,58.5,10.9z"/>
		<path style="fill:#221B16;" d="M50.7,18.8H13.4c-4.2,0-7.6-3.4-7.6-7.6V9.5c0-4.2,3.4-7.6,7.6-7.6h37.2c4.2,0,7.6,3.4,7.6,7.6v1.8
			C58.3,15.4,54.9,18.8,50.7,18.8z"/>
		<path style="fill:#221B16;" d="M50,34.2H13.1c-0.9,0-1.7-0.8-1.7-1.7v-0.4c0-0.9,0.8-1.7,1.7-1.7H50c0.9,0,1.7,0.8,1.7,1.7v0.4
			C51.7,33.4,50.9,34.2,50,34.2z"/>
		<path style="fill:#221B16;" d="M12.7,33.7c-0.2,0,0-1.7,0-2c0,0-2.3-1.9-2.6-2.8c-0.3-0.9,0.4-2,0.9-2h2.7v7L12.7,33.7z"/>
		<path style="fill:#221B16;" d="M49.7,33.7c0.2,0,0-1.7,0-2c0,0,2.3-1.9,2.6-2.8c0.3-0.9-0.4-2-0.9-2h-2.7v7L49.7,33.7z"/>
	</g>
	<g>
		<path style="fill:#221B16;" d="M62.1,236.9H2c-1.1,0-2,0.9-2,2v0.7c0,1.1,0.9,2,2,2h60.1c1.1,0,2-0.9,2-2v-0.7
			C64.1,237.8,63.2,236.9,62.1,236.9z"/>
		<path style="fill:#221B16;" d="M58.5,230.7H5.9c-1.7,0-3,1.3-3,3v2.7c0,1.7,1.3,3,3,3h52.6c1.7,0,3-1.3,3-3v-2.7
			C61.4,232,60,230.7,58.5,230.7z"/>
		<path style="fill:#221B16;" d="M50.7,222.8H13.4c-4.2,0-7.6,3.4-7.6,7.6v1.8c0,4.2,3.4,7.6,7.6,7.6h37.2c4.2,0,7.6-3.4,7.6-7.6
			v-1.8C58.3,226.2,54.9,222.8,50.7,222.8z"/>
	</g>
</g>
</svg>
