<svg version="1.1" id="Ebene_1" xmlns="http://www.w3.org/2000/svg" xmlns:xlink="http://www.w3.org/1999/xlink" x="0px" y="0px"
	 viewBox="0 0 617.2 462.5" style="enable-background:new 0 0 617.2 462.5;" xml:space="preserve">
<g>
	<g>
		<g>
			<g>
				<defs>
					<path id="SVGID_1_" d="M0,23.4c4.8,0.7,9.7,1.3,14.5,2.2c14.3,2.8,28.5,6.3,42.9,8.6c8.7,1.4,9.6-0.6,10.2-9.3
						c0.5-6.6,1.5-13.4,3.7-19.6c1.7-4.8,6.2-6.3,11.8-4.7c9.3,2.6,16.1,8.1,21.9,15.6c2.9,3.7,7.3,6.2,11.1,9.2
						c5.9,4.6,12.9,8.4,17.7,14c19.6,22.9,43.6,40.7,66.9,59.3c16,12.7,35.2,18.7,55,21.7c67.1,10.3,107.5,52,132.6,111.8
						c10.2,24.4,17,49.4,13,76.4c-0.8,5.3,0.8,11.7,3.4,16.6c8.5,16.1,9.2,32.4,4.3,49.5c-1.6,5.8-2.9,11.7-4,17.6
						c-2.1,11.4,3.2,17.9,14.8,17.3c9.4-0.5,18.8-1.5,28.1-3c25.2-4.1,50.1-5.2,75.8-1.8c16.2,2.2,33.3-1.2,49.9-2.8
						c18.1-1.7,36.9,10,42.7,27.5c2.3,7,0.4,12.6-7.4,14.7c-9.7,2.6-20,3.9-30.1,4.1c-12.8,0.3-25.6-1.5-38.4-1.8
						c-32.4-0.8-64.9-1.5-97.3-1.6c-10.7-0.1-21.4,1.6-32.1,2.5c-1,0.1-2.3,0.1-3,0.7c-11.9,10.4-25.4,7.3-38.8,4.7
						c-3.1-0.6-6.3-2-9.2-1.5c-29.7,4.7-59.4-5.8-89.2,0.7c-8.8,1.9-18.6-1.1-28-2.1c-6.3-0.7-10.8-3.8-12.1-11.2
						c-13.1,0-26.2-0.5-39.2,0.2c-8.6,0.5-17.2,2.7-25.7,4.2c-0.5,0.1-1.2,0.3-1.3,0.7c-6,12.7-18.5,12.1-29.5,14.5
						c-0.5,0.1-0.9,0.6-1.3,0.9c-6.3,0-12.6,0-18.9,0c-10.2-5-12.9-9.7-11.3-19.6c1.7-9.9,4.8-11.9,21.3-13.8
						c1.5-3.6,2.6-7.4,4.6-10.8c10.7-18.6,17.6-38.6,21-59.6c1.3-8.3,1-17.1-0.5-25.4c-1.8-9.7-5.5-19.1-8.5-28.5
						c-3.1-9.7-8.7-17.6-16.2-24.5c-9.8-9-19.9-18.1-28.1-28.5c-6-7.5-10.6-16.9-13.4-26.1c-4.3-14.5-6.4-29.6-9.9-44.4
						c-0.9-3.6-2.7-8.1-5.5-9.8c-7.7-4.6-16-8.2-24.4-11.5c-10.6-4.2-17.4-14.5-16.6-25.4c0.2-2.3-0.3-5.4-1.8-7.1
						c-11.6-13.1-10.8-26.5-2.6-41.1c5.5-9.9,7.8-21.3-3.4-32.2C12.4,43.6,6.5,35.6,0,28.1C0,26.5,0,24.9,0,23.4z M206.2,366.5
						c-2.2,2.5-4,3.6-4.1,4.8c-1.4,12.3-2.7,24.6-3.7,37c-0.1,1,2.2,3.2,3.5,3.3c4.4,0.4,8.9,0.2,13.4,0.2c0.7-0.7,1.3-1.3,2-2
						C204.7,397.9,209.3,382.3,206.2,366.5z"/>
				</defs>
				<clipPath id="SVGID_2_">
					<use xlink:href="#SVGID_1_"  style="overflow:visible;"/>
				</clipPath>
				<rect x="-33.5" y="-103.8" style="clip-path:url(#SVGID_2_);fill:#5C4832;" width="799.8" height="699.4"/>
				<radialGradient id="SVGID_3_" cx="130.2282" cy="156.0749" r="512.3962" gradientUnits="userSpaceOnUse">
					<stop  offset="0" style="stop-color:#FFFFFF"/>
					<stop  offset="0.1215" style="stop-color:#FFD98A"/>
					<stop  offset="0.1889" style="stop-color:#FFC64D"/>
					<stop  offset="0.4953" style="stop-color:#F15A24"/>
					<stop  offset="0.7972" style="stop-color:#764926"/>
					<stop  offset="1" style="stop-color:#331E13"/>
				</radialGradient>
				
					<rect x="-374.9" y="-363.5" style="clip-path:url(#SVGID_2_);fill-rule:evenodd;clip-rule:evenodd;fill:url(#SVGID_3_);" width="1010.2" height="1039.2"/>
			</g>
		</g>
	</g>
</g>
</svg>
