
<svg version="1.1" id="grass_x5F_ppl" xmlns="http://www.w3.org/2000/svg" xmlns:xlink="http://www.w3.org/1999/xlink" x="0px"
	 y="0px" viewBox="0 0 5117 1644" style="enable-background:new 0 0 5117 1644;" xml:space="preserve">
<g id="grass">
	<path style="fill:#0C4A49;" d="M0,1649v-597.3l35.8-24.2l10.5,12.5l14.9-6.7l12.5,6.2l12.6-9.4l4.4,3.9l4.1-10.5l5.6,11.3l1.1-4.1
		l11.1,3.2l5.9-22.6l12.5,15.6c0,0,12.4-11.5,13.5-11.2c1.1,0.3,7.9,8.9,7.9,8.9l5.6-9.2l5.8,8.8l16.9-7.8l8.5,2.4l8.6-12.8l6,8.8
		l26.4-10.9l4.1,13.4l9.5-5.9l3.5,9.9l28.5-13.5l5.4,8.5l12.6-9.2l9.3,12.4l12.3-13.9l11.2,12.2l8.4-11.9l18.9,10.5l2.6-10.5
		l8.3,8.6l0.1-0.4l18.3,5.3l3-11.5l10.8,6.2l14.8,1.2l11.2-6.8l14.3,12.7l7.8-6.3l18.2,11.8c0,0,12.2-20.5,13.3-20.6
		c1.2-0.1,5,11.5,5,11.5l5.5-3.5l5.9,12.2l12.6-10.3l4.5,13.3l3-6.5l6.8,6.6l3.4-13l10.1,12.2l11.8-11.7l5.1,11.1l5.5-10l4.6,9.1
		l7.3-7.6l3.3,6.4l6.4-8.6l2,8.3l13.6-14.3l1.7,13.7l12-9.7l5.8,8.3l11.7-15.6l13.7,18.7l7-6.5l6.1,7.2l10.5-3.9l4.8,4.9l10.6-8.6
		l15,9.4l15.4-8.3l4.2,7l8.6-5.3l7.8,6.5l14.1-10.3l2.2,4.5l10.5-0.9l7.9-3.9l8.3,5.9l11-4.6l10.6-2.8l8,8.4l8.2-0.8l9.2,2.6
		l8.2-2.4c0,0,16.6-15.8,17.7-15.5c1.1,0.3,6.9,11.3,6.9,11.3s7.9-11.5,7.5-9.7c-0.5,1.8,5.3,14.6,5.3,14.6s7.9-8.6,9.5-8.9
		c1.6-0.3,6.4,8.8,6.4,8.8l8-4.7l4.9,8.8l16.6-11.5l2,9.9l16.1-9.3l15.6,11.5c0,0,5.2-14,6.2-13.7c1.1,0.3,6.3,13.8,6.3,13.8
		l7.7-16.4l12.9,14.6l11.3-7.6l8.9,4.5l-0.8,3.2c4.4,1.3,15.5,4.5,15.5,4.5l7.2-13l7.4,6.4l8.8-7.5l7.9,9.1l15.4-13.9l3.1,9.8
		l12.3-7.7l2.5,7.7l6-8.4l5.9,10.6l15.1-12.7l6.2,9.5l12.8-11.4l11,12.9l15.3-12.2l7.5,14.9c0,0,9.3-10.9,9.1-10.2
		c-0.2,0.7,6.3,12.3,6.3,12.3l7.1-8.4l4.5,7.5c0,0,18.3-19.1,19.6-18.4c1.3,0.8,0.9,15.4,0.9,15.4l7-10.8l5.2,15.1l9.2-6.3l4.2,10.1
		l7.9-9.7l6.5,8.5l18.1-17.2l7.6,17.3l11.3-11.9l8.2,11.7l2.9-11.2l14.2,6.4l8.7-14.2l9.8,11.7l9.4-13.2l7,13.1l4.9-15.8l8.5,6.7
		l6.6-6.2l8.7,7.2l17.3-9.4l4.8,9.1l4.5-9.9l7,10.9l13-10.6l-4.5,13l6.5,6.5l8.6-6.4l4.9,11.9l7-8.7l9.3,13.5l10.1-14.9l8.4,18
		l14.2-5.9l2.8,11.3l8.3-11.4l11.2,12.3l7.8-17l18,17.9l6.6-8.2l7.8,10l4.3-10l9.2,6.6l5.3-14.9l6.9,11c0,0-0.3-14.6,1-15.3
		c1.3-0.7,19.4,19.1,19.4,19.1l4.5-7.4l7.1,8.7c0,0,6.6-11.3,6.4-12c-0.2-0.7,9,10.5,9,10.5l7.6-14.7l15.2,12.8l11.2-12.4l12.7,11.9
		l6.3-9.3l15,13.3l6-10.4l5.9,8.6l2.6-7.6l12.2,8.2l3.2-9.7l15.3,14.5l7.9-8.8l8.7,7.9l7.5-6.1l7.1,13.3c0,0,11.1-2.8,15.6-3.9
		l-0.8-3.2l8.9-4.1l11.2,8l13-14.1l7.5,16.7c0,0,5.3-13.3,6.4-13.6c1.1-0.3,6.1,13.9,6.1,13.9l15.7-10.9l16,9.9l2.1-9.8l16.5,12.1
		l5-8.6l8,5c0,0,4.9-8.9,6.5-8.6c1.6,0.4,9.5,9.3,9.5,9.3s5.9-12.6,5.4-14.4c-0.5-1.8,7.4,10,7.4,10s5.9-10.7,7-11
		c1.1-0.3,17.6,16.2,17.6,16.2l8.2,2.7l9.2-2.3l8.2,1.1l8.1-8.1l10.6,3.2l11,5l8.4-5.6l7.8,4.2l10.4,1.3l2.3-4.4l14,10.8l7.8-6.2
		l8.5,5.6l4.3-6.9l15.4,8.9l15.1-8.8l10.5,9l4.8-4.7l10.5,4.3l6.1-6.9l6.9,6.8l13.9-18.2l11.5,16.1l5.9-8l11.9,10.2l1.9-13.6
		l13.5,14.8l2.1-8.3l6.4,8.9l3.3-6.2l7.3,7.9l4.6-8.9l5.4,10.3l5.2-11l11.7,12.2l10.2-11.8l3.3,13.1l6.8-6.3l2.9,6.6l4.6-13.1
		l12.5,10.8l6-11.9l5.4,3.7c0,0,3.9-11.4,5.1-11.3c1.1,0.1,13.2,21.1,13.2,21.1l18.3-11.1l7.7,6.6l14.4-12.1l11.2,7.3l14.8-0.6
		l10.9-5.8l2.9,11.6l18.3-4.6l0.1,0.4l8.3-8.3l2.5,10.6l19-9.8l8.3,12.2l11.3-11.7l12.2,11.4l9.4-9.1l12.5,9.6l5.4-8.3l28.4,14.6
		l3.6-9.7l9.4,6.2l4.2-7.4l23.1,7.2l10-5.5l9.9,6.8l9-5.3l5.8,8.7l26.7-11.4l3.7,13.3l9.7-6l3.2,9.8l29-14l5.1,8.4l12.9-9.4
		l8.9,12.2l12.8-14.1l10.9,12l8.8-12.1l18.6,10.1l2.9-10.5l8,8.4l0.1-0.4l18.1,5l3.3-11.5l10.7,6l14.8,0.9l11.5-7l14,12.4l8-6.4
		l17.9,11.5c0,0,12.8-20.7,14-20.8c1.2-0.1,4.6,11.4,4.6,11.4l5.6-3.6l5.6,12.1l12.9-10.5l4.1,13.2l3.2-6.6l6.6,6.5l3.8-13l9.8,12
		l12.2-11.9l4.7,11.1l5.8-10.1l4.3,9l7.6-7.7l3.1,6.3l6.7-8.7l1.8,8.3l14-14.5l1.3,13.6l12.3-9.9l5.6,8.2l12.1-15.8l13.2,18.4
		l7.2-6.6l5.9,7.1l10.6-4.1l4.7,4.8l10.8-8.8l14.7,9.1l15.7-8.6l4,7l8.7-5.4l7.6,6.4l14.4-10.5l2.1,4.5l10.5-1l8-4.1l8.2,5.7
		l11.2-4.8l10.7-2.9l7.8,8.3l8.2-1l9.1,2.5l8.3-2.5c0,0,17.1-16.1,18.2-15.8c1.1,0.3,6.6,11.1,6.6,11.1s8.3-11.6,7.7-9.8
		c-0.5,1.8,4.9,14.5,4.9,14.5s8.2-8.8,9.8-9.1c1.6-0.3,6.2,8.7,6.2,8.7l8.2-4.8l4.7,8.7l17-11.8l1.7,9.8l16.4-9.6l15.3,11.2
		c0,0,5.6-14.1,6.6-13.8c1,0.3,5.8,13.7,5.8,13.7l8.2-16.5l12.5,14.3l11.5-7.8l8.7,4.3l-0.9,3.2c4.4,1.2,15.4,4.2,15.4,4.2l7.6-13.1
		l7.2,6.3l9-7.7l7.6,8.9l15.8-14.1l2.8,9.7l12.5-7.9l2.3,7.6l6.2-8.5l5.6,10.5l15.5-13l6,9.4l13.2-11.6l10.7,12.7l15.7-12.5l7,14.8
		c0,0,9.6-11,9.4-10.3c-0.2,0.7,5.9,12.2,5.9,12.2l7.4-8.6l4.3,7.4c0,0,18.8-19.5,20.1-18.7c1.3,0.7,0.5,15.4,0.5,15.4l7.3-10.9
		l4.7,15l9.4-6.4l3.9,10l8.1-9.9l6.3,8.3l18.7-17.6l7.1,17.2l11.7-12l7.9,11.5l3.2-11.2l14,6.2l9.1-17.8l9.5,15.1l9.8-13.3l6.7,8.8
		l5.4-11.8l8.3,6.6l6.8-6.4l-4.1-13.1l12.6,10.9l7.4-10.8l4.1,10l5.2-9l16.9,9.7l8.9-7l6.3,6.4l8.8-6.5l4.3,15.9l7.5-12.9l8.9,13.4
		l10.3-11.5l8.1,14.3l14.4-6.1l2.5,11.2l8.7-11.5l10.9,12.1l8.3-17.1l17.5,17.6l6.8-8.3l7.5,9.9l4.6-10l9,6.4l5.7-14.9l6.6,10.9
		c0,0,0.2-14.6,1.5-15.4c1.3-0.7,18.9,18.8,18.9,18.8l4.8-7.4l6.8,8.6c0,0,6.9-11.4,6.7-12.1c-0.2-0.7,8.7,10.4,8.7,10.4l8-14.8
		l14.9,12.6l11.5-12.6l12.4,11.7l6.6-9.4l14.6,13l6.3-10.5l5.7,8.5l2.8-7.6l12,8l3.5-9.7l14.8,14.2l8.2-8.9l8.5,7.7l7.7-6.3
		l6.7,13.1c0,0,11.2-3,15.7-4.2l-0.7-3.2l9-4.3l11,7.8l13.4-14.3l7.1,16.5c0,0,5.7-13.4,6.8-13.7c1.1-0.3,5.7,13.8,5.7,13.8l16-11.1
		l15.7,9.6l2.3-9.8l16.2,11.8l5.2-8.7l7.9,4.8c0,0,5.2-9,6.8-8.7c1.6,0.3,9.2,9.1,9.2,9.1s6.2-12.7,5.8-14.5
		c-0.4-1.8,7.1,9.8,7.1,9.8s6.3-10.8,7.3-11.1c1.1-0.3,17.1,15.9,17.1,15.9l8.1,2.6l9.3-2.5l8.1,1l8.3-8.3l10.5,3l10.9,4.8l8.5-5.7
		l7.7,4.1l10.4,1.1l2.4-4.5l13.7,10.6l8-6.3l8.4,5.5l4.5-6.9l15.1,8.7l15.3-9l10.2,8.8l5-4.8l10.4,4.2l6.4-7.1l6.8,6.7l14.4-18.4
		l11.1,15.9l6.1-8.1l11.6,10l2.3-13.6l13,14.6l2.3-8.3l6.1,8.7l3.5-6.3l7,7.7l4.9-9l5.1,10.2l5.5-11l11.3,12l10.6-12l2.9,13l7-6.5
		l2.7,6.6l5-13.2l12.2,10.6l6.4-12l5.3,3.6c0,0,4.3-11.5,5.4-11.4c1.1,0.1,12.6,20.8,12.6,20.8l18.6-11.5l7.6,6.4l14.8-12.3l11,7.1
		l14.9-0.9l11.1-6l2.6,11.5l18.5-4.9l0.1,0.4l8.6-8.4l2.2,10.5l19.3-10.1l8,12.1l11.7-11.9l11.8,14.1l9.7-12.2l12.3,9.4l5.7-8.4
		l28,14.1l3.9-9.8l9.3,6.1l4.6-13.3l25.9,11.5l6.4-8.7l8.2,12.9l8.6-2.3l16.6,8.1l6.1-8.7l5.3,9.3c0,0,7.2-8.4,8.2-8.7
		c1.1-0.3,13.1,11.5,13.1,11.5l13.1-15.4l5,22.7l11.2-3l0.9,4.1l6-11.1l3.7,10.6l4.5-3.8l12.1,9.7l12.5-6l12.2,7l6.5-10.6V1649H0z"
		/>
</g>
<g id="ppl">
	<g>
		<path id="left_arm" style="fill:#0C4A49;" d="M2865,782.1l-7.1,10.9l18.8-9l-16.1-8.4l-5.8,3.3c0,0-19.3,9.1-25.5,13.6
			c0,0-10.9,8.1-13.9,15.6c0,0-9,16-17.9,19.8c0,0-5.2-1.4-6.4,4.2c0,0-13.2,12.3-4.7,24.3l1.7,2.6c0,0,2,11.6,51.6,31l5.4,7.9
			c0,0,1.7-3,2.5-4.9c0,0,26.7,2.8,22.4-11.8c-4.2-14.6-5.2-13.4-5.2-13.4s-17.5-9-23.4,0c0,0-3.1,0.6-8.1-5.1
			c-3.8-4.2-7.1-7.7-10.9-11c0,0,9.2,0,7.4-3.7c-1.9-3.8-0.7-0.4,1.4-2s1.9-1.1,1.2-2.7c0,0,7.7,3.4,13.6-10.5l1.9-8.5L2865,782.1z"
			/>
		<path id="head_1_" style="fill:#0C4A49;" d="M2904,693c0,0,4.5-1.6,6.5-4.1c0,0-2.4,6.3-1.3,7.8l3.9-1.6c0,0-1.4,1.6-0.6,3
			c0,0,2.2,0.7,3,0.2l0,2.6l2,0.5l-0.4,2.2c0,0,5.5,4.9,6.8,5c0,0-2,1.2-3.3,0.7c0,0,2.7,2.1,2.8,3.6c0,0-1.4-0.9-2-0.9
			c-0.6,0,0.3,5.9,2.8,8.3c0,0-2.5,0.9-4.6-2.2c0,0,1.3,5.6,0.7,12.9c0,0,2.6,5.1,4.3,5.4l-5-1.5c0,0,1.5,10.5-1.1,12
			c0,0-0.6,0.7-1.9,0.6c0,0-1,3.2,2.2,4l-3.2-0.8c0,0,0.3,5.5,3.1,7.2l-3.7-0.8c0,0,1.1,8.2-0.8,13.7c0,0-0.9-5.9-1.6-6l-0.4,5.8
			l-1.3-0.7c0,0,0,0.6-0.1,1.7c-0.1,1.1,0,4.8-0.4,5.5c-0.4,0.7-3.2,0.3-3.2,0.3l-0.6,3.4l-6.4,4.2l-34.1-4.4l-3-18.6l-1.9,5.7
			c0,0-1.2-7.1-0.8-9.9c0,0-1.1-1-2.6,1.5l0.7-3.7l-1.5-0.5l1-0.7l-0.8-5.2c0,0-0.6,0.5-1.2,1.2c0,0,0.5-3.6,0.6-5.3l-4.6,3.2
			l1.6-5.9l-2.4-5.1l-0.7-7.8l-2,1.4l2.4-6.3l-3.1,0.3l2.2-6.5l-1.2-4.4l3.5-4.5l-1.5,0.3c0.1-0.8,4.3-4.8,5.7-10.7l-1.7,0.4
			c0,0,0.6-5.3,6-6.7l-0.6-2.7l2.5-0.2l4.6-3.1c0,0-1.8-1.3-1.8-4.1c0,0,2.8,2.9,5.6,1.4c0.6-0.3,10-1.5,9.2-4.4
			c0,0,0.4,4.9,9.2,1.1l4.5,5.6l2.8-1.5l-0.3,1.9l1.5,0.5l0.7,1.4c0,0,4.4,1.8,5.4-0.9l0.1,3.8L2904,693z"/>
		<g id="axe">
			<path style="fill:#0C4A49;" d="M2997.5,806.9c0,0-87.7-35.5-149.3-40.1c0,0-57.2-3.5-60.9-2.5c0,0,12.3,7.2,28.9,7.6

				c0,0,83.6,8.6,150.5,37.8c0,0,19.5,7.6,22.2,10.8c0,0,11.7,3.9,12-7.6C3001.2,806.7,2997.5,806.9,2997.5,806.9z"/>
			<path style="fill:#0C4A49;" d="M2836,785.9l-11.4,4.7l-24.2-3.5c0,0,12.8-43.5-14.3-73.6c0,0,4.4-2,10.9-4l4.9,8.9l3.3-9.9
				c0,0,26.6-0.5,44.9,9.9C2850.1,718.5,2823.6,760.7,2836,785.9z"/>
		</g>
		<path id="right_arm" style="fill:#0C4A49;" d="M2902.8,781.4c0,0,17.8,4.4,28.3,10.4c1.2,0.7,4.9,5.8,4.9,5.8s6.8,12.4,5,21
			c-1.1,5,3.3,16.2,4.1,20l4.9-17.4l-4.9-7.4l-2.1-9l8.6-11.8l2.8-2.8c0,0,6.5-2.1,7.2,1.6l3.5-0.7c0,0,4.4-0.2,6,1.2
			c1.6,1.4,2.1,5.8,2.1,5.8s3.5-1.4,7.9,1.4l1.9,4.6c0,0,2.8,0.2,3.2,3.7l-1.4,5.3l-9.5,12.3c0,0-4.2,2.3-6,1.6c0,0-3.9,16-4.7,25.5
			c0,0.4,2.8,3,2.8,3.4c0,0-2.8,6.8-3.7,10.5c-0.9,3.7-5.6,15.3-17.4,20.8c0,0-7.7,3.6-10.9-2.1l-14.2-15c0,0,0.3-11.8-5-31
			C2915.8,839,2897.3,790.8,2902.8,781.4z"/>
		<path id="legs" style="fill:#0C4A49;" d="M2839.5,829.1c0,0,6.7,32.1,4.9,39.3c-3.4,13.4-2.5,39.8-2.5,39.8s-1.2,11.7-1.2,17
			c0,5.3-0.2,10.1-0.5,10.9c-0.2,0.8-0.5,8.6,0,13.2c0,0,1.2,5.1-0.2,6.3c-1.4,1.3-0.2,5.1,0,7.6c0.2,2.5,0.7,13.4,0.7,13.4
			s0.3,10.6-2.1,21.6c-0.9,4.1-1.4,11.4-1.4,11.4s-0.9,20-1.2,26.1c-0.2,6.1-8.8,23.4-8.3,33.6c0,0,0.9-4.1,17.1-6.9l21.3,6.3
			c0,0,8.7-9.2,4.5-18.3c0,0,3.6-3.3,2.2-4.8c-1.4-1.5,1.7-4.8,1.7-4.8s3.9-8.9,1.6-13l0.2-7.5c0,0,0.3-6.8,1-13.9
			c0.1-1.1,1.5-7.2,1.7-17.9c0,0,4.1-10.7,1.6-20.5l2-8.6c0,0,2.3-8.4,6,0.7c0,0-0.5-7.6-0.7-0.3c-0.2,7.4,2,11.6,3.7,18.5
			c0.8,3.5,0.1,8.1,1.2,10.9c0,0-1,5.3,0.9,13.7c0,0,2.1,9.6,1.4,11.9c-0.7,2.3,0,12.4,1.4,15.5c1.4,3-4.6,9.6,0.9,23.1v3.6
			c0,0,37.4,17.6,42.9,9.7c0.2-0.3,0.3-9.1,0.4-9.4c3-9.4-0.5-8.9-7.4-16c0,0-0.9-6.8-0.5-10.4s-1.9-6.8-1.9-6.8s-3.1-7.5-0.5-11.7
			c0.5-0.8,0.5-13.5,0.9-19.5c0.4-5.5,3.5-12.9,0-18.3c-3.5-5.3-0.2-21.6-4.9-34.5l3.9-6.1c0.2-5.9-1.4-7.5-2.5-11.9
			c0,0,3-16,0.2-22.1c0,0-3.8-23.8-5.2-36.8l9.1-32c0,0-9-46.6-36.8-52.4c0,0-42.8,5-48.4,7.5C2841.6,789,2839.5,829.1,2839.5,829.1
			z"/>
		<path style="fill:#0C4A49;" d="M2928.5,1059.4c0,0,7.4,4.7,19.1,2.8c0,0,11.2,0.5,14.3,11.8l1.3,0.2l0.9,5.5
			c0,0-0.1,6.4-30.5,11.2c-2.4,0.4-13.2-0.4-13.2-0.4l-0.8-0.5l-16.5-1.1c0,0-3.3-3.2-5.3-19.3l-0.3-16L2928.5,1059.4z"/>
		<path style="fill:#0C4A49;" d="M2835.9,1054.1c0,0-0.1,8.4-12.4,7.5c0,0-18-0.6-19,12.5l-1.3,0.3l0.2,6.3c0,0,1.3,4.9,33.4,7.2
			c2.5,0.2,13.4,0.4,13.4,0.4l0.7-0.7l16.2-5.7c0,0,3.2-1.2,2.2-19.6l-8.2-17.1L2835.9,1054.1z"/>
	</g>
	<g>
		<g>
			<path style="fill-rule:evenodd;clip-rule:evenodd;fill:#0C4A49;" d="M2755.9,961.2c1.1-4-2.9-26.1-3.8-32.8
				c-0.1-1.2-2.5-12.4-3.5-26.1c-0.3-4.6-4.4-21.7-4.4-23.8s-4.6-8.5-11-12.5c-3.2-2-18.2-7-18.2-7l-18.2-1.5c0,0-10.7,5.3-20.2,10
				c-9.5,4.7-15.1,24.9-15.1,24.9s-2.3,4.8-2.3,8.6s-2.6,10.4-2.6,10.4s-0.5,17.4,0.9,20.2c1.4,2.8,10.7,20.1,10.7,20.1l6.8,7.6
				l53.2,10.9l1-43.3c0,0,5.9,14.3,8.8,21.2c1.6,3.7,1.6,7.5,1.6,7.5c-1.1,8,4.2,15.8,4.2,15.8l8.5-2.7c0,0,3.2,0.5,4.8-1.3
				C2758.8,965.3,2755.9,961.2,2755.9,961.2z M2676.2,933.5c0,0-1.5-4.1-1.9-7.2c-0.4-3,2.3-15.4,2.3-15.4L2676.2,933.5z"/>
			<path style="fill-rule:evenodd;clip-rule:evenodd;fill:#0C4A49;" d="M2754.3,972.9c0.7-4.5-0.9-9.9-0.9-9.9
				c-0.2-3.2-9.6-1.7-9.6-1.7s2.1,7.9,2,9.2s-2,7-0.2,6.4l3-2.2c0,0,1.3,1.8-0.7,3.5c-0.6,0.5-2.3,2.7-1.6,3.1c0,0,3.1,1.4,5.7-2
				C2754.5,976.1,2754.3,972.9,2754.3,972.9z"/>
			<path style="fill-rule:evenodd;clip-rule:evenodd;fill:#0C4A49;" d="M2688.1,939.2c0,0-12.7,9.1-13.2,6.7
				c-0.9,15.1-2.1,20.6-3.1,23c-1.9,4.5,0.4,13.7,0.4,13.7s14.7,5.5,21.1,5.5c6.4,0,13.2-4.1,13.2-4.1s23.4,1.5,26,2.3
				s9.8-4.1,9.8-7.5c0-3.4-6.4-25.6-6.8-33.9l-5-23.5L2688.1,939.2z"/>
		</g>
		<g>
			<path id="legs_2_" style="fill-rule:evenodd;clip-rule:evenodd;fill:#0C4A49;" d="M2681.1,980.2c0,0-1.1,26,0.4,29.8
				c1.5,3.8-0.8,10.9-0.8,12.1s1.1,25.2,1.1,25.2l-2.3,13.7l1.7,10.2c0,0,26,0.6,24.5,0.6c-1.5,0,2.4-13.2,1.7-16.6
				c-0.8-3.4,1.9-7.9,0.4-12.8c0,0,0.8-5.6,0.4-9.8c0,0,0.8-13.9,0.4-15.4c-0.4-1.5,0.8-14.3,0.8-14.3s3.8,7.2,3.8,10.9
				c0,3.8,2.8,18.5,2.8,18.5s-0.8,4.9,0.4,8.3c1.1,3.4,0,12.8,0,12.8s0.6,12.4,0.6,13.9c0,1.5-0.8,6-0.8,6s15.1-0.8,21.8-4.1
				c0,0,6,4.5,5.3-1.5c0,0-1.3-8.7-2.4-10.5c-1.1-1.9-2.1-14.7-2.1-14.7l-0.2-42.9l-1.9-24.1L2681.1,980.2z"/>
			<g>
				<path style="fill-rule:evenodd;clip-rule:evenodd;fill:#0C4A49;" d="M2685.1,1068.5c0,0-5.1,5.8-2.1,11.5l2.4,3.4
					c0,0,10.7,3.4,18.3,0.6c0,0,8.3-2.8,8.3-8.1c0-1.1-6.8-18.1-6.8-18.1L2685.1,1068.5z"/>
				<path style="fill-rule:evenodd;clip-rule:evenodd;fill:#0C4A49;" d="M2701.8,1063.5c0,0,6.4-0.8,9,0.4c2.6,1.1,7.2,5.3,1.9,12.8
					c0,0-11.7,12.1-16.9,7.2c-5.3-4.9-3.4-18.8-3.4-18.8L2701.8,1063.5z"/>
			</g>
			<path style="fill-rule:evenodd;clip-rule:evenodd;fill:#0C4A49;" d="M2716.3,1063.6c0,0-3.8,0-3.4,6.4c0.4,6.4,2.3,8.7,3.4,10.9
				s15.7,3,19.6,1.9c8.3-2.3,3-19.6,3-19.6L2716.3,1063.6z"/>
		</g>
		<g>
			<path style="fill-rule:evenodd;clip-rule:evenodd;fill:#0C4A49;" d="M2693.8,847.4c0,0,3.2,7.6,2.4,10.8c0,0-7.8,7.6-5.9,15.1
				c1.9,7.5,35,6.2,35,6.2l-7.2-17.1c0,0-2.9-12.6,5.9-20.6L2693.8,847.4z"/>
			<path id="head_3_" style="fill-rule:evenodd;clip-rule:evenodd;fill:#0C4A49;" d="M2704.8,794c0,0-15.5,3.7-19.8,10.4
				c0,0-2.7,2.9-4,3.5l3.5-1.1c0,0-5.3,4.5-6.4,8.3l2.4-1.3c0,0-2.1,10.2-1.6,17.4l1.9-2.4c0,0-0.5,2.4,0.5,9.9l1.6-0.3l1.6,5.9
				l1.1-1.6c0,0,1.1,2.4,0.3,4c0,0,2.1,0,3.2-3.2l1.9,7l1.1-2.7l1.1,4.5l1.9-0.3l0.5,1.6l2.7-1.9l1.3,2.4l1.1-1.6l0.8,2.9l1.1-2.7
				l1.9,2.7c0,0,0.5-1.3,2.4-1.6c0,0,2.4-1.1,4,0.8c0,0,3.5-2.1,5.6-2.4l2.9,1.3c0,0,2.9-5.3,5.1-6.2l1.9,1.6c0,0,0.5-3.5,1.6-5.3
				l2.7-6.7l0.5,2.9c0,0,2.9-7,2.4-10.7l-0.5-10.7c0,0,0.8,0.5,2.1,0.5l-2.1-6.7C2732.9,812.4,2729.4,794,2704.8,794z"/>
		</g>
	</g>
</g>
</svg>
