<svg version="1.1" id="mountains_x5F_3" xmlns="http://www.w3.org/2000/svg" xmlns:xlink="http://www.w3.org/1999/xlink" x="0px"
	 y="0px" viewBox="0 0 3887 1759.9" style="enable-background:new 0 0 3887 1759.9;" xml:space="preserve">
<linearGradient id="SVGID_5_" gradientUnits="userSpaceOnUse" x1="1943.5249" y1="1423.1157" x2="1943.5249" y2="975.6963">
	<stop  offset="0" style="stop-color:#A4D8CE"/>
	<stop  offset="1" style="stop-color:#3B9490"/>
</linearGradient>
<path style="fill:url(#SVGID_5_);" d="M0,1759.9V772.8c0,0,24.5,56.5,61.1,74.3c36.7,17.8,59.4,40.4,78.6,37.2
	c19.2-3.2,33.2-23.2,45.4-21.3c12.2,1.9,55.9-10,69.9,0c14,10,7-12.8,12.2-21.6c5.2-8.8,54.2-18.5,66.4-20.1
	c12.2-1.6,19.2-11.3,45.4-12.9c26.2-1.6,120.5,31,164.2,38.1c43.7,7.1,108.3,10.3,132.8,20c24.5,9.7,47.2,43.6,64.6,46.9
	c17.5,3.2,33.2,14.5,52.4,9.7c19.2-4.8,43.7-25.9,59.4-9.7c15.7,16.2,29.7,24.2,61.1,25.8c31.4,1.6,57.6,24.2,68.1,29.1
	s27.9-1.6,48.9-22.6c21-21,33.2-32.3,50.7-43.6c17.5-11.3,33.2-24.2,48.9-43.6c15.7-19.4,1.7-29.1,36.7-32.3
	c34.9-3.2,57.6-3.3,92.6-17.8c34.9-14.5,22.7-20.9,75.1-25.8c52.4-4.8,104.8,8.1,129.3,22.6c24.5,14.5,50.7,27.5,71.6,29.1
	c21,1.6,17.5-4.8,54.2,3.2c36.7,8.1,41.9,9.7,73.4,21c31.4,11.3,24.5,19.9,62.9,17.2c38.4-2.7,99.6-25.3,122.3-25.3
	c22.7,0,33.2,16.6,59.4,25.3c26.2,8.6,48.9,5.4,71.6,21.6c22.7,16.2,28,30.7,43.7,42c15.7,11.3,8.7,12.7,36.7,30.6
	c27.9,17.9,55.9,27.6,62.9,29.2c7,1.6,8.7,11.3,29.7,19.4c21,8.1,29.7,3.2,50.7,14.5c21,11.3,19.2,12.9,45.4,24.2
	c26.2,11.3,27.9,17.8,48.9,29.1c21,11.3,17.5,4.8,38.4,21c21,16.2,12.2,21,43.7,30.7c31.4,9.7,12.2,4.8,43.7,16.2
	c31.4,11.3,33.2,6.5,40.2,12.9c7,6.5,43.7-35.4,69.9-44.4c26.2-8.9,28-20.3,54.2-39.6c26.2-19.4,27.9-35.5,54.1-50.1
	c26.2-14.5,17.5-8.1,41.9-22.6c24.5-14.5,29.7-40.4,59.4-54.9c29.7-14.5,28-12.9,45.4-27.5c17.5-14.5,12.2-27.5,22.7-30.7
	c10.5-3.2,43.7,1.6,43.7,1.6l10.5-22.6c0,0-28-16.2,21-21c48.9-4.8,36.7-3.2,48.9-4.8c12.2-1.6,34.9-25.8,41.9-29.1
	c7-3.2,14-8.1,24.5-17.8c10.5-9.7,15.7-15,29.7-22c14-7,8.7-8.7,47.2-8.7s76.9-9.7,89.1-11.3c12.2-1.6,31.4-12.9,47.2,0
	c15.7,12.9,26.2,14.5,64.6,24.2c38.4,9.7,24.5,18,62.9,9.8c38.4-8.2,26.2-8.2,47.2-9.8c21-1.6,62.9-6.5,83.9-4.8
	c21,1.6,17.5-1.4,27.9,14.7c10.5,16-1.7,14.4,21,25.7c22.7,11.3,41.9,11.3,59.4,11.3c17.5,0,31.4-11.3,78.6-25.8
	c47.2-14.5,52.9,7.8,95.2-59.2s132.4,15.5,132.4,26.9v985.5"/>
</svg>
