
<svg version="1.1" id="mountains" xmlns="http://www.w3.org/2000/svg" xmlns:xlink="http://www.w3.org/1999/xlink" x="0px" y="0px"
	 viewBox="0 0 3806.9 1683.2" style="enable-background:new 0 0 3806.9 1683.2;" xml:space="preserve">
<g>
	<path style="fill:#B7E0D9;" d="M3806.8,887.4V417.6c-72.6,15.7-244.3-33.8-244.3-33.8c-4.8-6.3-46,28.8-46,28.8
		c-79.8,25.4-196,27.2-196,27.2c-29-17.8-70.2,1.3-70.2,1.3c-21.8,5.1-128.2-57.1-128.2-57.1c-31.5-16.5-89.5-10.1-89.5-10.1
		c-38.7,41.8-239.5,74.8-239.5,74.8c-41.1,5.1-94.4-6.3-94.4-6.3c-21.8,7.6-41.1,33-41.1,33c-19.4-11.4-26.6-8.9-26.6-8.9
		c-53.2,55.8-113.7,46.9-113.7,46.9c-29-11.4-77.4-57.1-77.4-57.1c-36.3-41.8-65.3-43.1-65.3-43.1c-7.3,10.1-38.7,7.6-38.7,7.6
		c-26.6-5.1-48.4,12.7-58.1,7.6s-24.2,0-24.2,0c-43.5,19-58.1,11.4-58.1,11.4c-19.4-3.8-33.9-15.2-33.9-15.2
		c-21.8-3.8-87.1,25.4-87.1,25.4c-36.3,16.5-70.2,10.1-79.8,6.3s-24.2-2.5-24.2,5.1s-19.4,1.3-19.4,1.3c-19.4-7.6-70.2,19-104,24.1
		c-33.9,5.1-77.4-30.4-123.4-24.1s-180.7,45.4-180.7,45.4s-32.9,1.3-59.3-4.5c-26.4-5.8-43.3-9.5-100.3-21.2
		c-57-11.7-38,13.1-85.5,21.9c-47.5,8.8-63.4,6.6-114.1-5.8c-50.7-12.4-60.2-10.2-105.6-13.9c-45.4-3.6-42.3-6.6-82.4-24.8
		c-40.1-18.2-88.7-0.8-135.2,5.8c-46.5,6.6-39.1,5.1-70.8-5.8c-31.7-10.9-63.4-8.8-104.6-7.3c-41.2,1.5-56,5.8-84.5,1.5
		c-28.5-4.4-75-8-108.8-13.1c-33.8-5.1-39.1-16.1-68.6-27.8c-29.6-11.7-42.2-26.3-64.4-27.8c-22.2-1.5-95.1,23.4-116.2,39.4
		c-21.1,16.1-38,7.3-70.8,18.3c-32.7,11-62.3,13.9-113,27l-59,21.4v396H3806.8z"/>
	<linearGradient id="SVGID_1_" gradientUnits="userSpaceOnUse" x1="1903.481" y1="1445.2532" x2="1903.481" y2="436.4102">
		<stop  offset="0" style="stop-color:#FFFFFF"/>
		<stop  offset="0.2576" style="stop-color:#FDFEFE"/>
		<stop  offset="0.3503" style="stop-color:#F6FBFA"/>
		<stop  offset="0.4162" style="stop-color:#EBF6F4"/>
		<stop  offset="0.4693" style="stop-color:#DAEFEC"/>
		<stop  offset="0.4764" style="stop-color:#D7EEEA"/>
		<stop  offset="0.5515" style="stop-color:#D0EAE6"/>
		<stop  offset="0.66" style="stop-color:#BDDFDA"/>
		<stop  offset="0.7888" style="stop-color:#9ECEC8"/>
		<stop  offset="0.9318" style="stop-color:#72B5AE"/>
		<stop  offset="1" style="stop-color:#5BA8A0"/>
	</linearGradient>
	<path style="fill:url(#SVGID_1_);" d="M3715.5,475.9c-4.5-7.8-9.6-8.9-13.3-8.1c-4.6,0.9-9.3-0.5-12.8-3.7l-70.1-16.1
		c-0.2-0.2-0.4-0.3-0.5-0.5c-1.1-1.1-6.2-6.1-13.7-9.4c-2-0.9-4.1-1.3-6.2-1.3l-23.7,0.3c-0.6,0-1.3-0.1-1.9-0.1
		c-31.7-4.2-105.3,18.7-119.2,32.5c-1.5,1.5-3.3,2.7-5.4,3.4l-22,8.2c-0.5,0.2-1,0.4-1.4,0.6l-3.2,1.6c-3.1,1.5-6.6,1.9-9.9,1.2
		l-5.6-1.3c-5.1-1.1-10.4,0.4-14.1,4.2l-8.9,9.2c-0.5,0.5-1,1.1-1.4,1.7c-33.9,46.1-173.6,55.5-190.7,57.6
		c-17.2,2.1-24.1-7.4-53.4-18.1c-29.3-10.6-106.9,23.4-122.4,22.3c-11.4-0.8-36.8,7.1-49.5,11.3c-4.7,1.6-9.8,0.7-13.8-2.3l-3.3-2.5
		c-3.7-2.8-8.5-3.7-12.9-2.5l-7.3,2c-1.9,0.5-3.7,1.4-5.2,2.6l-7.3,5.6c-1.6,1.2-3.4,2.1-5.4,2.6l-17.2,4.4c-0.3,0.1-0.7,0.2-1,0.2
		c-2.9,0.5-18.7,3.7-20.2,9.5c-1.7,6.4-22.4,4.3-34.5-2.1s-15.5,5.3-25.9,12.8c-10.3,7.4-34.5-10.6-60.3-34.7
		c-25.9-24.1-20.7-27-46.5-41.9c-20.9-12-44.1,1.7-52.2,7.3c-1.5,1.1-2.8,2.3-3.8,3.9c-1.9,2.9-7.8,8.5-23.3,6.9
		c-20.7-2.1-29.3,29.8-43.1,31.9c-10.8,1.7-22.7,0.7-27.3,0.2c-1.2-0.1-2.3-0.4-3.4-0.8c-9.5-3.2-24.7,0.6-31.5,2.6
		c-2.1,0.6-4.4,0.8-6.6,0.4c-21.2-3.1-55.4,10.9-55.4,10.9c0,0.5-38.4,0.6-55-10.6c-16.6-10.8-36.3-18.3-45.6-21.3
		c-9.3-3.1-19.7-8-27-12.9c-7.3-5.1-27-9.8-34.2-10.6c-7.3-0.9-16.6-2.2-32.2-4c-15.6-1.6-8.3,0.4-20.7-1.2
		c-12.4-1.6-22.8-2.2-31.1-2.5c-8.3-0.3-12.4-8.2-31.1-7.7c-18.7,0.4-18.1-5.7-24.3-5.9c-6.2-0.2-10.4,4.8-19.7,4.6
		c0,0-48.6,20.3-77.7,42.1c-29,21.8-133.1,16.9-140.3,4.8c-7.3-12.1-52.3-28.9-52.3-28.9c-12.4,0.1-20.7,0.5-37.3,3.7
		c-16.6,3.1-37.3-7-50.8-5.2c-13.5,1.7-19.7,4.3-27,5.8c-7.3,1.6-20.7,0.1-33.2,0.9c-12.4,0.9-9.3-0.7-18.7,1.5
		c-9.3,2.2-14.5-1.3-19.7-1.7c-5.2-0.4-16.6,1.1-21.8,3.3c-5.2,2.1-10.4,3.2-15.6,3.1c-5.2-0.1-1-3.6-5.2-0.1
		c-4.1,3.6-16.6,5.7-23.9,6.4c-7.3,0.7-6.2,7.2-10.4,9.7c-3.6,2.1-4.5,5.8-6.9,6.1c-0.5,0.1-9,0.9-9.5,1.1c-2,0.5-6.8,1-8.5,3.3
		c-1.4,2-8.3,9.8-16.7,9.9c-2.4,0-4.8-8.6-6.9-9.7c-2-1.1-4-2.3-5.7-3.6c-7.3-5.5-27-9.4-34.2-9.5c-7.3-0.1-16.6-8.7-32.2-9.6
		c-15.6-1-8.3,3.3-20.7,1.4c-12.4-2-22.8-2.1-31.1-1.6c-8.3,0.5-12.4,2.2-31.1,9c-18.7,6.9-34.2,8.3-40.5,8.7
		c-6.2,0.5-10.4-2.6-19.7-1.9c-9.3,0.7-11.4,2.6-21.8,3.3c-10.4,0.8-13.5-13.4-28-17.5c-14.5-4-25.9-10.4-40.5-13.1
		c-14.5-2.6-18.2-3.7-31.9,0.7c-13.7,4.4-21,4.5-38.6-2c-17.6-6.4-37.3-18.6-49.8-18.6c-12.4,0-31.1,0-43.6,0
		c-12.4,0-20.7,4.6-37.3,21.1c-16.6,16.4-37.3,38.7-50.8,42.2c-13.5,3.6-19.7,11.7-27,15.1c-7.3,3.5-20.7-5.3-33.2-5.5
		c-12.4-0.3-9.3-4.4-18.7-0.2c-9.3,4.3-14.5-7.2-19.7-9.6c-5.2-2.4-16.6-0.3-21.8,4.1c-8.5,7.2-15.5,1.6-24.9,5.3
		c-7.4,2.9-9.8,7-19.7,6.5c-7.3-0.4-6.2,1.9-10.4,6c-3.2,3.2-10.9,3.4-14.1,3.4c-1.8,0-3.7,0.2-5.4,0.9c-2.1,0.8-4.4,2.2-5.4,4.8
		c-2.1,5.1-16.6-3.5-30.1-4.7c-13.5-1.3-11.4,7.1-22.8,7.7c-8.1,0.5-16.7,0.3-24.5-1.2c-8-1.6-11.6-3.5-20.7-3.1
		c-7.3,0.4-13.9,1.5-21.2,0.2c-15.6-2.8-35.3-10.9-42.5-12.3c-7.3-1.2-31.1,0.6-42.5-1.8c-8.5-1.3-28-2.8-37.3-3.6
		c-3.4-0.3-6.8,0.6-9.7,2.5L528,608.3c-2.4,1.6-5.3,2.5-8.2,2.5c-12.4,0.2-48.3-0.7-68.1,20.2c-24.1,25.5-21.8-5.9-42.5-8.1
		c-16.5-1.7-18.6-9-24.3-15.4c-3.9-4.4-11.6-16.3-16.6-19.5c-19.3-12.1-56.6-36.9-64.8-45.4c-7.1-7.3-24.5-6.6-34.7-5.4
		c-5,0.6-9.9-1.4-13.1-5.2l-2.5-2.9c-3-3.6-7.5-5.5-12.2-5.3l-30,1.5c-2.5,0.1-5-0.4-7.3-1.5c-9-4.3-35.1-15.4-65.7-15.4
		C100.1,508.7,0.1,530,0.1,530v915.3h3791.7c8.3,0,15-6.7,15-15V621.6c0-2.6,0.2-133.9,0-136.5L3715.5,475.9z"/>
</g>
</svg>
