<?xml version="1.0" encoding="utf-8"?>
<!-- Generator: Adobe Illustrator 18.0.0, SVG Export Plug-In . SVG Version: 6.00 Build 0)  -->
<!DOCTYPE svg PUBLIC "-//W3C//DTD SVG 1.1//EN" "http://www.w3.org/Graphics/SVG/1.1/DTD/svg11.dtd">
<svg version="1.1" id="grass_x5F_ppl" xmlns="http://www.w3.org/2000/svg" xmlns:xlink="http://www.w3.org/1999/xlink" x="0px"
	 y="0px" viewBox="0 0 2107 1108.2" style="enable-background:new 0 0 2107 1108.2;" xml:space="preserve">
<linearGradient id="himmel_1_" gradientUnits="userSpaceOnUse" x1="1053.4196" y1="534.078" x2="1053.4196" y2="4.971646e-006">
	<stop  offset="0.3726" style="stop-color:#FFFFFF"/>
	<stop  offset="0.9953" style="stop-color:#B7E0D9"/>
</linearGradient>
<rect id="himmel" y="0" style="fill:url(#himmel_1_);" width="2106.8" height="534.1"/>
<circle id="sun" style="opacity:0.8;fill:#FFFFFF;" cx="460.1" cy="189.2" r="97.9"/>
<path style="opacity:0.9;fill-rule:evenodd;clip-rule:evenodd;fill:#FEFDFF;" d="M774.1,264.5c42.2,0,82.3-1.3,124-1.3
	c0.4,0,0.8,0,1.4,0v-17.4c-8.6,1-15.5,2.3-16.9,1.9c-0.3-0.1-48.1-47.5-48.1-24.5c0-8-20.2,3.8-32.6-6.4
	c-33.5-55.8-94.5-7.9-113.2,23.2c-10.9-18.2-28.6-19.4-49.6-19.4c-18.9,0-11.8,30.1-32.6,23.2c-46.6-15.5-68.5,5.1-110.1,5.1
	c-20.3,0-41.3,0.4-62.5,0.7c-26.4-21.1-63.1-32.6-86.5,6.3c-12.3,10.3-32.6-1.5-32.6,6.4c0-23-47.8,24.4-48.1,24.5
	c-4.6,1.3-67.3-14.5-55.8,14.2c1.4,3.5,34.1,1.3,40.3,1.3c41.7,0,81.8,1.3,124,1.3c98.7,0,210.3,10.6,305.4-2.6
	c19.2-2.7,139.6-11.6,89.9-11.6c-39.3,0-79.7-1.3-117.8-1.3c-41.6,0-63.5-20.6-110.1-5.1c-14.1,4.7-15.3-7.7-20.6-16.2
	C604.2,271.5,693.5,264.5,774.1,264.5z"/>
<path style="opacity:0.3;fill-rule:evenodd;clip-rule:evenodd;fill:#FFFFFF;" d="M1918.2,76.1c-0.2-0.1-39.9-39.5-39.9-20.4
	c0-6.6-16.8,3.2-27-5.4c-27.9-46.4-78.5-6.5-94,19.3c-9.1-15.1-23.8-16.1-41.2-16.1c-15.7,0-9.8,25-27,19.3
	c-38.7-12.9-56.9,4.3-91.4,4.3c-25.7,0-52.6,0.7-79.3,1v4.4c21.5,2.1,48.5,4.3,56.1,5.4c79,10.9,171.7,2.1,253.7,2.1
	c35,0,68.3-1.1,103-1.1c5.1,0,32.3,1.8,33.5-1.1C1974.1,64.1,1922.1,77.2,1918.2,76.1z"/>
</svg>
