<svg version="1.1"  class="wobbling" id="big_harpyie"  width="100%" height="100%" xmlns="http://www.w3.org/2000/svg" xmlns:xlink="http://www.w3.org/1999/xlink" x="0px"
	 y="0px" viewBox="0 0 1067 844" style="enable-background:new 0 0 1067 844;" xml:space="preserve">
<path id="leg1_4_" style="fill:#023330;" d="M470.5,592.8c0,0-25.8,32.7-9.2,57.3c16.6,24.6,36.9,40.6,36.9,40.6l-50.4,34.2
	c0,0-16.3,33.8-12.8,42.7c0,0-0.5,33.1,14.7,37.7c0,0,14.8,3.5,13.6-4.4c0,0-10.1,0.3-10-12.6l0.3-15.6c0,0,3.9,31.3,17.1,27.6
	c0,0-5.3-23.6-4.7-33.5c0,0-2.1-18.5,6.3-23.3c0,0,13,5.5,2.1,31.4c0,0,16.4-6.9,19-28c0,0-8.8-17.6-14.9-20.2c0,0-7.8,1.3-5.4-4.2
	c0,0,22.1-16.6,39.4-16.6c0,0,3.4-7.8,1.6-14.1c0,0-23.4-35.8-18.8-54.3l18.1-36.8C513.2,600.8,500.9,555.6,470.5,592.8z"/>
<path id="leg1_1_" style="fill:#023330;" d="M546.6,600.8c0,0,25,11.3,19.7,34.9s-11.7,42-11.7,42l48.1,9.7c0,0,22.3,20.1,22.3,27.9
	c0,0,10.1,24.6,0,32.8c0,0-10.2,7.3-11.6,1c0,0,7.7-2.9,3.9-12.6l-4.8-11.6c0,0,6.3,24.6-4.8,26c0,0-2.9-19.3-6.3-26.5
	c0,0-3.9-14.5-11.6-15.4c0,0-8.2,8.2,7.7,24.1c0,0-14.4,0-22.6-15c0,0,1.4-15.9,5.3-19.8c0,0,6.3-1.5,2.9-4.8c0,0-21.6-5.4-34.6,0
	c0,0-4.9-4.8-5.4-10.1c0,0,8.8-39.9-0.1-52.3l-29.3-14.7C513.6,616.5,512.7,582.6,546.6,600.8z"/>
<path id="tail_2_" style="fill:#023330;" d="M493.9,533.3v13.4l-15.8,25L456.1,608c-4.3,7.6-16.9,16.9-16.9,16.9
	c0-8.5,7.6-26.2,7.6-26.2c11-27.9-6.8-6.8-6.8-6.8c-28.8,28.8-36.4,27.1-36.4,27.1c0.8-9.3,20.3-27.1,20.3-27.1L418,597
	c-19.5,15.2-11-3.4-11-3.4l-5.1,7c-12.7,11.2-11.8-1-11.8-1c-11,4.2-4.1-9.9-4.1-9.9c-16.9,1.7-12-1.1-12-1.1
	c-4.2-7.6,39.5-23.2,39.5-23.2c-2.5,2.9-81.9,29.1-81.9,29.1c-7.6-8.5,105.8-53.2,105.8-53.2c-11,3.2-36.8,2.6-36.8,2.6
	c30-22.7,90-16,90-16L493.9,533.3z"/>
	
<path id="left_wing_2_" class="flying_left" style="fill:#023330;" d="M681.1,437.2c53.9-26.2,47.5-43.9,47.5-43.9s5.4-23,24.2-24.9
	c0,0,44.5-83.3,54.2-86.4c0,0-1.2,26.2-17.5,60.2c0,0,39.4-63.5,60.5-82.5c0,0-24.1,80.2-53.3,103.8c0,0,31.7-25.6,38.1-19.8
	c0,0-38.8,59.2-74.1,68.1c0,0,35.2-1.6,36.3,5.6c0,0-38.9,18.5-59.3,20.9c0,0,32.1,6.2,38.6,14.3c0,0-20.4,7.4-45.8,1
	c0,0,6.4,7.4,6.5,18.1c0,0-35.7,1.9-48.3-5c0,0-12.8-11.2,4.6,2.6c0,0,2.6,0.6,3.8,1.4c16.1,11.3,10.2,18.2,10.6,18.1
	c-7.3,1.6-19.6-21.7-35.2-22.2l-19.2-7c-0.3-0.1-0.6,0.2-0.5,0.5c0.6,2.5-1.9-7-21.2-5.7c-17.7,1.2,1-17.8,1-17.8
	S663.7,445.7,681.1,437.2z"/>
	
<path id="right_wing_2_" class="flying_right" style="fill:#023330;" d="M598.3,442.1c0,0-9.1,0.8-39.2-5.4c-39.9-8.2-48.3-25.5-48.3-25.5L464.6,351
	c0,0,35.5,3.7,29.7-3c-5.8-6.7-28.8-11.7-31.3-11.7c0,0,11.4-17.8,23-18.3c0,0,14.3-19-27.3,3c0,0-7.6,7.9-5.9,18.6
	c0,0-15.8-71.3-32.4-92.1c0,0-3.3,5,0,17.4c0,0-39-107.8-53.9-117.8c0,0-1.7,5,0,14.1c0,0-55.6-119.8-86.3-136.2
	c0,0,2.5,15.1,5.8,23.4s40.7,104.5,47.3,114.5c0,0-50.6-89.6-67.2-93.7v15.3c0,0,51.7,84.6,60.6,96.7c8.8,12.1,13.7,29,13.7,29
	s-53.6-66.4-62.7-72.2c0,0-9.1,5.8,34,56.4c0,0,0.8,10.8,12.4,26.5c0,0-52.3-48.7-77.2-60.6c0,0,13.3,36.6,63.9,73.5V245
	c0,0-30.7-24.1-52.3-27.4c0,0,36.5,40.7,58.9,58.1l-8.3,4.6c0,0,10.8,20.3,16.6,24.5c0,0-50.6-19.9-65.5-19.9c0,0,49.8,34.7,73,41.8
	c0,0,18.3,21.4,21.6,21.3c3.3-0.1-16.6-5.1-25.7-6.7c0,0,24.1,29,57.2,31.5l-23.2,4.1c0,0,15.8,17.6,24.1,17.9l-5.8,6.7
	c0,0,13.3,6.1,21.6,5.3c0,0-8.3,4.1-0.8,8.3c7.5,4.1,17.4,6.1,17.4,6.1s-8.7,6.6-3.9,10.2c4.7,3.6,14.7,3.5,19.7,1.9
	c5-1.6,0.8,4,0.8,4s10,8.3,12.4,6.3c2.5-2,2.5-2,2.5-2l0,0c0,0-1.4,5.8,3.4,5.8s3.9,0,8.1,0s4.2,0,4.2,0s-18.3,9.2-25.7,6.7
	c-7.5-2.5,12.4,5.9,36.5,0c0,0,1.7,7.4,7.5,9.9H497c0,0,9.6,1.2,8.8,3.9c-0.8,2.7-6.6,5.2,1.7,6c8.3,0.8,7.5,1.7,10.8,0
	c3.3-1.7,6.6-3.3,3.3-1.7c-3.3,1.7,3.7,7.4,16,5c14.6-2.8,32.1,4.5,56.2-15C599.1,458.1,598.3,442.1,598.3,442.1z"/>
	
<path id="body_2_" style="fill:#10504F;" d="M615.4,450.1c0,0-56.4-22.1-79.5,22c0,0-25.5,40.5-52,52.1c0,0-20.1,7.7-25.7,17.8
	c0,0-18.1,21.5,12.6,58.9c0,0,13.3,44.8,33.2,39c19.9-5.8,44.8-20.5,44-37.1c0,0-27.7-42.7-7.8-55c0,0,1.9-3.7,16.1-6
	c0,0,27.9,0.2,36.7-15.6l10.3-19.2C603.3,506.9,640,448.9,615.4,450.1z"/>
	
<g id="head">
	<g>
		<path style="fill:#0C4A49;" d="M686.3,450.4c0,0,1-60-50.1-57.2c0,0-48.1-5.8-57.2,39.8c0,0-6.7,24.1,10.2,35.6l32.9-7.8
			l33.3-14.6L686.3,450.4z"/>
		<path style="fill:#0C4A49;" d="M600.5,377c15.7-15.8,44.7-1.5,32.1,25l-31.1,8.3C601.5,410.2,583,394.5,600.5,377z"/>
	</g>
	<g>
		<path style="fill:#FFFFFF;" d="M602.4,490c0,0-17.7-3.5-13.2-37.1c4.1,1.4,10.7,8.2,11.1,10.4l4.8,26.7H602.4z"/>
		<path style="fill:#FFFFFF;" d="M604.3,463.2c0,0-9.2,29.5,3.2,48.5c0,0,21.4,26.4,33.6,26.4c0,0,9.8-10.4,20.8-32.1
			c0,0,3.3-4.8,4.3-18.1c0,0,8.2-43.8-30.6-48.5C635.5,439.4,606.2,427.1,604.3,463.2z"/>
	</g>
	<g id="eye">
		<circle style="fill:#1A1A1A;" cx="641.6" cy="482.8" r="5.9"/>
		<circle style="fill:#FFFFFF;" cx="643.1" cy="483.7" r="1.7"/>
	</g>
	<path style="fill:#1A1A1A;" d="M685.4,444.5c0,0-1.5,2.1-24.6-6.1c0,0-74.5-30.6-60.2,45.5c0,0,11.5,11.4,12.1,21.1
		c0.7,10.5,10.7,14.8,14.1,14.8c0,0,23.9-17.7,41.1,11.8c0,0,37.8,27.8,33.1,76.7c0,0,4.2-24.9,4.2-24.9c0,0,0.8-6.6-2.8-29
		c-3-18.8-7.4-32.6-15.9-50.1c1,2.2-10.3-12.6-5-18.4C686.8,479.7,690.9,451.1,685.4,444.5z M632.8,487.8c-9.5-6.3,0-19.6,0-19.6
		c9.3-9.3,10.1,4.6,10.1,4.6c4.4,3,10.9,4.8,12.9,10.3C660.4,495.9,632.8,487.8,632.8,487.8z"/>
</g>
</svg>
