
<svg version="1.1" id="Ebene_1" xmlns="http://www.w3.org/2000/svg" xmlns:xlink="http://www.w3.org/1999/xlink" x="0px" y="0px"
	 viewBox="0 0 736.7 736.7" style="enable-background:new 0 0 736.7 736.7;" xml:space="preserve">
<g>
	<g style="opacity:0.8;">
		
			<radialGradient id="SVGIDnew_1_" cx="39.949" cy="-133.1282" r="28.6715" gradientTransform="matrix(2.5526 1.0671 -1.0671 2.5526 209.2057 430.6251)" gradientUnits="userSpaceOnUse">
			<stop  offset="0" style="stop-color:#230000"/>
			<stop  offset="0.73" style="stop-color:#93432A"/>
			<stop  offset="1" style="stop-color:#230000"/>
		</radialGradient>
		<circle style="opacity:0.15;fill:url(#SVGIDnew_1_);" cx="453.2" cy="133.4" r="79.3"/>
		
			<radialGradient id="SVGIDnew_2_" cx="39.9496" cy="-133.1283" r="14.3357" gradientTransform="matrix(2.5526 1.0671 -1.0671 2.5526 209.2057 430.6251)" gradientUnits="userSpaceOnUse">
			<stop  offset="0.15" style="stop-color:#FFFFFF"/>
			<stop  offset="0.2114" style="stop-color:#E2D1D2"/>
			<stop  offset="0.2918" style="stop-color:#BF9A9C"/>
			<stop  offset="0.3613" style="stop-color:#A67276"/>
			<stop  offset="0.4163" style="stop-color:#975A5E"/>
			<stop  offset="0.45" style="stop-color:#915155"/>
			<stop  offset="0.5553" style="stop-color:#6C3638"/>
			<stop  offset="0.6842" style="stop-color:#44191A"/>
			<stop  offset="0.787" style="stop-color:#2C0707"/>
			<stop  offset="0.85" style="stop-color:#230000"/>
			<stop  offset="0.8572" style="stop-color:#270201"/>
			<stop  offset="0.8647" style="stop-color:#340805"/>
			<stop  offset="0.8723" style="stop-color:#48120B"/>
			<stop  offset="0.88" style="stop-color:#652114"/>
			<stop  offset="0.8878" style="stop-color:#8B331F"/>
			<stop  offset="0.8955" style="stop-color:#B8492D"/>
			<stop  offset="0.9" style="stop-color:#D65836"/>
			<stop  offset="0.903" style="stop-color:#C95232"/>
			<stop  offset="0.9146" style="stop-color:#9D3C25"/>
			<stop  offset="0.9267" style="stop-color:#782A1A"/>
			<stop  offset="0.9392" style="stop-color:#591B10"/>
			<stop  offset="0.9523" style="stop-color:#410F09"/>
			<stop  offset="0.9661" style="stop-color:#300604"/>
			<stop  offset="0.9812" style="stop-color:#260201"/>
			<stop  offset="1" style="stop-color:#230000"/>
		</radialGradient>
		<circle style="opacity:0.2;fill:url(#SVGIDnew_2_);" cx="453.2" cy="133.4" r="39.7"/>
		
			<radialGradient id="SVGIDnew_3_" cx="39.9492" cy="-133.1278" r="11.9464" gradientTransform="matrix(2.5526 1.0671 -1.0671 2.5526 209.2057 430.6251)" gradientUnits="userSpaceOnUse">
			<stop  offset="0.15" style="stop-color:#FFFFFF"/>
			<stop  offset="0.2824" style="stop-color:#C2C2C2"/>
			<stop  offset="0.4253" style="stop-color:#888888"/>
			<stop  offset="0.5636" style="stop-color:#575757"/>
			<stop  offset="0.6936" style="stop-color:#313131"/>
			<stop  offset="0.8134" style="stop-color:#161616"/>
			<stop  offset="0.9192" style="stop-color:#060606"/>
			<stop  offset="1" style="stop-color:#000000"/>
		</radialGradient>
		<circle style="opacity:0.4;fill:url(#SVGIDnew_3_);" cx="453.2" cy="133.4" r="33.1"/>
		<g style="opacity:0.1;">
			<polygon style="fill:#FFFFFF;" points="453.2,133.4 426.8,259.7 426.7,259.7 479.6,7.1 479.9,7.2 453.4,133.5 453.4,133.7 
				453.2,133.6 326.9,107.2 327,106.7 579.6,159.6 579.5,160.3 453.2,133.8 453.6,133.6 393.3,293.2 392.4,292.9 513.1,-26.4 
				514.3,-26 453.8,133.7 453.6,134.3 453,134 293.4,73.6 293.9,72.4 613.1,193.2 612.6,194.5 453,134.1 453.9,133.8 412,216.8 
				410.7,216.1 494.4,50.1 495.8,50.8 453.9,133.8 453.6,134.5 452.9,134.1 369.9,92.3 370.6,90.8 536.6,174.6 535.9,176 
				452.9,134.2 453.8,134.1 359.7,216.2 358.6,214.9 546.8,50.6 548,51.9 453.8,134.1 453.2,134.7 452.6,134 370.4,39.9 371.8,38.7 
				536.1,226.9 534.7,228.2 452.5,134.1 454,134 452.9,135.6 451.3,134.5 453.6,131.2 455.2,132.4 454,134 453.5,134.8 452.7,134.2 
				451.1,133.1 452.2,131.5 455.4,133.8 454.3,135.4 452.7,134.2 454.1,133.9 445.6,149.6 443.9,148.6 460.9,117.3 462.6,118.2 
				454.1,133.9 453.6,134.8 452.8,134.3 437.1,125.8 438.1,124.1 469.4,141.1 468.4,142.8 452.8,134.3 453.7,134.3 340.1,197.8 
				339.1,196 566.4,69 567.4,70.9 453.8,134.4 452.8,134.9 452.3,134 388.8,20.3 390.7,19.3 517.7,246.5 515.7,247.6 452.3,134 
				454.3,133.8 437.5,189.5 435.3,188.9 469,77.3 471.2,78 454.4,133.8 454,134.9 452.9,134.5 397.1,117.7 397.8,115.5 509.4,149.1 
				508.7,151.4 452.9,134.6 454.3,134.1 395.3,225.4 393.3,224 511.2,41.5 513.2,42.8 454.3,134.1 453.6,135.1 452.6,134.4 
				361.3,75.5 362.6,73.5 545.1,191.4 543.9,193.4 452.6,134.4 454.4,133.4 458,309.9 455.7,310 448.6,-43.1 450.7,-43.1 
				454.3,133.4 454.3,134.5 453.3,134.5 276.7,138.1 276.7,136 629.8,128.9 629.8,130.8 453.3,134.4 454.1,133.9 448.7,144.6 
				447,143.7 457.8,122.3 459.5,123.2 454.1,133.9 453.7,134.7 452.8,134.3 442.1,128.9 443,127.2 464.4,138 463.5,139.7 
				452.8,134.3 453.8,134.2 366.3,190.6 365.3,189.1 540.2,76.3 541.1,77.8 453.7,134.2 453,134.6 452.5,133.9 396.1,46.5 
				397.6,45.6 510.4,220.4 509,221.3 452.6,133.9 453.6,134.2 336.8,197.7 336.1,196.3 569.7,69.2 570.4,70.5 453.6,134.1 
				452.9,134.5 452.6,133.8 389,17 390.3,16.3 517.4,249.9 516.2,250.6 452.7,133.8 453.9,133.2 495.1,271.8 493.8,272.2 
				411.5,-4.9 412.6,-5.3 453.8,133.3 453.9,133.8 453.4,134 314.9,175.1 314.6,174.1 591.7,91.9 591.9,92.6 453.3,133.7 
				453.5,133.6 385.7,230.6 385.2,230.3 520.9,36.3 521.2,36.5 453.4,133.5 453.3,133.6 453.2,133.5 356.2,65.7 356.3,65.6 
				550.2,201.2 356.2,65.7 356.3,65.6 453.3,133.3 453.1,133.4 520.9,36.3 521.2,36.5 385.7,230.6 385.2,230.3 453,133.2 453,133.1 
				453.2,133.1 591.7,91.9 591.9,92.6 314.9,175.1 314.6,174.1 453.1,132.9 452.7,133.6 411.5,-4.9 412.6,-5.3 495.1,271.8 
				493.8,272.2 452.6,133.6 450.8,127.5 453.8,133.1 517.4,249.9 516.2,250.6 389,17 390.3,16.3 453.9,133.1 452.9,132.8 
				569.7,69.2 570.4,70.5 336.8,197.7 336.1,196.3 452.9,132.7 453.5,132.3 453.9,133 510.4,220.4 509,221.3 396.1,46.5 397.6,45.6 
				454,133 452.8,132.7 540.2,76.3 541.1,77.8 366.3,190.6 365.3,189.1 452.7,132.6 453.2,132.4 453.7,132.6 464.4,138 463.5,139.7 
				442.1,128.9 443,127.2 453.7,132.6 452.4,133 457.8,122.3 459.5,123.2 448.7,144.6 447,143.7 452.4,133 452.7,132.5 453.2,132.5 
				629.8,128.9 629.8,130.8 276.7,138.1 276.7,136 453.2,132.4 452.2,133.5 448.6,-43.1 450.7,-43.1 458,309.9 455.7,310 
				452.1,133.5 452.1,131.3 453.9,132.5 545.1,191.4 543.9,193.4 361.3,75.5 362.6,73.5 453.9,132.4 452.2,132.8 511.2,41.5 
				513.2,42.8 395.3,225.4 393.3,224 452.2,132.8 452.7,132 453.6,132.3 509.4,149.1 508.7,151.4 397.1,117.7 397.8,115.5 
				453.6,132.3 452.1,133.1 469,77.3 471.2,78 437.5,189.5 435.3,188.9 452.2,133.1 452.9,130.5 454.2,132.9 517.7,246.5 
				515.7,247.6 388.8,20.3 390.7,19.3 454.2,132.9 452.7,132.5 566.4,69 567.4,70.9 340.1,197.8 339.1,196 452.8,132.6 453.2,132.3 
				453.7,132.6 469.4,141.1 468.4,142.8 437.1,125.8 438.1,124.1 453.7,132.6 452.4,133 460.9,117.3 462.6,118.2 445.6,149.6 
				443.9,148.6 452.4,133 452.9,132 453.8,132.6 455.4,133.8 454.3,135.4 451.1,133.1 452.2,131.5 453.8,132.6 452.5,132.9 
				453.6,131.2 455.2,132.4 452.9,135.6 451.3,134.5 452.5,132.9 453.2,131.9 454,132.8 536.1,226.9 534.7,228.2 370.4,39.9 
				371.8,38.7 453.9,132.8 452.7,132.8 546.8,50.6 548,51.9 359.7,216.2 358.6,214.9 452.7,132.8 453.1,132.4 453.6,132.7 
				536.6,174.6 535.9,176 369.9,92.3 370.6,90.8 453.6,132.7 452.5,133.1 494.4,50.1 495.8,50.8 412,216.8 410.7,216.1 452.6,133.1 
				452.9,132.5 453.5,132.7 613.1,193.2 612.6,194.5 293.4,73.6 293.9,72.4 453.5,132.8 452.7,133.2 513.1,-26.4 514.3,-26 
				393.3,293.2 392.4,292.9 452.9,133.3 453,133 453.3,133 579.6,159.6 579.5,160.3 326.9,107.2 327,106.7 453.3,133.2 453,133.4 
				479.6,7.1 479.9,7.2 426.8,259.7 426.7,259.7 			"/>
		</g>
	</g>
	<g>
		<g style="opacity:0.3;">
			<defs>
				<filter id="Adobe_OpacityMaskFilter" filterUnits="userSpaceOnUse" x="425.8" y="100.7" width="299.1" height="299.1">
					<feFlood  style="flood-color:white;flood-opacity:1" result="back"/>
					<feBlend  in="SourceGraphic" in2="back" mode="normal"/>
				</filter>
			</defs>
			<mask maskUnits="userSpaceOnUse" x="425.8" y="100.7" width="299.1" height="299.1" id="SVGIDnew_4_">
				<g style="filter:url(#Adobe_OpacityMaskFilter);">
					
						<image style="overflow:visible;" width="304" height="304" xlink:href="B4FE79A5.jpg"  transform="matrix(1 0 0 1 423.1757 98.582)">
					</image>
				</g>
			</mask>
			<g style="mask:url(#SVGIDnew_4_);">
				
					<radialGradient id="SVGIDnew_5_" cx="275.9286" cy="-262.1239" r="54.0606" gradientTransform="matrix(2.7668 0 0 2.7668 -188.0749 975.5356)" gradientUnits="userSpaceOnUse">
					<stop  offset="0" style="stop-color:#FFFFFF;stop-opacity:0"/>
					<stop  offset="1" style="stop-color:#FFFFFF"/>
				</radialGradient>
				<circle style="fill:url(#SVGIDnew_5_);" cx="575.4" cy="250.3" r="149.6"/>
			</g>
		</g>
		<g style="opacity:0.1;">
			<defs>
				<filter id="Adobe_OpacityMaskFilter_1_" filterUnits="userSpaceOnUse" x="441.8" y="197.7" width="175.2" height="175.2">
					<feFlood  style="flood-color:white;flood-opacity:1" result="back"/>
					<feBlend  in="SourceGraphic" in2="back" mode="normal"/>
				</filter>
			</defs>
			<mask maskUnits="userSpaceOnUse" x="441.8" y="197.7" width="175.2" height="175.2" id="SVGIDnew_6_">
				<g style="filter:url(#Adobe_OpacityMaskFilter_1_);">
					
						<image style="overflow:visible;" width="180" height="180" xlink:href="B4FE79A7.jpg"  transform="matrix(1 0 0 1 439.1757 195.582)">
					</image>
				</g>
			</mask>
			<g style="mask:url(#SVGIDnew_6_);">
				
					<radialGradient id="SVGIDnew_7_" cx="259.31" cy="-249.4816" r="31.6695" gradientTransform="matrix(2.7668 0 0 2.7668 -188.0749 975.5356)" gradientUnits="userSpaceOnUse">
					<stop  offset="0" style="stop-color:#FFFFFF;stop-opacity:0"/>
					<stop  offset="1" style="stop-color:#FFFFFF"/>
				</radialGradient>
				<circle style="fill:url(#SVGIDnew_7_);" cx="529.4" cy="285.3" r="87.6"/>
			</g>
		</g>
		<g style="opacity:0.2;">
			<defs>
				<filter id="Adobe_OpacityMaskFilter_2_" filterUnits="userSpaceOnUse" x="419.2" y="338.6" width="111.3" height="111.3">
					<feFlood  style="flood-color:white;flood-opacity:1" result="back"/>
					<feBlend  in="SourceGraphic" in2="back" mode="normal"/>
				</filter>
			</defs>
			<mask maskUnits="userSpaceOnUse" x="419.2" y="338.6" width="111.3" height="111.3" id="SVGIDnew_8_">
				<g style="filter:url(#Adobe_OpacityMaskFilter_2_);">
					
						<image style="overflow:visible;" width="117" height="117" xlink:href="B4FE79A2.jpg"  transform="matrix(1 0 0 1 416.1757 335.582)">
					</image>
				</g>
			</mask>
			<g style="mask:url(#SVGIDnew_8_);">
				
					<radialGradient id="SVGIDnew_9_" cx="239.5881" cy="-210.1107" r="20.1086" gradientTransform="matrix(2.7668 0 0 2.7668 -188.0749 975.5356)" gradientUnits="userSpaceOnUse">
					<stop  offset="0" style="stop-color:#FFFFFF;stop-opacity:0"/>
					<stop  offset="1" style="stop-color:#FFFFFF"/>
				</radialGradient>
				<circle style="fill:url(#SVGIDnew_9_);" cx="474.8" cy="394.2" r="55.6"/>
			</g>
		</g>
		<g style="opacity:0.2;">
			<defs>
				<filter id="Adobe_OpacityMaskFilter_3_" filterUnits="userSpaceOnUse" x="0" y="0" width="736.7" height="736.7">
					<feFlood  style="flood-color:white;flood-opacity:1" result="back"/>
					<feBlend  in="SourceGraphic" in2="back" mode="normal"/>
				</filter>
			</defs>
			<mask maskUnits="userSpaceOnUse" x="0" y="0" width="736.7" height="736.7" id="SVGIDnew_10_">
				<g style="filter:url(#Adobe_OpacityMaskFilter_3_);">
					
						<image style="overflow:visible;" width="742" height="742" xlink:href="B4FE79A3.jpg"  transform="matrix(1 0 0 1 -2.8243 -2.418)">
					</image>
				</g>
			</mask>
			<g style="mask:url(#SVGIDnew_10_);">
				
					<radialGradient id="SVGIDnew_11_" cx="201.1087" cy="-219.4587" r="133.1323" gradientTransform="matrix(2.7668 0 0 2.7668 -188.0749 975.5356)" gradientUnits="userSpaceOnUse">
					<stop  offset="0" style="stop-color:#FFFFFF;stop-opacity:0"/>
					<stop  offset="1" style="stop-color:#FFFFFF"/>
				</radialGradient>
				<circle style="fill:url(#SVGIDnew_11_);" cx="368.3" cy="368.3" r="368.3"/>
			</g>
		</g>
	</g>
</g>
</svg>
