
<svg version="1.1" id="Ebene_1" xmlns="http://www.w3.org/2000/svg" xmlns:xlink="http://www.w3.org/1999/xlink" x="0px" y="0px"
	 viewBox="0 0 642.7 774" style="enable-background:new 0 0 642.7 774;" xml:space="preserve">
<g>
	<linearGradient id="SVGID_1_" gradientUnits="userSpaceOnUse" x1="336.9893" y1="768.9539" x2="336.9893" y2="-8.359584e-007">
		<stop  offset="0.3726" style="stop-color:#FFFFFF"/>
		<stop  offset="0.9953" style="stop-color:#B7E0D9"/>
	</linearGradient>
	<path style="fill:url(#SVGID_1_);" d="M113.5,108.3c0,1.2,0.8,2.1,1,3.3c-0.5-1.4-1-2.6-2.3-3.2c-0.8-1.3-1.6-2.5-2.4-3.8
		c-13.2-21.4-26.1-43-42.6-62.1c-2.6-3.1-5.5-5.8-8.9-7.9c-1-0.6-2.7-1.7-2.7,0.9c0.2,6.5-0.7,12.9,3.3,19.2
		c19.8,31.2,38.5,63.1,59.1,93.8c4.6,6.8,8,14.3,9.9,22.3c-12.6-14.5-24.8-29.3-37.2-43.8c-6.6-7.7-13.6-15.1-20.5-22.5
		c-0.8-0.9-1.8-2.4-3.3-1.5c-1.3,0.8-0.8,2.4-0.5,3.7c1,5,3.4,9.4,5.9,13.7c7.2,12.1,15.9,23,24.8,33.8c1.5,1.8,3.5,3.2,3.9,5.7
		c1.4,7.1,4.8,13.4,8.2,19.7c-0.4,0.9-0.9,0.2-1.4,0.1c-22.3-19.5-44.1-39.6-70.8-55.2c0.2,1.8,0.1,2.3,0.3,2.7
		c0.8,1.7,1.5,3.3,2.4,4.9c13.3,24.7,32.2,44.4,54.3,61.1c5.6,4.2,6.9,8.5,5.4,14.9c-15.6-10.8-30.9-21.8-50.1-26.3
		c0.3,2.6,1.5,3.3,2.4,4.2c16.3,17.8,32.9,35.4,51.4,50.9c3,2.5,2.6,3.6-0.6,4.8c-4,1.5-4.1,3.7-1.9,7.1c3.8,5.7,7.2,11.6,11.5,18.4
		c-5.5-2-9.8-3.5-14.1-5.1c-14.1-4.9-28.1-10.3-42.9-12.8c-1.2-0.2-2.8-1.4-3.1,1.1C74,265.3,96,280,120.7,290.1
		c0.9,0.4,1.9,0.8,2.6,1.4c5.3,5.7,10.5,11.5,16.2,17.8c-7.1-1-13.3-3.6-19.9-3.9c0,1.7,1.2,2.2,1.9,3c13.2,13.8,29,23.1,47.6,27.8
		c0.6-0.2,1.2-0.2,1.6,0.3c0.3,0.5-0.4,0.6-0.6,0.9c-5.7,0.9-11.6,1.5-17.7,3.4c7.3,7.3,13.9,14.4,23.4,18.1c-0.8,0.9-1.3,1.8-2,2.4
		c-3.2,2.8-2.9,4.5,1.3,5.8c5,1.5,10,3.2,15.4,3.6c-3.2,4.8-2.7,6.2,2.4,8.8c4.7,2.4,9.8,3.6,15.1,5.3c-0.8,0.9-1.4,1.5-1.9,2.1
		c-4.2,5.1-3.3,8.2,3.1,10c4.4,1.3,8.9,1.3,13.3,0.4c2.3-0.4,5.7-2.2,3.3,2.9c-0.5,1.1,0.8,1.7,1.6,2.2c3.6,2,6.3,6.3,11.5,4.2
		c0.7-0.3,1.1,0.4,1.3,1.1c0.6,3.4,3.3,3.2,5.8,3.2c2.2,0.1,4.4,0,6.6,0c-5.3,3.8-11.1,5.6-17.8,6.9c1.5,0.6,2.2,1.1,3,1.1
		c8,0.6,15.9,1,23.9-0.5c2.8-0.5,5.3-1,6.7,2.8c1.7,4.5,5.2,6.5,10.3,6.1c4.5-0.4,9-0.3,13.3,1.3c2.2,0.8,3.6,1.9,1.6,4.3
		c-2.3,2.7-0.7,4.1,2,4.1c4.2,0,8.5,2.6,12.7-0.1c0.6-0.4,1.3-0.4,1.8,0.2c2.5,3.5,6.7,3.1,10.6,4.6c-12.2,16.5-24.7,32.2-42.3,42.7
		c-6.7,4-13.7,6.1-21.7,5.7c-15.4-0.7-30.5,1.5-45.3,6.1c-7.2,2.2-14.2,5-20.8,10.5c10.2,0.9,19.6-0.3,29-0.8c0.3,0,0.6-0.1,0.8-0.2
		c0.1,0.7-0.7,0.8-0.9,1.3c-19.3,7.7-38.4,15.7-57.2,24.4c-12.2,5.6-24.5,11.2-35.6,18.8c-2.3,1.6-5.2,3-5.5,7.3
		c16.8-5.6,33.1-11,49.3-16.4c0.5-0.3,1.2-0.5,1.6-0.1c0.3,0.3-0.4,0.7-0.6,1.1c-1.2,0.8-2.5,1.6-3.7,2.6c-2.3,1.9-5.5,3.8-4.2,7.1
		c1.1,2.9,4.4,1.3,6.7,1.3c3.2-0.1,5.4-0.1,3.5,4.1c-3.2,7.3,7.3,4.8,7.3,10.1c0,1,1.9,1.2,3.1,0.9c1.3-0.4,2.4-1,3.6-1.6
		c3-1.4,4.5-4.3,6.8-6.4c1.3,1.5-0.2,3.6,0.9,5.1c2.8,1.8,4.7-0.9,7-1.4c1.3,0.4,0.1,1,0.2,1.5c-3,4.2-6.6,8-8.6,12.8
		c-0.4,1.1-1.2,2.3-0.2,3.3c1,1,2.2-0.1,3.2-0.5c3.7-1.5,7-3.8,10.2-6.2c9.2-6.9,17.5-14.9,25.5-23.2c1.8-1.8,3.8-5.2,6.3-3.8
		c2,1.2,0.3,4.7-0.5,7c-2.1,6-4.5,11.8-6.5,17.8c-1.6,4.6-3.2,9.2-3.1,14.2c1.5,0.1,2.1-0.8,2.9-1.4c8.7-6.3,14.6-14.9,19.8-24.1
		c0.8-1.5,1.3-4.8,3.6-3.7c2.9,1.4,0.4,3.6-0.5,5.4c-2,4.2-4.3,8.3-6,12.6c-5.6,14.8-5.1,28.8,5.2,41.8
		c9.1,11.6,18.4,22.8,29.7,32.3c3.3,2.8,2.9,4-0.5,6.3c-14.3,9.5-28.4,19.2-42.6,28.8c-1.5,1-3.2,1.8-4,3.6
		c-6.2,15-14.3,29.4-12.1,46.6c1.1,8.3,1.8,16.6,5.7,24.1c3.9,7.5,10.8,10.6,18.8,8.8c1.9-0.4,3.5-1.2,3.8-3.4
		c0.3-2.5-2-1.9-3.1-2.3c-3.4-1.4-5.6-3.8-6.1-7.3c-0.7-4.3-0.7-8.7,0.2-14.5c0.9,3.4,1.4,5.5,2.1,7.5c1.7,4.7,3.2,9.5,7.2,12.9
		c1.7,1.4,3.9,2.7,5.9,1.7c2.5-1.2,0.5-3.6,0.2-5.3c-2.5-12.3-4.4-24.6-3.6-37.2c0.3-4.3,1.1-8.6,3.9-12.2c1.6-2.1,3-2.1,4.8-0.2
		c3.6,3.9,3.8,8.7,3.7,13.6c-0.1,5-2.3,9.5-3.2,14.5c9.1-2.9,19.3-18.4,18-26.9c-0.1-0.6-0.3-1.3-0.7-1.9
		c-2.8-5.1-5.6-10.2-9.5-14.6c-1.7-2-3.5-4-6.7-3.6c-1.4,0.2-2.7-0.3-3.2-1.8c-0.6-1.8,0.8-2.8,2-3.6c10.6-6.9,21.4-13.5,34.5-14.9
		c2.1-0.2,3.3-1,3.8-3.1c1.4-5.1,2.1-10-1.3-14.8c-1.8-2.5-3.3-5.4-4.7-8.2c-5.6-10.8-11-21.7-12.4-34c-0.4-3.6-1.1-7.6,5.1-5.7
		c1.4,0.4,3.3-0.3,4.8-0.7c8.9-2.5,17.1-6.4,24.9-11.3c1.3-0.8,2.4-2.2,4.4-1.4c6.5,2.6,11.5,6.4,11.9,14.3
		c0.4,8.3,0.5,16.6-0.6,24.9c-0.7,5.1-1.6,10.2-2.4,15.3c-0.8,4.4,1.3,7.8,4,10.8c2.3,2.5,4.6-0.1,6.9-0.4
		c8.9-1.1,17.6-0.6,26.3,1.2c1.1,0.2,2.5,0.2,2.8,1.6c0.4,1.7-1,2.2-2.1,2.9c-3.9,2.8-7.8,17.2-5.9,21.6c3,7,13.3,13.4,21.7,13.1
		c-2.7-3-5.2-5.9-7-9.2c-1.6-3-2.5-6.2-2.1-9.6c0.2-1.5,0.3-3.3,1.8-3.9c1.8-0.8,3.2,0.6,4.4,1.7c2.8,2.7,4.5,6.2,5.9,9.7
		c3.2,7.9,5,16.2,6.5,24.5c0.3,1.6-0.7,4.6,2.2,4.7c2.3,0.1,3.5-2.3,4.3-4.3c1.7-4.3,1.2-8.9,1-13.3c-0.2-0.7-0.3-1.3,0.1-2
		c0.3,0.4,0.6,0.7,0.9,1c0.9,2.5,1.9,5,2.7,7.5c0.9,2.8-0.1,5.2-1.8,7.4c-0.8,1.1-3.7,1.4-2.1,3.7c1.3,1.8,3.3,1.3,5,0.7
		c6.4-1.9,9.9-6,10.3-12.6c1.1-22.1-10.4-37.8-26.5-50.9c-0.9-0.8-2.5-0.8-3.8-1c-13.4-2.7-26.7-5.5-40.1-8c-3.3-0.6-3.8-1.8-2.8-5
		c3.7-11,6.7-22.3,9.4-33.6c3.9-17.1-0.5-27.8-15.4-37.2c-1.5-1-3.1-1.8-4.1-3.5c-5.5-9.7-10.3-19.8-12.3-30.9
		c-2.3-12.4,3.3-21.2,15.5-24.6c5-1.4,10.2-1.5,15.3-2.1c14.3-1.8,26.3-7,32.2-21.5c1.9-4.6,4.7-8.8,7.3-13.5
		c4.8,8.8,11.8,15.1,18.7,21.6c4.2,4,8.9,7.5,14.4,9.6c2.6,1,4.4,0.6,6-1.6c3.1-4.5,6.8-8.7,9.4-13.5c2.5-4.6,4.2-3.4,7.3-0.7
		c4.2,3.8,6.8,8.9,11,12.8c17.2,15.8,27.9,35,29.8,58.6c1.2,2.5-1.2,5.7,1.6,7.9c0.6-7.4,3.6-14.7,3-22.2
		c-2.4-27.8-6.7-55.1-22-79.3c-2.2-3.5-4.4-7.8-2.4-11.8c2.4-4.6,4-9.4,5.9-14.5c5.5,4.9,10.6,9.6,15.9,14.2
		c1.3,1.1,3.1,2.7,4.9,1.2c1.5-1.3,1.2-3.4,0.6-5.2c-1.8-5.5-5.9-9.1-10.5-12.2c-0.4-0.4-0.8-0.9-1.3-1.2c0.5-0.2,0.8,0.2,1.2,0.2
		c11.5,1.8,23.2,2.1,34.8,2.1c4.1,0,4.8-1.6,4.2-5.1c-0.8-4.5-2.8-8.4-5.1-12.8c15.1,2.8,29.6,3.1,45.1-1.7
		c-11.4-8.7-24.2-10.5-36.9-14.1c18.9-4.1,36.1-11.3,53.1-18.9c1.4-0.6,3.8-0.6,3.5-2.8c-0.2-1.7-2.3-2.2-3.9-2.7
		c-5.5-1.7-11.1-2-16.8-2.2c-3.1-0.1-6.2-0.5-9.4-0.7c5.5-3.3,10.7-6.1,15.6-9.6c20.6-15,36.4-34.4,51-55c0.6-0.9,2-1.8,0.9-3
		c-0.5-0.6-1.9-0.6-2.8-0.5c-2.7,0.2-5.1,1.3-7.5,2.4c-5.6,2.6-10.6,6.3-15.8,9.5c-1,0.6-2.4,0.6-3.1,1.7c-0.2,0.1-0.1,0.3-0.4,0.3
		c0.8-1,2.2-1.7,2.5-3.2c20.2-27.6,31.8-59.2,41.8-91.6c-21.1,20.7-36.3,45.7-53.3,69.5c5.2-16,10.7-31.9,11.7-49.7
		c-5.6,4.3-8.7,9.2-11.9,14c-14.7,22-27.4,45.3-40.1,68.5c-1.4,2.5-2.8,4-5.8,4.7c-9.4,2.3-19.7,14.3-20.1,24
		c-0.3,5.9-2.4,10.7-6,14.9c-10.2,12.1-23.7,19.6-37.7,26.8c-0.6-2.2-1-3.9-1.5-5.7c-6.2-23.6-20.5-35.3-44.4-36.2
		c-3.3-0.1-3.3-1.5-3.4-3.9c-0.3-8.9-5.1-15.5-13.3-17.8c-8.9-2.5-16.4-0.1-22.6,6.6c-6.1,6.5-8.4,13.8-5.2,22.4
		c0.6,1.6,1.9,3-0.2,4.8c-9.6,8.2-14,19.2-15.9,31.4c-0.4,2.4-0.9,3.3-3.8,2.8c-9.8-1.8-19.7-3.4-29.2-6.5
		c-12.3-4-24.3-8.9-32.5-19.5c-14.9-19-29.4-38.3-44-57.6c-0.9-1.1-2.3-2-2-3.8c7.5,0,15,0,22.4,0c2.1,0,5.1,0.1,5.7-2.1
		c0.8-2.7-2.3-3.7-4.1-4.8c-7-4.1-14.7-6.4-22.5-7.8c-5.1-0.9-3.8-2.5-1.6-5.1c5.1-6,10.2-11.8,18.5-13.7c2.9-0.6,3.7-3.4,3.3-6
		c-0.5-2.9-3-2-4.9-1.7c-6.8,1.1-12.7,4.7-19,7.3c-6.8,2.7-10,7.9-11.3,14.7c-0.4,0.4-0.3,1.4-0.7,1.3c-0.5-0.1-0.7-0.9-1-1.3
		c-7.4-29.2-14.3-58.5-30.3-85.3c-2.7,4.1-1.4,7.8-2.2,11.8c-5.7-14.6-11-28.6-16.6-42.4c-8.1-20-16.2-40.1-27.1-58.9
		c-2.1-3.6-4.1-7.5-8.2-10.2c-1.4,3.5-0.5,6.9-1,11.1c-0.9-1.7-1.2-2.4-1.6-3.2c-14.9-30.9-30.6-61.3-49.2-90.2
		c-1.8-2.9-2.8-4.1-6.6-8.6c-38.8-46.4-19,0-19,0c11.6,28.9,23.2,57.8,34.8,86.8C113.3,107.7,113.5,108,113.5,108.3z"/>
	<path style="opacity:0.8;fill-rule:evenodd;clip-rule:evenodd;fill:#F2F2F2;" d="M100,202c-3.2-0.2-5.3,0.2-5.4,2.7
		c1.6,1.1,3.3,2.3,4.9,3.4C100.1,205.8,100.3,203.8,100,202z"/>
	<path style="opacity:0.8;fill-rule:evenodd;clip-rule:evenodd;fill:#F2F2F2;" d="M207.7,222.9c-5.3-13.4-10.2-26.3-15.3-39.1
		c-22.6-13-49.3-15.3-67.5,14.8c-7.6,6.4-18.5,3.6-25,3.3c0.2,1.8,0.1,3.8-0.4,6.1c-1.7-1.1-3.3-2.3-4.9-3.4c0,0,0,0,0,0.1
		c0,0,0-0.1,0-0.1c-2.5-1.8-5.1-3.5-7.7-5.2c-4.1,1.3-9.3,4.6-14.5,8.5c9.8,10.1,19.9,19.9,30.8,28.9c3,2.5,2.6,3.6-0.6,4.8
		c-0.8,0.3-1.5,0.7-2,1c16.6,0.3,33.3,0.5,50.4,0.5c24.2,0,49.2,0.7,74.6,1.5c-4.1-11.5-9.1-22.8-15.6-33.6
		C207.3,215.2,208.5,218.9,207.7,222.9z"/>
	<linearGradient id="SVGID_2_" gradientUnits="userSpaceOnUse" x1="359.5721" y1="768.9539" x2="359.5721" y2="252.0688">
		<stop  offset="0" style="stop-color:#FFFFFF"/>
		<stop  offset="0.2576" style="stop-color:#FDFEFE"/>
		<stop  offset="0.3503" style="stop-color:#F6FBFA"/>
		<stop  offset="0.4162" style="stop-color:#EBF6F4"/>
		<stop  offset="0.4693" style="stop-color:#DAEFEC"/>
		<stop  offset="0.4764" style="stop-color:#D7EEEA"/>
		<stop  offset="0.5515" style="stop-color:#D0EAE6"/>
		<stop  offset="0.66" style="stop-color:#BDDFDA"/>
		<stop  offset="0.7888" style="stop-color:#9ECEC8"/>
		<stop  offset="0.9318" style="stop-color:#72B5AE"/>
		<stop  offset="1" style="stop-color:#5BA8A0"/>
	</linearGradient>
	<path style="fill:url(#SVGID_2_);" d="M123.2,291.5c5.3,5.7,10.5,11.5,16.2,17.8c-7.1-1-13.3-3.6-19.9-3.9c0,1.7,1.2,2.2,1.9,3
		c13.2,13.8,29,23.1,47.6,27.8c0.6-0.2,1.2-0.2,1.6,0.3c0.3,0.5-0.4,0.6-0.6,0.9c-5.7,0.9-11.6,1.5-17.7,3.4
		c7.3,7.3,13.9,14.4,23.4,18.1c-0.8,0.9-1.3,1.8-2,2.4c-3.2,2.8-2.9,4.5,1.3,5.8c5,1.5,10,3.2,15.4,3.6c-3.2,4.8-2.7,6.2,2.4,8.8
		c4.7,2.4,9.8,3.6,15.1,5.3c-0.8,0.9-1.4,1.5-1.9,2.1c-4.2,5.1-3.3,8.2,3.1,10c4.4,1.3,8.9,1.3,13.3,0.4c2.3-0.4,5.7-2.2,3.3,2.9
		c-0.5,1.1,0.8,1.7,1.6,2.2c3.6,2,6.3,6.3,11.5,4.2c0.7-0.3,1.1,0.4,1.3,1.1c0.6,3.4,3.3,3.2,5.8,3.2c2.2,0.1,4.4,0,6.6,0
		c-5.3,3.8-11.1,5.6-17.8,6.9c1.5,0.6,2.2,1.1,3,1.1c8,0.6,15.9,1,23.9-0.5c2.8-0.5,5.3-1,6.7,2.8c1.7,4.5,5.2,6.5,10.3,6.1
		c4.5-0.4,9-0.3,13.3,1.3c2.2,0.8,3.6,1.9,1.6,4.3c-2.3,2.7-0.7,4.1,2,4.1c4.2,0,8.5,2.6,12.7-0.1c0.6-0.4,1.3-0.4,1.8,0.2
		c2.5,3.5,6.7,3.1,10.6,4.6c-12.2,16.5-24.7,32.2-42.3,42.7c-6.7,4-13.7,6.1-21.7,5.7c-15.4-0.7-30.5,1.5-45.3,6.1
		c-7.2,2.2-14.2,5-20.8,10.5c10.2,0.9,19.6-0.3,29-0.8c0.3,0,0.6-0.1,0.8-0.2c0.1,0.7-0.7,0.8-0.9,1.3
		c-19.3,7.7-38.4,15.7-57.2,24.4c-12.2,5.6-24.5,11.2-35.6,18.8c-2.3,1.6-5.2,3-5.5,7.3c16.8-5.6,33.1-11,49.3-16.4
		c0.5-0.3,1.2-0.5,1.6-0.1c0.3,0.3-0.4,0.7-0.6,1.1c-1.2,0.8-2.5,1.6-3.7,2.6c-2.3,1.9-5.5,3.8-4.2,7.1c1.1,2.9,4.4,1.3,6.7,1.3
		c3.2-0.1,5.4-0.1,3.5,4.1c-3.2,7.3,7.3,4.8,7.3,10.1c0,1,1.9,1.2,3.1,0.9c1.3-0.4,2.4-1,3.6-1.6c3-1.4,4.5-4.3,6.8-6.4
		c1.3,1.5-0.2,3.6,0.9,5.1c2.8,1.8,4.7-0.9,7-1.4c1.3,0.4,0.1,1,0.2,1.5c-3,4.2-6.6,8-8.6,12.8c-0.4,1.1-1.2,2.3-0.2,3.3
		c1,1,2.2-0.1,3.2-0.5c3.7-1.5,7-3.8,10.2-6.2c9.2-6.9,17.5-14.9,25.5-23.2c1.8-1.8,3.8-5.2,6.3-3.8c2,1.2,0.3,4.7-0.5,7
		c-2.1,6-4.5,11.8-6.5,17.8c-1.6,4.6-3.2,9.2-3.1,14.2c1.5,0.1,2.1-0.8,2.9-1.4c8.7-6.3,14.6-14.9,19.8-24.1
		c0.8-1.5,1.3-4.8,3.6-3.7c2.9,1.4,0.4,3.6-0.5,5.4c-2,4.2-4.3,8.3-6,12.6c-5.6,14.8-5.1,28.8,5.2,41.8
		c9.1,11.6,18.4,22.8,29.7,32.3c3.3,2.8,2.9,4-0.5,6.3c-14.3,9.5-28.4,19.2-42.6,28.8c-1.5,1-3.2,1.8-4,3.6
		c-6.2,15-14.3,29.4-12.1,46.6c1.1,8.3,1.8,16.6,5.7,24.1c3.9,7.5,10.8,10.6,18.8,8.8c1.9-0.4,3.5-1.2,3.8-3.4
		c0.3-2.5-2-1.9-3.1-2.3c-3.4-1.4-5.6-3.8-6.1-7.3c-0.7-4.3-0.7-8.7,0.2-14.5c0.9,3.4,1.4,5.5,2.1,7.5c1.7,4.7,3.2,9.5,7.2,12.9
		c1.7,1.4,3.9,2.7,5.9,1.7c2.5-1.2,0.5-3.6,0.2-5.3c-2.5-12.3-4.4-24.6-3.6-37.2c0.3-4.3,1.1-8.6,3.9-12.2c1.6-2.1,3-2.1,4.8-0.2
		c3.6,3.9,3.8,8.7,3.7,13.6c-0.1,5-2.3,9.5-3.2,14.5c9.1-2.9,19.3-18.4,18-26.9c-0.1-0.6-0.3-1.3-0.7-1.9
		c-2.8-5.1-5.6-10.2-9.5-14.6c-1.7-2-3.5-4-6.7-3.6c-1.4,0.2-2.7-0.3-3.2-1.8c-0.6-1.8,0.8-2.8,2-3.6c10.6-6.9,21.4-13.5,34.5-14.9
		c2.1-0.2,3.3-1,3.8-3.1c1.4-5.1,2.1-10-1.3-14.8c-1.8-2.5-3.3-5.4-4.7-8.2c-5.6-10.8-11-21.7-12.4-34c-0.4-3.6-1.1-7.6,5.1-5.7
		c1.4,0.4,3.3-0.3,4.8-0.7c8.9-2.5,17.1-6.4,24.9-11.3c1.3-0.8,2.4-2.2,4.4-1.4c6.5,2.6,11.5,6.4,11.9,14.3
		c0.4,8.3,0.5,16.6-0.6,24.9c-0.7,5.1-1.6,10.2-2.4,15.3c-0.8,4.4,1.3,7.8,4,10.8c2.3,2.5,4.6-0.1,6.9-0.4
		c8.9-1.1,17.6-0.6,26.3,1.2c1.1,0.2,2.5,0.2,2.8,1.6c0.4,1.7-1,2.2-2.1,2.9c-3.9,2.8-7.8,17.2-5.9,21.6c3,7,13.3,13.4,21.7,13.1
		c-2.7-3-5.2-5.9-7-9.2c-1.6-3-2.5-6.2-2.1-9.6c0.2-1.5,0.3-3.3,1.8-3.9c1.8-0.8,3.2,0.6,4.4,1.7c2.8,2.7,4.5,6.2,5.9,9.7
		c3.2,7.9,5,16.2,6.5,24.5c0.3,1.6-0.7,4.6,2.2,4.7c2.3,0.1,3.5-2.3,4.3-4.3c1.7-4.3,1.2-8.9,1-13.3c-0.2-0.7-0.3-1.3,0.1-2
		c0.3,0.4,0.6,0.7,0.9,1c0.9,2.5,1.9,5,2.7,7.5c0.9,2.8-0.1,5.2-1.8,7.4c-0.8,1.1-3.7,1.4-2.1,3.7c1.3,1.8,3.3,1.3,5,0.7
		c6.4-1.9,9.9-6,10.3-12.6c1.1-22.1-10.4-37.8-26.5-50.9c-0.9-0.8-2.5-0.8-3.8-1c-13.4-2.7-26.7-5.5-40.1-8c-3.3-0.6-3.8-1.8-2.8-5
		c3.7-11,6.7-22.3,9.4-33.6c3.9-17.1-0.5-27.8-15.4-37.2c-1.5-1-3.1-1.8-4.1-3.5c-5.5-9.7-10.3-19.8-12.3-30.9
		c-2.3-12.4,3.3-21.2,15.5-24.6c5-1.4,10.2-1.5,15.3-2.1c14.3-1.8,26.3-7,32.2-21.5c1.9-4.6,4.7-8.8,7.3-13.5
		c4.8,8.8,11.8,15.1,18.7,21.6c4.2,4,8.9,7.5,14.4,9.6c2.6,1,4.4,0.6,6-1.6c3.1-4.5,6.8-8.7,9.4-13.5c2.5-4.6,4.2-3.4,7.3-0.7
		c4.2,3.8,6.8,8.9,11,12.8c17.2,15.8,27.9,35,29.8,58.6c1.2,2.5-1.2,5.7,1.6,7.9c0.6-7.4,3.6-14.7,3-22.2
		c-2.4-27.8-6.7-55.1-22-79.3c-2.2-3.5-4.4-7.8-2.4-11.8c2.4-4.6,4-9.4,5.9-14.5c5.5,4.9,10.6,9.6,15.9,14.2
		c1.3,1.1,3.1,2.7,4.9,1.2c1.5-1.3,1.2-3.4,0.6-5.2c-1.8-5.5-5.9-9.1-10.5-12.2c-0.4-0.4-0.8-0.9-1.3-1.2c0.5-0.2,0.8,0.2,1.2,0.2
		c11.5,1.8,23.2,2.1,34.8,2.1c4.1,0,4.8-1.6,4.2-5.1c-0.8-4.5-2.8-8.4-5.1-12.8c15.1,2.8,29.6,3.1,45.1-1.7
		c-11.4-8.7-24.2-10.5-36.9-14.1c18.9-4.1,36.1-11.3,53.1-18.9c1.4-0.6,3.8-0.6,3.5-2.8c-0.2-1.7-2.3-2.2-3.9-2.7
		c-5.5-1.7-11.1-2-16.8-2.2c-3.1-0.1-6.2-0.5-9.4-0.7c5.5-3.3,10.7-6.1,15.6-9.6c20.6-15,36.4-34.4,51-55c0.6-0.9,2-1.8,0.9-3
		c-0.5-0.6-1.9-0.6-2.8-0.5c-2.7,0.2-5.1,1.3-7.5,2.4c-5.6,2.6-10.6,6.3-15.8,9.5c-1,0.6-2.4,0.6-3.1,1.7c-0.2,0.1-0.1,0.3-0.4,0.3
		c0.8-1,2.2-1.7,2.5-3.2c13.8-18.9,23.5-39.6,31.6-61.1c-0.3,0-0.7-0.1-1-0.1c-9.5-1-5,0.3-12.6-0.7c-0.4-0.1-0.8-0.1-1.2-0.1
		c-9.7,13.1-18.7,26.8-28.2,40.1c4.3-13.5,8.9-26.9,10.9-41.4c-0.1,0-0.3,0-0.4,0c-2-0.1-3.6-0.9-5.4-1.7c-2,2.5-3.6,5-5.3,7.5
		c-14.7,22-27.4,45.3-40.1,68.5c-1.4,2.5-2.8,4-5.8,4.7c-9.4,2.3-19.7,14.3-20.1,24c-0.3,5.9-2.4,10.7-6,14.9
		c-10.2,12.1-23.7,19.6-37.7,26.8c-0.6-2.2-1-3.9-1.5-5.7c-6.2-23.6-20.5-35.3-44.4-36.2c-3.3-0.1-3.3-1.5-3.4-3.9
		c-0.3-8.9-5.1-15.5-13.3-17.8c-8.9-2.5-16.4-0.1-22.6,6.6c-6.1,6.5-8.4,13.8-5.2,22.4c0.6,1.6,1.9,3-0.2,4.8
		c-9.6,8.2-14,19.2-15.9,31.4c-0.4,2.4-0.9,3.3-3.8,2.8c-9.8-1.8-19.7-3.4-29.2-6.5c-12.3-4-24.3-8.9-32.5-19.5
		c-14.9-19-29.4-38.3-44-57.6c-0.9-1.1-2.3-2-2-3.8c7.5,0,15,0,22.4,0c2.1,0,5.1,0.1,5.7-2.1c0.8-2.7-2.3-3.7-4.1-4.8
		c-7-4.1-14.7-6.4-22.5-7.8c-5.1-0.9-3.8-2.5-1.6-5.1c5.1-6,10.2-11.8,18.5-13.7c2.9-0.6,3.7-3.4,3.3-6c-0.5-2.9-3-2-4.9-1.7
		c-6.8,1.1-12.7,4.7-19,7.3c-6.8,2.7-10,7.9-11.3,14.7c-0.4,0.4-0.3,1.4-0.7,1.3c-0.5-0.1-0.7-0.9-1-1.3c-2.3-8.9-4.5-17.8-6.9-26.7
		c-1.3,0.2-2.5,0.3-3.5,0.4c-4.4,0.4-3.8,4.4-6.3,5.9c-2.2,1.3-2.8,3.5-4.2,3.7c-0.3,0-5.5,0.6-5.8,0.6c-1.2,0.3-4.2,0.6-5.2,2
		c-0.8,1.2-5,6-10.1,6c-1.4,0-2.9-5.2-4.2-5.9c-1.2-0.6-2.4-1.4-3.5-2.2c-4.4-3.4-16.4-5.7-20.8-5.8c-4.4,0-10.1-5.3-19.6-5.8
		c-9.5-0.6-5,2-12.6,0.9c-7.6-1.2-13.9-1.3-18.9-1c-5,0.3-7.6,1.3-18.9,5.4c-2.5,0.9-4.9,1.7-7.1,2.3c9,5.1,18.3,9.8,28,13.8
		C121.6,290.5,122.6,290.9,123.2,291.5z"/>
	<linearGradient id="SVGID_3_" gradientUnits="userSpaceOnUse" x1="352.736" y1="615.7354" x2="352.736" y2="412.2055">
		<stop  offset="0" style="stop-color:#A4D8CE"/>
		<stop  offset="1" style="stop-color:#3B9490"/>
	</linearGradient>
	<path style="fill:url(#SVGID_3_);" d="M170.6,336.5c0.3,0.5-0.4,0.6-0.6,0.9c-5.7,0.9-11.6,1.5-17.7,3.4
		c7.3,7.3,13.9,14.4,23.4,18.1c-0.8,0.9-1.3,1.8-2,2.4c-3.2,2.8-2.9,4.5,1.3,5.8c5,1.5,10,3.2,15.4,3.6c-3.2,4.8-2.7,6.2,2.4,8.8
		c4.7,2.4,9.8,3.6,15.1,5.3c-0.8,0.9-1.4,1.5-1.9,2.1c-4.2,5.1-3.3,8.2,3.1,10c4.4,1.3,8.9,1.3,13.3,0.4c2.3-0.4,5.7-2.2,3.3,2.9
		c-0.5,1.1,0.8,1.7,1.6,2.2c3.6,2,6.3,6.3,11.5,4.2c0.7-0.3,1.1,0.4,1.3,1.1c0.6,3.4,3.3,3.2,5.8,3.2c2.2,0.1,4.4,0,6.6,0
		c-5.3,3.8-11.1,5.6-17.8,6.9c1.5,0.6,2.2,1.1,3,1.1c8,0.6,15.9,1,23.9-0.5c2.8-0.5,5.3-1,6.7,2.8c1.7,4.5,5.2,6.5,10.3,6.1
		c4.5-0.4,9-0.3,13.3,1.3c2.2,0.8,3.6,1.9,1.6,4.3c-2.3,2.7-0.7,4.1,2,4.1c4.2,0,8.5,2.6,12.7-0.1c0.6-0.4,1.3-0.4,1.8,0.2
		c2.5,3.5,6.7,3.1,10.6,4.6c-12.2,16.5-24.7,32.2-42.3,42.7c-6.7,4-13.7,6.1-21.7,5.7c-15.4-0.7-30.5,1.5-45.3,6.1
		c-7.2,2.2-14.2,5-20.8,10.5c10.2,0.9,19.6-0.3,29-0.8c0.3,0,0.6-0.1,0.8-0.2c0.1,0.7-0.7,0.8-0.9,1.3
		c-19.3,7.7-38.4,15.7-57.2,24.4c-12.2,5.6-24.5,11.2-35.6,18.8c-2.3,1.6-5.2,3-5.5,7.3c16.8-5.6,33.1-11,49.3-16.4
		c0.5-0.3,1.2-0.5,1.6-0.1c0.3,0.3-0.4,0.7-0.6,1.1c-1.2,0.8-2.5,1.6-3.7,2.6c-2.3,1.9-5.5,3.8-4.2,7.1c1.1,2.9,4.4,1.3,6.7,1.3
		c3.2-0.1,5.4-0.1,3.5,4.1c-3.2,7.3,7.3,4.8,7.3,10.1c0,1,1.9,1.2,3.1,0.9c1.3-0.4,2.4-1,3.6-1.6c3-1.4,4.5-4.3,6.8-6.4
		c1.3,1.5-0.2,3.6,0.9,5.1c2.8,1.8,4.7-0.9,7-1.4c1.3,0.4,0.1,1,0.2,1.5c-3,4.2-6.6,8-8.6,12.8c-0.4,1.1-1.2,2.3-0.2,3.3
		c1,1,2.2-0.1,3.2-0.5c3.7-1.5,7-3.8,10.2-6.2c9.2-6.9,17.5-14.9,25.5-23.2c1.8-1.8,3.8-5.2,6.3-3.8c2,1.2,0.3,4.7-0.5,7
		c-2.1,6-4.5,11.8-6.5,17.8c-1.6,4.6-3.2,9.2-3.1,14.2c1.5,0.1,2.1-0.8,2.9-1.4c8.7-6.3,14.6-14.9,19.8-24.1
		c0.8-1.5,1.3-4.8,3.6-3.7c2.9,1.4,0.4,3.6-0.5,5.4c-2,4.2-4.3,8.3-6,12.6c-5.6,14.8-5.1,28.8,5.2,41.8
		c9.1,11.6,18.4,22.8,29.7,32.3c3.3,2.8,2.9,4-0.5,6.3c-14.3,9.5-28.4,19.2-42.6,28.8c-1.5,1-3.2,1.8-4,3.6
		c-6.2,15-14.3,29.4-12.1,46.6c1.1,8.3,1.8,16.6,5.7,24.1c3.9,7.5,10.8,10.6,18.8,8.8c1.9-0.4,3.5-1.2,3.8-3.4
		c0.3-2.5-2-1.9-3.1-2.3c-3.4-1.4-5.6-3.8-6.1-7.3c-0.7-4.3-0.7-8.7,0.2-14.5c0.9,3.4,1.4,5.5,2.1,7.5c1.7,4.7,3.2,9.5,7.2,12.9
		c1.7,1.4,3.9,2.7,5.9,1.7c2.5-1.2,0.5-3.6,0.2-5.3c-2.5-12.3-4.4-24.6-3.6-37.2c0.3-4.3,1.1-8.6,3.9-12.2c1.6-2.1,3-2.1,4.8-0.2
		c3.6,3.9,3.8,8.7,3.7,13.6c-0.1,5-2.3,9.5-3.2,14.5c9.1-2.9,19.3-18.4,18-26.9c-0.1-0.6-0.3-1.3-0.7-1.9
		c-2.8-5.1-5.6-10.2-9.5-14.6c-1.7-2-3.5-4-6.7-3.6c-1.4,0.2-2.7-0.3-3.2-1.8c-0.6-1.8,0.8-2.8,2-3.6c10.6-6.9,21.4-13.5,34.5-14.9
		c2.1-0.2,3.3-1,3.8-3.1c1.4-5.1,2.1-10-1.3-14.8c-1.8-2.5-3.3-5.4-4.7-8.2c-5.6-10.8-11-21.7-12.4-34c-0.4-3.6-1.1-7.6,5.1-5.7
		c1.4,0.4,3.3-0.3,4.8-0.7c8.9-2.5,17.1-6.4,24.9-11.3c1.3-0.8,2.4-2.2,4.4-1.4c6.5,2.6,11.5,6.4,11.9,14.3
		c0.4,8.3,0.5,16.6-0.6,24.9c-0.7,5.1-1.6,10.2-2.4,15.3c-0.8,4.4,1.3,7.8,4,10.8c2.3,2.5,4.6-0.1,6.9-0.4
		c8.9-1.1,17.6-0.6,26.3,1.2c1.1,0.2,2.5,0.2,2.8,1.6c0.4,1.7-1,2.2-2.1,2.9c-3.9,2.8-7.8,17.2-5.9,21.6c3,7,13.3,13.4,21.7,13.1
		c-2.7-3-5.2-5.9-7-9.2c-1.6-3-2.5-6.2-2.1-9.6c0.2-1.5,0.3-3.3,1.8-3.9c1.8-0.8,3.2,0.6,4.4,1.7c2.8,2.7,4.5,6.2,5.9,9.7
		c3.2,7.9,5,16.2,6.5,24.5c0.3,1.6-0.7,4.6,2.2,4.7c2.3,0.1,3.5-2.3,4.3-4.3c1.7-4.3,1.2-8.9,1-13.3c-0.2-0.7-0.3-1.3,0.1-2
		c0.3,0.4,0.6,0.7,0.9,1c0.9,2.5,1.9,5,2.7,7.5c0.9,2.8-0.1,5.2-1.8,7.4c-0.8,1.1-3.7,1.4-2.1,3.7c1.3,1.8,3.3,1.3,5,0.7
		c6.4-1.9,9.9-6,10.3-12.6c1.1-22.1-10.4-37.8-26.5-50.9c-0.9-0.8-2.5-0.8-3.8-1c-13.4-2.7-26.7-5.5-40.1-8c-3.3-0.6-3.8-1.8-2.8-5
		c3.7-11,6.7-22.3,9.4-33.6c3.9-17.1-0.5-27.8-15.4-37.2c-1.5-1-3.1-1.8-4.1-3.5c-5.5-9.7-10.3-19.8-12.3-30.9
		c-2.3-12.4,3.3-21.2,15.5-24.6c5-1.4,10.2-1.5,15.3-2.1c14.3-1.8,26.3-7,32.2-21.5c1.9-4.6,4.7-8.8,7.3-13.5
		c4.8,8.8,11.8,15.1,18.7,21.6c4.2,4,8.9,7.5,14.4,9.6c2.6,1,4.4,0.6,6-1.6c3.1-4.5,6.8-8.7,9.4-13.5c2.5-4.6,4.2-3.4,7.3-0.7
		c4.2,3.8,6.8,8.9,11,12.8c17.2,15.8,27.9,35,29.8,58.6c1.2,2.5-1.2,5.7,1.6,7.9c0.6-7.4,3.6-14.7,3-22.2
		c-2.4-27.8-6.7-55.1-22-79.3c-2.2-3.5-4.4-7.8-2.4-11.8c2.4-4.6,4-9.4,5.9-14.5c5.5,4.9,10.6,9.6,15.9,14.2
		c1.3,1.1,3.1,2.7,4.9,1.2c1.5-1.3,1.2-3.4,0.6-5.2c-1.8-5.5-5.9-9.1-10.5-12.2c-0.4-0.4-0.8-0.9-1.3-1.2c0.5-0.2,0.8,0.2,1.2,0.2
		c11.5,1.8,23.2,2.1,34.8,2.1c4.1,0,4.8-1.6,4.2-5.1c-0.8-4.5-2.8-8.4-5.1-12.8c15.1,2.8,29.6,3.1,45.1-1.7
		c-11.4-8.7-24.2-10.5-36.9-14.1c18.9-4.1,36.1-11.3,53.1-18.9c1.4-0.6,3.8-0.6,3.5-2.8c-0.2-1.7-2.3-2.2-3.9-2.7
		c-5.5-1.7-11.1-2-16.8-2.2c-3.1-0.1-6.2-0.5-9.4-0.7c5.1-3,10-5.7,14.5-8.9c-20.1,0.2-18.2-5.9-39.7-13.6c-3.8-1.4-7-2.5-10-3.6
		c-1.4,2.7-2.2,5.5-2.3,8.2c-0.3,5.9-2.4,10.7-6,14.9c-10.2,12.1-23.7,19.6-37.7,26.8c-0.6-2.2-1-3.9-1.5-5.7
		c-6.2-23.6-20.5-35.3-44.4-36.2c-3.3-0.1-3.3-1.5-3.4-3.9c-0.3-8.9-5.1-15.5-13.3-17.8c-8.9-2.5-16.4-0.1-22.6,6.6
		c-6.1,6.5-8.4,13.8-5.2,22.4c0.6,1.6,1.9,3-0.2,4.8c-9.6,8.2-14,19.2-15.9,31.4c-0.4,2.4-0.9,3.3-3.8,2.8
		c-9.8-1.8-19.7-3.4-29.2-6.5c-12.3-4-24.3-8.9-32.5-19.5c-14.9-19-29.4-38.3-44-57.6c-0.9-1.1-2.3-2-2-3.8c7.5,0,15,0,22.4,0
		c2.1,0,5.1,0.1,5.7-2.1c0.8-2.7-2.3-3.7-4.1-4.8c-7-4.1-14.7-6.4-22.5-7.8c-4.5-0.8-4-2.2-2.3-4.2c-16.1,3.5-15.7,8.4-36.1,16.9
		c-26.9,11.2-44.4,11.3-71.3,13.7c-0.4,0-0.8,0.1-1.2,0.1c7.1,3.9,14.8,6.9,23,8.9C169.6,336.1,170.3,336,170.6,336.5z"/>
</g>
</svg>
