<svg version="1.1" id="small_harpyie" class="wobbling" xmlns="http://www.w3.org/2000/svg" xmlns:xlink="http://www.w3.org/1999/xlink" x="0px"
	 y="0px" viewBox="0 0 790.7 512.7" style="enable-background:new 0 0 790.7 512.7;" xml:space="preserve">
	 
<path id="tail_3_" style="fill:#10504F;" d="M381.1,317.5c0,0,57.9,1,67.8,11.5c0,0-17.9,7-26.6,4.3c0,0,50.2,16.2,43.8,21.6
	c0,0-51.1-13.2-53-15.3c0,0,39,14.4,35.4,19.4c0,0,2.8,2.6-14-3c0,0,10.4,12.1,1.7,8.8c0,0,3,15.1-9.5,2.2l-3.8-5.9
	c0,0,11.7,35-4.9,7.8l-8.6-10.7c0,0,4.9,25.9,5.3,32.3c0,0-3.3,2.7-23.1-33c0,0-9.4-15.1-1.7,4.3c0,0,5.4,14.4,5.1,20.1
	c0,0-8.7-8.9-11.9-14.2l-16.3-25.6l-4.5-17.2L381.1,317.5"/>
	
<path id="leg1_6_" style="fill:#023330;" d="M393.2,314.3c0,0,25.9,8.5,25.8,27.9s-5.4,35.5-5.4,35.5l39.9,0.4
	c0,0,21.1,12.5,22.5,18.6c0,0,12.3,17.9,5.7,25.9c0,0-6.8,7.3-9,2.5c0,0,5.6-3.5,0.9-10.5l-5.8-8.4c0,0,9.2,18.4,0.7,21.3
	c0,0-5.6-14.8-9.6-20c0,0-5.6-10.8-11.8-10.4c0,0-5.1,7.7,10.3,17.9c0,0-11.5,2.2-20.5-8.4c0,0-1.6-12.8,0.8-16.4
	c0,0,4.7-2.1,1.5-4.2c0,0-18-1-27.5,5.2c0,0-4.7-3-6-7.1c0,0-0.2-28-9.4-36.4l-23.2-13.5C372.7,334.1,363.1,305.1,393.2,314.3z"/>
<path id="leg1_5_" style="fill:#023330;" d="M348.1,336c0,0-14.5,14.7-4.5,29.9s19.6,26.4,19.6,26.4l-31.3,19.8
	c0,0-10.3,20.2-8.2,25.6c0,0-0.5,20,8.8,23.1c0,0,9.1,2.4,8.4-2.4c0,0-6.2,0-6.1-7.8l0.3-9.5c0,0,2.2,19,10.4,17.1
	c0,0-3.1-14.4-2.7-20.4c0,0-1.2-11.2,4-14c0,0,8,3.6,1.1,19.1c0,0,10.2-3.9,11.9-16.6c0,0-5.3-10.8-9-12.5c0,0-4.8,0.7-3.3-2.6
	c0,0,13.7-9.6,24.4-9.4c0,0,2.2-4.7,1.1-8.5c0,0-16.9-25.8-14-36.9l16.7-18.3C375.6,338.1,367.1,314,348.1,336z"/>
	
<path id="leftwing" style="fill:#10504F;" class="flying_left2" d="M323.4,247.8c0,0,15.3,12-4.5,24.5c-11,6.9-16.5,23.2-16.5,23.2l-30.7,38.5
	c0,0-0.1-23.6-3.5-19.7c-3.4,3.8-3.6,17.3-3.5,18.7c0,0-9.1-1-10.3-7.5c0,0-13.6-9.2,2.1,12.9c0,0,5.1,3.7,11.1,2
	c0,0-39.5,14.4-50,25.5c0,0,3.1,1.5,9.9-1.3c0,0-58.5,30.4-63,39.7c0,0,3,0.6,8-1.1c0,0-64,40.8-71.1,59.5c0,0,8.4-2.6,12.9-5.1
	c4.5-2.5,56.5-31.1,61.6-35.7c0,0-47.2,35.7-48.3,45.4l8.7-1.2c0,0,44.2-35.9,50.5-41.9c6.2-5.9,15.5-10,15.5-10
	s-33.7,35.6-36.4,41.2c0,0,4,4.8,29.6-23.7c0,0,6.1-1.3,14.2-9.1c0,0-23.8,33.5-28.6,48.6c0,0,19.8-10.4,37-42l6.4-0.8
	c0,0-11.4,19.3-11.6,31.9c0,0,20.4-23.9,28.6-38l3.2,4.4c0,0,10.8-7.7,12.7-11.3c0,0-7.5,30.4-6.4,38.9c0,0,16-31,18.3-44.8
	c0,0,10.8-12,10.5-13.9c-0.3-1.9-1.6,9.8-1.9,15.2c0,0,14.7-15.9,13.6-35l4.1,12.9c0,0,8.8-10.3,8.4-15.1l4.2,2.8
	c0,0,2.5-8,1.4-12.7c0,0,3,4.4,4.8-0.2c1.8-4.6,2.1-10.4,2.1-10.4s4.4,4.4,6.1,1.4s0.9-8.6-0.4-11.4c-1.3-2.7,2.2-0.8,2.2-0.8
	s4-6.3,2.7-7.6c-1.3-1.3-1.3-1.3-1.3-1.3l0,0c0,0,3.4,0.4,3-2.4c-0.4-2.8-0.3-2.2-0.6-4.6C328,324,328,324,328,324s6.6,9.7,5.8,14.1
	s2.4-7.5-2.8-20.8c0,0,4.1-1.5,5.1-5l-0.9-6.8c0,0-0.1-5.6,1.6-5.3s3.5,3.4,3.3-1.4s0.4-4.4-0.8-6.1c-1.2-1.8-2.4-3.5-1.2-1.8
	c1.2,1.8,14.8,8.9,14.6,0.4c-0.3-8.6,8.8-25.4-3.9-37.9C336.1,240.9,323.4,247.8,323.4,247.8z"/>
	
<path id="rightwing" style="fill:#10504F;" class="flying_right2" d="M342.6,233.1c0,0,17.4-1.2,37,2.7c19.2,3.8,34.5-1,34.5-1l58.1-1
	c0,0-23.2-14.7-17-15.1s21.8,8.4,23,9.6c0,0,3.2-7.8-2.3-13.7c0,0,0.1-21.6,9.8,9.8c0,0,5.5,3.8-0.7,8.4c0,0,41.2-23.7,59.7-25.7
	c0,0-0.8,4.1-8.6,8.6c0,0,72.6-34,84.9-31.5c0,0-1.6,3.3-7,7c0,0,72.7-33.7,96-26.6c0,0-8.7,6.2-14.4,8.7
	c-5.7,2.5-57.8,33.5-66,35.2c0,0,69.3-28.2,79.6-22.1l-14.6,8.6c-56.4,21.6-63.3,22.8-70.8,26.8c-10,5.4-21.2,6.5-21.2,6.5
	s59.3-6.3,66.7-4.6c0,0,1.6,7.4-44.7,11c0,0-5.7,4.9-19.3,7c0,0,49.9,1.8,68.1,8.2c0,0-24.7,11.5-67.9,4.7L600,260
	c0,0,27.1,3.3,39.4,12.3c0,0-38.1,2-57.8-0.4l1.8,11.4c0,0-15.4-0.3-20.3-1.1c0,0,34.9,10.2,42.2,17.6c0,0-41.8-2.5-56.8-10.5
	c0,0-19.6,1.6-21.2-0.1c-1.6-1.7,10.7,5.7,16,9.4c0,0-26.3,2.4-43.9-12.7l13.2,17.3c0,0-20.3-2.9-24.5-6.8l5.2,13.7
	c0,0-15.3-11.1-18.9-15.6c0,0,2,6.2-3.7,4.5c-5.7-1.6-11.6-5.6-11.6-5.6s1,9.5-3.1,8.9c-4.1-0.6-9-7.5-10.6-10.7
	c-1.7-3.3-2.4,1.6-2.4,1.6s-9-0.8-9.3-3c-0.2-2.2-0.2-2.2-0.2-2.2l0,0c0,0-2.2,3.6-4.6,1.2c-2.4-2.4-1.9-1.9-4-4
	c-2.1-2.1-2.1-2.1-2.1-2.1s6.5,9.7,9.4,14c4.2,6.3-11.3-1.2-21-22.1c0,0-1.5,15.8-5.6,14.2l-4.9-13.9c0,0-6.3-8.2-7.3-6.4
	c-0.9,1.8,5.3,20.1,0.8,16.4c-4.5-3.7-8.1-17.1-9-19.6c-0.8-2.5-4.4,17.9-5.7,5.5c-0.3-2.6-5.8-15.1-13.8-21.6
	c-8.1-6.6-30.8,1.6-36.4-8.8C319,221.5,342.6,233.1,342.6,233.1z"/>
	
<path id="body_3_" style="fill:#023330;" d="M317.1,255.7c0,0,8.1-38.6,26.8-21.1c0,0,24.1,3,43.7,26.1c0,0,4.6,2.3,8.4,7.3
	c0,0,14.4,24.1,3.1,57.6c0,0-6.2,30.2-21.6,28.4c-15.4-1.8-29.7-6.6-30.5-17.4c0,0,14.4-25.7-0.2-36.1c0,0-21.5-1.9-26.6-26.9
	c0,0-11.9,0-6.9-7.7l-7.3,4.4C306,270.2,298.7,257.3,317.1,255.7z"/>
	
<g id="head">
	<g>
		<g>
			<path style="fill:#1B766D;" d="M277.2,256.3c0,0-32.1-34.7-0.8-57.3c0,0,25.5-26.2,52.5-3.8c0,0,15.4,11,10.9,25.7l-23,11
				l-26.5,7.3L277.2,256.3z"/>
		</g>
		<path style="fill:#1B766D;" d="M308.9,180.9l32.6,45c0,0,15.2-0.5,16.7-0.9c1.5-0.4,33.4-18.9,33.4-18.9l-29.4-11.8L308.9,180.9z"
			/>
		<path style="fill:#1B766D;" d="M287,216.9l8.6-15.4c0,0,9.1-4,11.4-2.8c2.3,1.2,9.4,6.1,9.4,6.1l13.1-2l9.3-1.8
			c0,0,26.7,27.9,27.7,27.9c0.5,0,5.9,1,12.7,1.3c19.7,0.9,28.8-12.9,28.8-12.9s9.6-24.6,17.2-24.4c14.3,0.2,19.5-8.1,19.5-8.1
			s-3.1,4.2-10.7,4.2c-7.6,0-18.1-3.4-24.9,7.2s-19.9,6.5-26,6c-6.1-0.5-6.2-12.1-46.5-25.8c0,0-25.5-8.8-43.1-3.9
			c-19.4,5.4-31.7,17.6-33.5,33.6l-0.4,8.1c-0.3,1.6,0.8,10.1,2.5,10.1c1.5,0,3.3-3.9,4.7-3.6c3.1,0.7,8.9-4.5,10.3-5.1
			c0,0,3.4,0.5,5.3,1C284.8,217,285.6,217,287,216.9z"/>
		<path style="fill:#1B766D;" d="M328.6,232c0,0,27.9,12.6,47.1,12s23.8-7.9,32.8-15s17.4-8.5,26.7-2.8c0,0-11.5-14.8-27.9-5
			c0,0-14,9.8-31.1,7.4s-28.9-7.8-45.5,1C314.2,238.5,328.6,232,328.6,232z"/>
		<path style="fill:#1B766D;" d="M322.9,218.7c0,0,15.4-10.7,24.2-5.2c8.8,5.6,14.8,4,30.1-7.7c15.3-11.7,19.5-10.9,33-12.7
			c13.6-1.8,22.4-18.8,13.6-22.5c0,0,5.1,5-1,11.9c0,0-2.7,7-25.2,8.5s-25.5,15.7-36.3,14.3c-10.8-1.4-28.2-7.6-46,2.3L322.9,218.7z
			"/>
		<path style="fill:#1B766D;" d="M326.7,220.8c0,0,20.9,24,52.1,3.6c29-19,29.1-11.7,52.2-12.5c23.1-0.8,18.4-29.2,13.8-32.6
			c0,0,2.4,8,2.1,11.3c0,0-0.5,15.6-18.3,14.5c0,0-17.6-8.2-32.6,1.7c-17.7,11.7-38.3,23.5-66.2,12.7L326.7,220.8z"/>
		<path style="fill:#1B766D;" d="M303.7,202c0,0,17.2-9.3,25.6-2.5c8.4,6.8,14.8,16.9,32,6.6s21.4-16.9,35.6-17.2
			c14.2-0.2,25.3-19.7,16.7-24.6c0,0,4.6,5.7-2.4,12.2c0,0-3.6,6.9-27,5.8s-29.2,0.2-40.2-2.5s-27.3,1.8-46.8,9.9L303.7,202z"/>
		<path style="fill:#1B766D;" d="M292.9,182.6c0,0,29.4,2.1,48.9,1.1c19.6-1.1,24-0.2,32.2-8.5c8.2-8.3,9-12.3,19.5-6
			c0,0-6.3-12.2-21.5-0.7c0,0-12.8,7.6-30.8,5.2c-17.9-2.4-30.8-4.3-46.5,6.1C279.1,190.2,292.9,182.6,292.9,182.6z"/>
		<g>
			<path style="fill:#1B766D;" d="M288.7,217l-3,6.3c0,0-16.7-3.6-17.7-5.9c-1.1-2.3-3.3-8.2-2.1-8.7s16.1-13.6,16.1-13.6l18.7-6
				l16.3,1.4l23.2,14.6l-17.5,6.3l-18.3-4L288.7,217z"/>
			<path style="fill:#1B766D;" d="M274.7,209.5c0,0,5.7-14.6,20-16s18.4,0,20.5,0.9c0,0-7.1-5.7-24.2-1.1
				C273.9,197.9,274.7,209.5,274.7,209.5z"/>
			<path style="fill:#1B766D;" d="M288.4,218.2c0,0,9.8-9.5,15.6-4.9s9.7,4.9,11.9,4c0,0-6.3,0.1-10.6-5.3c0,0-5-4.3-16.6,0.1
				c-17.8,6.6,0.8,5.3,0.8,5.3"/>
		</g>
	</g>
	<g>
		<path style="fill:#FFFFFF;" d="M333.5,239.3c0,0,11.5-19-1.2-26.3l-7.1,10.6l3.3,16.8L333.5,239.3z"/>
		<path style="fill:#FFFFFF;" d="M325.3,223.6c0,0,11.8,20.1,6,36.2c0,0-11.2,23.1-20.1,25.2c0,0-9-5.9-20.8-20
			c0,0-13.3-2.9-16.3-12.5c0,0-24-34.5,12.1-43.9C286.2,208.5,317.6,197.4,325.3,223.6z"/>
	</g>
	<g id="eye_2_">
		<circle style="fill:#1A1A1A;" cx="301.2" cy="244.4" r="4.5"/>
		<circle style="fill:#FFFFFF;" cx="300.3" cy="245.3" r="1.3"/>
	</g>
	<path style="fill:#1A1A1A;" d="M273.5,253.5c4.9,3.4-0.8,16.2-0.5,14.4c-3.2,14.3-4,25.2-3,39.5c1.2,17.1,3,21.8,3,21.8
		c0,0,7.4,17.6,7.4,17.6c-11.9-35.1,11.1-62.1,11.1-62.1c7.5-24.6,28.1-15.7,28.1-15.7c2.5-0.6,9.1-5.5,7.8-13.3
		c-1.2-7.2,4.2-17.6,4.2-17.6c6-40.6-51-23-51-23c-15.5,9.9-17,8.7-17,8.7C260.6,229.6,268.5,249.9,273.5,253.5z M291.9,247.1
		c0.5-4.4,5-6.8,7.7-9.8c0,0-1.8-10.4,6.6-5.1c0,0,9.2,8.1,3.4,14.4C309.6,246.5,290.7,257.3,291.9,247.1z"/>
</g>
</svg>
