
<svg version="1.1" id="Ebene_1" xmlns="http://www.w3.org/2000/svg" xmlns:xlink="http://www.w3.org/1999/xlink" x="0px" y="0px"
	 viewBox="0 0 599.9 389.9" style="enable-background:new 0 0 599.9 389.9;" xml:space="preserve">
<path style="fill:#FFFFFF;" d="M375.7,179.5H225.2c-8,0-14.5-6.5-14.5-14.5V14.5c0-8,6.5-14.5,14.5-14.5h150.5
	c8,0,14.5,6.5,14.5,14.5V165C390.2,173,383.7,179.5,375.7,179.5z M225.2,5c-5.2,0-9.5,4.3-9.5,9.5V165c0,5.2,4.3,9.5,9.5,9.5h150.5
	c5.2,0,9.5-4.3,9.5-9.5V14.5c0-5.2-4.3-9.5-9.5-9.5H225.2z"/>
<g>
	<path style="fill:#FFFFFF;" d="M338.7,107.8l-3.9,3.9c-0.5,0.5-1.1,0.8-1.8,0.8c-0.6,0-1.3-0.3-1.8-0.8L300.5,81l-30.7,30.7
		c-0.5,0.5-1.2,0.8-1.8,0.8s-1.3-0.3-1.8-0.8l-3.9-3.9c-0.5-0.5-0.8-1.2-0.8-1.8s0.3-1.3,0.8-1.8l36.4-36.4c0.5-0.5,1.2-0.8,1.8-0.8
		s1.3,0.3,1.8,0.8l36.4,36.4c0.5,0.5,0.8,1.2,0.8,1.8S339.1,107.3,338.7,107.8z"/>
</g>
<path style="fill:#FFFFFF;" d="M375.7,389.9H225.2c-8,0-14.5-6.5-14.5-14.5V224.9c0-8,6.5-14.5,14.5-14.5h150.5
	c8,0,14.5,6.5,14.5,14.5v150.5C390.2,383.4,383.7,389.9,375.7,389.9z M225.2,215.4c-5.2,0-9.5,4.3-9.5,9.5v150.5
	c0,5.2,4.3,9.5,9.5,9.5h150.5c5.2,0,9.5-4.3,9.5-9.5V224.9c0-5.2-4.3-9.5-9.5-9.5H225.2z"/>
<g>
	<path style="fill:#FFFFFF;" d="M339.5,283.9c0,0.6-0.3,1.3-0.8,1.8l-36.4,36.4c-0.5,0.5-1.2,0.8-1.8,0.8s-1.3-0.3-1.8-0.8
		l-36.4-36.4c-0.5-0.5-0.8-1.2-0.8-1.8s0.3-1.3,0.8-1.8l3.9-3.9c0.5-0.5,1.2-0.8,1.8-0.8s1.3,0.3,1.8,0.8l30.7,30.7l30.7-30.7
		c0.5-0.5,1.2-0.8,1.8-0.8c0.7,0,1.3,0.3,1.8,0.8l3.9,3.9C339.1,282.5,339.5,283.2,339.5,283.9z"/>
</g>
<path style="fill:#FFFFFF;" d="M585.4,389.9H434.9c-8,0-14.5-6.5-14.5-14.5V224.9c0-8,6.5-14.5,14.5-14.5h150.5
	c8,0,14.5,6.5,14.5,14.5v150.5C599.9,383.4,593.4,389.9,585.4,389.9z M434.9,215.4c-5.2,0-9.5,4.3-9.5,9.5v150.5
	c0,5.2,4.3,9.5,9.5,9.5h150.5c5.2,0,9.5-4.3,9.5-9.5V224.9c0-5.2-4.3-9.5-9.5-9.5H434.9z"/>
<g>
	<path style="fill:#FFFFFF;" d="M493.9,261.1c0.6,0,1.3,0.3,1.8,0.8l36.4,36.4c0.5,0.5,0.8,1.2,0.8,1.8s-0.3,1.3-0.8,1.8l-36.4,36.4
		c-0.5,0.5-1.2,0.8-1.8,0.8s-1.3-0.3-1.8-0.8l-3.9-3.9c-0.5-0.5-0.8-1.2-0.8-1.8s0.3-1.3,0.8-1.8l30.7-30.7l-30.7-30.7
		c-0.5-0.5-0.8-1.2-0.8-1.8c0-0.7,0.3-1.3,0.8-1.8l3.9-3.9C492.6,261.4,493.3,261.1,493.9,261.1z"/>
</g>
<path style="fill:#FFFFFF;" d="M165,389.9H14.5c-8,0-14.5-6.5-14.5-14.5V224.9c0-8,6.5-14.5,14.5-14.5H165c8,0,14.5,6.5,14.5,14.5
	v150.5C179.5,383.4,173,389.9,165,389.9z M14.5,215.4c-5.2,0-9.5,4.3-9.5,9.5v150.5c0,5.2,4.3,9.5,9.5,9.5H165
	c5.2,0,9.5-4.3,9.5-9.5V224.9c0-5.2-4.3-9.5-9.5-9.5H14.5z"/>
<g>
	<path style="fill:#FFFFFF;" d="M106,339.1c-0.6,0-1.3-0.3-1.8-0.8l-36.4-36.4c-0.5-0.5-0.8-1.2-0.8-1.8s0.3-1.3,0.8-1.8l36.4-36.4
		c0.5-0.5,1.2-0.8,1.8-0.8s1.3,0.3,1.8,0.8l3.9,3.9c0.5,0.5,0.8,1.2,0.8,1.8s-0.3,1.3-0.8,1.8L81,300.1l30.7,30.7
		c0.5,0.5,0.8,1.2,0.8,1.8c0,0.7-0.3,1.3-0.8,1.8l-3.9,3.9C107.3,338.8,106.6,339.1,106,339.1z"/>
</g>
</svg>
