<?xml version="1.0" encoding="utf-8"?>
<!-- Generator: Adobe Illustrator 18.0.0, SVG Export Plug-In . SVG Version: 6.00 Build 0)  -->
<!DOCTYPE svg PUBLIC "-//W3C//DTD SVG 1.1//EN" "http://www.w3.org/Graphics/SVG/1.1/DTD/svg11.dtd">
<svg version="1.1" id="sound" xmlns="http://www.w3.org/2000/svg" xmlns:xlink="http://www.w3.org/1999/xlink" x="0px" y="0px"
	 viewBox="178.8 272 358.3 297.8" style="enable-background:new 178.8 272 358.3 297.8;" xml:space="preserve">
<g>
	<g>
		<path style="fill:#FFFFFF;" d="M393.3,352.1c17.6,17.6,28.4,41.9,28.4,68.7s-10.9,51-28.5,68.6l28.8,29c25-25,40.6-59.4,40.6-97.5
			s-15.3-72.7-40.2-97.7L393.3,352.1z"/>
		<path style="fill:#FFFFFF;" d="M444,301.5c30.5,30.6,49.3,72.8,49.2,119.3c-0.1,46.6-19.1,88.7-49.6,119.3l29.5,29.6
			c38.3-37.9,62-90.7,62.1-148.8S511.8,310.1,473.8,272L444,301.5z"/>
	</g>
	<polyline style="fill:#FFFFFF;" points="244.4,479 351.6,569.5 351.6,272.4 244.4,363 178.8,363 178.8,478.9 244.4,478.9 	"/>
</g>
</svg>
