
<!DOCTYPE svg PUBLIC "-//W3C//DTD SVG 1.1//EN" "http://www.w3.org/Graphics/SVG/1.1/DTD/svg11.dtd">
<svg version="1.1" id="Ebene_1" xmlns="http://www.w3.org/2000/svg" xmlns:xlink="http://www.w3.org/1999/xlink" x="0px" y="0px"
	 viewBox="0 0 451 451" style="enable-background:new 0 0 451 451;" xml:space="preserve">
<g>
	<defs>
		<circle id="SVGID_1_" cx="225.5" cy="225.5" r="225.5"/>
	</defs>
	<clipPath id="SVGID_2_">
		<use xlink:href="#SVGID_1_"  style="overflow:visible;"/>
	</clipPath>
	<g style="clip-path:url(#SVGID_2_);">
		<rect x="-148.4" y="-115" style="fill:#FFFFFF;" width="829" height="717"/>
	</g>
	<g id="Page-1" style="clip-path:url(#SVGID_2_);">
		<g id="Icons-AV" transform="translate(-168.000000, -85.000000)">
			<g id="play-circle-outline" transform="translate(168.000000, 85.000000)">
				<path id="Shape" style="fill:#00A99D;" class="fill_pink" d="M201.5,279.5l72-54l-72-54V279.5L201.5,279.5z M225.5,105.5c-66,0-120,54-120,120
					s54,120,120,120s120-54,120-120S291.5,105.5,225.5,105.5L225.5,105.5z M225.5,321.5c-52.8,0-96-43.2-96-96s43.2-96,96-96
					s96,43.2,96,96S278.3,321.5,225.5,321.5L225.5,321.5z"/>
			</g>
		</g>
	</g>
</g>
</svg>
