<svg version="1.1" id="#divider" xmlns="http://www.w3.org/2000/svg" xmlns:xlink="http://www.w3.org/1999/xlink" x="0px" y="0px"
	 viewBox="0 0 595.3 36" enable-background="new 0 0 595.3 36" xml:space="preserve">
<g>
	<rect x="13.6" y="26.6" width="255.3" height="2.5"/>
	<rect x="327.4" y="26.6" width="254" height="2.5"/>
	<g>
		<path d="M268.9,29c0-0.2,0-0.4,0-0.5c0-7.8,6.3-14.1,14.1-14.1c7.8,0,14.1,6.3,14.1,14.1c0,0.2,0,0.4,0,0.5h2.2
			c0-0.2,0-0.4,0-0.5c0-9-7.3-16.3-16.3-16.3c-9,0-16.3,7.3-16.3,16.3c0,0.2,0,0.4,0,0.5H268.9z"/>
		<path d="M299.3,29c0.3-7.5,6.5-14.7,14.1-14.7c7.6,0,13.8,6,14.1,13.6h2.2c-0.3-8.7-7.5-15.8-16.3-15.8
			c-8.8,0-16,8.1-16.3,16.9H299.3z"/>
		<path d="M283.6,27.3c0-0.6-0.1-1.1-0.1-1.7c0-10.3,6.3-18.8,14.1-18.8c7.8,0,14.1,8.4,14.1,18.8
			c0,0.6,0,1.2-0.1,1.7h2.2c0-0.6,0.1-1.1,0.1-1.7c0-11.5-7.3-20.9-16.3-20.9c-9,0-16.3,9.4-16.3,20.9c0,0.6,0,1.2,0.1,1.7H283.6z"
			/>
	</g>
	<circle cx="580" cy="27.2" r="4.1"/>
	<circle cx="15.3" cy="27.2" r="4.1"/>
</g>
</svg>
