<svg version="1.1" id="Ebene_1" xmlns="http://www.w3.org/2000/svg" xmlns:xlink="http://www.w3.org/1999/xlink" x="0px" y="0px"
	 viewBox="0 264.9 469 315" enable-background="new 0 264.9 469 315" xml:space="preserve">
<g>
	<circle fill="#FFFFFF" cx="423.5" cy="421.6" r="30.7"/>
	<path fill="#FFFFFF" d="M219.7,273c-71.2-27-122.7,51.6-74.9,87.1c23.3,17.2,60.1,13.5,72.4-16c4.9-9.8,2.5-23.3-7.4-30.7
		c-9.8-8.6-23.3-7.4-30.7,2.5c-7.4,8.6-4.9,24.5,4.9,33.1c2.5,2.5,4.9,3.7,8.6,4.9c-20.9,11-54-2.5-54-30.7
		c1.2-55.2,99.4-63.8,115.4,7.4c9.8,40.5-23.3,78.6-58.9,83.5c-35.6,3.7-50.3-19.6-77.3-22.1C72.4,388.4,34.4,404.4,0,422.8
		c34.4,17.2,72.4,34.4,117.8,30.7c27-2.5,41.7-27,77.3-22.1c35.6,3.7,68.7,43,58.9,83.5c-16,70-112.9,62.6-115.4,7.4
		c-1.2-27,33.1-41.7,54-30.7c-2.5,1.2-6.1,2.5-8.6,4.9c-9.8,8.6-12.3,23.3-4.9,34.4c7.4,9.8,20.9,11,30.7,2.5
		c8.6-7.4,11-20.9,7.4-30.7c-12.3-30.7-49.1-33.1-72.4-16c-46.6,35.6,3.7,112.9,74.9,87.1c67.5-25.8,62.6-120.3-8.6-148.5
		C282.3,392.1,287.2,298.8,219.7,273z"/>
	<rect x="264.7" y="403.1" fill="#FFFFFF" width="115.6" height="36.8"/>
</g>
</svg>
