<svg version="1.1" id="Ebene_1" xmlns="http://www.w3.org/2000/svg" xmlns:xlink="http://www.w3.org/1999/xlink" x="0px" y="0px"
	 viewBox="105 276.9 421 288" style="enable-background:new 105 276.9 421 288;" xml:space="preserve">
<g>
	<rect x="153.7" y="404.4" width="371.3" height="33.1"/>
</g>
<path d="M243.1,303.9c0,0-110,119.4-110,115c0,4.4,110,115,110,115C219.1,458.5,219.9,381.8,243.1,303.9z"/>
<path d="M350.9,469.4c-26.9,0-50-21.8-50-47.4c0-26.9,21.8-47.4,50-47.4c26.9,0,50,21.8,50,47.4
	S377.8,469.4,350.9,469.4z"/>
<path d="M341.6,310.7c23.3-13.6,55.8-14.7,80.8,7.3c12.5,10.5,21.7,26.2,28.3,43c6.7,16.8,9.2,34.6,10.8,53.5
	c0.8,35.6-7.5,74.4-28.3,100.6c-10.8,13.6-24.2,22-39.1,25.2c-14.2,2.1-28.3-1-40-8.4c26.7,1,50-11.5,61.6-34.6
	c12.5-23.1,18.3-52.4,16.7-80.7c-0.8-28.3-8.3-56.6-24.2-75.5C392.4,321.2,368.2,311.8,341.6,310.7z"/>
<path d="M606.3,415.4"/>
</svg>
