
<svg version="1.1" id="Ebene_1" xmlns="http://www.w3.org/2000/svg" xmlns:xlink="http://www.w3.org/1999/xlink" x="0px" y="0px"
	 viewBox="0 0 451 451" style="enable-background:new 0 0 451 451;" xml:space="preserve">
<g>
	<defs>
		<circle id="SVGID_1_" cx="225.5" cy="225.5" r="225.5"/>
	</defs>
	<clipPath id="SVGID_2_">
		<use xlink:href="#SVGID_1_"  style="overflow:visible;"/>
	</clipPath>
	<g style="clip-path:url(#SVGID_2_);">
		<rect x="-148.4" y="-115" style="fill:#FFFFFF;" width="829" height="717"/>
		<g>
			<path style="fill:#00A99D;" class="fill_pink" d="M267.2,197h-82.8c-4.4,0-8-3.6-8-8v-82.8c0-4.4,3.6-8,8-8h82.8c4.4,0,8,3.6,8,8V189
				C275.1,193.4,271.6,197,267.2,197z"/>
			<g>
				<path style="fill:#FFFFFF;" d="M246.8,157.6l-2.1,2.1c-0.3,0.3-0.6,0.4-1,0.4c-0.3,0-0.7-0.2-1-0.4l-16.9-16.9l-16.9,16.9
					c-0.3,0.3-0.7,0.4-1,0.4c-0.3,0-0.7-0.2-1-0.4l-2.1-2.1c-0.3-0.3-0.4-0.7-0.4-1c0-0.3,0.2-0.7,0.4-1l20-20
					c0.3-0.3,0.7-0.4,1-0.4c0.3,0,0.7,0.2,1,0.4l20,20c0.3,0.3,0.4,0.7,0.4,1C247.3,156.9,247,157.3,246.8,157.6z"/>
			</g>
			<path style="fill:#00A99D;" class="fill_pink"  d="M267.2,312.7h-82.8c-4.4,0-8-3.6-8-8V222c0-4.4,3.6-8,8-8h82.8c4.4,0,8,3.6,8,8v82.8
				C275.1,309.2,271.6,312.7,267.2,312.7z"/>
			<g>
				<path style="fill:#FFFFFF;" d="M247.3,254.4c0,0.3-0.2,0.7-0.4,1l-20,20c-0.3,0.3-0.7,0.4-1,0.4c-0.3,0-0.7-0.2-1-0.4l-20-20
					c-0.3-0.3-0.4-0.7-0.4-1c0-0.3,0.2-0.7,0.4-1l2.1-2.1c0.3-0.3,0.7-0.4,1-0.4c0.3,0,0.7,0.2,1,0.4l16.9,16.9l16.9-16.9
					c0.3-0.3,0.7-0.4,1-0.4c0.4,0,0.7,0.2,1,0.4l2.1,2.1C247,253.7,247.3,254,247.3,254.4z"/>
			</g>
			<path style="fill:#00A99D;" d="M382.5,312.7h-82.8c-4.4,0-8-3.6-8-8V222c0-4.4,3.6-8,8-8h82.8c4.4,0,8,3.6,8,8v82.8
				C390.5,309.2,386.9,312.7,382.5,312.7z"/>
			<g>
				<path style="fill:#FFFFFF;" d="M332.2,241.9c0.3,0,0.7,0.2,1,0.4l20,20c0.3,0.3,0.4,0.7,0.4,1c0,0.3-0.2,0.7-0.4,1l-20,20
					c-0.3,0.3-0.7,0.4-1,0.4c-0.3,0-0.7-0.2-1-0.4l-2.1-2.1c-0.3-0.3-0.4-0.7-0.4-1s0.2-0.7,0.4-1l16.9-16.9l-16.9-16.9
					c-0.3-0.3-0.4-0.7-0.4-1c0-0.4,0.2-0.7,0.4-1l2.1-2.1C331.5,242.1,331.9,241.9,332.2,241.9z"/>
			</g>
			<path style="fill:#00A99D;" d="M151.3,312.7H68.5c-4.4,0-8-3.6-8-8V222c0-4.4,3.6-8,8-8h82.8c4.4,0,8,3.6,8,8v82.8
				C159.2,309.2,155.7,312.7,151.3,312.7z"/>
			<g>
				<path style="fill:#FFFFFF;" d="M118.8,284.8c-0.3,0-0.7-0.2-1-0.4l-20-20c-0.3-0.3-0.4-0.7-0.4-1c0-0.3,0.2-0.7,0.4-1l20-20
					c0.3-0.3,0.7-0.4,1-0.4s0.7,0.2,1,0.4l2.1,2.1c0.3,0.3,0.4,0.7,0.4,1s-0.2,0.7-0.4,1l-16.9,16.9l16.9,16.9
					c0.3,0.3,0.4,0.7,0.4,1c0,0.4-0.2,0.7-0.4,1l-2.1,2.1C119.5,284.6,119.1,284.8,118.8,284.8z"/>
			</g>
		</g>
	</g>
</g>
</svg>
