<svg version="1.1" id="Ebene_1" xmlns="http://www.w3.org/2000/svg" xmlns:xlink="http://www.w3.org/1999/xlink" x="0px" y="0px"
	 viewBox="-302.4 409.9 1200 887.8" enable-background="new -302.4 409.9 1200 887.8" xml:space="preserve">
<circle display="none" opacity="0.3" fill="#FFFFFF" cx="297.6" cy="697.7" r="503.5"/>
<g>
	<g>
		<path fill="#32B493" d="M-198.9,811.8c3.4,0,6.6-0.9,9.4-2.6c2.9-1.7,4.6-4.3,5.3-7.7c0.6-3.6,0.1-7-1.7-10.2
			c-1.8-3.2-4.2-6.3-7.3-9.4c-3.1-3.1-6.5-6.3-10.2-9.7c-3.7-3.3-7-7-9.9-11c-2.9-4-5.2-8.4-6.9-13.2c-1.6-4.8-1.9-10.3-0.7-16.5
			c1.5-8.3,5.3-14.7,11.5-19.1c6.2-4.4,14.5-6.6,24.7-6.6c5.2,0,10.7,0.9,16.5,2.6c5.8,1.7,10.5,4.3,14.1,7.7
			c-1.8,3.8-3.1,7.6-3.8,11.4c-0.7,3.8-1.3,8-1.6,12.6c-2.8,1.6-6.2,2.3-10.3,2c-0.3-7.8-2.3-14-5.9-18.6c-3.6-4.6-8.7-6.9-15.2-6.9
			c-3.9,0-7,0.9-9.3,2.8c-2.3,1.9-3.7,4.2-4.2,7c-0.8,3.8-0.2,7.2,1.7,10.4c2,3.2,4.6,6.3,7.8,9.3c3.3,3,6.8,6.2,10.7,9.4
			c3.8,3.3,7.3,6.9,10.3,10.8c3,3.9,5.3,8.3,7,13.1c1.6,4.8,1.9,10.3,0.7,16.5c-1.6,8.5-5.6,15-12,19.6c-6.4,4.6-14.9,6.9-25.7,6.9
			c-6.9,0-13.3-1.3-19.2-3.8c-6-2.5-10.7-5.9-14.3-10.2c1.8-3.8,3.1-7.7,3.8-11.9c0.7-4.2,1.3-8.5,1.6-13.1c2.8-1.6,6.2-2.3,10.3-2
			c-0.2,4.1,0.3,8,1.5,11.6c1.1,3.7,2.7,6.9,4.8,9.7c2,2.8,4.4,5,7.2,6.6C-205.4,810.9-202.3,811.8-198.9,811.8z"/>
		<path fill="#32B493" d="M-117.3,822.3c-7,0-12.5-1.7-16.3-5.1c-3.8-3.4-6.5-7.9-8.1-13.4c-1.6-5.5-2.2-11.7-1.8-18.6
			c0.3-6.9,1.1-13.9,2.4-20.9c1.5-7.5,3.9-14.8,7.2-21.8c3.3-7,7.5-13.3,12.4-18.7c4.9-5.5,10.5-9.8,16.8-13.1
			c6.3-3.3,13.2-4.9,20.7-4.9c4.7,0,8.5,0.4,11.3,1.2c2.8,0.8,5.5,2.1,8.1,3.9c-3.8,8.7-6,17.7-6.9,27.2c-1.3,0.7-2.9,1.1-4.8,1.5
			c-1.9,0.3-3.8,0.5-5.8,0.5c0-7.8-1.1-13.4-3.3-16.5c-2.2-3.2-5.7-4.8-10.4-4.8c-2.5,0-4.8,0.9-7,2.6c-2.2,1.7-4.3,4.1-6.2,7.1
			c-2,3-3.7,6.5-5.1,10.5c-1.5,4-2.6,8.2-3.4,12.6c-1.3,6.5-2.2,12.9-2.7,19.2c-0.5,6.3-0.4,11.9,0.2,16.8c0.7,4.9,2.1,8.9,4.3,11.9
			c2.2,3,5.3,4.5,9.4,4.5c4.7,0,9.3-1.3,13.8-3.8c4.5-2.5,8.3-5.5,11.4-8.9c2.1,1.5,3.8,3.8,5.1,6.9c-2.9,3.8-6.2,7.1-9.7,10
			c-3.5,2.9-7.1,5.5-10.8,7.6c-3.7,2.1-7.3,3.8-10.9,4.9C-110.9,821.7-114.2,822.3-117.3,822.3z"/>
		<path fill="#32B493" d="M-36.7,748.8c1.1-5.7,1.9-10.2,2.2-13.4c0.3-3.2,0.1-5.6-0.7-7.1c-0.8-1.5-2.3-2.5-4.4-2.8
			c-2.1-0.3-5.1-0.5-9.1-0.5c0-1.8,0.1-3.5,0.2-5c0.2-1.6,0.7-3,1.5-4.3c2-0.2,4.4-0.6,7.5-1.3c3-0.7,6.1-1.6,9.3-2.6
			c3.2-1,6.2-2,9.2-3.1c2.9-1.1,5.3-2.1,7.1-3.1c4.9,1.6,6.5,6.9,4.9,15.7c-1.6,8.7-5.2,19.4-10.8,32.3h0.5l4.2-9.1
			c2.5-5.4,5.3-10.4,8.5-15.1c3.2-4.7,6.5-8.8,9.8-12.4c3.3-3.6,6.8-6.4,10.3-8.5c3.5-2,6.9-3.1,10.2-3.1c3.1,0,5.7,0.4,7.8,1.1
			c2.1,0.7,4.1,1.8,5.9,3.3c-1.8,3.8-3.3,8.3-4.4,13.6c-1.1,5.3-1.9,10.2-2.2,14.8c-2.8,1.6-6.2,2.3-10.3,2
			c-0.2-3.6-0.4-6.5-0.7-8.7c-0.3-2.2-0.7-3.9-1.2-5c-0.5-1.1-1.1-1.9-1.7-2.2c-0.7-0.3-1.5-0.5-2.5-0.5c-2.3,0-4.9,1.7-8,5.1
			c-3,3.4-6.2,8.2-9.7,14.5c-5.2,9.5-9.4,18.4-12.5,26.7c-3.1,8.3-5.7,17.6-7.8,27.9l-4.2,21.8h-22.5L-36.7,748.8z"/>
		<path fill="#32B493" d="M98,705.7c7,0,13.2,1.3,18.5,4c5.3,2.7,9.6,6.6,12.7,11.6c3.2,5.1,5.2,11.1,6.1,18.1
			c0.9,7,0.5,14.8-1.1,23.3c-1.6,9-4.3,17.1-8,24.4c-3.7,7.3-8.1,13.5-13.2,18.7c-5.1,5.2-10.9,9.3-17.4,12.1
			c-6.5,2.9-13.3,4.3-20.5,4.3c-7,0-13.1-1.3-18.2-3.9c-5.1-2.6-9.3-6.3-12.5-11.1c-3.2-4.8-5.2-10.6-6.1-17.4
			c-0.9-6.8-0.5-14.2,1.1-22.4c1.8-9.3,4.5-17.8,8.2-25.4c3.7-7.6,8.1-14.1,13.2-19.5c5.1-5.4,10.9-9.6,17.1-12.5
			C84.3,707.2,91,705.7,98,705.7z M94.8,717.7c-3.8,0-7.3,1.1-10.7,3.3c-3.3,2.2-6.5,5.4-9.4,9.4c-2.9,4.1-5.5,9-7.7,14.7
			c-2.2,5.7-4,12.1-5.3,19.1c-2.8,14-2.8,25.3,0,33.8c2.8,8.5,7.8,12.7,15.2,12.7c3.8,0,7.4-1.1,10.9-3.3c3.5-2.2,6.7-5.3,9.7-9.3
			c2.9-4,5.6-8.8,7.8-14.3c2.3-5.5,4.1-11.8,5.4-18.6c2.6-14.2,2.5-25.7-0.4-34.4C107.5,722.1,102.3,717.7,94.8,717.7z"/>
		<path fill="#32B493" d="M179.1,765.2c-1.8,8.7-3,15.6-3.7,20.9c-0.7,5.3-0.9,9.4-0.9,12.1c0.1,2.8,0.5,4.6,1.3,5.5
			c0.8,0.9,1.9,1.3,3.2,1.3c1.6,0,3.4-0.5,5.4-1.6c2-1.1,4.3-2.9,7.1-5.5c2.1,2,3.6,4.4,4.4,7.3c-3.9,4.7-8.4,8.7-13.4,12
			c-5,3.3-9.8,4.9-14.3,4.9c-11.6,0-17.1-6.6-16.7-19.8c0-2,0.1-4,0.2-6.1c0.2-2.1,0.5-4.9,1-8.2c0.5-3.3,1.2-7.5,2.1-12.5
			c0.9-5,2.1-11.3,3.6-19.1c1.5-7.8,3.3-17.1,5.4-28c2.1-10.9,4.7-24,7.8-39.2c1.1-5.6,1.8-9.9,2.1-13.1c0.2-3.2,0-5.6-0.9-7.2
			c-0.8-1.6-2.3-2.6-4.5-2.9c-2.2-0.3-5.3-0.5-9.2-0.5c0-1.8,0-3.5,0.1-5c0.1-1.6,0.5-3,1.3-4.3c2-0.2,4.4-0.6,7.5-1.3
			c3-0.7,6.1-1.6,9.3-2.6c3.2-1,6.2-2,9.2-3.1c2.9-1.1,5.3-2.1,7.1-3.1c4.9,1.6,6.6,6.9,5.1,15.7c-3.3,18.6-6.6,36.5-9.9,53.6
			C185.6,732.6,182.3,749.2,179.1,765.2z"/>
		<path fill="#32B493" d="M241.3,765.2c-1.8,8.7-3,15.6-3.7,20.9c-0.7,5.3-0.9,9.4-0.9,12.1c0.1,2.8,0.5,4.6,1.3,5.5
			c0.8,0.9,1.9,1.3,3.2,1.3c1.6,0,3.4-0.5,5.4-1.6c2-1.1,4.3-2.9,7.1-5.5c2.1,2,3.6,4.4,4.4,7.3c-3.9,4.7-8.4,8.7-13.4,12
			c-5,3.3-9.8,4.9-14.3,4.9c-11.6,0-17.1-6.6-16.7-19.8c0-2,0.1-4,0.2-6.1c0.2-2.1,0.5-4.9,1-8.2c0.5-3.3,1.2-7.5,2.1-12.5
			c0.9-5,2.1-11.3,3.6-19.1c1.5-7.8,3.3-17.1,5.4-28c2.1-10.9,4.7-24,7.8-39.2c1.1-5.6,1.8-9.9,2.1-13.1c0.2-3.2,0-5.6-0.9-7.2
			c-0.8-1.6-2.3-2.6-4.5-2.9c-2.2-0.3-5.3-0.5-9.2-0.5c0-1.8,0-3.5,0.1-5c0.1-1.6,0.5-3,1.3-4.3c2-0.2,4.4-0.6,7.5-1.3
			c3-0.7,6.1-1.6,9.3-2.6c3.2-1,6.2-2,9.2-3.1c2.9-1.1,5.3-2.1,7.1-3.1c4.9,1.6,6.6,6.9,5.1,15.7c-3.3,18.6-6.6,36.5-9.9,53.6
			C247.9,732.6,244.6,749.2,241.3,765.2z"/>
		<path fill="#32B493" d="M404.2,776.7c-1.1,6.5-2,11.7-2.6,15.6c-0.6,3.8-0.9,6.7-0.9,8.7s0.3,3.2,1,3.7c0.6,0.5,1.6,0.7,2.7,0.7
			c1.8,0,3.7-0.5,5.6-1.6c2-1.1,4.6-3,7.8-5.8c1.1,1.1,2,2.3,2.7,3.6c0.6,1.2,1.2,2.6,1.7,4c-3.9,4.6-8.5,8.5-13.6,11.8
			c-5.1,3.3-9.8,4.9-14.1,4.9c-5.9,0-10.1-1.4-12.6-4.2c-2.5-2.8-4-6.2-4.4-10.3c-0.4-4.1-0.1-8.5,1-13.2c1.1-4.7,2.2-9.1,3.3-13
			h-0.2c-2.3,4.7-5.1,9.5-8.3,14.3c-3.3,4.8-6.9,9.2-10.8,13.1s-8.2,7.1-12.7,9.6c-4.6,2.5-9.2,3.7-14,3.7c-8.2,0-14-4.1-17.4-12.2
			c-3.4-8.2-3.3-21.3,0.2-39.4c2-9.5,5-18.2,9.1-26.1c4.1-7.9,9-14.7,14.8-20.5c5.8-5.7,12.2-10.2,19.4-13.5
			c7.1-3.3,14.7-4.9,22.7-4.9c3.1,0,6.5,0.4,10.3,1.2c0.2-2.6,0.4-5.4,0.9-8.3c0.4-2.9,0.9-6,1.3-9.3c1-5.7,1.6-10.2,2-13.4
			c0.3-3.2,0.1-5.6-0.7-7.1c-0.8-1.6-2.3-2.5-4.5-2.8c-2.2-0.3-5.3-0.5-9.2-0.5c0-1.8,0-3.5,0.1-5c0.1-1.6,0.5-3,1.3-4.3
			c2-0.2,4.4-0.6,7.5-1.3c3-0.7,6.1-1.6,9.3-2.6c3.2-1,6.2-2,9.2-3.1c2.9-1.1,5.3-2.1,7.1-3.1c4.9,1.6,6.6,6.9,5.1,15.7L404.2,776.7
			z M393.4,720.6c-4.2-1.6-9.2-2.5-14.9-2.5c-5.1,0-9.6,1-13.5,3.1c-3.9,2-7.3,4.9-10.3,8.5c-2.9,3.6-5.4,7.9-7.5,13
			c-2,5.1-3.6,10.6-4.8,16.7c-2.9,13.9-3.7,24.5-2.3,32c1.4,7.4,4.5,11.1,9.4,11.1c2.1,0,4.9-1.5,8.5-4.4c3.5-2.9,7.2-7.2,11-12.7
			c3.8-5.6,7.6-12.3,11.3-20.3c3.7-8,6.7-17.1,8.9-27.2L393.4,720.6z"/>
		<path fill="#32B493" d="M498,705.7c7,0,13.2,1.3,18.5,4c5.3,2.7,9.6,6.6,12.7,11.6c3.2,5.1,5.2,11.1,6.1,18.1
			c0.9,7,0.5,14.8-1.1,23.3c-1.6,9-4.3,17.1-8,24.4c-3.7,7.3-8.1,13.5-13.2,18.7c-5.1,5.2-10.9,9.3-17.4,12.1
			c-6.5,2.9-13.3,4.3-20.5,4.3c-7,0-13.1-1.3-18.3-3.9c-5.1-2.6-9.3-6.3-12.5-11.1c-3.2-4.8-5.2-10.6-6.1-17.4
			c-0.9-6.8-0.5-14.2,1.1-22.4c1.8-9.3,4.5-17.8,8.2-25.4c3.7-7.6,8.1-14.1,13.2-19.5c5.1-5.4,10.9-9.6,17.1-12.5
			C484.3,707.2,491,705.7,498,705.7z M494.8,717.7c-3.8,0-7.3,1.1-10.7,3.3c-3.3,2.2-6.5,5.4-9.4,9.4c-2.9,4.1-5.5,9-7.7,14.7
			c-2.2,5.7-4,12.1-5.3,19.1c-2.8,14-2.8,25.3,0,33.8c2.8,8.5,7.8,12.7,15.2,12.7c3.8,0,7.4-1.1,10.9-3.3c3.5-2.2,6.7-5.3,9.7-9.3
			c2.9-4,5.6-8.8,7.8-14.3c2.3-5.5,4.1-11.8,5.4-18.6c2.6-14.2,2.5-25.7-0.4-34.4C507.5,722.1,502.3,717.7,494.8,717.7z"/>
		<path fill="#32B493" d="M693.7,705.7c4.6,1.8,8.2,4.7,10.8,8.6c2.6,3.9,3.9,9.6,3.9,16.9c0,4.7-0.8,9.9-2.3,15.4
			c-1.6,5.6-4.4,12-8.6,19.2c-4.2,7.3-9.9,15.5-17.3,24.7c-7.3,9.2-16.8,19.8-28.4,31.7c-4.6,0.3-8.5-0.4-11.8-2.2
			c-0.8-10.6-1.8-20.5-3.1-29.8c-1.2-9.2-2.5-17.6-3.8-25.1c-1.8,4.9-3.8,9.5-6,13.8c-2.2,4.3-4.9,8.7-8.1,13.1
			c-3.2,4.4-7,9.1-11.4,14c-4.4,4.9-9.6,10.3-15.4,16.2c-4.6,0.3-8.5-0.4-11.8-2.2c-1-15.3-2.6-30-4.8-43.9c-2.2-13.9-4.5-25.9-7-36
			c-0.8-2.9-1.6-5.4-2.3-7.5c-0.7-2-1.7-3.7-2.9-4.9c-1.2-1.2-2.8-2-4.8-2.5c-2-0.4-4.5-0.5-7.6-0.4c0-0.7,0.1-2,0.2-4.2
			c0.2-2.1,0.5-3.8,1-5.1c4.1-0.5,8.5-1.8,13.4-3.9c4.8-2.1,8.5-4.2,11.1-6.1c2.3,0.8,4.1,1.8,5.5,2.8c1.4,1.1,2.5,2.6,3.4,4.7
			c0.9,2,1.7,4.6,2.3,7.7c0.6,3.1,1.5,7.1,2.5,12c1.1,5.7,2.2,11.6,3.2,17.8c1,6.1,1.9,12.2,2.7,18.1c0.8,6,1.5,11.7,2.1,17.1
			c0.6,5.5,1,10.4,1.3,14.8c6-7,11-13.8,14.9-20.2c3.9-6.4,6.7-13.1,8.5-20c1.7-6.9,2.4-14.1,2-21.7c-0.4-7.6-1.8-16-4.3-25.4
			c2.8-0.8,5.4-1.9,7.8-3.3c2.5-1.4,4.3-2.9,5.6-4.5c2,0.5,3.5,1.1,4.7,2c1.1,0.8,2.2,2.2,3.2,4c1,1.9,1.9,4.5,2.7,7.7
			c0.8,3.3,1.8,7.7,2.9,13.2c1.1,5.7,2.3,11.6,3.6,17.8c1.2,6.1,2.3,12.2,3.3,18.1c1,6,1.8,11.7,2.6,17.1c0.7,5.5,1.3,10.4,1.8,14.8
			c9.8-12.2,16.8-23.1,21.1-32.5c4.2-9.4,6.4-17.1,6.4-23.1c0-6.4-1.3-11.1-3.8-14.1c-2.5-3-6.5-4.9-11.9-5.5
			c-1.3-2.8-1.8-5.8-1.5-9.1c2.1-0.7,4.4-1.4,6.9-2.2c2.5-0.8,4.8-1.7,7-2.7c2.2-1,4.2-2,6.1-2.9
			C691.3,707.4,692.8,706.5,693.7,705.7z"/>
		<path fill="#32B493" d="M815.5,782.6c-1.3,5.6-2.3,9.9-2.9,13c-0.7,3.1-1,5.4-1.1,6.9c-0.1,1.5,0.2,2.4,0.7,2.7
			c0.6,0.3,1.3,0.5,2.3,0.5c1.8,0,4-0.8,6.7-2.3c2.7-1.6,5-3.3,7-5.3c2.3,2.3,3.8,4.9,4.4,7.8c-5.4,5.6-10.3,9.7-14.8,12.4
			c-4.5,2.7-8.9,4-13.4,4c-4.9,0-8.5-0.9-10.8-2.7c-2.3-1.8-3.7-4.4-4.3-7.8c-0.6-3.4-0.5-7.6,0.4-12.5c0.8-4.9,1.9-10.4,3.2-16.4
			l6.6-29.1c1.5-6.2,2.3-11.3,2.6-15.3c0.2-4,0.1-7.1-0.5-9.4c-0.6-2.3-1.6-3.9-2.9-4.8c-1.4-0.9-3-1.3-4.8-1.3
			c-2.5,0-5.7,1.6-9.7,4.8c-4,3.2-8,7.7-12.1,13.5c-4.1,5.8-7.9,12.7-11.5,20.7c-3.6,8-6.3,16.8-8.1,26.5l-6.1,31.8h-22.3l13.5-71.3
			c1-5.7,1.6-10.2,2-13.4c0.3-3.2,0.1-5.6-0.7-7.1c-0.8-1.5-2.3-2.5-4.5-2.8c-2.2-0.3-5.3-0.5-9.2-0.5c0-1.8,0-3.5,0.1-5
			c0.1-1.6,0.5-3,1.3-4.3c2-0.2,4.4-0.6,7.5-1.3c3-0.7,6.2-1.6,9.4-2.6c3.3-1,6.4-2,9.3-3.1c2.9-1.1,5.3-2.1,7.1-3.1
			c4.9,1.6,6.6,6.9,5.1,15.9c-1.3,7-2.7,12.9-4.3,17.5c-1.6,4.7-3.2,9-5,13.1h0.2l3.9-8.3c2-3.9,4.7-8.1,8.3-12.6
			c3.6-4.5,7.6-8.7,12.1-12.5c4.5-3.8,9.1-7,14-9.4c4.8-2.5,9.3-3.7,13.6-3.7c2.6,0,5.3,0.7,8,2c2.7,1.3,4.9,3.7,6.7,7.1
			c1.8,3.4,2.8,8.2,3.1,14.3c0.2,6.1-0.8,14-3.1,23.6L815.5,782.6z"/>
	</g>
	<g>
		<g>
			<path fill="#32B493" d="M369.6,984.8l-68.6,68.6c-0.9,0.9-2.2,1.5-3.4,1.5c-1.2,0-2.5-0.6-3.4-1.5l-68.6-68.6
				c-0.9-0.9-1.5-2.2-1.5-3.4c0-1.2,0.6-2.5,1.5-3.4l7.4-7.4c0.9-0.9,2.1-1.5,3.4-1.5c1.2,0,2.5,0.6,3.4,1.5l57.9,57.9l57.9-57.9
				c0.9-0.9,2.2-1.5,3.4-1.5c1.2,0,2.5,0.6,3.4,1.5l7.4,7.4c0.9,0.9,1.5,2.2,1.5,3.4C371.1,982.6,370.5,983.9,369.6,984.8z"/>
			<path fill="#32B493" d="M297.6,1061.4c-2.9,0-5.9-1.3-8-3.4L221,989.5c-2.1-2.1-3.4-5.1-3.4-8c0-2.9,1.3-5.9,3.4-8l7.4-7.4
				c2.2-2.2,5-3.4,8-3.4c2.9,0,5.9,1.3,8,3.4l53.2,53.2l53.2-53.2c2.1-2.1,5.1-3.4,8-3.4c2.9,0,5.9,1.3,8,3.4l7.4,7.4
				c2.1,2.1,3.4,5.1,3.4,8c0,2.9-1.3,5.9-3.4,8l-68.6,68.6C303.5,1060.2,300.5,1061.4,297.6,1061.4z M231.5,981.4l66.1,66.1
				l66.1-66.1l-4.9-4.9l-61.2,61.2l-61.2-61.2L231.5,981.4z"/>
		</g>
	</g>
</g>
</svg>
