<?xml version="1.0" encoding="utf-8"?>
<!-- Generator: Adobe Illustrator 18.0.0, SVG Export Plug-In . SVG Version: 6.00 Build 0)  -->
<!DOCTYPE svg PUBLIC "-//W3C//DTD SVG 1.1//EN" "http://www.w3.org/Graphics/SVG/1.1/DTD/svg11.dtd">
<svg version="1.1" id="Ebene_1" xmlns="http://www.w3.org/2000/svg" xmlns:xlink="http://www.w3.org/1999/xlink" x="0px" y="0px"
	 viewBox="0 0 181 236" style="enable-background:new 0 0 181 236;" xml:space="preserve">
<path style="fill:#37B293;" d="M148.3,0.7l-31,26.7c-47.5,0-54.7,0-54.7,0l-31-26.7V46l11.9,8.8c2.2-6.9,8.7-12,16.4-12
	c9.5,0,17.3,7.7,17.3,17.3c0,5.8-2.9,11-7.4,14.1L90,89l19.3-14.9c-4.4-3.1-7.3-8.3-7.3-14.1c0-9.5,7.7-17.3,17.3-17.3
	c7.4,0,13.7,4.6,16.1,11.2l12.9-10V0.7z"/>
<g>
	<path style="fill:#37B293;" d="M72.8,190.9l-23-18.6L0.9,133V70.1V7.2l48.9,38.6l48.9,38.6v63.7"/>
	<path style="fill:#37B293;" d="M82.6,148.1V84.4l48.9-38.6l48.9-38.6v62.9V133l-48.9,39.4L82.6,148.1z M98.6,92.2v43.1V156
		l27.4,0.2l5.5-4.4l32.9-26.5V82.8V40.2"/>
</g>
<path style="fill:none;stroke:#37B293;stroke-width:19;stroke-linecap:round;stroke-miterlimit:10;" d="M100.9,200.4
	c-10.3,1.8-20.2-5.2-21.9-15.5c-2.2-12.9,6.5-25.2,19.4-27.4c16.2-2.8,31.5,8.1,34.2,24.3c3.4,20.2-10.2,39.4-30.4,42.8
	c-25.3,4.3-49.2-12.7-53.5-37.9c-3.1-18.2,2.6-35.8,14.1-48.6"/>
</svg>
