<?xml version="1.0" encoding="utf-8"?>
<!-- Generator: Adobe Illustrator 18.0.0, SVG Export Plug-In . SVG Version: 6.00 Build 0)  -->
<!DOCTYPE svg PUBLIC "-//W3C//DTD SVG 1.1//EN" "http://www.w3.org/Graphics/SVG/1.1/DTD/svg11.dtd">
<svg version="1.1" id="Ebene_1" xmlns="http://www.w3.org/2000/svg" xmlns:xlink="http://www.w3.org/1999/xlink" x="0px" y="0px"
	 viewBox="0 0 595.3 841.9" enable-background="new 0 0 595.3 841.9" xml:space="preserve">
<g>
	<path fill="#FFFFFF" d="M487.2,36.2l-102,87.8c-156.2,0-179.9,0-179.9,0l-102-87.8v149l39.1,28.9c7.2-22.7,28.6-39.5,53.9-39.5
		c31.2,0,56.9,25.3,56.9,56.9c0,19.1-9.5,36.2-24.3,46.4l66.4,48.7l63.5-49c-14.5-10.2-24-27.3-24-46.4c0-31.2,25.3-56.9,56.9-56.9
		c24.3,0,45.1,15.1,53,36.8l42.4-32.9V36.2z"/>
	<g>
		<path fill="#FFFFFF" d="M238.9,661.7l-75.6-61.2L2.5,471.3V264.4V57.5l160.8,126.9l160.8,126.9v209.5"/>
		<path fill="#FFFFFF" d="M271.2,520.9V311.4L432,184.5L592.8,57.5v206.9v206.9L432,600.8L271.2,520.9z M323.8,337.1v141.7v68.1
			l90.1,0.7l18.1-14.5l108.2-87.2V306.2V166.1"/>
	</g>
	<path fill="#FFFFFF" d="M310,805.7c-37.8,0-74.7-11.5-105.9-33.9c-40.1-28.3-66.4-70.7-74.7-119.1c-11.5-67.4,8.2-135.2,53.9-185.8
		c11.5-12.8,31.2-13.8,44.1-2.3c12.8,11.5,13.8,31.2,2.3,44.1c-32.9,36.5-47,85.2-38.8,133.5c5.6,31.9,23,59.9,49.3,78.6
		c26.3,18.7,58.5,26,90.4,20.7c24-3.9,44.7-17.1,58.9-36.8S409,661,405,637c-6.2-36.2-40.5-60.5-76.6-54.3
		c-25.3,4.3-42.8,28.6-38.5,53.9c1.3,8.2,5.9,15.5,12.8,20.4c6.9,4.9,15.1,6.6,23.4,5.3c17.1-3,33.2,8.6,36.2,25.7
		c3,17.1-8.6,33.2-25.7,36.2c-24.7,4.3-49.7-1.3-70.1-15.8c-20.4-14.5-33.9-36.2-38.2-60.8c-10.2-59.5,29.9-116.1,89.5-126.3
		c70.1-11.8,136.8,35.5,148.7,105.6c6.9,40.5-2.3,80.9-26,114.5c-23.7,33.5-58.9,55.6-99.3,62.5C331,804.8,320.5,805.7,310,805.7z"
		/>
</g>
</svg>
