<svg version="1.1" id="Ebene_1" xmlns="http://www.w3.org/2000/svg" xmlns:xlink="http://www.w3.org/1999/xlink" x="0px" y="0px"
	 viewBox="0 0 451 451" style="enable-background:new 0 0 451 451;" xml:space="preserve">
<g>
	<defs>
		<circle id="SVGID_1_" cx="225.5" cy="225.5" r="225.5"/>
	</defs>
	<clipPath id="SVGID_2_">
		<use xlink:href="#SVGID_1_"  style="overflow:visible;"/>
	</clipPath>
	<g style="clip-path:url(#SVGID_2_);">
		<rect x="-148.4" y="-115" style="fill:#FFFFFF;" width="829" height="717"/>
		<g>
			<path style="fill:none;stroke:#00A99D;stroke-width:10;stroke-miterlimit:10;" class="stroke_pink"  d="M226,151.9c0,0-5.6-28,6.7-48
				c12.6-20.5,43.7-32.4,85.2,3.5c81.9,71,97.2-59.8,97.2-59.8"/>
			<g>
				<path style="fill:#00A99D;" class="fill_pink"  d="M294.4,211.2l0-6.1c0.1-35.7-29-65.1-64.8-65.2l-7.6,0c-35.7-0.1-65.1,29-65.2,64.8l0,6.7
					c2.7,1.5,18.9,9.8,42.2,14.1C232.8,231.6,264.9,226.8,294.4,211.2z"/>
				<path style="fill:#00A99D;" class="fill_pink" d="M226.8,238c-11.2,0-21.4-1.2-30-2.8c-18.7-3.5-32.8-9.3-40-12.7l-0.2,65.6
					c-0.1,35.7,29,65.1,64.8,65.2l7.6,0c35.7,0.1,65.1-29,65.2-64.8l0.2-66.1C270.2,234.2,246.8,238,226.8,238z"/>
				<path style="fill:#FFFFFF;" d="M225.4,212.7c4.8,0,8.8-4.9,8.8-11l0.1-28c0-6-3.9-11-8.8-11s-8.8,4.9-8.8,11l-0.1,28
					C216.7,207.7,220.6,212.6,225.4,212.7z"/>
			</g>
		</g>
	</g>
</g>
</svg>
